<svg width="20" height="20" viewBox="0 0 20 20" fill="none" xmlns="http://www.w3.org/2000/svg">
<g clip-path="url(#clip0)">
<path d="M10.2523 0.00416853C6.19068 -0.132709 2.85522 3.11898 2.85522 7.14965C2.85522 11.724 7.24505 15.0438 9.70554 19.818C9.83046 20.0604 10.1794 20.0608 10.3048 19.8184C12.5306 15.5225 16.3349 12.6419 17.04 8.50332C17.77 4.22071 14.5941 0.150548 10.2523 0.00416853ZM10.0048 10.8947C7.93652 10.8947 6.2598 9.21789 6.2598 7.14965C6.2598 5.08142 7.93656 3.40466 10.0048 3.40466C12.0731 3.40466 13.7498 5.08142 13.7498 7.14965C13.7498 9.21789 12.0731 10.8947 10.0048 10.8947Z" fill="#AE0F0A"/>
</g>
<defs>
<clipPath id="clip0">
<rect width="20" height="20" fill="white"/>
</clipPath>
</defs>
</svg>
