<svg width="40" height="40" viewBox="0 0 40 40" fill="none" xmlns="http://www.w3.org/2000/svg">
<circle r="20" transform="matrix(-1 0 0 1 20 20)" fill="white"/>
<g clip-path="url(#clip0)">
<path d="M11.1099 19.7349L16.7349 14.1099C16.8814 13.9634 17.1187 13.9634 17.2651 14.1099C17.4116 14.2564 17.4116 14.4937 17.2651 14.6401L12.2802 19.625H28.625C28.8323 19.625 29 19.7927 29 20C29 20.2073 28.8323 20.375 28.625 20.375H12.2802L17.2651 25.3599C17.4116 25.5064 17.4116 25.7437 17.2651 25.8901C17.1919 25.9634 17.0959 26 17 26C16.904 26 16.8081 25.9634 16.7348 25.8901L11.1098 20.2651C10.9634 20.1187 10.9634 19.8814 11.1099 19.7349Z" fill="#221F20"/>
</g>
<defs>
<clipPath id="clip0">
<rect width="18" height="18" fill="white" transform="matrix(-1 0 0 1 29 11)"/>
</clipPath>
</defs>
</svg>
