<svg width="40" height="40" viewBox="0 0 40 40" fill="none" xmlns="http://www.w3.org/2000/svg">
<circle cx="20" cy="20" r="20" fill="white"/>
<g clip-path="url(#clip0)">
<path d="M28.8901 19.7349L23.2651 14.1099C23.1186 13.9634 22.8813 13.9634 22.7349 14.1099C22.5884 14.2564 22.5884 14.4937 22.7349 14.6401L27.7198 19.625H11.375C11.1677 19.625 11 19.7927 11 20C11 20.2073 11.1677 20.375 11.375 20.375H27.7198L22.7349 25.3599C22.5884 25.5064 22.5884 25.7437 22.7349 25.8901C22.8081 25.9634 22.9041 26 23 26C23.096 26 23.1919 25.9634 23.2652 25.8901L28.8902 20.2651C29.0366 20.1187 29.0366 19.8814 28.8901 19.7349Z" fill="#221F20"/>
</g>
<defs>
<clipPath id="clip0">
<rect width="18" height="18" fill="white" transform="translate(11 11)"/>
</clipPath>
</defs>
</svg>
