<svg width="36" height="35" viewBox="0 0 36 35" fill="none" xmlns="http://www.w3.org/2000/svg">
<circle cx="17.9546" cy="17.5" r="17" stroke="white"/>
<g clip-path="url(#clip0)">
<path d="M19.5678 14.0748C19.5862 14.054 19.6721 13.9863 20.0097 13.9863L21.1165 13.9859C21.4766 13.9859 21.7694 13.6929 21.7694 13.3329V11.3983C21.7694 11.0389 21.477 10.746 21.1176 10.7453L19.4735 10.7427C18.4588 10.7427 17.5962 11.0774 16.9789 11.7108C16.3645 12.3413 16.0396 13.2214 16.0396 14.256V15.2993H14.7819C14.4218 15.2993 14.1289 15.5922 14.1289 15.9523V18.0358C14.1289 18.3958 14.4218 18.6888 14.7819 18.6888H16.0396V23.5513C16.0396 23.9113 16.3325 24.2042 16.6926 24.2042H18.8483C19.2084 24.2042 19.5013 23.9113 19.5013 23.5513V18.6889H21.0387C21.3988 18.6889 21.6916 18.3958 21.6916 18.036L21.6924 15.9524C21.6924 15.7159 21.5637 15.497 21.3565 15.3813C21.2604 15.3277 21.1487 15.2993 21.0335 15.2993H19.5013V14.475C19.5013 14.2064 19.5375 14.1091 19.5678 14.0748Z" fill="white"/>
</g>
<defs>
<clipPath id="clip0">
<rect width="13.4353" height="13.4615" fill="white" transform="translate(11.2236 10.769)"/>
</clipPath>
</defs>
</svg>
