<svg width="35" height="35" viewBox="0 0 35 35" fill="none" xmlns="http://www.w3.org/2000/svg">
<circle cx="17.5" cy="17.5" r="17" stroke="white"/>
<g clip-path="url(#clip0)">
<path d="M20.5866 10.769H14.413C12.4037 10.769 10.769 12.4037 10.769 14.413V20.5867C10.769 22.5959 12.4037 24.2306 14.413 24.2306H20.5867C22.5959 24.2306 24.2306 22.5959 24.2306 20.5867V14.413C24.2306 12.4037 22.5959 10.769 20.5866 10.769V10.769ZM17.4998 21.1806C15.4702 21.1806 13.819 19.5294 13.819 17.4998C13.819 15.4702 15.4702 13.819 17.4998 13.819C19.5294 13.819 21.1806 15.4702 21.1806 17.4998C21.1806 19.5294 19.5294 21.1806 17.4998 21.1806ZM21.2686 14.6871C20.6688 14.6871 20.181 14.1992 20.181 13.5994C20.181 12.9997 20.6688 12.5117 21.2686 12.5117C21.8684 12.5117 22.3563 12.9997 22.3563 13.5994C22.3563 14.1992 21.8684 14.6871 21.2686 14.6871Z" fill="white"/>
<path d="M17.4998 14.6082C15.9054 14.6082 14.6082 15.9053 14.6082 17.4998C14.6082 19.0941 15.9054 20.3914 17.4998 20.3914C19.0942 20.3914 20.3914 19.0941 20.3914 17.4998C20.3914 15.9053 19.0942 14.6082 17.4998 14.6082Z" fill="white"/>
<path d="M21.2687 13.301C21.1041 13.301 20.9702 13.435 20.9702 13.5995C20.9702 13.764 21.1041 13.8979 21.2687 13.8979C21.4333 13.8979 21.5672 13.7641 21.5672 13.5995C21.5672 13.4348 21.4333 13.301 21.2687 13.301Z" fill="white"/>
</g>
<defs>
<clipPath id="clip0">
<rect width="13.4615" height="13.4615" fill="white" transform="translate(10.769 10.769)"/>
</clipPath>
</defs>
</svg>
