<svg width="85" height="85" viewBox="0 0 85 85" fill="none" xmlns="http://www.w3.org/2000/svg">
<g clip-path="url(#clip0)">
<path d="M49.3366 84.4537C72.5033 80.6725 88.2184 58.8268 84.4371 35.66C80.6559 12.4933 58.8102 -3.2218 35.6434 0.559447C12.4767 4.3407 -3.2384 26.1864 0.542848 49.3532C4.3241 72.5199 26.1698 88.235 49.3366 84.4537Z" fill="#AE0F0A"/>
<path d="M13.8194 49.6529H9.34131V34.4397H10.4918V48.6351H13.8194V49.6529Z" fill="white"/>
<path d="M19.1029 45.5907H16.5983V45.5686L15.9523 49.6529H14.8018L17.147 34.4397H18.4745L20.8463 49.6529H19.7135L19.0852 45.5686L19.1029 45.5907ZM18.386 40.8515L17.8417 36.3513L17.2798 40.8515L16.7311 44.5376H18.9701L18.386 40.8515Z" fill="white"/>
<path d="M31.8824 49.6529H30.8204L27.6211 40.3604L26.6874 37.1876L26.86 40.4887V49.6396H25.7095V34.4397H26.798L30.0548 44.0021L30.9398 47.0244L30.7673 43.8738V34.4397H31.8824V49.6529Z" fill="white"/>
<path d="M33.8823 46.6527V37.4575C33.8823 35.8247 34.9045 34.3025 36.9046 34.3025C38.7321 34.3025 39.7941 35.7804 39.7941 37.4752V46.6306C39.7941 48.2369 38.8383 49.8033 36.9046 49.8033C34.9709 49.8033 33.8823 48.374 33.8823 46.6527ZM35.0328 37.462V46.6527C35.0328 47.7634 35.6214 48.7634 36.9046 48.7634C38.0994 48.7634 38.6746 47.7855 38.6746 46.635V37.4796C38.6746 36.4176 38.1303 35.3291 36.9046 35.3291C35.6789 35.3291 35.0328 36.2849 35.0328 37.4575V37.462Z" fill="white"/>
<path d="M48.0114 49.6529H46.9273L43.7324 40.3604L42.7987 37.1876L42.9713 40.4887V49.6396H41.8208V34.4397H42.9447L46.206 44.0021L47.091 47.0244L46.9184 43.8738V34.4397H48.0468L48.0114 49.6529Z" fill="white"/>
<path d="M56.4056 49.6529H55.3348L52.1399 40.3604L51.2018 37.1876L51.3788 40.4887V49.6396H50.2239V34.4397H51.3124L54.5737 44.0021L55.4587 47.0244L55.2861 43.8738V34.4397H56.4189L56.4056 49.6529Z" fill="white"/>
<path d="M58.6006 34.4397H59.7599V49.6529H58.6094L58.6006 34.4397Z" fill="white"/>
<path d="M68.0125 49.6529H66.9461L63.7512 40.3604L62.8175 37.1876L62.9901 40.4887V49.6396H61.8396V34.4397H62.9237L66.185 44.0021L67.07 47.0244L66.893 43.8738V34.4397H68.0258L68.0125 49.6529Z" fill="white"/>
<path d="M73.9199 45.5907H71.4198V45.5686L70.7914 49.6529H69.6365L71.9862 34.4397H73.3137L75.6855 49.6529H74.5571L73.9199 45.5686V45.5907ZM73.203 40.8515L72.6587 36.3513L72.1145 40.8515L71.5348 44.5376H73.7738L73.203 40.8515Z" fill="white"/>
<path d="M43.6838 56.7992C43.4935 56.9629 43.3032 57.1399 43.2944 57.2992V57.8833H44.0997V58.0736H43.0864V57.2992C43.0864 57.0647 43.3386 56.8567 43.5555 56.662C43.7723 56.4673 43.8962 56.3877 43.8962 56.2505V55.808C43.8962 55.5513 43.7413 55.4761 43.5997 55.4761C43.4581 55.4761 43.2988 55.6221 43.2988 55.8213V56.0425H43.1041V55.8301C43.0977 55.7624 43.1059 55.6941 43.1282 55.6299C43.1505 55.5656 43.1864 55.507 43.2334 55.4578C43.2805 55.4087 43.3375 55.3703 43.4007 55.3452C43.4639 55.3201 43.5318 55.3089 43.5997 55.3124C43.667 55.3091 43.7342 55.3201 43.797 55.3447C43.8597 55.3692 43.9166 55.4067 43.9638 55.4548C44.011 55.5028 44.0475 55.5603 44.0709 55.6235C44.0944 55.6866 44.1042 55.754 44.0997 55.8213V56.2638C44.0997 56.485 43.8918 56.6178 43.6838 56.7992Z" fill="white"/>
<path d="M44.4229 57.5294V55.8611C44.4161 55.7864 44.4249 55.7111 44.4489 55.64C44.4728 55.569 44.5113 55.5036 44.5619 55.4482C44.6125 55.3929 44.674 55.3486 44.7427 55.3183C44.8113 55.2881 44.8855 55.2725 44.9605 55.2725C45.0355 55.2725 45.1097 55.2881 45.1783 55.3183C45.247 55.3486 45.3085 55.3929 45.3591 55.4482C45.4097 55.5036 45.4482 55.569 45.4721 55.64C45.4961 55.7111 45.5049 55.7864 45.4981 55.8611V57.5249C45.5043 57.5979 45.4952 57.6714 45.4715 57.7407C45.4479 57.81 45.4101 57.8737 45.3607 57.9277C45.3112 57.9818 45.2511 58.025 45.1842 58.0547C45.1172 58.0843 45.0448 58.0998 44.9716 58.1002C44.8973 58.1015 44.8235 58.0875 44.7548 58.059C44.6862 58.0305 44.6241 57.9881 44.5726 57.9345C44.5211 57.881 44.4812 57.8173 44.4555 57.7476C44.4297 57.6779 44.4186 57.6036 44.4229 57.5294ZM44.6308 55.8611V57.5294C44.6292 57.6118 44.6507 57.693 44.6928 57.7639L45.1087 55.5027C45.0658 55.4826 45.019 55.472 44.9716 55.4717C44.737 55.4717 44.6308 55.6443 44.6308 55.8611ZM45.2326 55.6222L44.8211 57.8834C44.8685 57.904 44.92 57.9131 44.9716 57.9099C45.1884 57.9099 45.2946 57.7329 45.2946 57.5249V55.8611C45.297 55.7772 45.2755 55.6943 45.2326 55.6222Z" fill="white"/>
<path d="M46.1927 58.0737H45.9891V55.4983H45.759V55.3125H46.2015L46.1927 58.0737Z" fill="white"/>
<path d="M47.0424 58.0958C46.9699 58.0942 46.8985 58.0778 46.8326 58.0476C46.7667 58.0174 46.7076 57.974 46.6591 57.9201C46.6106 57.8662 46.5737 57.803 46.5506 57.7342C46.5274 57.6655 46.5186 57.5928 46.5247 57.5205V57.3701H46.7238V57.5028C46.7238 57.7152 46.8344 57.8878 47.0424 57.8878C47.0911 57.8888 47.1394 57.8793 47.1841 57.86C47.2288 57.8407 47.2689 57.8121 47.3016 57.776C47.3343 57.74 47.3589 57.6973 47.3737 57.651C47.3885 57.6046 47.3933 57.5556 47.3876 57.5072V56.8081C47.3595 56.8781 47.3113 56.9381 47.2491 56.9807C47.1868 57.0232 47.1134 57.0463 47.038 57.047C46.6574 57.047 46.5203 56.6753 46.5203 56.3523V55.9629C46.5203 55.631 46.6751 55.2859 47.0601 55.2859C47.4451 55.2859 47.5867 55.6089 47.5867 55.9673V57.5072C47.5957 57.5829 47.5882 57.6597 47.5647 57.7322C47.5412 57.8047 47.5022 57.8712 47.4504 57.9271C47.3987 57.9831 47.3354 58.0272 47.2649 58.0563C47.1945 58.0854 47.1186 58.0989 47.0424 58.0958ZM47.0424 55.4939C46.8035 55.4939 46.7061 55.7461 46.7061 55.9806V56.37C46.7061 56.5647 46.7636 56.8745 47.0424 56.8745C47.3212 56.8745 47.361 56.5736 47.361 56.3656V55.985C47.3699 55.7505 47.3123 55.4939 47.0601 55.4939H47.0424Z" fill="white"/>
<path d="M23.5146 27.6208L23.1473 27.342C23.1237 27.322 23.0961 27.3072 23.0664 27.2988C23.0366 27.2903 23.0054 27.2883 22.9748 27.2929C22.9442 27.2975 22.9149 27.3086 22.8889 27.3255C22.863 27.3424 22.8409 27.3646 22.8243 27.3907L22.603 27.6871L23.1517 28.0987L23.0323 28.258L20.9348 26.6782L21.2224 26.2977C21.2597 26.2377 21.3101 26.1868 21.3698 26.149C21.4295 26.1112 21.497 26.0873 21.5672 26.0793C21.6374 26.0712 21.7085 26.0791 21.7753 26.1023C21.842 26.1256 21.9026 26.1636 21.9526 26.2136L22.6517 26.7402C22.718 26.7926 22.7706 26.8601 22.8053 26.9371C22.8399 27.0141 22.8556 27.0984 22.8508 27.1827C22.9134 27.1429 22.987 27.124 23.0609 27.1288C23.1349 27.1336 23.2055 27.1617 23.2624 27.2092L23.6297 27.4836L23.5146 27.6208ZM22.6296 27.3597C22.6781 27.2851 22.6951 27.1943 22.6769 27.1073C22.6586 27.0202 22.6066 26.9439 22.5322 26.8951L21.8375 26.3685C21.8063 26.3353 21.7681 26.3096 21.7257 26.2931C21.6833 26.2766 21.6377 26.2698 21.5923 26.2732C21.5469 26.2766 21.5029 26.2901 21.4634 26.3127C21.4239 26.3353 21.3899 26.3665 21.364 26.4039L21.1959 26.6251L22.4614 27.5809L22.6296 27.3597Z" fill="white"/>
<path d="M22.8464 24.3465L22.9792 24.2004L24.9129 25.9704L24.7757 26.1165L22.8464 24.3465Z" fill="white"/>
<path d="M25.7889 24.342L25.6208 24.1517L25.7668 24.019L25.935 24.2093C25.9611 24.2488 25.9954 24.2822 26.0355 24.3074C26.0757 24.3325 26.1207 24.3488 26.1677 24.3551C26.2146 24.3614 26.2624 24.3575 26.3077 24.3438C26.3531 24.3301 26.3949 24.3069 26.4306 24.2756C26.4653 24.2453 26.4931 24.2079 26.5122 24.1659C26.5313 24.124 26.5412 24.0784 26.5412 24.0323C26.5412 23.9862 26.5313 23.9406 26.5122 23.8986C26.4931 23.8566 26.4653 23.8192 26.4306 23.7889L26.3155 23.6606C26.2005 23.5322 26.0412 23.5853 25.8376 23.6296C25.6341 23.6738 25.3287 23.7623 25.1119 23.5499L24.7579 23.1605C24.705 23.117 24.662 23.0626 24.6319 23.001C24.6019 22.9394 24.5854 22.8721 24.5837 22.8036C24.5819 22.735 24.5949 22.667 24.6218 22.6039C24.6487 22.5409 24.6888 22.4843 24.7395 22.4382C24.7901 22.392 24.8501 22.3573 24.9154 22.3363C24.9807 22.3154 25.0497 22.3087 25.1177 22.3168C25.1858 22.3249 25.2513 22.3475 25.3099 22.3832C25.3684 22.4188 25.4186 22.4666 25.4571 22.5233L25.6872 22.78L25.5411 22.9083L25.3199 22.6561C25.1871 22.5101 25.0234 22.4393 24.8774 22.572C24.7314 22.7048 24.7446 22.8464 24.9084 23.0145L25.2535 23.3995C25.3774 23.5234 25.5544 23.4924 25.727 23.4526C26.0279 23.3862 26.2713 23.311 26.4483 23.5057L26.5766 23.6517C26.6292 23.6978 26.6714 23.7546 26.7003 23.8184C26.7292 23.8821 26.7441 23.9512 26.7441 24.0212C26.7441 24.0912 26.7292 24.1603 26.7003 24.2241C26.6714 24.2878 26.6292 24.3446 26.5766 24.3907C26.5249 24.4455 26.4619 24.4883 26.3918 24.516C26.3218 24.5437 26.2465 24.5556 26.1713 24.551C26.0962 24.5464 26.0229 24.5252 25.9569 24.4891C25.8908 24.453 25.8334 24.4028 25.7889 24.342Z" fill="white"/>
<path d="M27.1784 20.7224L28.6121 22.7136L28.4573 22.8242L27.0147 20.8374L26.7182 21.0498L26.6165 20.9126L27.3643 20.3728L27.4661 20.51L27.1784 20.7224Z" fill="white"/>
<path d="M30.0326 21.1558L29.2272 19.7575C29.1825 19.6992 29.1508 19.632 29.1343 19.5604C29.1177 19.4888 29.1168 19.4145 29.1314 19.3425C29.1461 19.2705 29.176 19.2025 29.2192 19.1431C29.2625 19.0836 29.3179 19.0342 29.3819 18.998C29.4459 18.9619 29.5169 18.9399 29.5901 18.9336C29.6633 18.9272 29.737 18.9367 29.8062 18.9613C29.8755 18.9859 29.9386 19.025 29.9914 19.0761C30.0442 19.1272 30.0854 19.1891 30.1122 19.2575L30.8955 20.6293C30.9353 20.6863 30.9628 20.7511 30.9762 20.8195C30.9895 20.8878 30.9884 20.9582 30.973 21.0261C30.9576 21.094 30.9282 21.1579 30.8866 21.2138C30.8451 21.2696 30.7923 21.3162 30.7317 21.3505C30.6732 21.3842 30.6085 21.4059 30.5415 21.4144C30.4745 21.4228 30.4064 21.4178 30.3414 21.3997C30.2763 21.3816 30.2155 21.3507 30.1625 21.3088C30.1094 21.267 30.0653 21.2149 30.0326 21.1558ZM29.4219 19.6779L30.2052 21.0585C30.2224 21.1008 30.2485 21.1389 30.2817 21.1703C30.315 21.2016 30.3546 21.2254 30.3978 21.2401C30.4411 21.2548 30.487 21.26 30.5324 21.2554C30.5779 21.2508 30.6218 21.2365 30.6612 21.2134C30.7007 21.1903 30.7347 21.159 30.7609 21.1217C30.7872 21.0843 30.8051 21.0417 30.8135 20.9968C30.8219 20.9519 30.8205 20.9057 30.8094 20.8614C30.7984 20.817 30.7779 20.7756 30.7494 20.7399L29.9706 19.3681C29.9529 19.3278 29.9274 19.2914 29.8954 19.261C29.8635 19.2306 29.8258 19.2069 29.7846 19.1913C29.7435 19.1756 29.6996 19.1683 29.6555 19.1698C29.6115 19.1713 29.5682 19.1816 29.5281 19.2C29.4866 19.2214 29.4503 19.2516 29.4218 19.2886C29.3933 19.3256 29.3732 19.3684 29.3631 19.414C29.353 19.4596 29.353 19.5069 29.3632 19.5525C29.3733 19.5981 29.3934 19.6409 29.4219 19.6779Z" fill="white"/>
<path d="M33.5019 19.9923L33.3205 19.5719C33.3097 19.5429 33.2928 19.5167 33.2709 19.4948C33.2491 19.4729 33.2229 19.456 33.1939 19.4451C33.165 19.4342 33.1341 19.4296 33.1033 19.4316C33.0725 19.4337 33.0424 19.4423 33.0152 19.4568L32.6745 19.6028L32.9444 20.2312L32.763 20.3109L31.7319 17.8992L32.1744 17.7134C32.2362 17.6795 32.3049 17.66 32.3753 17.6566C32.4457 17.6531 32.516 17.6657 32.5808 17.6934C32.6456 17.7211 32.7032 17.7632 32.7493 17.8165C32.7955 17.8698 32.8289 17.9329 32.847 18.001L33.1922 18.8064C33.2204 18.8779 33.2319 18.955 33.2258 19.0317C33.2196 19.1084 33.196 19.1827 33.1568 19.2489C33.2308 19.245 33.3041 19.2648 33.3662 19.3054C33.4282 19.3459 33.4758 19.4052 33.5019 19.4745L33.6834 19.917L33.5019 19.9923ZM32.8603 19.3285C32.9379 19.2886 32.9969 19.2202 33.025 19.1377C33.053 19.0551 33.0479 18.9649 33.0108 18.886L32.6656 18.0851C32.6555 18.039 32.6348 17.9959 32.6052 17.9591C32.5756 17.9223 32.5379 17.8929 32.495 17.8732C32.4521 17.8535 32.4053 17.844 32.3581 17.8454C32.3109 17.8469 32.2647 17.8592 32.2231 17.8815L31.9709 17.9922L32.5948 19.448L32.8603 19.3285Z" fill="white"/>
<path d="M35.7453 18.4612L35.3337 18.5851L35.4311 19.2887L35.2408 19.3462L34.8735 16.7177L35.0904 16.6514L36.2409 19.0453L36.055 19.1028L35.7453 18.4568V18.4612ZM35.3913 17.7178L35.0771 17.0009L35.2143 17.7709L35.3028 18.4081L35.6745 18.2975L35.3913 17.7178Z" fill="white"/>
<path d="M38.9624 18.4568L38.7809 18.4877L37.9535 17.0098L37.6968 16.5009L37.8296 17.0585L38.1083 18.6072L37.9136 18.6426L37.4446 16.0628L37.6304 16.0319L38.48 17.5541L38.719 18.0364L38.5907 17.5098L38.303 15.908L38.4933 15.8726L38.9624 18.4568Z" fill="white"/>
<path d="M40.9846 15.7751L41.1571 18.2222H40.9669L40.7943 15.7751L40.427 15.8017V15.6291L41.3474 15.5627V15.7353L40.9846 15.7751Z" fill="white"/>
<path d="M43.4272 17.2885H43.9936V17.461H43.4272V17.9876L44.1396 18.0097V18.1867L43.228 18.1558L43.3121 15.5317L44.2237 15.5627V15.7353L43.5112 15.7132L43.4272 17.2885Z" fill="white"/>
<path d="M48.3211 16.0938L48.5158 16.138L47.9716 18.7045L47.7769 18.6602L48.3211 16.0938Z" fill="white"/>
<path d="M50.8302 16.9256L50.1089 19.2665L49.9231 19.2089L50.6488 16.8681L50.2992 16.7575L50.3479 16.5938L51.2329 16.8681L51.1842 17.0318L50.8302 16.9256Z" fill="white"/>
<path d="M52.8923 19.5585L52.4941 19.3903L52.1179 19.9965L51.9365 19.9169L53.3437 17.6646L53.5517 17.7575L52.8923 20.3284L52.7153 20.2532L52.8923 19.5629V19.5585ZM53.1003 18.762L53.3215 18.0097L52.9277 18.6867L52.587 19.2354L52.941 19.3859L53.1003 18.762Z" fill="white"/>
<path d="M55.0916 21.4612L54.4146 21.0851L55.6978 18.7974L55.8704 18.8903L54.6756 21.0276L55.1757 21.3063L55.0916 21.4612Z" fill="white"/>
<path d="M58.0163 20.2002L58.18 20.3108L56.6977 22.4747L56.5339 22.364L58.0163 20.2002Z" fill="white"/>
<path d="M59.0695 23.426L58.7376 23.1517L58.2022 23.6207L58.0518 23.4968L60.043 21.7268L60.22 21.8773L58.8748 24.1827L58.7244 24.0588L59.0916 23.4481L59.0695 23.426ZM59.512 22.7224L59.9545 22.0631L59.3837 22.5985L58.9014 23.041L59.1978 23.2888L59.512 22.7224Z" fill="white"/>
<path d="M60.8307 26.0942L60.7068 25.9614L61.4856 24.4614L61.7688 23.9658L61.375 24.3817L60.2334 25.4703L60.0962 25.3242L61.9945 23.5144L62.1273 23.6516L61.3219 25.1959L61.0476 25.665L61.4193 25.2667L62.5963 24.1428L62.7291 24.2844L60.8307 26.0942Z" fill="white"/>
<path d="M62.4148 27.1386L63.6759 26.1828C63.7295 26.1363 63.7921 26.1015 63.8599 26.0806C63.9276 26.0598 63.999 26.0533 64.0694 26.0616C64.1398 26.07 64.2077 26.0929 64.2687 26.129C64.3298 26.1651 64.3826 26.2136 64.4238 26.2713C64.465 26.3268 64.4945 26.3903 64.5102 26.4576C64.5259 26.525 64.5276 26.5949 64.5151 26.663C64.5027 26.731 64.4763 26.7958 64.4378 26.8533C64.3992 26.9108 64.3493 26.9597 64.291 26.997L63.0299 27.9484C62.9782 27.9952 62.9175 28.0308 62.8514 28.053C62.7853 28.0752 62.7153 28.0834 62.6458 28.0771C62.5764 28.0709 62.509 28.0503 62.4479 28.0167C62.3868 27.9832 62.3334 27.9373 62.2909 27.882C62.2476 27.826 62.2162 27.7617 62.1989 27.6931C62.1816 27.6245 62.1787 27.553 62.1903 27.4832C62.202 27.4134 62.2279 27.3467 62.2665 27.2874C62.3052 27.2281 62.3557 27.1774 62.4148 27.1386ZM63.7954 26.3421L62.5166 27.2802C62.4756 27.3017 62.4398 27.3319 62.4117 27.3687C62.3835 27.4055 62.3638 27.448 62.3537 27.4932C62.3437 27.5385 62.3437 27.5853 62.3536 27.6305C62.3635 27.6758 62.3832 27.7183 62.4113 27.7552C62.4393 27.792 62.4751 27.8223 62.516 27.8439C62.557 27.8656 62.6021 27.878 62.6484 27.8804C62.6946 27.8828 62.7408 27.8751 62.7838 27.8578C62.8268 27.8404 62.8654 27.814 62.8971 27.7802L64.1538 26.8288C64.1947 26.8075 64.2304 26.7775 64.2585 26.741C64.2866 26.7044 64.3064 26.6622 64.3167 26.6173C64.3269 26.5724 64.3273 26.5258 64.3177 26.4807C64.3082 26.4356 64.289 26.3931 64.2614 26.3562C64.2339 26.3192 64.1987 26.2887 64.1582 26.2667C64.1177 26.2447 64.0729 26.2317 64.0269 26.2287C63.9809 26.2257 63.9348 26.2327 63.8918 26.2492C63.8488 26.2657 63.8099 26.2914 63.7777 26.3244L63.7954 26.3421Z" fill="white"/>
<path d="M21.5235 59.6579L21.8863 59.3702C21.9108 59.3518 21.9311 59.3285 21.9459 59.3016C21.9607 59.2748 21.9696 59.2452 21.9721 59.2147C21.9746 59.1842 21.9706 59.1535 21.9604 59.1246C21.9502 59.0957 21.934 59.0694 21.9129 59.0472L21.6828 58.7596L21.1473 59.2021L21.0234 59.0472L23.0678 57.4055L23.3643 57.7772C23.4181 57.8254 23.4593 57.886 23.4843 57.9537C23.5094 58.0214 23.5174 58.0943 23.5078 58.1659C23.4982 58.2374 23.4712 58.3056 23.4293 58.3643C23.3873 58.4231 23.3315 58.4707 23.2669 58.5029L22.5899 59.0383C22.5281 59.0864 22.4559 59.1195 22.3791 59.1348C22.3023 59.1502 22.223 59.1475 22.1474 59.1269C22.1697 59.1984 22.1694 59.275 22.1464 59.3463C22.1234 59.4176 22.079 59.4801 22.0191 59.5251L21.6606 59.8127L21.5235 59.6579ZM21.9925 58.8658C22.0525 58.9312 22.136 58.9703 22.2247 58.9744C22.3134 58.9786 22.4001 58.9475 22.466 58.8879L23.1474 58.3436C23.1873 58.3214 23.2216 58.2905 23.248 58.2532C23.2743 58.2159 23.2919 58.1732 23.2996 58.1282C23.3072 58.0832 23.3047 58.037 23.2921 57.9931C23.2796 57.9493 23.2574 57.9087 23.2271 57.8746L23.0545 57.6577L21.8199 58.649L21.9925 58.8658Z" fill="white"/>
<path d="M24.8733 59.4678L25.0105 59.6094L23.1343 61.4458L22.9927 61.2997L24.8733 59.4678Z" fill="white"/>
<path d="M24.9174 62.4147L25.0812 62.22L25.2316 62.3439L25.0679 62.5386C25.0322 62.5698 25.0036 62.6082 24.984 62.6513C24.9644 62.6944 24.9543 62.7413 24.9543 62.7886C24.9543 62.836 24.9644 62.8828 24.984 62.9259C25.0036 62.9691 25.0322 63.0075 25.0679 63.0386C25.1037 63.0674 25.1453 63.0881 25.1897 63.0995C25.2342 63.1109 25.2806 63.1127 25.3259 63.1047C25.3711 63.0968 25.4141 63.0793 25.452 63.0534C25.4899 63.0275 25.5219 62.9938 25.5458 62.9546L25.6564 62.8218C25.7715 62.6891 25.6962 62.5386 25.621 62.3483C25.5458 62.1581 25.4219 61.8572 25.5989 61.6138L25.9352 61.2111C25.9723 61.1533 26.0214 61.1041 26.0793 61.067C26.1371 61.0298 26.2022 61.0056 26.2703 60.996C26.3383 60.9863 26.4077 60.9914 26.4735 61.011C26.5394 61.0306 26.6003 61.0641 26.652 61.1093C26.702 61.1538 26.7421 61.2083 26.7695 61.2693C26.7969 61.3303 26.8111 61.3964 26.8111 61.4633C26.8111 61.5302 26.7969 61.5964 26.7695 61.6574C26.7421 61.7184 26.702 61.7729 26.652 61.8173L26.4352 62.0784L26.2892 61.9545L26.506 61.6979C26.6299 61.5474 26.6786 61.3748 26.5281 61.2554C26.3777 61.1359 26.2361 61.1624 26.0856 61.3483L25.7538 61.7465C25.7135 61.8198 25.6924 61.9019 25.6924 61.9855C25.6924 62.069 25.7135 62.1512 25.7538 62.2244C25.8644 62.5076 25.9706 62.7377 25.798 62.9413L25.6785 63.0873C25.6393 63.146 25.5881 63.1956 25.5282 63.2329C25.4682 63.2702 25.4011 63.2942 25.3311 63.3035C25.2611 63.3127 25.19 63.3068 25.1225 63.2864C25.055 63.2659 24.9926 63.2312 24.9396 63.1847C24.8835 63.1381 24.8381 63.0801 24.8062 63.0146C24.7743 62.9491 24.7567 62.8775 24.7546 62.8047C24.7525 62.7319 24.7659 62.6594 24.794 62.5922C24.8221 62.5249 24.8642 62.4644 24.9174 62.4147Z" fill="white"/>
<path d="M28.6963 62.8881L27.3202 64.9192L27.1653 64.813L28.537 62.782L28.2317 62.5784L28.3291 62.4324L29.0946 62.9501L28.9972 63.0917L28.6963 62.8881Z" fill="white"/>
<path d="M29.5017 65.6582L30.2451 64.2555C30.2741 64.1906 30.3163 64.1325 30.3691 64.085C30.4219 64.0374 30.484 64.0014 30.5515 63.9793C30.6191 63.9572 30.6905 63.9495 30.7612 63.9567C30.8319 63.9639 30.9003 63.9858 30.962 64.021C31.0234 64.0538 31.0772 64.099 31.1201 64.1539C31.163 64.2087 31.194 64.2719 31.2111 64.3393C31.2281 64.4068 31.2309 64.4771 31.2193 64.5457C31.2076 64.6143 31.1818 64.6798 31.1434 64.7378L30.4044 66.1317C30.3775 66.1956 30.3375 66.2533 30.2871 66.3009C30.2367 66.3486 30.1769 66.3852 30.1116 66.4085C30.0463 66.4318 29.9768 66.4413 29.9076 66.4363C29.8384 66.4313 29.771 66.412 29.7097 66.3795C29.6464 66.3481 29.5904 66.3039 29.5452 66.2497C29.4999 66.1955 29.4665 66.1325 29.4469 66.0647C29.4274 65.9968 29.4221 65.9257 29.4316 65.8557C29.441 65.7857 29.4649 65.7185 29.5017 65.6582ZM30.4221 64.3307L29.6699 65.7512C29.6424 65.7881 29.6233 65.8306 29.6138 65.8756C29.6043 65.9207 29.6047 65.9673 29.615 66.0121C29.6253 66.057 29.6451 66.0992 29.6732 66.1356C29.7013 66.1721 29.737 66.202 29.7778 66.2234C29.8185 66.2448 29.8635 66.257 29.9095 66.2594C29.9554 66.2617 30.0014 66.254 30.0441 66.2369C30.0868 66.2198 30.1254 66.1936 30.157 66.1602C30.1887 66.1267 30.2127 66.0868 30.2274 66.0432L30.9664 64.6493C30.9931 64.6125 31.0118 64.5706 31.0214 64.5261C31.031 64.4816 31.0312 64.4357 31.0221 64.3911C31.0129 64.3466 30.9946 64.3045 30.9682 64.2674C30.9419 64.2303 30.9081 64.1992 30.869 64.1759C30.8287 64.1555 30.7846 64.1439 30.7395 64.1417C30.6944 64.1395 30.6494 64.1467 30.6073 64.163C30.5652 64.1792 30.5269 64.2041 30.495 64.2361C30.4631 64.268 30.4383 64.3063 30.4221 64.3484V64.3307Z" fill="white"/>
<path d="M32.7673 67.747L32.9355 67.3045C32.9489 67.2766 32.9561 67.2461 32.9566 67.2152C32.957 67.1842 32.9507 67.1536 32.938 67.1254C32.9254 67.0971 32.9067 67.072 32.8834 67.0517C32.86 67.0314 32.8325 67.0165 32.8027 67.008L32.4576 66.8752L32.2053 67.5124L32.0239 67.4372L32.9797 64.999L33.4222 65.1716C33.4899 65.1917 33.5522 65.2268 33.6045 65.2743C33.6567 65.3219 33.6975 65.3806 33.7239 65.4461C33.7503 65.5116 33.7615 65.5822 33.7568 65.6527C33.7521 65.7232 33.7315 65.7917 33.6966 65.8531L33.378 66.6628C33.3487 66.7382 33.3016 66.8053 33.2408 66.8585C33.1799 66.9117 33.107 66.9493 33.0284 66.9682C33.0837 67.0183 33.122 67.0845 33.1379 67.1575C33.1537 67.2305 33.1464 67.3066 33.1169 67.3752L32.9443 67.8177L32.7673 67.747ZM32.7673 66.8221C32.8103 66.8381 32.856 66.8453 32.9018 66.8432C32.9475 66.8411 32.9924 66.8299 33.0337 66.81C33.075 66.7902 33.1119 66.7622 33.1422 66.7278C33.1724 66.6934 33.1954 66.6532 33.2098 66.6097L33.5284 65.7955C33.5512 65.7566 33.565 65.7131 33.5689 65.6681C33.5729 65.6232 33.5668 65.5779 33.5511 65.5356C33.5355 65.4933 33.5106 65.455 33.4784 65.4234C33.4462 65.3918 33.4073 65.3678 33.3647 65.353L33.1081 65.2513L32.5284 66.7248L32.7673 66.8221Z" fill="white"/>
<path d="M35.7056 67.9416L35.2897 67.8266L35.002 68.477L34.8118 68.4239L35.8649 65.999L36.0862 66.0566L35.7985 68.7116L35.6127 68.6585L35.6879 67.9505L35.7056 67.9416ZM35.7985 67.1185L35.9092 66.3442L35.6171 67.0699L35.356 67.6628L35.7322 67.7602L35.7985 67.1185Z" fill="white"/>
<path d="M38.8207 69.2601L38.6393 69.2336L38.334 67.5698L38.2543 67.0078L38.2012 67.5742L37.9667 69.1362L37.772 69.1053L38.1569 66.5122L38.3428 66.5388L38.657 68.2512L38.7278 68.7911L38.7765 68.2468L39.0198 66.6405L39.2101 66.6671L38.8207 69.2601Z" fill="white"/>
<path d="M41.414 67.0168L41.3167 69.4639H41.1219L41.2237 67.0124H40.8564V66.8398L41.7813 66.8753V67.0478L41.414 67.0168Z" fill="white"/>
<path d="M43.7592 68.5744L44.3256 68.539V68.7071L43.7636 68.7469L43.7946 69.2691L44.507 69.2248V69.3974L43.622 69.4549L43.4583 66.8398L44.3433 66.7822V66.9548L43.6308 66.9991L43.7592 68.5744Z" fill="white"/>
<path d="M47.9939 66.1937L48.1886 66.1494L48.8081 68.6982L48.6134 68.7425L47.9939 66.1937Z" fill="white"/>
<path d="M50.3524 65.6848L51.1445 68.0035L50.9631 68.0654L50.171 65.7467L49.8214 65.8662L49.7683 65.7025L50.6533 65.406L50.7064 65.5697L50.3524 65.6848Z" fill="white"/>
<path d="M53.5651 66.2556L53.1712 66.437L53.3704 67.1229L53.1889 67.207L52.45 64.6581L52.6579 64.5608L54.1359 66.7733L53.9589 66.8574L53.5606 66.2644L53.5651 66.2556ZM53.1226 65.5653L52.7066 64.9015L52.95 65.6449L53.1314 66.2644L53.481 66.1007L53.1226 65.5653Z" fill="white"/>
<path d="M56.5385 65.4325L55.8748 65.8308L54.5251 63.5652L54.6933 63.4634L55.9544 65.5608L56.4456 65.2644L56.5385 65.4325Z" fill="white"/>
<path d="M56.5916 62.2379L56.7509 62.1228L58.304 64.238L58.1403 64.353L56.5916 62.2379Z" fill="white"/>
<path d="M59.8972 62.0254L59.5786 62.3086L59.9636 62.906L59.8176 63.0387L58.375 60.8262L58.5476 60.6758L60.5964 62.3661L60.4503 62.4945L59.9016 62.052L59.8972 62.0254ZM59.2644 61.4944L58.6803 60.9767L59.1228 61.6227L59.4724 62.1626L59.76 61.9059L59.2644 61.4944Z" fill="white"/>
<path d="M62.7159 60.149L62.592 60.2862L61.0344 59.6269L60.5211 59.3791L60.9636 59.7419L62.1362 60.7951L62.0079 60.9411L60.052 59.1711L60.1803 59.0295L61.7822 59.7154L62.2689 59.9499L61.8264 59.6092L60.645 58.5427L60.7777 58.3967L62.7159 60.149Z" fill="white"/>
<path d="M63.5831 58.2552L62.291 57.3393C62.2288 57.3036 62.1748 57.2554 62.1324 57.1976C62.09 57.1398 62.0602 57.0737 62.0448 57.0037C62.0295 56.9337 62.029 56.8612 62.0434 56.791C62.0577 56.7208 62.0867 56.6544 62.1283 56.596C62.1699 56.5376 62.2232 56.4886 62.2849 56.4521C62.3466 56.4156 62.4153 56.3925 62.4865 56.3841C62.5577 56.3758 62.6298 56.3824 62.6983 56.4036C62.7667 56.4249 62.83 56.4602 62.884 56.5074L64.1672 57.4189C64.2281 57.4535 64.281 57.5006 64.3226 57.557C64.3641 57.6134 64.3934 57.6779 64.4084 57.7463C64.4234 57.8147 64.4239 57.8855 64.4098 57.9542C64.3957 58.0228 64.3673 58.0877 64.3265 58.1446C64.2866 58.2028 64.2352 58.252 64.1753 58.2894C64.1155 58.3268 64.0487 58.3514 63.9789 58.3618C63.9092 58.3722 63.838 58.3681 63.7699 58.3497C63.7018 58.3314 63.6382 58.2992 63.5831 58.2552ZM62.4149 57.1578L63.7115 58.0738C63.7454 58.1048 63.7855 58.1282 63.8291 58.1424C63.8728 58.1566 63.919 58.1614 63.9646 58.1564C64.0103 58.1513 64.0543 58.1367 64.0938 58.1133C64.1333 58.0899 64.1674 58.0583 64.1938 58.0207C64.2156 57.9837 64.2297 57.9427 64.2352 57.9002C64.2408 57.8576 64.2377 57.8144 64.2261 57.7731C64.2145 57.7318 64.1947 57.6932 64.1679 57.6597C64.141 57.6262 64.1077 57.5985 64.0699 57.5782L62.7866 56.6622C62.7533 56.6316 62.714 56.6081 62.6712 56.5932C62.6284 56.5783 62.583 56.5723 62.5378 56.5756C62.4926 56.579 62.4486 56.5915 62.4084 56.6125C62.3683 56.6335 62.3328 56.6624 62.3043 56.6976C62.2797 56.7346 62.2631 56.7763 62.2553 56.8201C62.2476 56.8638 62.2489 56.9087 62.2593 56.9519C62.2697 56.995 62.2889 57.0356 62.3156 57.0711C62.3424 57.1065 62.3762 57.136 62.4149 57.1578Z" fill="white"/>
<path d="M38.6658 55.7285V57.941H41.6925V55.7285H38.6658ZM39.7278 56.2507H39.3207V57.1357H39.6437V57.233H39.3207V57.5383H39.7278V57.6357H39.2056V56.1312H39.7278V56.2507ZM40.4756 57.3613C40.48 57.4014 40.4758 57.442 40.4633 57.4803C40.4508 57.5186 40.4302 57.5539 40.403 57.5836C40.3758 57.6134 40.3425 57.6369 40.3054 57.6528C40.2683 57.6686 40.2283 57.6764 40.188 57.6755C40.1465 57.6769 40.1053 57.6695 40.0669 57.6538C40.0286 57.638 39.994 57.6143 39.9656 57.5842C39.9371 57.554 39.9154 57.5182 39.9019 57.479C39.8883 57.4398 39.8833 57.3982 39.8871 57.3569V57.2109H39.9977V57.3702C39.9939 57.3973 39.996 57.4249 40.0038 57.4512C40.0116 57.4774 40.025 57.5017 40.0431 57.5223C40.0612 57.5428 40.0835 57.5593 40.1085 57.5705C40.1335 57.5816 40.1606 57.5873 40.188 57.587C40.3075 57.587 40.365 57.4941 40.365 57.3746V57.2728C40.365 57.1755 40.2765 57.1357 40.1747 57.0781C40.0729 57.0206 39.9048 56.9365 39.8915 56.764V56.4631C39.8866 56.4244 39.8899 56.3852 39.9013 56.3479C39.9127 56.3107 39.932 56.2762 39.9577 56.247C39.9835 56.2178 40.0151 56.1943 40.0506 56.1783C40.0862 56.1622 40.1247 56.1539 40.1636 56.1539C40.2026 56.1539 40.2411 56.1622 40.2766 56.1783C40.3121 56.1943 40.3438 56.2178 40.3696 56.247C40.3953 56.2762 40.4145 56.3107 40.4259 56.3479C40.4374 56.3852 40.4407 56.4244 40.4358 56.4631V56.6622H40.3252V56.4675C40.3252 56.3569 40.2809 56.2639 40.1659 56.2639C40.0508 56.2639 40.0065 56.3303 40.0065 56.4675V56.7684C40.0065 56.8657 40.0995 56.9233 40.188 56.9719C40.2765 57.0206 40.4756 57.118 40.4756 57.2728V57.3613ZM41.1305 56.2507H40.9225V57.6578H40.8119V56.2507H40.5995V56.1533H41.1305V56.2507ZM41.3518 57.6578H41.2456V57.4631H41.3518V57.6578Z" fill="white"/>
</g>
<defs>
<clipPath id="clip0">
<rect width="85" height="85" fill="white"/>
</clipPath>
</defs>
</svg>
