<svg width="51" height="50" viewBox="0 0 51 50" fill="none" xmlns="http://www.w3.org/2000/svg">
<g clip-path="url(#clip0)">
<path d="M29.6019 49.6789C43.502 47.4546 52.931 34.6042 50.6623 20.9767C48.3935 7.3492 35.2861 -1.89496 21.3861 0.329302C7.486 2.55357 -1.94304 15.404 0.325709 29.0315C2.59446 42.659 15.7019 51.9031 29.6019 49.6789Z" fill="#AE0F0A"/>
<path d="M8.29185 29.2077H5.60498V20.2588H6.29528V28.609H8.29185V29.2077Z" fill="white"/>
<path d="M11.462 26.8182H9.95928V26.8052L9.57165 29.2077H8.88135L10.2885 20.2588H11.085L12.5081 29.2077H11.8284L11.4514 26.8052L11.462 26.8182ZM11.0319 24.0305L10.7053 21.3833L10.3681 24.0305L10.0389 26.1987H11.3824L11.0319 24.0305Z" fill="white"/>
<path d="M19.1295 29.2077H18.4923L16.5727 23.7415L16.0125 21.8752L16.1161 23.817V29.1999H15.4258V20.2588H16.0789L18.033 25.8838L18.564 27.6616L18.4604 25.8083V20.2588H19.1295V29.2077Z" fill="white"/>
<path d="M20.3296 27.4428V22.0339C20.3296 21.0734 20.9429 20.178 22.143 20.178C23.2395 20.178 23.8767 21.0474 23.8767 22.0443V27.4298C23.8767 28.3747 23.3032 29.2961 22.143 29.2961C20.9827 29.2961 20.3296 28.4554 20.3296 27.4428ZM21.0199 22.0365V27.4428C21.0199 28.0961 21.373 28.6844 22.143 28.6844C22.8598 28.6844 23.205 28.1092 23.205 27.4324V22.0469C23.205 21.4222 22.8784 20.7819 22.143 20.7819C21.4075 20.7819 21.0199 21.3441 21.0199 22.0339V22.0365Z" fill="white"/>
<path d="M28.8071 29.2077H28.1566L26.2397 23.7415L25.6795 21.8752L25.7831 23.817V29.1999H25.0928V20.2588H25.7671L27.7239 25.8838L28.2549 27.6616L28.1513 25.8083V20.2588H28.8284L28.8071 29.2077Z" fill="white"/>
<path d="M33.8438 29.2077H33.2013L31.2844 23.7415L30.7215 21.8752L30.8277 23.817V29.1999H30.1348V20.2588H30.7879L32.7446 25.8838L33.2756 27.6616L33.1721 25.8083V20.2588H33.8518L33.8438 29.2077Z" fill="white"/>
<path d="M35.1606 20.2588H35.8563V29.2077H35.166L35.1606 20.2588Z" fill="white"/>
<path d="M40.8077 29.2077H40.1679L38.251 23.7415L37.6908 21.8752L37.7943 23.817V29.1999H37.104V20.2588H37.7545L39.7112 25.8838L40.2422 27.6616L40.136 25.8083V20.2588H40.8157L40.8077 29.2077Z" fill="white"/>
<path d="M44.3523 26.8182H42.8522V26.8052L42.4752 29.2077H41.7822L43.192 20.2588H43.9885L45.4116 29.2077H44.7346L44.3523 26.8052V26.8182ZM43.9222 24.0305L43.5956 21.3833L43.269 24.0305L42.9212 26.1987H44.2647L43.9222 24.0305Z" fill="white"/>
<path d="M26.2105 33.4113C26.0963 33.5076 25.9821 33.6118 25.9768 33.7055V34.0491H26.46V34.161H25.8521V33.7055C25.8521 33.5675 26.0034 33.4452 26.1335 33.3306C26.2636 33.2161 26.3379 33.1693 26.3379 33.0886V32.8283C26.3379 32.6773 26.245 32.6331 26.16 32.6331C26.0751 32.6331 25.9795 32.7189 25.9795 32.8361V32.9662H25.8627V32.8413C25.8588 32.8015 25.8637 32.7613 25.8771 32.7235C25.8905 32.6857 25.912 32.6512 25.9403 32.6223C25.9685 32.5934 26.0027 32.5708 26.0406 32.556C26.0786 32.5413 26.1193 32.5347 26.16 32.5367C26.2004 32.5348 26.2407 32.5413 26.2784 32.5557C26.316 32.5702 26.3501 32.5922 26.3785 32.6205C26.4068 32.6488 26.4287 32.6826 26.4428 32.7197C26.4568 32.7569 26.4627 32.7965 26.46 32.8361V33.0964C26.46 33.2265 26.3353 33.3046 26.2105 33.4113Z" fill="white"/>
<path d="M26.6537 33.8408V32.8595C26.6496 32.8155 26.6549 32.7712 26.6693 32.7294C26.6836 32.6876 26.7067 32.6492 26.7371 32.6166C26.7674 32.584 26.8044 32.558 26.8456 32.5402C26.8867 32.5224 26.9313 32.5132 26.9763 32.5132C27.0213 32.5132 27.0658 32.5224 27.107 32.5402C27.1481 32.558 27.1851 32.584 27.2154 32.6166C27.2458 32.6492 27.2689 32.6876 27.2832 32.7294C27.2976 32.7712 27.3029 32.8155 27.2988 32.8595V33.8382C27.3025 33.8811 27.2971 33.9243 27.2829 33.9651C27.2687 34.0059 27.246 34.0433 27.2164 34.0751C27.1867 34.1069 27.1506 34.1323 27.1105 34.1498C27.0703 34.1672 27.0268 34.1763 26.9829 34.1765C26.9383 34.1773 26.894 34.1691 26.8528 34.1523C26.8116 34.1356 26.7744 34.1106 26.7435 34.0791C26.7126 34.0476 26.6887 34.0101 26.6732 33.9691C26.6578 33.9281 26.6511 33.8844 26.6537 33.8408ZM26.7785 32.8595V33.8408C26.7775 33.8892 26.7904 33.937 26.8156 33.9787L27.0652 32.6486C27.0394 32.6368 27.0114 32.6306 26.9829 32.6304C26.8422 32.6304 26.7785 32.7319 26.7785 32.8595ZM27.1395 32.7189L26.8926 34.049C26.921 34.0611 26.952 34.0665 26.9829 34.0646C27.113 34.0646 27.1767 33.9605 27.1767 33.8382V32.8595C27.1782 32.8101 27.1653 32.7613 27.1395 32.7189Z" fill="white"/>
<path d="M27.7158 34.1611H27.5936V32.6462H27.4556V32.5369H27.7211L27.7158 34.1611Z" fill="white"/>
<path d="M28.2254 34.1739C28.1819 34.173 28.1391 34.1633 28.0995 34.1455C28.06 34.1278 28.0245 34.1022 27.9954 34.0705C27.9663 34.0388 27.9442 34.0016 27.9303 33.9612C27.9164 33.9208 27.9111 33.878 27.9148 33.8355V33.747H28.0342V33.8251C28.0342 33.95 28.1006 34.0515 28.2254 34.0515C28.2546 34.0521 28.2836 34.0465 28.3104 34.0352C28.3372 34.0238 28.3613 34.007 28.3809 33.9858C28.4005 33.9646 28.4153 33.9395 28.4242 33.9122C28.4331 33.8849 28.4359 33.8561 28.4325 33.8277V33.4164C28.4157 33.4576 28.3867 33.4929 28.3494 33.5179C28.3121 33.543 28.268 33.5565 28.2227 33.557C27.9944 33.557 27.9121 33.3383 27.9121 33.1483V32.9192C27.9121 32.724 28.005 32.521 28.236 32.521C28.467 32.521 28.552 32.711 28.552 32.9218V33.8277C28.5574 33.8722 28.5529 33.9173 28.5388 33.96C28.5246 34.0026 28.5012 34.0418 28.4702 34.0747C28.4391 34.1076 28.4012 34.1335 28.3589 34.1506C28.3166 34.1678 28.2711 34.1757 28.2254 34.1739ZM28.2254 32.6433C28.082 32.6433 28.0236 32.7917 28.0236 32.9297V33.1587C28.0236 33.2732 28.0581 33.4555 28.2254 33.4555C28.3927 33.4555 28.4166 33.2785 28.4166 33.1561V32.9323C28.4219 32.7943 28.3874 32.6433 28.236 32.6433H28.2254Z" fill="white"/>
<path d="M14.1089 16.2474L13.8885 16.0835C13.8744 16.0717 13.8578 16.063 13.84 16.058C13.8221 16.0531 13.8034 16.0519 13.785 16.0546C13.7666 16.0573 13.7491 16.0639 13.7335 16.0738C13.7179 16.0837 13.7047 16.0968 13.6947 16.1121L13.562 16.2865L13.8912 16.5286L13.8195 16.6223L12.561 15.693L12.7336 15.4692C12.756 15.4339 12.7862 15.404 12.822 15.3817C12.8579 15.3595 12.8983 15.3454 12.9405 15.3407C12.9826 15.3359 13.0253 15.3406 13.0653 15.3542C13.1053 15.3679 13.1417 15.3903 13.1717 15.4197L13.5912 15.7295C13.6309 15.7603 13.6625 15.8 13.6833 15.8453C13.7041 15.8906 13.7135 15.9402 13.7107 15.9898C13.7482 15.9664 13.7923 15.9553 13.8367 15.9581C13.8811 15.9609 13.9234 15.9774 13.9576 16.0054L14.1779 16.1668L14.1089 16.2474ZM13.5779 16.0939C13.607 16.05 13.6172 15.9966 13.6063 15.9454C13.5953 15.8942 13.5641 15.8493 13.5195 15.8206L13.1027 15.5108C13.0839 15.4913 13.061 15.4761 13.0356 15.4664C13.0101 15.4567 12.9828 15.4528 12.9555 15.4547C12.9283 15.4567 12.9019 15.4647 12.8782 15.478C12.8545 15.4913 12.8341 15.5096 12.8186 15.5316L12.7177 15.6618L13.477 16.224L13.5779 16.0939Z" fill="white"/>
<path d="M13.708 14.3212L13.7877 14.2354L14.9479 15.2765L14.8656 15.3624L13.708 14.3212Z" fill="white"/>
<path d="M15.4733 14.3187L15.3724 14.2068L15.46 14.1287L15.5609 14.2407C15.5766 14.2639 15.5971 14.2836 15.6212 14.2984C15.6453 14.3132 15.6723 14.3227 15.7005 14.3264C15.7287 14.3301 15.7573 14.3279 15.7845 14.3198C15.8117 14.3117 15.8369 14.2981 15.8582 14.2797C15.8791 14.2619 15.8958 14.2399 15.9072 14.2152C15.9187 14.1905 15.9246 14.1637 15.9246 14.1365C15.9246 14.1094 15.9187 14.0826 15.9072 14.0579C15.8958 14.0332 15.8791 14.0112 15.8582 13.9934L15.7892 13.9179C15.7202 13.8424 15.6246 13.8736 15.5025 13.8997C15.3803 13.9257 15.1971 13.9778 15.067 13.8528L14.8546 13.6238C14.8229 13.5982 14.7971 13.5662 14.7791 13.5299C14.761 13.4937 14.7511 13.4541 14.7501 13.4138C14.749 13.3735 14.7569 13.3334 14.773 13.2963C14.7891 13.2592 14.8132 13.226 14.8436 13.1988C14.874 13.1717 14.91 13.1512 14.9491 13.1389C14.9883 13.1266 15.0297 13.1227 15.0705 13.1274C15.1114 13.1322 15.1507 13.1455 15.1858 13.1665C15.2209 13.1874 15.2511 13.2156 15.2741 13.2489L15.4122 13.3999L15.3246 13.4754L15.1918 13.327C15.1122 13.2411 15.0139 13.1995 14.9263 13.2776C14.8387 13.3557 14.8467 13.4389 14.9449 13.5379L15.152 13.7643C15.2263 13.8372 15.3325 13.819 15.4361 13.7956C15.6166 13.7565 15.7627 13.7123 15.8689 13.8268L15.9458 13.9127C15.9774 13.9398 16.0027 13.9732 16.0201 14.0107C16.0374 14.0482 16.0464 14.0889 16.0464 14.13C16.0464 14.1712 16.0374 14.2119 16.0201 14.2494C16.0027 14.2868 15.9774 14.3203 15.9458 14.3474C15.9149 14.3796 15.877 14.4048 15.835 14.4211C15.793 14.4374 15.7478 14.4444 15.7027 14.4417C15.6576 14.4389 15.6137 14.4265 15.574 14.4053C15.5344 14.384 15.5 14.3545 15.4733 14.3187Z" fill="white"/>
<path d="M16.3074 12.1895L17.1676 13.3608L17.0747 13.4259L16.2092 12.2572L16.0313 12.3821L15.9702 12.3014L16.4189 11.9839L16.48 12.0646L16.3074 12.1895Z" fill="white"/>
<path d="M18.02 12.4446L17.5368 11.622C17.51 11.5878 17.491 11.5482 17.481 11.5061C17.4711 11.464 17.4705 11.4203 17.4793 11.3779C17.4881 11.3356 17.5061 11.2956 17.532 11.2606C17.558 11.2256 17.5912 11.1966 17.6296 11.1753C17.668 11.154 17.7106 11.1411 17.7545 11.1374C17.7985 11.1336 17.8427 11.1392 17.8842 11.1537C17.9258 11.1681 17.9637 11.1912 17.9953 11.2212C18.027 11.2513 18.0517 11.2877 18.0678 11.3279L18.5378 12.1348C18.5617 12.1684 18.5782 12.2065 18.5862 12.2467C18.5942 12.2869 18.5936 12.3283 18.5843 12.3683C18.5751 12.4082 18.5574 12.4458 18.5325 12.4787C18.5075 12.5115 18.4759 12.5389 18.4395 12.5591C18.4044 12.5789 18.3656 12.5917 18.3254 12.5967C18.2852 12.6016 18.2444 12.5987 18.2053 12.588C18.1663 12.5774 18.1298 12.5592 18.098 12.5346C18.0662 12.5099 18.0397 12.4793 18.02 12.4446ZM17.6537 11.5752L18.1236 12.3873C18.1339 12.4122 18.1496 12.4346 18.1695 12.4531C18.1895 12.4715 18.2132 12.4855 18.2392 12.4942C18.2651 12.5028 18.2927 12.5059 18.32 12.5032C18.3472 12.5004 18.3736 12.492 18.3972 12.4784C18.4209 12.4649 18.4413 12.4465 18.4571 12.4245C18.4728 12.4025 18.4836 12.3774 18.4886 12.351C18.4936 12.3246 18.4928 12.2974 18.4861 12.2714C18.4795 12.2453 18.4672 12.2209 18.4502 12.1999L17.9829 11.393C17.9722 11.3692 17.9569 11.3478 17.9377 11.33C17.9186 11.3121 17.896 11.2982 17.8713 11.289C17.8466 11.2798 17.8202 11.2755 17.7938 11.2763C17.7674 11.2772 17.7414 11.2832 17.7174 11.2941C17.6925 11.3067 17.6707 11.3245 17.6536 11.3462C17.6365 11.368 17.6244 11.3932 17.6184 11.42C17.6123 11.4468 17.6123 11.4746 17.6184 11.5014C17.6245 11.5283 17.6365 11.5534 17.6537 11.5752Z" fill="white"/>
<path d="M20.1011 11.76L19.9922 11.5127C19.9857 11.4957 19.9756 11.4802 19.9625 11.4674C19.9494 11.4545 19.9336 11.4446 19.9163 11.4382C19.8989 11.4317 19.8804 11.429 19.8619 11.4302C19.8434 11.4314 19.8254 11.4365 19.809 11.445L19.6046 11.5309L19.7665 11.9006L19.6577 11.9474L19.0391 10.5288L19.3046 10.4195C19.3416 10.3995 19.3828 10.3881 19.4251 10.3861C19.4673 10.384 19.5095 10.3915 19.5484 10.4078C19.5872 10.4241 19.6218 10.4488 19.6495 10.4802C19.6772 10.5115 19.6972 10.5486 19.7081 10.5887L19.9152 11.0624C19.9322 11.1045 19.939 11.1499 19.9354 11.195C19.9317 11.2401 19.9175 11.2838 19.894 11.3227C19.9384 11.3205 19.9824 11.3321 20.0196 11.356C20.0568 11.3798 20.0854 11.4147 20.1011 11.4555L20.2099 11.7157L20.1011 11.76ZM19.7161 11.3696C19.7626 11.3461 19.798 11.3059 19.8149 11.2573C19.8317 11.2087 19.8287 11.1557 19.8064 11.1093L19.5993 10.6381C19.5932 10.611 19.5808 10.5857 19.563 10.564C19.5453 10.5424 19.5226 10.5251 19.4969 10.5135C19.4712 10.5019 19.4431 10.4963 19.4147 10.4972C19.3864 10.498 19.3587 10.5053 19.3338 10.5184L19.1824 10.5835L19.5568 11.4398L19.7161 11.3696Z" fill="white"/>
<path d="M21.4474 10.8593L21.2004 10.9322L21.2589 11.346L21.1447 11.3799L20.9243 9.83372L21.0544 9.79468L21.7447 11.2029L21.6332 11.2367L21.4474 10.8567V10.8593ZM21.235 10.422L21.0464 10.0003L21.1288 10.4532L21.1819 10.828L21.4049 10.763L21.235 10.422Z" fill="white"/>
<path d="M23.3775 10.8568L23.2686 10.875L22.7721 10.0056L22.6181 9.70629L22.6978 10.0343L22.865 10.9453L22.7482 10.9661L22.4668 9.44859L22.5783 9.43037L23.0881 10.3258L23.2314 10.6095L23.1544 10.2998L22.9819 9.35749L23.096 9.33667L23.3775 10.8568Z" fill="white"/>
<path d="M24.5909 9.27949L24.6944 10.7189H24.5803L24.4767 9.27949L24.2563 9.2951V9.19359L24.8086 9.15454V9.25606L24.5909 9.27949Z" fill="white"/>
<path d="M26.0565 10.1696H26.3963V10.2711H26.0565V10.5809L26.4839 10.5939V10.698L25.937 10.6798L25.9875 9.13623L26.5344 9.15445V9.25596L26.1069 9.24294L26.0565 10.1696Z" fill="white"/>
<path d="M28.9931 9.4668L29.1099 9.49283L28.7833 11.0025L28.6665 10.9765L28.9931 9.4668Z" fill="white"/>
<path d="M30.4984 9.95621L30.0656 11.3332L29.9541 11.2993L30.3895 9.92237L30.1798 9.85729L30.209 9.76099L30.74 9.92237L30.7108 10.0187L30.4984 9.95621Z" fill="white"/>
<path d="M31.7356 11.5049L31.4966 11.406L31.271 11.7626L31.1621 11.7158L32.0064 10.3909L32.1312 10.4455L31.7356 11.9578L31.6294 11.9136L31.7356 11.5075V11.5049ZM31.8604 11.0364L31.9931 10.5939L31.7568 10.9921L31.5524 11.3149L31.7648 11.4034L31.8604 11.0364Z" fill="white"/>
<path d="M33.0551 12.6241L32.6489 12.4029L33.4189 11.0571L33.5224 11.1118L32.8056 12.369L33.1056 12.533L33.0551 12.6241Z" fill="white"/>
<path d="M34.8098 11.8823L34.9081 11.9474L34.0186 13.2202L33.9204 13.1552L34.8098 11.8823Z" fill="white"/>
<path d="M35.4422 13.7798L35.2431 13.6184L34.9218 13.8943L34.8315 13.8215L36.0263 12.7803L36.1325 12.8688L35.3254 14.2249L35.2351 14.152L35.4555 13.7928L35.4422 13.7798ZM35.7077 13.3659L35.9732 12.9781L35.6307 13.2931L35.3413 13.5534L35.5192 13.6991L35.7077 13.3659Z" fill="white"/>
<path d="M36.4988 15.3493L36.4245 15.2712L36.8918 14.3888L37.0617 14.0973L36.8254 14.342L36.1404 14.9823L36.0581 14.8964L37.1971 13.8318L37.2768 13.9125L36.7935 14.8209L36.6289 15.0968L36.852 14.8626L37.5582 14.2014L37.6378 14.2847L36.4988 15.3493Z" fill="white"/>
<path d="M37.4489 15.9639L38.2056 15.4017C38.2377 15.3744 38.2753 15.3539 38.316 15.3416C38.3566 15.3293 38.3995 15.3255 38.4417 15.3304C38.4839 15.3353 38.5247 15.3488 38.5613 15.3701C38.5979 15.3913 38.6296 15.4198 38.6543 15.4538C38.6791 15.4864 38.6967 15.5237 38.7061 15.5634C38.7156 15.603 38.7166 15.6441 38.7091 15.6842C38.7016 15.7242 38.6859 15.7623 38.6627 15.7961C38.6396 15.8299 38.6096 15.8587 38.5747 15.8806L37.818 16.4403C37.787 16.4678 37.7505 16.4888 37.7109 16.5018C37.6712 16.5149 37.6292 16.5197 37.5876 16.516C37.5459 16.5124 37.5055 16.5003 37.4688 16.4805C37.4321 16.4608 37.4001 16.4338 37.3746 16.4012C37.3486 16.3683 37.3298 16.3305 37.3194 16.2901C37.309 16.2498 37.3073 16.2077 37.3142 16.1667C37.3212 16.1256 37.3368 16.0864 37.36 16.0515C37.3832 16.0166 37.4134 15.9868 37.4489 15.9639ZM38.2773 15.4954L37.51 16.0472C37.4854 16.0599 37.4639 16.0777 37.447 16.0993C37.4302 16.121 37.4183 16.146 37.4123 16.1726C37.4063 16.1992 37.4062 16.2267 37.4122 16.2533C37.4182 16.2799 37.43 16.305 37.4468 16.3266C37.4636 16.3483 37.4851 16.3661 37.5097 16.3789C37.5342 16.3916 37.5613 16.3989 37.5891 16.4003C37.6168 16.4017 37.6446 16.3972 37.6703 16.387C37.6961 16.3768 37.7193 16.3612 37.7383 16.3414L38.4923 15.7817C38.5168 15.7692 38.5383 15.7515 38.5551 15.73C38.572 15.7086 38.5839 15.6837 38.5901 15.6573C38.5962 15.6309 38.5964 15.6035 38.5907 15.5769C38.585 15.5504 38.5734 15.5254 38.5569 15.5037C38.5404 15.482 38.5192 15.464 38.4949 15.4511C38.4707 15.4381 38.4438 15.4305 38.4162 15.4287C38.3886 15.4269 38.3609 15.431 38.3351 15.4408C38.3093 15.4505 38.286 15.4656 38.2667 15.485L38.2773 15.4954Z" fill="white"/>
<path d="M12.9143 35.093L13.132 34.9238C13.1467 34.9129 13.1588 34.8992 13.1677 34.8834C13.1766 34.8677 13.182 34.8502 13.1835 34.8323C13.185 34.8143 13.1826 34.7963 13.1765 34.7793C13.1703 34.7623 13.1606 34.7468 13.1479 34.7338L13.0099 34.5646L12.6886 34.8249L12.6143 34.7338L13.8409 33.7681L14.0188 33.9867C14.051 34.015 14.0758 34.0507 14.0908 34.0905C14.1058 34.1304 14.1106 34.1732 14.1049 34.2153C14.0991 34.2574 14.0829 34.2975 14.0577 34.3321C14.0326 34.3666 13.9991 34.3946 13.9603 34.4136L13.5541 34.7286C13.517 34.7568 13.4737 34.7763 13.4276 34.7853C13.3816 34.7944 13.334 34.7927 13.2886 34.7806C13.302 34.8227 13.3018 34.8678 13.288 34.9097C13.2743 34.9517 13.2476 34.9884 13.2116 35.0149L12.9966 35.1841L12.9143 35.093ZM13.1957 34.627C13.2317 34.6655 13.2818 34.6885 13.335 34.691C13.3882 34.6934 13.4403 34.6751 13.4798 34.6401L13.8887 34.3199C13.9126 34.3068 13.9332 34.2886 13.949 34.2667C13.9648 34.2448 13.9754 34.2196 13.9799 34.1932C13.9845 34.1667 13.983 34.1395 13.9755 34.1137C13.9679 34.0879 13.9546 34.0641 13.9364 34.044L13.8329 33.9164L13.0922 34.4995L13.1957 34.627Z" fill="white"/>
<path d="M14.9243 34.981L15.0066 35.0643L13.8809 36.1445L13.7959 36.0586L14.9243 34.981Z" fill="white"/>
<path d="M14.9508 36.7146L15.0491 36.6L15.1394 36.6729L15.0411 36.7874C15.0197 36.8058 15.0025 36.8284 14.9908 36.8537C14.979 36.8791 14.9729 36.9066 14.9729 36.9345C14.9729 36.9624 14.979 36.9899 14.9908 37.0153C15.0025 37.0406 15.0197 37.0632 15.0411 37.0816C15.0626 37.0985 15.0875 37.1107 15.1142 37.1174C15.1409 37.1241 15.1688 37.1251 15.1959 37.1204C15.223 37.1157 15.2488 37.1055 15.2716 37.0902C15.2944 37.075 15.3135 37.0552 15.3279 37.0321L15.3942 36.954C15.4633 36.8759 15.4181 36.7874 15.373 36.6755C15.3279 36.5636 15.2535 36.3866 15.3597 36.2434L15.5615 36.0066C15.5838 35.9725 15.6133 35.9436 15.6479 35.9218C15.6826 35.8999 15.7217 35.8857 15.7626 35.88C15.8034 35.8743 15.845 35.8773 15.8845 35.8888C15.924 35.9003 15.9606 35.9201 15.9916 35.9467C16.0216 35.9728 16.0456 36.0049 16.0621 36.0408C16.0785 36.0767 16.087 36.1156 16.087 36.1549C16.087 36.1943 16.0785 36.2332 16.0621 36.2691C16.0456 36.305 16.0216 36.337 15.9916 36.3632L15.8615 36.5167L15.7739 36.4438L15.904 36.2929C15.9783 36.2044 16.0075 36.1029 15.9173 36.0326C15.827 35.9623 15.742 35.9779 15.6518 36.0872L15.4526 36.3215C15.4285 36.3646 15.4158 36.4129 15.4158 36.4621C15.4158 36.5112 15.4285 36.5596 15.4526 36.6026C15.519 36.7692 15.5827 36.9046 15.4792 37.0243L15.4075 37.1102C15.384 37.1447 15.3532 37.1739 15.3173 37.1958C15.2813 37.2178 15.241 37.2319 15.1991 37.2373C15.1571 37.2428 15.1144 37.2393 15.0739 37.2273C15.0334 37.2152 14.996 37.1948 14.9641 37.1675C14.9305 37.1401 14.9032 37.106 14.8841 37.0674C14.865 37.0289 14.8544 36.9868 14.8532 36.9439C14.8519 36.9011 14.86 36.8585 14.8768 36.8189C14.8937 36.7794 14.9189 36.7438 14.9508 36.7146Z" fill="white"/>
<path d="M17.218 36.9932L16.3922 38.1879L16.2993 38.1255L17.1224 36.9307L16.9392 36.811L16.9976 36.7251L17.4569 37.0296L17.3985 37.1129L17.218 36.9932Z" fill="white"/>
<path d="M17.7011 38.6226L18.1471 37.7974C18.1645 37.7593 18.1898 37.7251 18.2215 37.6971C18.2532 37.6691 18.2905 37.6479 18.331 37.635C18.3715 37.622 18.4143 37.6174 18.4567 37.6216C18.4992 37.6259 18.5402 37.6387 18.5772 37.6595C18.6141 37.6788 18.6464 37.7054 18.6721 37.7376C18.6979 37.7699 18.7164 37.807 18.7267 37.8467C18.7369 37.8864 18.7386 37.9278 18.7316 37.9681C18.7246 38.0085 18.7091 38.047 18.6861 38.0811L18.2427 38.9011C18.2265 38.9387 18.2026 38.9726 18.1723 39.0006C18.1421 39.0286 18.1062 39.0502 18.067 39.0639C18.0278 39.0776 17.9861 39.0832 17.9446 39.0802C17.9031 39.0773 17.8626 39.0659 17.8259 39.0468C17.7879 39.0284 17.7543 39.0024 17.7272 38.9705C17.7 38.9386 17.6799 38.9015 17.6682 38.8616C17.6565 38.8217 17.6533 38.7799 17.659 38.7387C17.6646 38.6975 17.679 38.658 17.7011 38.6226ZM18.2533 37.8417L17.802 38.6772C17.7855 38.699 17.774 38.7239 17.7683 38.7504C17.7626 38.7769 17.7629 38.8043 17.769 38.8307C17.7752 38.8571 17.7871 38.8819 17.804 38.9034C17.8208 38.9248 17.8422 38.9424 17.8667 38.955C17.8912 38.9676 17.9181 38.9748 17.9457 38.9762C17.9733 38.9775 18.0009 38.973 18.0265 38.963C18.0522 38.9529 18.0753 38.9375 18.0943 38.9178C18.1132 38.8981 18.1276 38.8747 18.1365 38.849L18.5799 38.0291C18.5959 38.0074 18.6071 37.9827 18.6129 37.9566C18.6186 37.9304 18.6188 37.9034 18.6133 37.8772C18.6078 37.851 18.5968 37.8262 18.581 37.8044C18.5652 37.7826 18.5449 37.7643 18.5215 37.7506C18.4973 37.7386 18.4708 37.7318 18.4438 37.7305C18.4167 37.7292 18.3897 37.7334 18.3644 37.743C18.3392 37.7525 18.3162 37.7672 18.2971 37.786C18.2779 37.8048 18.263 37.8273 18.2533 37.8521V37.8417Z" fill="white"/>
<path d="M19.6604 39.851L19.7613 39.5908C19.7694 39.5744 19.7737 39.5564 19.7739 39.5382C19.7742 39.52 19.7704 39.502 19.7628 39.4854C19.7552 39.4688 19.744 39.454 19.73 39.4421C19.716 39.4302 19.6995 39.4214 19.6816 39.4164L19.4745 39.3383L19.3232 39.7131L19.2144 39.6688L19.7878 38.2346L20.0533 38.3361C20.094 38.348 20.1313 38.3686 20.1627 38.3966C20.194 38.4245 20.2185 38.4591 20.2343 38.4976C20.2502 38.5361 20.2569 38.5777 20.2541 38.6191C20.2512 38.6606 20.2389 38.7009 20.2179 38.737L20.0268 39.2133C20.0092 39.2577 19.981 39.2972 19.9445 39.3284C19.9079 39.3597 19.8642 39.3818 19.817 39.3929C19.8502 39.4224 19.8732 39.4614 19.8827 39.5043C19.8922 39.5473 19.8878 39.592 19.8701 39.6324L19.7666 39.8927L19.6604 39.851ZM19.6604 39.307C19.6862 39.3164 19.7136 39.3207 19.7411 39.3194C19.7685 39.3182 19.7955 39.3116 19.8202 39.2999C19.845 39.2882 19.8672 39.2718 19.8853 39.2516C19.9035 39.2313 19.9173 39.2077 19.9259 39.1821L20.1171 38.7032C20.1307 38.6802 20.139 38.6546 20.1414 38.6282C20.1437 38.6018 20.1401 38.5751 20.1307 38.5502C20.1213 38.5254 20.1064 38.5028 20.087 38.4842C20.0677 38.4657 20.0444 38.4515 20.0188 38.4429L19.8648 38.383L19.517 39.2498L19.6604 39.307Z" fill="white"/>
<path d="M21.4235 39.9657L21.1739 39.898L21.0014 40.2806L20.8872 40.2494L21.5191 38.823L21.6518 38.8568L21.4793 40.4186L21.3678 40.3874L21.4129 39.9709L21.4235 39.9657ZM21.4793 39.4815L21.5457 39.026L21.3704 39.4529L21.2138 39.8017L21.4394 39.859L21.4793 39.4815Z" fill="white"/>
<path d="M23.2928 40.7412L23.184 40.7256L23.0008 39.7469L22.953 39.4163L22.9211 39.7495L22.7804 40.6683L22.6636 40.6501L22.8946 39.1248L23.0061 39.1404L23.1946 40.1477L23.2371 40.4653L23.2663 40.1451L23.4123 39.2002L23.5265 39.2159L23.2928 40.7412Z" fill="white"/>
<path d="M24.8482 39.4215L24.7898 40.8609H24.673L24.734 39.4189H24.5137V39.3174L25.0686 39.3382V39.4397L24.8482 39.4215Z" fill="white"/>
<path d="M26.2557 40.3379L26.5956 40.3171V40.416L26.2584 40.4394L26.277 40.7466L26.7044 40.7205V40.822L26.1734 40.8559L26.0752 39.3175L26.6062 39.2837V39.3852L26.1787 39.4112L26.2557 40.3379Z" fill="white"/>
<path d="M28.7964 38.9374L28.9132 38.9114L29.2849 40.4107L29.1681 40.4367L28.7964 38.9374Z" fill="white"/>
<path d="M30.2118 38.6381L30.687 40.0021L30.5782 40.0385L30.1029 38.6745L29.8932 38.7448L29.8613 38.6485L30.3923 38.4741L30.4242 38.5704L30.2118 38.6381Z" fill="white"/>
<path d="M32.1393 38.9737L31.903 39.0805L32.0225 39.4839L31.9136 39.5334L31.4702 38.0341L31.595 37.9768L32.4818 39.2783L32.3756 39.3277L32.1366 38.9789L32.1393 38.9737ZM31.8738 38.5677L31.6242 38.1772L31.7702 38.6145L31.8791 38.9789L32.0888 38.8826L31.8738 38.5677Z" fill="white"/>
<path d="M33.9234 38.4899L33.5251 38.7241L32.7153 37.3914L32.8162 37.3315L33.5729 38.5653L33.8676 38.3909L33.9234 38.4899Z" fill="white"/>
<path d="M33.9551 36.6104L34.0507 36.5427L34.9826 37.7869L34.8843 37.8546L33.9551 36.6104Z" fill="white"/>
<path d="M35.9387 36.4855L35.7476 36.6521L35.9785 37.0035L35.8909 37.0816L35.0254 35.7801L35.1289 35.6917L36.3582 36.686L36.2706 36.7615L35.9414 36.5012L35.9387 36.4855ZM35.5591 36.1732L35.2086 35.8686L35.4741 36.2487L35.6838 36.5662L35.8564 36.4153L35.5591 36.1732Z" fill="white"/>
<path d="M37.63 35.3818L37.5557 35.4625L36.6211 35.0747L36.3132 34.9289L36.5787 35.1424L37.2822 35.7619L37.2052 35.8478L36.0317 34.8066L36.1087 34.7233L37.0698 35.1267L37.3619 35.2647L37.0964 35.0643L36.3875 34.437L36.4672 34.3511L37.63 35.3818Z" fill="white"/>
<path d="M38.1498 34.2678L37.3746 33.7289C37.3373 33.708 37.3048 33.6796 37.2794 33.6456C37.254 33.6116 37.2361 33.5728 37.2269 33.5316C37.2177 33.4904 37.2174 33.4478 37.226 33.4064C37.2346 33.3651 37.252 33.3261 37.2769 33.2917C37.3019 33.2574 37.3339 33.2286 37.3709 33.2071C37.4079 33.1856 37.4491 33.172 37.4918 33.1671C37.5345 33.1622 37.5778 33.1661 37.6189 33.1786C37.66 33.1911 37.6979 33.2119 37.7303 33.2396L38.5003 33.7758C38.5368 33.7962 38.5686 33.8239 38.5935 33.857C38.6184 33.8902 38.636 33.9281 38.645 33.9684C38.654 34.0086 38.6543 34.0503 38.6458 34.0906C38.6373 34.131 38.6203 34.1692 38.5959 34.2027C38.5719 34.2369 38.541 34.2659 38.5052 34.2879C38.4693 34.3098 38.4292 34.3243 38.3873 34.3304C38.3454 34.3365 38.3028 34.3341 38.2619 34.3233C38.221 34.3126 38.1829 34.2936 38.1498 34.2678ZM37.4489 33.6222L38.2268 34.161C38.2472 34.1792 38.2712 34.193 38.2974 34.2014C38.3236 34.2098 38.3513 34.2125 38.3787 34.2096C38.4061 34.2066 38.4325 34.198 38.4562 34.1842C38.48 34.1705 38.5004 34.1519 38.5162 34.1298C38.5293 34.1081 38.5377 34.0839 38.5411 34.0589C38.5444 34.0339 38.5425 34.0084 38.5356 33.9841C38.5287 33.9598 38.5168 33.9371 38.5007 33.9174C38.4846 33.8977 38.4646 33.8814 38.4419 33.8695L37.6719 33.3307C37.6519 33.3127 37.6283 33.2989 37.6027 33.2901C37.577 33.2813 37.5498 33.2778 37.5226 33.2798C37.4955 33.2817 37.4691 33.2891 37.445 33.3014C37.4209 33.3138 37.3997 33.3308 37.3825 33.3515C37.3678 33.3733 37.3578 33.3978 37.3531 33.4235C37.3485 33.4493 37.3493 33.4757 37.3555 33.5011C37.3618 33.5265 37.3733 33.5503 37.3893 33.5712C37.4054 33.592 37.4257 33.6094 37.4489 33.6222Z" fill="white"/>
<path d="M23.1997 32.7815V34.083H25.0157V32.7815H23.1997ZM23.8369 33.0886H23.5926V33.6092H23.7865V33.6665H23.5926V33.8461H23.8369V33.9034H23.5236V33.0184H23.8369V33.0886ZM24.2856 33.742C24.2883 33.7656 24.2857 33.7894 24.2782 33.812C24.2707 33.8345 24.2584 33.8552 24.242 33.8727C24.2257 33.8902 24.2057 33.9041 24.1835 33.9134C24.1612 33.9227 24.1372 33.9273 24.113 33.9268C24.0882 33.9276 24.0634 33.9233 24.0404 33.914C24.0174 33.9047 23.9967 33.8908 23.9796 33.8731C23.9625 33.8553 23.9495 33.8342 23.9414 33.8112C23.9332 33.7881 23.9302 33.7637 23.9325 33.7394V33.6535H23.9989V33.7472C23.9966 33.7631 23.9978 33.7794 24.0025 33.7948C24.0072 33.8103 24.0153 33.8245 24.0261 33.8366C24.0369 33.8487 24.0503 33.8584 24.0653 33.865C24.0803 33.8716 24.0966 33.8749 24.113 33.8747C24.1847 33.8747 24.2192 33.8201 24.2192 33.7498V33.6899C24.2192 33.6327 24.1661 33.6092 24.1051 33.5754C24.044 33.5416 23.9431 33.4921 23.9351 33.3906V33.2136C23.9322 33.1908 23.9342 33.1678 23.941 33.1458C23.9479 33.1239 23.9594 33.1037 23.9749 33.0865C23.9903 33.0693 24.0093 33.0555 24.0306 33.0461C24.0519 33.0366 24.075 33.0317 24.0984 33.0317C24.1218 33.0317 24.1449 33.0366 24.1662 33.0461C24.1875 33.0555 24.2065 33.0693 24.222 33.0865C24.2374 33.1037 24.249 33.1239 24.2558 33.1458C24.2627 33.1678 24.2647 33.1908 24.2617 33.2136V33.3307H24.1953V33.2162C24.1953 33.1511 24.1688 33.0964 24.0998 33.0964C24.0307 33.0964 24.0042 33.1355 24.0042 33.2162V33.3932C24.0042 33.4505 24.0599 33.4843 24.113 33.5129C24.1661 33.5416 24.2856 33.5988 24.2856 33.6899V33.742ZM24.6785 33.0886H24.5538V33.9164H24.4874V33.0886H24.3599V33.0314H24.6785V33.0886ZM24.8113 33.9164H24.7476V33.8018H24.8113V33.9164Z" fill="white"/>
</g>
<defs>
<clipPath id="clip0">
<rect width="51" height="50" fill="white"/>
</clipPath>
</defs>
</svg>
