<?xml version="1.0" standalone="no"?>
<!DOCTYPE svg PUBLIC "-//W3C//DTD SVG 20010904//EN"
 "http://www.w3.org/TR/2001/REC-SVG-20010904/DTD/svg10.dtd">
<svg version="1.0" xmlns="http://www.w3.org/2000/svg"
 width="900.000000pt" height="448.000000pt" viewBox="0 0 900.000000 448.000000"
 preserveAspectRatio="xMidYMid meet">

<g transform="translate(0.000000,448.000000) scale(0.100000,-0.100000)"
fill="#000000" stroke="none">
<path d="M1777 4093 c-10 -3 -16 -10 -14 -16 2 -6 -7 -47 -20 -90 -12 -44 -20
-83 -17 -88 8 -14 30 -10 45 8 10 11 10 14 2 9 -18 -10 -17 -3 12 89 32 104
33 99 -8 88z"/>
<path d="M497 4082 c10 -6 8 -25 -8 -83 -11 -40 -25 -78 -30 -83 -16 -17 -10
-21 30 -21 26 0 36 4 31 10 -12 14 9 95 24 95 7 0 17 -5 24 -12 15 -15 18 -11
28 27 7 29 7 30 -13 13 -28 -25 -47 -23 -39 5 3 12 6 28 6 35 0 17 50 15 70
-3 16 -14 18 -14 23 5 5 19 1 20 -76 20 -45 0 -76 -4 -70 -8z"/>
<path d="M1080 4081 c0 -5 -3 -18 -7 -28 -5 -14 -1 -13 20 6 15 14 30 22 33
18 9 -9 -26 -146 -42 -162 -20 -19 -19 -20 26 -20 34 0 39 3 34 20 -4 19 29
151 42 164 3 3 14 -5 25 -18 10 -13 19 -19 19 -13 0 6 3 17 6 26 5 14 -5 16
-75 16 -45 0 -81 -4 -81 -9z"/>
<path d="M945 4050 c-10 -11 -24 -20 -32 -20 -7 0 -13 -4 -13 -10 0 -5 4 -10
9 -10 5 0 3 -21 -5 -47 -8 -26 -12 -53 -10 -60 7 -18 31 -16 47 4 10 11 10 14
2 9 -16 -9 -16 -2 -2 49 6 22 19 45 28 52 9 7 11 13 4 13 -6 0 -9 9 -6 20 3
11 3 20 1 20 -3 0 -13 -9 -23 -20z"/>
<path d="M807 4020 l-21 -18 27 -41 c15 -22 27 -43 27 -46 0 -12 -40 -3 -48
11 -8 14 -10 14 -14 -4 -8 -30 45 -41 73 -16 24 22 24 35 -1 67 -11 14 -20 30
-20 36 0 17 28 13 39 -6 9 -16 10 -16 11 3 0 29 -43 38 -73 14z"/>
<path d="M1373 4022 c-33 -25 -56 -87 -43 -113 17 -31 34 -18 36 28 2 43 19
83 34 83 13 0 13 -24 -2 -72 -14 -48 -2 -66 32 -48 16 9 19 14 10 20 -9 5 -9
17 -1 46 15 54 14 66 -6 62 -10 -1 -23 0 -28 4 -6 4 -20 -1 -32 -10z"/>
<path d="M665 3998 c-16 -19 -25 -42 -25 -63 0 -37 10 -48 34 -39 12 5 14 10
6 19 -10 12 -9 22 12 78 25 66 35 7 12 -70 -9 -31 21 -42 44 -18 9 10 11 15 5
11 -17 -9 -16 0 2 60 8 27 15 50 15 50 0 1 -18 1 -40 1 -33 0 -45 -6 -65 -29z"/>
<path d="M1239 4023 c-1 -5 -1 -12 0 -16 1 -5 -5 -30 -13 -58 -14 -46 -14 -49
3 -49 11 0 22 14 30 38 17 48 29 62 47 55 9 -3 14 2 14 16 0 26 -18 27 -37 4
-14 -17 -14 -17 -9 0 4 12 0 17 -14 17 -11 0 -21 -3 -21 -7z"/>
<path d="M1488 4023 c-2 -5 1 -37 7 -72 l10 -63 43 46 c44 48 57 96 26 96 -13
0 -15 -7 -11 -27 5 -26 -11 -63 -27 -63 -3 0 -6 13 -6 29 0 16 -3 36 -6 45 -6
16 -30 22 -36 9z"/>
<path d="M1629 4001 c-32 -33 -39 -80 -14 -101 18 -15 76 -2 83 19 3 10 0 11
-17 2 -12 -7 -26 -9 -31 -6 -18 11 -10 33 15 39 28 7 60 49 50 66 -12 20 -56
10 -86 -19z m54 -1 c-5 -20 -43 -49 -43 -33 0 13 30 53 40 53 4 0 6 -9 3 -20z"/>
<path d="M4634 3649 c-5 -8 5 -10 32 -6 41 5 349 -5 787 -26 141 -7 257 -9
257 -6 0 3 -102 11 -227 18 -615 34 -837 39 -849 20z"/>
<path d="M4640 3625 c0 -6 5 -26 10 -45 6 -19 13 -62 16 -95 3 -33 8 -62 10
-64 8 -8 4 67 -7 125 -10 54 -28 103 -29 79z"/>
<path d="M452 3563 c1 -44 2 -45 5 -10 3 29 9 37 24 37 10 0 19 5 19 10 0 6
-11 10 -25 10 -23 0 -25 -3 -23 -47z"/>
<path d="M5747 3603 c18 -2 50 -2 70 0 21 2 7 4 -32 4 -38 0 -55 -2 -38 -4z"/>
<path d="M5903 3593 c15 -2 39 -2 55 0 15 2 2 4 -28 4 -30 0 -43 -2 -27 -4z"/>
<path d="M500 3541 c0 -22 5 -43 10 -46 6 -3 10 1 10 9 0 9 5 15 11 14 16 -4
33 27 26 46 -4 9 -17 16 -32 16 -22 0 -25 -4 -25 -39z m45 9 c0 -7 -6 -15 -12
-17 -8 -3 -13 4 -13 17 0 13 5 20 13 18 6 -3 12 -11 12 -18z"/>
<path d="M570 3572 c0 -7 5 -23 11 -35 9 -16 9 -22 0 -25 -13 -4 -15 -22 -2
-22 11 0 44 80 36 88 -3 4 -9 -4 -12 -17 l-6 -23 -13 23 c-7 13 -13 18 -14 11z"/>
<path d="M630 3570 c0 -5 6 -7 13 -4 8 3 13 -3 13 -16 0 -13 -5 -19 -14 -15
-8 3 -12 0 -10 -7 9 -26 33 -13 36 20 3 27 0 32 -17 32 -12 0 -21 -4 -21 -10z"/>
<path d="M687 3574 c-12 -12 -8 -41 8 -54 20 -17 47 5 43 34 -3 21 -37 34 -51
20z m39 -15 c10 -17 -13 -36 -27 -22 -12 12 -4 33 11 33 5 0 12 -5 16 -11z"/>
<path d="M751 3548 c1 -30 2 -30 8 -9 9 35 29 37 34 4 4 -27 4 -27 6 5 1 28
-2 32 -24 32 -22 0 -25 -4 -24 -32z"/>
<path d="M815 3559 c-8 -25 17 -51 41 -42 23 8 16 22 -8 17 -23 -5 -23 -4 0 6
28 12 24 34 -5 38 -15 2 -23 -4 -28 -19z"/>
<path d="M880 3533 c1 -45 2 -47 16 -28 8 11 18 18 21 15 10 -9 26 27 20 44
-4 9 -17 16 -32 16 -23 0 -25 -3 -25 -47z m45 17 c0 -7 -6 -15 -12 -17 -8 -3
-13 4 -13 17 0 13 5 20 13 18 6 -3 12 -11 12 -18z"/>
<path d="M957 3573 c-11 -11 -8 -40 6 -51 15 -12 31 -4 39 19 10 26 -26 52
-45 32z m30 -39 c-3 -3 -12 -4 -19 -1 -8 3 -5 6 6 6 11 1 17 -2 13 -5z"/>
<path d="M1018 3555 c-7 -34 17 -54 39 -32 15 15 14 16 -8 11 -13 -2 -17 -1
-9 2 33 15 34 44 1 44 -12 0 -20 -9 -23 -25z"/>
<path d="M1080 3561 c-7 -15 -6 -23 5 -35 18 -18 42 -11 50 14 3 10 13 21 21
24 9 4 12 2 8 -5 -4 -6 0 -16 7 -21 10 -7 8 -8 -8 -5 -25 6 -32 -8 -9 -16 19
-7 36 13 32 38 -3 23 -22 31 -40 15 -10 -7 -16 -8 -21 0 -10 16 -33 12 -45 -9z
m40 -17 c0 -8 -7 -14 -15 -14 -15 0 -21 21 -9 33 10 9 24 -2 24 -19z"/>
<path d="M1202 3550 c0 -19 2 -29 5 -22 3 9 9 10 17 3 10 -8 13 -3 13 19 0 22
-3 27 -13 19 -8 -7 -14 -6 -17 3 -3 7 -5 -3 -5 -22z"/>
<path d="M1250 3550 c0 -31 13 -40 26 -18 4 6 2 14 -4 16 -6 2 -8 10 -5 18 3
8 0 14 -6 14 -6 0 -11 -13 -11 -30z"/>
<path d="M1286 3572 c-7 -12 5 -52 15 -52 5 0 9 14 9 30 0 28 -13 40 -24 22z"/>
<path d="M1350 3550 c0 -34 22 -49 44 -31 22 18 8 61 -20 61 -20 0 -24 -5 -24
-30z"/>
<path d="M1450 3551 c0 -35 13 -46 38 -32 10 5 24 6 31 2 25 -16 52 0 49 28
-3 29 -33 41 -52 21 -8 -10 -5 -11 14 -6 24 7 24 6 6 -8 -26 -21 -36 -20 -36
4 0 15 -7 20 -25 20 -21 0 -25 -5 -25 -29z m37 13 c-3 -3 -12 -4 -19 -1 -8 3
-5 6 6 6 11 1 17 -2 13 -5z m0 -30 c-3 -3 -12 -4 -19 -1 -8 3 -5 6 6 6 11 1
17 -2 13 -5z"/>
<path d="M1582 3548 c3 -29 7 -33 36 -34 18 -1 38 4 45 11 10 9 15 9 25 -1 7
-7 19 -11 27 -8 23 9 18 23 -7 18 l-23 -5 23 10 c26 12 29 29 6 38 -11 4 -22
-1 -30 -12 -13 -17 -14 -17 -14 -2 0 9 -4 17 -10 17 -5 0 -10 -11 -10 -25 0
-34 -18 -32 -23 3 l-4 27 -2 -27 c0 -16 -7 -28 -15 -28 -9 0 -12 8 -8 25 2 15
0 25 -7 25 -8 0 -11 -12 -9 -32z m135 16 c-3 -3 -12 -4 -19 -1 -8 3 -5 6 6 6
11 1 17 -2 13 -5z"/>
<path d="M1740 3550 c0 -16 4 -30 9 -30 12 0 24 37 16 50 -12 20 -25 10 -25
-20z"/>
<path d="M1781 3554 c-6 -15 -9 -29 -5 -33 4 -3 9 0 12 8 4 11 6 11 13 0 6
-10 9 -4 9 19 0 39 -12 41 -29 6z"/>
<path d="M1861 3547 c2 -31 2 -31 6 -4 5 30 33 38 33 8 0 -10 6 -24 13 -30 21
-16 51 10 43 36 -6 18 -15 21 -51 21 -44 0 -45 0 -44 -31z m79 3 c0 -21 -15
-27 -25 -10 -7 12 2 30 16 30 5 0 9 -9 9 -20z"/>
<path d="M1971 3533 c0 -27 3 -41 7 -33 4 8 14 16 22 18 8 2 16 8 18 12 2 5
14 3 26 -5 20 -14 25 -14 35 -1 17 20 10 50 -12 54 -10 2 -24 -4 -31 -14 -12
-15 -13 -15 -19 0 -4 9 -16 16 -27 16 -17 0 -20 -6 -19 -47z m39 11 c0 -16
-16 -19 -25 -4 -8 13 4 32 16 25 5 -4 9 -13 9 -21z m65 6 c0 -7 -6 -15 -12
-17 -8 -3 -13 4 -13 17 0 13 5 20 13 18 6 -3 12 -11 12 -18z"/>
<path d="M2102 3547 c-15 -42 -15 -54 -1 -40 8 8 20 9 36 2 23 -9 25 -7 19 13
-3 13 -6 31 -6 41 0 31 -35 19 -48 -16z m38 3 c0 -11 -6 -20 -14 -20 -9 0 -12
7 -9 20 3 11 9 20 14 20 5 0 9 -9 9 -20z"/>
<path d="M2177 3573 c-20 -20 4 -66 29 -56 23 8 16 21 -8 17 -17 -3 -15 -1 5
7 22 9 26 14 16 25 -12 15 -31 18 -42 7z m30 -9 c-3 -3 -12 -4 -19 -1 -8 3 -5
6 6 6 11 1 17 -2 13 -5z"/>
<path d="M3426 3528 c-3 -7 -7 -36 -10 -64 -4 -48 -13 -65 -81 -160 -14 -20 2
-29 28 -15 12 7 42 30 67 52 l45 39 -23 16 c-22 15 -23 21 -17 80 4 35 4 64 1
64 -4 0 -8 -6 -10 -12z"/>
<path d="M4681 3394 c0 -11 3 -14 6 -6 3 7 2 16 -1 19 -3 4 -6 -2 -5 -13z"/>
<path d="M3735 3369 c-4 -6 -14 -8 -23 -4 -14 5 -62 -30 -62 -46 0 -4 27 -5
60 -2 37 3 60 1 60 -6 0 -15 -41 -25 -50 -11 -6 9 -9 9 -15 0 -4 -7 -21 -9
-44 -6 -32 5 -39 2 -60 -26 l-25 -31 61 7 c43 4 62 3 65 -5 2 -7 28 10 56 38
44 41 60 50 95 52 25 1 50 9 60 20 18 18 18 19 -17 25 -20 4 -42 4 -48 -1 -21
-12 -91 -16 -83 -4 3 6 -1 11 -9 11 -8 0 -18 -5 -21 -11z"/>
<path d="M4691 3314 c0 -11 3 -14 6 -6 3 7 2 16 -1 19 -3 4 -6 -2 -5 -13z"/>
<path d="M835 3310 c3 -5 8 -10 11 -10 2 0 4 5 4 10 0 6 -5 10 -11 10 -5 0 -7
-4 -4 -10z"/>
<path d="M453 3288 c9 -7 18 -29 20 -48 l4 -35 1 37 c1 23 8 41 20 47 14 8 9
10 -22 11 -34 0 -37 -2 -23 -12z"/>
<path d="M857 3293 c-3 -5 -1 -26 3 -48 l8 -40 1 48 c1 45 -2 56 -12 40z"/>
<path d="M811 3251 c-1 -28 3 -41 8 -35 6 5 6 24 1 44 l-8 35 -1 -44z"/>
<path d="M514 3256 c-9 -24 4 -48 23 -44 12 2 18 12 18 28 0 29 -32 41 -41 16z
m36 -16 c0 -11 -7 -20 -15 -20 -8 0 -15 9 -15 20 0 11 7 20 15 20 8 0 15 -9
15 -20z"/>
<path d="M582 3240 c0 -19 2 -28 5 -20 3 8 13 24 22 35 15 18 15 19 -1 7 -13
-10 -17 -10 -21 0 -3 7 -5 -3 -5 -22z"/>
<path d="M631 3243 c-1 -34 12 -45 23 -18 3 8 1 15 -4 15 -5 0 -11 8 -13 18
-3 9 -5 2 -6 -15z"/>
<path d="M667 3263 c-2 -5 -1 -19 4 -33 7 -23 7 -23 8 8 1 31 -3 40 -12 25z"/>
<path d="M696 3254 c-9 -22 17 -49 39 -40 10 3 15 15 13 28 -4 29 -42 37 -52
12z m44 -8 c0 -8 -5 -18 -11 -22 -14 -8 -33 11 -25 25 10 16 36 13 36 -3z"/>
<path d="M837 3263 c-4 -3 -7 -11 -7 -17 0 -6 5 -5 12 2 6 6 9 14 7 17 -3 3
-9 2 -12 -2z"/>
<path d="M894 3256 c-9 -24 4 -48 23 -44 12 2 18 12 18 28 0 29 -32 41 -41 16z
m36 -17 c0 -24 -23 -21 -28 4 -2 10 3 17 12 17 10 0 16 -9 16 -21z"/>
<path d="M962 3240 c0 -19 2 -28 5 -20 3 8 13 24 22 35 15 18 15 19 -1 7 -13
-10 -17 -10 -21 0 -3 7 -5 -3 -5 -22z"/>
<path d="M1014 3255 c-8 -21 2 -45 19 -45 21 0 38 25 31 44 -8 20 -43 21 -50
1z m41 -15 c0 -22 -29 -18 -33 3 -3 14 1 18 15 15 10 -2 18 -10 18 -18z"/>
<path d="M1081 3238 c2 -28 2 -29 6 -8 3 14 10 28 17 32 7 5 5 8 -6 8 -14 0
-18 -8 -17 -32z"/>
<path d="M1126 3261 c-4 -5 4 -7 16 -3 11 3 19 1 16 -4 -3 -5 -2 -18 3 -29 6
-16 8 -14 8 13 1 25 -3 32 -18 32 -11 0 -22 -4 -25 -9z"/>
<path d="M1191 3238 c0 -28 2 -30 9 -13 12 28 12 45 0 45 -5 0 -10 -15 -9 -32z"/>
<path d="M1236 3261 c-4 -5 -2 -20 3 -33 9 -21 10 -21 10 10 1 32 -3 39 -13
23z"/>
<path d="M1270 3262 c0 -6 9 -8 19 -5 15 4 19 0 17 -13 -2 -10 -9 -20 -16 -22
-7 -3 -10 0 -6 7 4 6 2 11 -3 11 -6 0 -11 -7 -11 -15 0 -10 9 -14 25 -13 21 2
25 7 23 28 -2 17 -10 26 -25 28 -13 2 -23 -1 -23 -6z"/>
<path d="M4697 3248 c-3 -12 -2 -29 3 -37 7 -12 9 -6 10 22 0 42 -5 48 -13 15z"/>
<path d="M768 3233 c7 -3 16 -2 19 1 4 3 -2 6 -13 5 -11 0 -14 -3 -6 -6z"/>
<path d="M1120 3225 c0 -8 8 -15 18 -14 10 0 12 3 4 6 -6 2 -10 9 -6 14 3 5 0
9 -5 9 -6 0 -11 -7 -11 -15z"/>
<path d="M4273 3224 c-227 -21 -302 -46 -384 -126 -61 -59 -303 -359 -354
-438 -43 -67 -76 -147 -74 -184 0 -21 0 -21 8 -1 5 11 16 45 26 75 22 68 63
129 218 323 175 220 228 270 309 295 36 11 103 26 149 32 46 6 98 13 114 15
17 3 104 7 195 11 91 4 167 9 170 11 9 8 -244 -1 -377 -13z"/>
<path d="M985 3220 c3 -5 8 -10 11 -10 2 0 4 5 4 10 0 6 -5 10 -11 10 -5 0 -7
-4 -4 -10z"/>
<path d="M1210 3220 c0 -5 5 -10 10 -10 6 0 10 5 10 10 0 6 -4 10 -10 10 -5 0
-10 -4 -10 -10z"/>
<path d="M4712 3160 c0 -19 3 -60 8 -90 l7 -55 1 45 c0 25 -3 65 -7 90 -8 41
-9 42 -9 10z"/>
<path d="M3337 3169 c-76 -4 -180 -15 -230 -23 -51 -9 -110 -18 -132 -22 -61
-9 -61 -19 -1 -16 57 4 76 -11 57 -46 -5 -9 -10 -35 -12 -57 -2 -22 -10 -46
-19 -52 -26 -21 7 -35 71 -29 51 5 57 3 62 -14 5 -21 32 -26 56 -11 9 6 15 27
16 52 2 63 25 76 157 82 64 4 110 2 113 -4 10 -15 -14 -156 -40 -244 -18 -61
-38 -99 -80 -155 -31 -41 -66 -79 -78 -83 -12 -4 -79 -7 -149 -5 l-127 3 -30
-29 c-16 -15 -35 -26 -42 -24 -18 6 -13 85 12 216 30 161 24 241 -15 180 -22
-36 -34 -82 -61 -242 -14 -83 -26 -151 -28 -152 -1 -1 -48 -5 -104 -9 l-103
-8 0 39 c0 85 29 140 139 265 50 57 60 74 48 80 -14 8 -49 5 -67 -6 -16 -10
-12 5 11 36 11 16 24 43 29 59 l9 30 -35 -26 c-33 -25 -485 -497 -525 -548
-11 -15 -26 -26 -33 -26 -7 0 -23 -11 -36 -25 -17 -19 -20 -26 -9 -29 15 -4
367 -35 699 -61 107 -9 201 -18 208 -20 31 -11 116 81 392 425 46 58 153 189
237 292 84 102 153 191 153 196 0 6 -7 13 -16 16 -21 8 -324 5 -497 -5z"/>
<path d="M4260 3145 c-246 -31 -290 -50 -387 -166 -165 -196 -498 -643 -591
-791 -69 -111 -56 -128 84 -107 46 7 87 9 91 6 3 -4 8 -103 10 -220 3 -116 6
-216 9 -222 2 -5 3 94 1 221 l-2 232 65 10 c267 40 372 66 634 153 148 50 285
101 306 114 20 13 45 39 54 59 22 47 42 203 57 442 10 173 10 194 -5 226 -9
19 -28 40 -42 47 -32 14 -150 12 -284 -4z m162 -129 c4 -6 8 -26 8 -44 l0 -33
-42 6 c-24 4 -63 1 -88 -6 -47 -12 -71 -14 -158 -9 -38 2 -58 -2 -69 -12 -20
-21 -45 -154 -37 -202 6 -40 -4 -56 -38 -56 -16 0 -17 14 -12 168 3 92 7 177
10 188 4 22 5 22 211 17 138 -4 210 -9 215 -17z m-604 -743 c-1 -10 2 -33 6
-50 7 -31 6 -33 -19 -33 -23 0 -26 2 -15 15 11 13 10 15 -6 9 -18 -5 -18 -5 1
10 16 14 17 20 8 36 -10 15 -9 19 5 23 9 3 18 5 19 6 1 0 1 -7 1 -16z"/>
<path d="M7441 3133 c0 -4 4 -17 9 -28 8 -19 9 -19 9 2 1 12 -3 25 -9 28 -5 3
-10 3 -9 -2z"/>
<path d="M4731 2994 c0 -11 3 -14 6 -6 3 7 2 16 -1 19 -3 4 -6 -2 -5 -13z"/>
<path d="M461 2963 c0 -11 3 -13 6 -5 10 25 33 12 33 -18 0 -23 -4 -30 -20
-30 -12 0 -20 7 -21 18 0 14 -2 14 -9 -3 -5 -11 -9 -27 -9 -35 1 -10 2 -11 6
-2 2 6 15 12 27 12 12 0 28 -6 35 -12 11 -11 13 -10 7 5 -3 10 -6 34 -6 53 0
30 -3 34 -25 34 -17 0 -25 -5 -24 -17z"/>
<path d="M802 2940 l-1 -45 24 29 23 29 5 -29 c3 -21 4 -16 5 16 l1 45 -24
-29 -23 -29 -5 29 c-3 21 -4 16 -5 -16z"/>
<path d="M537 2953 c-4 -3 -7 -17 -7 -30 0 -18 5 -23 23 -22 16 1 18 2 5 6
-10 2 -18 13 -18 24 0 11 7 19 18 19 14 0 15 -2 2 -10 -8 -5 -12 -11 -9 -14 9
-9 32 12 25 23 -8 12 -29 15 -39 4z"/>
<path d="M598 2931 c-2 -17 -1 -28 4 -25 4 3 8 14 8 25 0 29 18 23 23 -8 4
-26 4 -26 6 5 1 25 -3 32 -18 32 -13 0 -20 -9 -23 -29z"/>
<path d="M661 2933 c-1 -35 12 -44 24 -15 7 16 8 15 15 -3 7 -16 9 -13 9 15
l1 35 -19 -24 -19 -25 -5 25 c-3 20 -5 18 -6 -8z"/>
<path d="M881 2930 c0 -30 1 -32 11 -16 11 19 11 19 24 1 13 -17 14 -16 13 16
0 19 -3 28 -6 22 -2 -7 -11 -13 -18 -13 -7 0 -16 6 -18 13 -3 6 -6 -4 -6 -23z"/>
<path d="M960 2950 c0 -5 7 -7 15 -4 10 4 15 0 15 -16 0 -16 -5 -21 -22 -18
-16 2 -23 -3 -25 -17 -1 -11 0 -14 3 -7 3 6 13 12 23 12 9 0 23 -6 30 -12 11
-11 13 -10 7 5 -3 10 -6 30 -6 43 0 17 -6 24 -20 24 -11 0 -20 -4 -20 -10z"/>
<path d="M1020 2932 c0 -18 5 -32 10 -32 6 0 8 11 4 28 -10 39 -14 40 -14 4z"/>
<path d="M1052 2948 c-14 -14 -16 -32 -3 -23 5 3 12 -3 14 -12 3 -10 5 -3 6
15 1 36 0 37 -17 20z"/>
<path d="M1085 2951 c-3 -5 -1 -13 5 -16 8 -5 7 -11 -1 -21 -7 -9 -8 -14 -1
-14 6 0 13 6 16 13 5 10 7 10 12 0 11 -24 21 -13 16 17 -4 30 -33 42 -47 21z
m35 -11 c0 -5 -4 -10 -10 -10 -5 0 -10 5 -10 10 0 6 5 10 10 10 6 0 10 -4 10
-10z"/>
<path d="M4732 2935 c0 -16 2 -22 5 -12 2 9 2 23 0 30 -3 6 -5 -1 -5 -18z"/>
<path d="M4743 2840 c0 -30 2 -43 4 -27 2 15 2 39 0 55 -2 15 -4 2 -4 -28z"/>
<path d="M7511 2834 c0 -11 3 -14 6 -6 3 7 2 16 -1 19 -3 4 -6 -2 -5 -13z"/>
<path d="M4752 2725 c0 -16 2 -22 5 -12 2 9 2 23 0 30 -3 6 -5 -1 -5 -18z"/>
<path d="M7610 2701 c0 -5 7 -11 14 -14 10 -4 13 -1 9 9 -6 15 -23 19 -23 5z"/>
<path d="M5713 2690 c-30 -12 -40 -56 -22 -89 19 -34 68 -40 93 -12 26 29 14
88 -20 101 -14 6 -26 10 -27 9 -1 0 -12 -4 -24 -9z"/>
<path d="M5559 2673 c0 -5 0 -55 1 -113 l1 -105 -18 35 c-11 21 -33 42 -57 54
-36 17 -43 18 -80 5 -26 -9 -48 -26 -61 -46 -11 -18 -23 -32 -26 -33 -4 0 -9
18 -12 41 -3 22 -17 58 -31 79 -32 49 -74 62 -181 58 l-80 -3 4 -210 c1 -115
5 -213 8 -218 6 -10 171 2 206 15 31 12 62 51 73 92 l7 28 13 -37 c19 -56 54
-86 106 -92 53 -6 103 16 120 52 15 33 6 49 -35 62 -29 9 -38 8 -51 -5 -12
-13 -18 -13 -30 -2 -29 23 -16 30 59 30 l75 0 0 -35 c0 -70 46 -117 96 -98 10
4 45 7 79 7 l60 1 -2 120 -2 120 31 -117 32 -118 67 0 67 0 13 87 13 86 11
-58 c9 -45 20 -65 45 -88 34 -30 35 -30 163 -14 21 3 35 1 31 -4 -3 -5 -14 -9
-25 -9 -10 0 -19 -4 -19 -10 0 -6 41 -10 104 -10 l104 0 -5 -41 c-7 -48 4 -59
57 -59 45 0 75 21 100 69 l19 38 358 7 c197 4 375 9 396 12 34 5 37 8 37 40 0
33 -14 46 -23 22 -3 -10 -8 -9 -20 2 -10 10 -18 50 -24 123 -11 118 -25 147
-74 147 -18 0 -34 -9 -48 -27 l-20 -28 -1 28 c0 25 -3 27 -41 27 l-42 0 8
-117 c8 -135 0 -148 -14 -23 -8 77 -12 87 -42 113 -28 26 -38 29 -78 24 -31
-3 -51 -12 -64 -29 l-20 -23 6 30 c3 17 9 49 12 73 l7 42 -50 0 -49 0 -6 -47
c-4 -27 -9 -82 -13 -123 -7 -81 -23 -128 -25 -75 0 17 -13 77 -27 135 l-27
105 -39 3 c-62 5 -68 0 -51 -49 8 -23 15 -43 15 -45 0 -1 -19 -4 -42 -6 -40
-3 -43 -5 -46 -33 -1 -16 -5 -59 -9 -95 l-6 -65 -16 95 -16 95 -60 2 c-62 1
-81 -7 -95 -42 -8 -18 -9 -17 -9 8 -1 25 -4 27 -46 27 l-45 0 0 -41 0 -42 -23
34 c-44 66 -114 75 -169 22 l-30 -28 7 28 7 28 -53 -3 -54 -3 -10 -100 -10
-100 -17 99 c-9 54 -19 101 -22 103 -3 3 -49 2 -102 -2 l-97 -7 6 -109 c3 -60
2 -109 -3 -109 -16 0 -20 33 -20 153 0 67 -3 139 -6 160 -7 37 -7 37 -55 37
-27 0 -49 -3 -50 -7z m-375 -155 c20 -27 22 -158 4 -176 -7 -7 -22 -12 -35
-12 -23 0 -23 2 -23 105 0 97 1 105 19 105 11 0 27 -10 35 -22z m1512 -108
l30 -110 -54 0 c-54 0 -54 0 -49 28 3 15 11 64 18 110 8 45 16 82 19 82 3 0
19 -50 36 -110z m311 53 c3 -7 -15 -20 -39 -31 -56 -24 -71 -44 -71 -90 0 -30
-4 -38 -18 -38 -19 0 -19 0 2 112 l10 52 35 -11 c31 -9 37 -8 46 7 10 18 29
18 35 -1z m233 -59 c0 -36 5 -74 11 -86 9 -17 8 -19 -8 -16 -12 2 -20 16 -25
43 -9 51 -10 120 -2 128 16 15 24 -9 24 -69z m-1076 50 c9 -23 8 -24 -14 -24
-19 0 -27 20 -13 33 11 11 20 8 27 -9z m322 -151 c0 0 -27 -3 -59 -5 l-58 -4
3 75 c3 76 3 76 33 81 29 6 30 4 56 -70 15 -41 26 -76 25 -77z m-1026 132 c0
-8 -9 -15 -20 -15 -20 0 -26 11 -13 23 12 13 33 7 33 -8z m1550 -64 c0 -11 -4
-22 -9 -25 -11 -7 -20 14 -13 32 7 19 22 14 22 -7z m-740 -17 c0 -17 -7 -17
-49 -3 -24 8 -35 8 -46 -1 -16 -13 -45 -7 -45 9 0 9 115 20 133 13 4 -2 7 -10
7 -18z m9 -56 c12 -16 10 -18 -20 -18 -32 0 -32 0 -13 19 10 10 19 18 19 17 1
0 7 -9 14 -18z m859 5 c-43 -2 -113 -2 -155 0 -43 1 -8 3 77 3 85 0 120 -2 78
-3z m155 -30 c-29 -2 -77 -2 -105 0 -29 2 -6 3 52 3 58 0 81 -1 53 -3z m-978
-23 c3 -5 2 -10 -4 -10 -5 0 -13 5 -16 10 -3 6 -2 10 4 10 5 0 13 -4 16 -10z
m75 0 c0 -5 -9 -10 -19 -10 -11 0 -23 5 -26 10 -4 6 5 10 19 10 14 0 26 -4 26
-10z"/>
<path d="M450 2649 c-9 -16 -8 -26 5 -45 18 -27 37 -31 55 -9 14 17 0 21 -17
4 -7 -7 -15 -5 -27 6 -21 22 -4 59 25 52 10 -3 17 -1 13 4 -10 16 -43 9 -54
-12z"/>
<path d="M792 2630 c0 -22 4 -40 9 -40 5 0 9 8 9 17 0 14 4 13 24 -6 20 -19
28 -21 45 -12 37 20 22 81 -20 81 -9 0 -24 -10 -32 -22 l-16 -23 0 23 c-1 12
-5 22 -10 22 -6 0 -9 -18 -9 -40z m96 4 c4 -29 -23 -51 -43 -34 -18 15 -19 32
-3 48 18 18 42 10 46 -14z"/>
<path d="M1232 2630 c0 -25 2 -37 5 -27 6 22 19 22 27 1 4 -9 9 -14 13 -11 3
4 0 13 -7 22 -11 13 -10 19 5 35 10 11 13 20 7 20 -6 0 -17 -10 -24 -22 l-12
-23 -7 25 c-5 19 -7 14 -7 -20z"/>
<path d="M7541 2654 c0 -11 3 -14 6 -6 3 7 2 16 -1 19 -3 4 -6 -2 -5 -13z"/>
<path d="M7617 2653 c3 -7 9 -13 13 -13 4 0 10 6 13 13 3 7 -3 13 -13 13 -10
0 -16 -6 -13 -13z"/>
<path d="M542 2638 c-16 -16 -15 -33 3 -48 13 -10 18 -11 28 -1 9 10 8 11 -4
6 -10 -4 -20 -2 -24 4 -3 6 2 11 13 11 26 0 34 11 21 27 -14 16 -22 16 -37 1z
m28 -8 c0 -5 -4 -10 -10 -10 -5 0 -10 5 -10 10 0 6 5 10 10 10 6 0 10 -4 10
-10z"/>
<path d="M666 2638 c-11 -36 -14 -60 -6 -52 4 5 10 18 12 28 5 31 26 30 31 -1
4 -27 4 -27 6 5 1 26 -3 32 -19 32 -11 0 -22 -6 -24 -12z"/>
<path d="M919 2634 c7 -15 7 -25 -2 -34 -10 -12 -9 -12 6 -1 14 11 17 11 17 0
0 -11 2 -11 10 1 9 13 11 13 19 1 7 -10 9 -7 8 12 -2 18 -5 22 -14 16 -7 -7
-13 -5 -16 3 -4 10 -6 9 -6 -1 -1 -11 -5 -10 -17 5 -15 18 -15 18 -5 -2z"/>
<path d="M1070 2639 c-12 -8 -10 -9 8 -4 13 4 22 2 22 -4 0 -6 -6 -11 -14 -11
-19 0 -31 -19 -19 -31 17 -17 44 2 41 29 -3 29 -16 36 -38 21z m30 -33 c0 -11
-19 -15 -25 -6 -3 5 1 10 9 10 9 0 16 -2 16 -4z"/>
<path d="M1139 2648 c-1 -2 -2 -15 -3 -30 -1 -19 1 -24 9 -18 7 6 16 5 24 -3
10 -10 12 -6 9 18 -2 19 -9 31 -20 33 -10 2 -19 2 -19 0z m26 -18 c3 -5 -1
-10 -9 -10 -9 0 -16 5 -16 10 0 6 4 10 9 10 6 0 13 -4 16 -10z"/>
<path d="M1301 2631 c-14 -24 8 -55 32 -45 21 8 22 50 1 58 -22 8 -22 8 -33
-13z m35 -27 c-5 -13 -10 -14 -18 -6 -6 6 -8 18 -4 28 5 13 10 14 18 6 6 -6 8
-18 4 -28z"/>
<path d="M1400 2633 c12 -18 12 -24 -1 -40 -13 -16 -13 -17 4 -4 21 17 22 35
0 52 -15 13 -15 12 -3 -8z"/>
<path d="M1442 2638 c-16 -16 -15 -33 3 -48 13 -10 18 -11 28 -1 9 10 8 11 -4
6 -10 -4 -20 -2 -24 4 -3 7 3 11 15 11 15 0 20 5 18 17 -4 21 -21 26 -36 11z
m28 -8 c0 -5 -4 -10 -10 -10 -5 0 -10 5 -10 10 0 6 5 10 10 10 6 0 10 -4 10
-10z"/>
<path d="M1509 2648 c-1 -2 -2 -15 -3 -30 -1 -19 1 -24 9 -18 7 6 16 5 24 -3
10 -10 12 -6 9 18 -2 19 -9 31 -20 33 -10 2 -19 2 -19 0z m26 -18 c3 -5 -1
-10 -9 -10 -9 0 -16 5 -16 10 0 6 4 10 9 10 6 0 13 -4 16 -10z"/>
<path d="M4762 2625 c0 -16 2 -22 5 -12 2 9 2 23 0 30 -3 6 -5 -1 -5 -18z"/>
<path d="M628 2621 c-9 -11 -14 -22 -11 -25 3 -3 0 -12 -7 -21 -7 -8 -8 -15
-3 -15 6 0 17 18 26 40 18 46 17 47 -5 21z"/>
<path d="M998 2613 c3 -16 7 -22 9 -15 3 6 11 12 18 12 7 0 15 7 19 15 7 18
-10 20 -18 3 -5 -10 -7 -10 -12 0 -11 22 -21 12 -16 -15z"/>
<path d="M1367 2590 c-3 -11 -1 -20 4 -20 5 0 9 9 9 20 0 11 -2 20 -4 20 -2 0
-6 -9 -9 -20z"/>
<path d="M4762 2550 c0 -14 2 -19 5 -12 2 6 2 18 0 25 -3 6 -5 1 -5 -13z"/>
<path d="M4773 2420 c0 -36 2 -50 4 -32 2 17 2 47 0 65 -2 17 -4 3 -4 -33z"/>
<path d="M452 2318 l-2 -48 45 0 45 0 -2 48 -1 47 -4 -42 c-3 -28 -9 -43 -18
-43 -9 0 -15 15 -18 43 l-4 42 -1 -42 c-1 -30 -6 -43 -16 -43 -10 0 -16 14
-19 43 l-4 42 -1 -47z"/>
<path d="M830 2348 c0 -4 4 -8 9 -8 6 0 12 4 15 8 3 5 -1 9 -9 9 -8 0 -15 -4
-15 -9z"/>
<path d="M953 2315 c0 -27 2 -40 4 -27 2 12 7 22 10 22 2 0 14 -10 25 -22 l20
-23 -15 26 c-14 23 -14 29 -1 48 8 11 11 21 5 21 -5 0 -13 -9 -16 -20 -8 -27
-23 -25 -28 3 -2 12 -4 0 -4 -28z"/>
<path d="M1226 2348 c3 -5 10 -6 15 -3 13 9 11 12 -6 12 -8 0 -12 -4 -9 -9z"/>
<path d="M4777 2283 c8 -90 15 -95 12 -10 -1 37 -6 70 -10 73 -5 3 -6 -26 -2
-63z"/>
<path d="M570 2330 c-12 -8 -9 -10 10 -10 l25 0 -24 -13 c-30 -15 -28 -32 4
-33 19 -1 25 4 25 21 0 29 -21 47 -40 35z m25 -40 c-3 -5 -10 -10 -16 -10 -5
0 -9 5 -9 10 0 6 7 10 16 10 8 0 12 -4 9 -10z"/>
<path d="M759 2329 c-10 -6 -8 -9 11 -9 l25 -1 -23 -10 c-28 -11 -24 -34 6
-35 18 -1 22 4 22 26 0 30 -19 43 -41 29z m26 -39 c-3 -5 -10 -10 -16 -10 -5
0 -9 5 -9 10 0 6 7 10 16 10 8 0 12 -4 9 -10z"/>
<path d="M1097 2305 c8 -40 13 -45 13 -12 0 15 5 27 10 27 6 0 10 4 10 8 0 4
-9 8 -19 8 -16 0 -19 -5 -14 -31z"/>
<path d="M1155 2330 c-4 -6 2 -10 12 -11 14 0 13 -2 -5 -10 -24 -9 -26 -31 -4
-35 7 -1 8 0 2 3 -5 2 -8 9 -4 14 9 15 22 10 27 -8 3 -10 5 -4 6 13 1 31 -22
54 -34 34z"/>
<path d="M623 2304 c0 -18 3 -22 10 -15 16 16 25 14 30 -6 3 -10 5 -2 6 17 0
27 -2 32 -10 20 -8 -11 -12 -12 -16 -2 -8 21 -20 13 -20 -14z"/>
<path d="M694 2297 c-1 -18 2 -24 7 -16 6 10 11 10 26 -2 16 -13 17 -12 5 2
-7 9 -10 23 -7 31 3 8 -1 14 -12 14 -13 0 -18 -9 -19 -29z"/>
<path d="M821 2300 l-1 -35 19 24 19 25 5 -25 c3 -20 5 -18 6 9 1 34 -12 43
-24 15 -7 -17 -8 -16 -15 2 -7 16 -9 13 -9 -15z"/>
<path d="M1021 2300 l0 -35 19 23 19 22 4 -22 c3 -16 5 -13 6 11 1 33 0 34
-18 17 -18 -17 -19 -17 -24 1 -3 10 -5 2 -6 -17z"/>
<path d="M1211 2300 l-1 -35 19 24 19 25 5 -25 c3 -20 5 -18 6 9 1 34 -12 43
-24 15 -7 -17 -8 -16 -15 2 -7 16 -9 13 -9 -15z"/>
<path d="M2005 2286 c-90 -35 -95 -37 -95 -48 0 -6 8 -7 18 -3 9 4 52 18 95
32 42 13 77 29 77 34 0 14 -30 10 -95 -15z"/>
<path d="M7651 2284 c0 -11 3 -14 6 -6 3 7 2 16 -1 19 -3 4 -6 -2 -5 -13z"/>
<path d="M2415 2232 c-49 -15 -97 -32 -105 -37 -22 -14 44 -22 240 -31 153 -6
171 -5 245 16 89 25 120 38 110 48 -6 7 -288 31 -360 31 -22 0 -80 -12 -130
-27z"/>
<path d="M7597 2133 c7 -119 7 -433 0 -478 -4 -18 -19 -22 -168 -38 -155 -17
-167 -17 -212 -2 -62 22 -156 16 -217 -14 -39 -19 -71 -23 -230 -31 -160 -9
-459 -28 -1060 -70 -80 -6 -309 -21 -510 -35 -201 -14 -374 -26 -385 -28 -20
-3 -20 1 -17 275 2 153 0 278 -5 278 -4 0 -7 -105 -7 -232 1 -128 -1 -253 -5
-278 l-6 -45 -60 -2 c-114 -5 -870 -54 -965 -63 l-95 -8 -20 26 c-10 15 -44
52 -75 82 -36 37 -41 40 -14 10 23 -25 53 -61 68 -81 l26 -36 -46 -7 c-80 -11
-113 -7 -164 19 -68 34 -152 55 -224 55 -104 0 -237 -43 -317 -102 -25 -19
-39 -20 -146 -16 -93 3 -127 8 -157 23 -20 11 -79 67 -131 125 l-93 104 41 14
c22 8 57 24 76 37 42 26 165 153 181 187 7 15 3 12 -11 -7 -46 -62 -157 -161
-209 -187 -88 -42 -147 -56 -277 -68 -202 -17 -273 -11 -273 22 0 6 -7 16 -17
23 -15 11 -14 18 12 89 24 67 31 76 52 76 14 0 51 6 82 14 126 32 600 86 635
73 16 -6 23 8 8 17 -4 2 -48 1 -97 -4 -50 -4 -92 -6 -93 -5 -2 2 13 13 35 24
21 11 34 20 29 21 -5 0 -28 -11 -52 -25 -35 -21 -68 -28 -196 -41 -84 -9 -236
-26 -338 -38 -182 -22 -185 -22 -206 -4 -16 14 -70 28 -189 49 -143 25 -245
56 -245 75 0 2 8 17 17 32 l16 27 -22 -21 c-21 -20 -37 -72 -61 -199 -4 -22
-8 -34 -9 -27 -2 26 -16 10 -16 -20 0 -17 -6 -33 -12 -35 -9 -3 -13 7 -13 31
0 20 -3 36 -8 36 -4 0 -7 -14 -7 -32 0 -17 -6 -33 -12 -35 -9 -3 -13 7 -13 31
0 20 -5 36 -11 36 -6 0 -9 -16 -7 -37 3 -37 4 -38 45 -41 34 -3 43 -7 43 -22
0 -10 8 -23 18 -29 14 -8 15 -12 4 -23 -11 -11 -15 -10 -22 2 -11 17 -11 15
-13 -67 -1 -46 1 -49 38 -70 22 -13 39 -29 37 -35 -2 -7 0 -10 4 -6 4 4 21 -1
39 -12 18 -11 76 -29 130 -40 121 -25 124 -23 182 87 l43 80 -63 10 -62 10 66
2 66 1 27 61 c14 33 26 62 26 65 0 2 -26 5 -57 5 -32 1 -71 5 -88 9 -19 4 4 6
60 6 l90 -1 3 33 c3 31 5 32 48 34 24 0 50 1 57 2 22 2 19 -41 -7 -97 -14 -30
-26 -56 -26 -59 0 -3 -26 -52 -58 -109 -119 -212 -134 -225 -241 -214 -168 17
-232 45 -291 127 l-27 37 -2 -107 c-1 -69 -6 -111 -14 -118 -7 -7 -211 -21
-537 -38 -289 -15 -558 -30 -597 -33 l-73 -6 0 -568 0 -569 4500 0 4500 0 0
815 0 815 -27 0 c-16 0 -233 -11 -483 -25 -250 -14 -520 -29 -599 -33 -96 -6
-146 -12 -149 -20 -9 -27 -30 -10 -35 29 -3 23 -9 45 -14 48 -4 3 -9 125 -10
271 -1 146 -5 285 -10 310 -8 43 -10 45 -47 48 l-38 3 9 -128z m53 -108 c0 -8
-4 -15 -9 -15 -5 0 -11 7 -15 15 -3 9 0 15 9 15 8 0 15 -7 15 -15z m-6373
-307 c-3 -8 -6 -5 -6 6 -1 11 2 17 5 13 3 -3 4 -12 1 -19z m210 -14 c-3 -3
-12 -4 -19 -1 -8 3 -5 6 6 6 11 1 17 -2 13 -5z m6103 -306 c0 -6 -11 -60 -26
-118 l-25 -107 -65 -18 c-36 -10 -66 -16 -68 -14 -1 2 1 15 5 29 6 21 7 22 9
5 l1 -20 9 20 c4 11 4 24 -1 30 -5 5 -9 36 -10 70 0 33 -4 69 -8 80 -7 18 -1
21 68 36 95 21 111 22 111 7z m-1010 -28 c0 -5 -4 -10 -10 -10 -5 0 -10 5 -10
10 0 6 5 10 10 10 6 0 10 -4 10 -10z m598 -59 c17 -12 43 -47 59 -79 25 -50
28 -68 28 -152 0 -84 -3 -101 -27 -147 -29 -55 -76 -97 -120 -108 -58 -15
-133 35 -174 115 -22 43 -31 179 -15 235 16 60 63 129 102 148 43 22 107 17
147 -12z m-414 -13 c-4 -13 -18 -57 -30 -98 -13 -41 -24 -66 -24 -55 -1 15 -3
16 -7 5 -4 -8 -12 -21 -20 -28 -7 -7 -13 -19 -13 -27 0 -7 -7 -16 -16 -19 -8
-3 -12 -10 -9 -16 3 -5 -2 -10 -12 -10 -10 0 -58 -5 -108 -10 -49 -5 -211 -21
-360 -35 -148 -14 -349 -35 -445 -45 -96 -11 -348 -37 -560 -59 -212 -22 -430
-45 -485 -51 -55 -6 -206 -22 -335 -35 -129 -14 -284 -32 -345 -40 -60 -8
-130 -17 -155 -20 -113 -14 -169 -23 -179 -29 -5 -4 -3 10 5 30 18 44 22 261
5 293 -10 17 -7 19 35 23 35 2 48 -1 53 -12 8 -21 8 -165 -1 -222 -8 -48 -7
-48 20 -47 16 1 20 3 10 6 -16 4 -17 15 -12 106 4 60 2 117 -4 139 l-10 37 61
5 c113 11 399 35 602 51 587 45 862 67 1070 85 1116 94 1144 96 1218 98 56 2
58 1 51 -20z m-2039 -78 c-3 -4 1 -11 7 -13 7 -3 9 -6 3 -6 -18 -1 -38 17 -31
28 4 6 12 9 17 5 5 -3 7 -9 4 -14z m-2627 -97 c-10 -2 -26 -2 -35 0 -10 3 -2
5 17 5 19 0 27 -2 18 -5z m32 -43 c0 -5 -5 -10 -11 -10 -5 0 -7 5 -4 10 3 6 8
10 11 10 2 0 4 -4 4 -10z m-857 -41 c23 -12 64 -29 92 -39 l50 -17 3 -63 c4
-92 3 -93 -70 -64 -35 14 -78 35 -95 46 -32 19 -33 22 -33 89 0 38 2 69 5 69
3 0 25 -10 48 -21z m2005 -18 c107 -55 162 -179 141 -315 -26 -162 -146 -276
-290 -276 -82 1 -133 23 -187 85 -92 105 -96 272 -9 402 33 50 107 106 161
123 44 13 140 4 184 -19z m4228 -131 c0 -16 -3 -30 -8 -30 -4 0 -8 14 -8 30 0
17 4 30 8 30 5 0 8 -13 8 -30z m36 0 c-2 -16 -6 -30 -8 -30 -2 0 -4 14 -4 30
0 17 4 30 8 30 5 0 7 -13 4 -30z m203 0 c9 -17 20 -28 25 -25 6 4 10 1 10 -5
0 -20 -34 -6 -46 18 -11 23 -12 23 -17 3 -3 -12 -10 -21 -16 -21 -8 0 18 60
26 60 1 0 10 -14 18 -30z m-154 -7 c1 -17 2 -17 6 0 6 24 43 22 43 -3 0 -17
-6 -20 -45 -18 -33 1 -42 4 -35 13 5 7 7 15 3 18 -3 4 1 7 10 7 10 0 18 -8 18
-17z m72 -3 c-3 -11 -7 -20 -9 -20 -2 0 -4 9 -4 20 0 11 4 20 9 20 5 0 7 -9 4
-20z m265 7 c-10 -7 -10 -10 0 -14 6 -2 9 -9 6 -15 -4 -5 -14 -2 -24 7 -11 10
-25 15 -32 12 -8 -3 -6 -6 5 -6 10 -1 15 -6 12 -11 -4 -7 -12 -7 -24 0 -10 5
-22 6 -26 2 -5 -4 -5 -2 -1 5 3 6 2 14 -4 18 -6 4 -10 -5 -10 -20 0 -30 -18
-30 -34 1 -6 10 -15 22 -21 26 -5 4 29 7 78 6 54 -1 83 -5 75 -11z m-2811 -13
c-3 -3 -12 -4 -19 -1 -8 3 -5 6 6 6 11 1 17 -2 13 -5z m-264 -31 c-7 -2 -21
-2 -30 0 -10 3 -4 5 12 5 17 0 24 -2 18 -5z m-96 -9 c-3 -3 -12 -4 -19 -1 -8
3 -5 6 6 6 11 1 17 -2 13 -5z m-104 -11 c-7 -2 -19 -2 -25 0 -7 3 -2 5 12 5
14 0 19 -2 13 -5z m2852 -22 c-6 -10 44 -65 52 -57 2 2 0 14 -7 25 -7 14 -7
21 0 21 5 0 10 -6 11 -12 0 -10 2 -10 6 0 8 20 43 14 43 -8 0 -25 -17 -26 -23
-2 -3 15 -5 15 -12 -3 -17 -43 -26 -46 -48 -19 -15 20 -22 23 -28 12 -6 -9 -9
-2 -9 20 0 17 5 32 11 32 5 0 8 -4 4 -9z m485 -8 c1 -17 1 -17 14 0 7 9 17 17
21 17 4 0 2 -7 -5 -14 -8 -11 -9 -20 -1 -33 10 -17 11 -16 17 5 7 24 34 31 34
8 0 -8 6 -16 13 -19 6 -2 9 -8 5 -12 -4 -4 -13 -3 -21 3 -8 7 -18 7 -27 2 -10
-6 -21 -4 -32 7 -17 15 -18 15 -18 -2 0 -10 -3 -15 -7 -12 -9 10 -10 67 0 67
4 0 7 -8 7 -17z m233 3 c4 -10 19 -13 56 -10 48 5 51 4 50 -18 -1 -17 -2 -19
-6 -5 -2 9 -8 15 -13 12 -4 -3 -6 -14 -3 -25 3 -11 0 -20 -6 -20 -6 0 -11 7
-11 16 0 13 -3 14 -14 5 -10 -8 -19 -6 -40 10 -14 11 -26 16 -26 11 0 -6 4
-12 10 -14 5 -2 6 -9 1 -17 -8 -12 -12 -12 -26 3 -15 15 -16 21 -5 42 15 27
25 30 33 10z m367 5 c0 -5 -9 -7 -21 -4 -17 5 -20 2 -17 -18 2 -16 9 -23 22
-22 12 1 15 -2 8 -9 -25 -25 -65 20 -42 47 14 16 50 21 50 6z m30 -20 c0 -17
-4 -33 -10 -36 -6 -4 -10 8 -10 29 0 20 5 36 10 36 6 0 10 -13 10 -29z m30 -1
c0 -16 -4 -30 -8 -30 -4 0 -9 14 -10 30 -1 17 2 30 8 30 5 0 10 -13 10 -30z
m35 0 c0 -16 -3 -30 -7 -30 -5 0 -8 14 -8 30 0 17 3 30 8 30 4 0 7 -13 7 -30z
m59 -2 c19 -36 19 -38 7 -38 -5 0 -13 9 -16 21 -7 19 -7 20 -21 2 -7 -10 -14
-15 -14 -11 0 8 22 58 26 58 1 0 10 -14 18 -32z m-4367 16 c-3 -3 -12 -4 -19
-1 -8 3 -5 6 6 6 11 1 17 -2 13 -5z m3250 -36 c-3 -7 -5 -2 -5 12 0 14 2 19 5
13 2 -7 2 -19 0 -25z m48 22 c3 -5 1 -10 -4 -10 -6 0 -11 5 -11 10 0 6 2 10 4
10 3 0 8 -4 11 -10z m55 -10 c0 -11 -4 -20 -10 -20 -5 0 -7 7 -4 15 4 8 1 15
-5 15 -6 0 -11 -11 -11 -25 0 -14 -4 -25 -8 -25 -5 0 -7 14 -4 30 5 35 42 44
42 10z m30 0 c0 -11 -4 -20 -10 -20 -5 0 -10 9 -10 20 0 11 5 20 10 20 6 0 10
-9 10 -20z m30 0 c0 -11 -2 -20 -4 -20 -2 0 -6 9 -9 20 -3 11 -1 20 4 20 5 0
9 -9 9 -20z m49 -2 c0 -22 -1 -22 -9 -3 -7 17 -9 17 -9 3 -1 -25 -21 -23 -21
2 0 13 7 20 20 20 14 0 20 -6 19 -22z m31 10 c0 -9 3 -9 9 1 11 17 41 7 41
-13 0 -19 -25 -27 -39 -13 -8 8 -11 8 -11 -2 0 -7 -4 -9 -10 -6 -5 3 -10 15
-10 26 0 10 5 19 10 19 6 0 10 -6 10 -12z m250 -8 c0 -11 -5 -20 -11 -20 -5 0
-7 5 -3 11 3 6 0 15 -7 20 -11 7 -10 9 4 9 10 0 17 -8 17 -20z m30 8 c0 -9 4
-8 10 2 7 11 10 8 9 -15 0 -16 -3 -25 -5 -18 -3 7 -12 9 -20 6 -9 -3 -14 2
-14 16 0 12 5 21 10 21 6 0 10 -6 10 -12z m210 0 c0 -9 4 -8 10 2 7 12 10 8
10 -15 0 -23 -3 -27 -10 -15 -9 13 -11 13 -20 0 -8 -12 -10 -9 -10 13 0 15 5
27 10 27 6 0 10 -6 10 -12z m50 0 c0 -9 4 -8 10 2 8 12 10 11 10 -5 0 -14 -7
-21 -20 -22 -14 -1 -20 4 -20 18 0 10 5 19 10 19 6 0 10 -6 10 -12z m70 -7 c0
-10 -9 -21 -20 -24 -18 -5 -21 6 -11 41 1 1 8 2 16 2 8 0 15 -8 15 -19z
m-4257 2 c-7 -2 -19 -2 -25 0 -7 3 -2 5 12 5 14 0 19 -2 13 -5z m3447 -27 c0
-3 -7 -3 -15 0 -8 4 -15 13 -15 21 0 12 2 12 15 -1 8 -8 15 -17 15 -20z
m-3527 17 c-7 -2 -19 -2 -25 0 -7 3 -2 5 12 5 14 0 19 -2 13 -5z m-65 -10
c-10 -2 -28 -2 -40 0 -13 2 -5 4 17 4 22 1 32 -1 23 -4z m-80 -10 c-10 -2 -28
-2 -40 0 -13 2 -5 4 17 4 22 1 32 -1 23 -4z m-80 -10 c-10 -2 -26 -2 -35 0
-10 3 -2 5 17 5 19 0 27 -2 18 -5z m-70 -10 c-10 -2 -26 -2 -35 0 -10 3 -2 5
17 5 19 0 27 -2 18 -5z m-80 -10 c-10 -2 -28 -2 -40 0 -13 2 -5 4 17 4 22 1
32 -1 23 -4z m-71 -9 c-3 -3 -12 -4 -19 -1 -8 3 -5 6 6 6 11 1 17 -2 13 -5z
m3836 -11 c-7 -2 -13 -18 -13 -34 0 -16 -4 -29 -10 -29 -5 0 -10 13 -10 29 0
16 -6 32 -12 34 -7 3 3 5 22 5 19 0 29 -2 23 -5z m239 -17 c5 -24 -7 -46 -24
-46 -4 0 -8 5 -8 11 0 5 4 7 10 4 6 -4 8 6 6 24 -4 37 10 42 16 7z m48 13 c0
-5 -6 -7 -12 -3 -8 5 -7 1 2 -10 14 -17 15 -17 24 3 10 24 24 23 40 -1 12 -20
-11 -55 -27 -39 -7 7 -16 7 -28 1 -20 -11 -25 -6 -27 33 -1 18 3 27 13 27 8 0
15 -5 15 -11z m95 -9 c0 -7 -6 -15 -12 -17 -8 -3 -13 4 -13 17 0 13 5 20 13
18 6 -3 12 -11 12 -18z m49 12 c2 -4 0 -14 -5 -22 -8 -13 -10 -13 -18 0 -10
15 -6 30 9 30 5 0 11 -4 14 -8z m46 -12 c0 -21 -15 -27 -25 -10 -7 12 2 30 16
30 5 0 9 -9 9 -20z m50 6 c0 -8 -4 -17 -9 -21 -12 -7 -24 12 -16 25 9 15 25
12 25 -4z m45 -4 c0 -18 -20 -15 -23 4 -3 10 1 15 10 12 7 -3 13 -10 13 -16z
m50 -2 c0 -7 -6 -15 -12 -17 -8 -3 -13 4 -13 17 0 13 5 20 13 18 6 -3 12 -11
12 -18z m50 0 c0 -7 -6 -15 -12 -17 -8 -3 -13 4 -13 17 0 13 5 20 13 18 6 -3
12 -11 12 -18z m-492 -27 c-5 -11 -8 -12 -13 -2 -5 7 -6 19 -3 26 5 11 8 12
13 2 5 -7 6 -19 3 -26z m-138 17 c3 -5 1 -10 -4 -10 -6 0 -11 5 -11 10 0 6 2
10 4 10 3 0 8 -4 11 -10z m44 -17 c-1 -22 -2 -23 -6 -8 -3 11 -10 23 -17 27
-7 5 -5 8 7 8 12 0 17 -7 16 -27z m-43 -3 c14 0 23 -4 20 -9 -11 -17 -51 -7
-53 14 -2 11 0 14 3 8 3 -7 17 -13 30 -13z m-36 -71 c0 -5 -4 -7 -10 -4 -6 4
-10 -7 -10 -24 0 -17 -4 -31 -10 -31 -5 0 -10 13 -10 29 0 16 -6 32 -12 34 -7
3 2 6 20 6 17 1 32 -4 32 -10z m232 -13 c5 -24 -7 -46 -24 -46 -4 0 -8 5 -8
11 0 5 4 7 10 4 6 -4 8 6 6 24 -4 37 10 42 16 7z m45 10 c-9 -23 5 -27 21 -5
11 16 17 17 28 8 18 -15 18 -33 0 -48 -10 -8 -16 -9 -21 -1 -4 7 -12 7 -26 0
-10 -6 -20 -9 -20 -8 -5 10 -6 54 -2 61 8 13 25 7 20 -7z m98 -6 c0 -7 -6 -15
-12 -17 -8 -3 -13 4 -13 17 0 13 5 20 13 18 6 -3 12 -11 12 -18z m50 0 c0 -7
-6 -15 -12 -17 -8 -3 -13 4 -13 17 0 13 5 20 13 18 6 -3 12 -11 12 -18z m45 0
c0 -11 -4 -20 -9 -20 -14 0 -23 18 -16 30 10 17 25 11 25 -10z m50 6 c0 -8 -4
-17 -9 -21 -12 -7 -24 12 -16 25 9 15 25 12 25 -4z m45 -16 c-5 -8 -11 -8 -17
-2 -6 6 -7 16 -3 22 5 8 11 8 17 2 6 -6 7 -16 3 -22z m50 10 c0 -7 -6 -15 -12
-17 -8 -3 -13 4 -13 17 0 13 5 20 13 18 6 -3 12 -11 12 -18z m50 0 c0 -7 -6
-15 -12 -17 -8 -3 -13 4 -13 17 0 13 5 20 13 18 6 -3 12 -11 12 -18z m-489
-26 c-13 -14 -27 2 -19 22 4 10 8 10 17 1 9 -8 10 -14 2 -23z m-152 5 c-15 -6
-14 -8 10 -8 32 -1 28 -13 -5 -18 -11 -2 -22 4 -26 13 -6 18 15 36 31 27 5 -4
1 -10 -10 -14z m55 -6 c-1 -22 -2 -23 -6 -8 -3 11 -10 23 -17 27 -7 5 -5 8 7
8 12 0 17 -7 16 -27z m-115 -78 c-4 -10 0 -15 12 -16 18 -1 18 -2 1 -6 -11 -3
-16 -11 -13 -19 3 -8 1 -14 -4 -14 -6 0 -10 16 -10 35 0 19 4 35 10 35 5 0 7
-7 4 -15z m206 -20 c0 -19 -4 -35 -10 -35 -5 0 -10 16 -10 35 0 19 5 35 10 35
6 0 10 -16 10 -35z m395 25 c-3 -5 3 -10 15 -10 13 0 19 4 14 12 -5 7 -3 8 5
3 9 -5 10 -10 2 -18 -6 -6 -11 -19 -11 -30 0 -12 -6 -17 -17 -15 -12 3 -17 12
-16 26 2 14 -1 21 -7 17 -16 -10 -11 -43 8 -54 9 -6 12 -11 7 -11 -18 0 -35
22 -35 45 0 21 17 45 33 45 4 0 5 -4 2 -10z m265 -25 c0 -19 -2 -35 -4 -35 -2
0 -6 16 -8 35 -2 19 0 35 4 35 4 0 8 -16 8 -35z m-580 -22 c1 4 3 13 4 20 0 6
13 13 29 15 21 3 29 -2 36 -20 l10 -23 0 23 c1 33 35 25 38 -8 l2 -25 -9 25
-8 25 -7 -23 c-6 -18 -14 -22 -34 -20 -18 2 -25 8 -23 21 2 9 -2 17 -8 17 -5
0 -10 -9 -10 -20 0 -30 -36 -26 -42 5 -7 35 6 43 13 8 4 -15 8 -25 9 -20z
m269 15 c0 -33 0 -33 -11 -8 -11 24 -12 24 -15 4 -3 -16 -11 -21 -31 -21 -15
1 -30 5 -33 9 -3 5 -15 -1 -27 -12 l-22 -21 0 35 c0 34 0 34 43 32 34 -2 61 2
95 13 1 1 2 -14 1 -31z m-452 -9 l2 -24 -9 25 -8 25 -8 -25 -8 -25 -7 25 c-6
21 -7 22 -8 5 -1 -14 -8 -21 -23 -22 -22 -2 -22 -1 -4 13 11 8 16 14 12 14 -4
0 -4 5 -1 10 4 6 19 9 33 7 20 -3 28 -10 29 -28z m48 9 l7 -23 8 25 8 25 1
-27 c1 -25 -3 -28 -29 -28 -16 0 -30 5 -30 11 0 5 4 8 8 5 5 -3 9 1 9 9 0 8
-4 12 -9 9 -4 -3 -8 0 -8 5 0 20 28 11 35 -11z m537 -2 c-2 -9 2 -16 8 -16 5
0 10 9 10 20 0 16 7 20 30 20 20 0 30 -5 30 -15 0 -8 5 -15 10 -15 6 0 10 7
10 16 0 24 24 11 28 -15 3 -19 -1 -22 -25 -19 -17 2 -30 10 -35 23 -6 19 -6
18 -7 -2 -1 -13 -6 -23 -12 -23 -6 0 -9 7 -6 15 4 8 2 17 -3 20 -6 4 -10 -2
-10 -12 0 -20 -36 -47 -50 -38 -11 7 -13 48 -3 59 12 11 28 0 25 -18z m145
-13 c-3 -10 -5 -4 -5 12 0 17 2 24 5 18 2 -7 2 -21 0 -30z m103 26 c0 -5 -4
-8 -9 -4 -5 3 -12 1 -16 -5 -9 -15 21 -12 34 4 7 8 30 13 59 12 41 -1 47 -4
48 -24 1 -19 1 -19 -3 -2 -2 11 -8 18 -13 15 -5 -3 -7 -12 -3 -20 3 -8 0 -15
-6 -15 -6 0 -11 10 -12 23 -1 20 -1 21 -7 2 -7 -20 -42 -28 -58 -13 -4 4 -13
3 -21 -4 -18 -14 -38 4 -30 26 7 18 37 22 37 5z m-295 -49 c-3 -5 -12 -10 -18
-10 -7 0 -6 4 3 10 19 12 23 12 15 0z m-4173 -297 c-6 -2 -9 -9 -6 -14 4 -7
10 -6 17 0 7 5 39 10 72 11 84 2 95 1 95 -9 0 -12 -48 -23 -63 -14 -16 10 -57
12 -57 3 0 -9 -52 -6 -69 4 -13 9 -5 26 12 25 9 0 8 -2 -1 -6z m223 -2 c7 -12
-12 -24 -25 -16 -11 7 -4 25 10 25 5 0 11 -4 15 -9z m107 -1 c40 0 46 -2 41
-17 -4 -9 -8 -13 -10 -7 -2 5 -30 7 -63 6 -51 -3 -60 -1 -60 13 0 13 6 16 23
11 12 -3 43 -6 69 -6z m78 -2 c0 -9 4 -8 10 2 5 8 10 10 10 5 0 -10 18 -11 95
-5 51 4 85 0 85 -8 0 -5 -47 -9 -104 -10 -84 -1 -105 1 -110 13 -3 8 -1 15 4
15 6 0 10 -6 10 -12z m260 2 c0 -5 5 -10 11 -10 5 0 7 5 4 10 -3 6 1 10 9 10
16 0 31 -18 23 -26 -2 -3 -23 -6 -45 -7 -33 -2 -40 1 -39 15 1 19 37 26 37 8z
m110 -1 c0 6 5 11 10 11 6 0 10 -7 10 -15 0 -10 -10 -15 -30 -15 -22 0 -28 4
-24 15 5 12 10 13 20 4 10 -8 14 -8 14 0z m140 -11 c0 -6 -13 -8 -29 -6 -17 2
-28 1 -25 -4 3 -4 -2 -8 -10 -8 -21 0 -20 17 0 28 19 11 64 4 64 -10z m180 8
c0 -10 -19 -13 -80 -13 -44 0 -80 4 -80 9 0 5 32 8 70 7 39 -1 74 1 77 5 10 9
13 7 13 -8z m-270 -6 c0 -5 -5 -10 -11 -10 -5 0 -7 5 -4 10 3 6 8 10 11 10 2
0 4 -4 4 -10z"/>
<path d="M7552 1387 c-12 -7 -19 -16 -16 -20 13 -12 -12 -7 -26 6 -8 6 -6 1 5
-12 20 -23 20 -23 0 -20 -14 3 -19 -1 -17 -13 2 -13 -2 -16 -15 -12 -13 4 -11
-1 7 -16 23 -20 23 -21 2 -10 -29 14 -40 6 -34 -25 3 -16 0 -25 -8 -25 -7 0
-10 7 -7 15 4 8 2 17 -3 20 -6 4 -10 -10 -10 -32 0 -28 3 -34 10 -23 9 13 14
7 11 -12 0 -5 9 -8 22 -8 17 0 19 -2 7 -9 -8 -6 -18 -7 -24 -4 -5 3 -6 1 -2
-5 4 -7 17 -8 39 -1 17 5 34 9 36 9 2 0 -2 7 -9 15 -10 12 -9 15 6 16 12 0 14
3 6 6 -10 4 -10 8 2 17 9 6 18 29 21 51 7 55 13 83 20 95 8 13 5 12 -23 -3z
m-31 -64 c13 -16 12 -17 -3 -4 -10 7 -18 15 -18 17 0 8 8 3 21 -13z m-11 -68
c0 -2 -7 -1 -17 2 -12 5 -14 3 -8 -8 5 -8 4 -11 0 -6 -5 4 -10 14 -11 22 -2
12 2 12 17 5 10 -6 19 -13 19 -15z"/>
<path d="M7427 1340 c3 -11 7 -20 9 -20 2 0 4 9 4 20 0 11 -4 20 -9 20 -5 0
-7 -9 -4 -20z"/>
<path d="M7062 1322 c-13 -4 -23 -11 -23 -17 0 -5 -13 -23 -28 -40 -48 -51
-64 -93 -64 -170 0 -71 24 -148 59 -186 8 -9 14 -22 12 -29 -2 -7 3 -15 11
-18 8 -2 11 0 8 5 -4 6 12 8 41 6 64 -6 102 20 137 91 22 45 27 69 27 125 -1
39 -8 86 -17 107 -8 20 -13 39 -10 42 7 7 -16 33 -25 27 -4 -2 -16 5 -26 18
-16 19 -17 20 -1 8 9 -8 20 -11 23 -8 7 7 -70 47 -88 46 -7 -1 -23 -4 -36 -7z
m42 -62 c6 0 17 5 23 11 8 8 11 6 10 -7 -2 -14 4 -18 20 -17 16 2 21 -2 17
-12 -4 -8 -1 -15 5 -15 6 0 11 -8 11 -17 0 -13 2 -15 8 -5 6 8 9 2 9 -18 0
-18 6 -36 14 -41 8 -5 9 -9 3 -9 -7 0 -11 -19 -10 -50 0 -28 -2 -50 -5 -50 -4
0 -10 -11 -13 -24 -8 -31 -71 -86 -99 -86 -38 0 -88 38 -104 80 -9 22 -21 40
-27 40 -6 0 -5 4 3 9 12 8 13 15 3 35 -8 18 -8 27 -1 32 6 3 9 19 5 34 -4 20
-1 30 11 34 10 4 13 14 10 27 -4 15 -2 19 8 15 18 -6 39 19 29 36 -5 10 -4 10
6 1 16 -15 40 -6 41 16 1 14 2 14 6 -1 2 -10 10 -18 17 -18z"/>
<path d="M7059 1225 c-79 -43 -77 -220 3 -264 41 -23 78 -6 106 49 27 53 28
101 3 155 -29 64 -67 84 -112 60z"/>
<path d="M6999 1283 c-13 -15 -12 -15 9 -4 23 12 28 21 13 21 -5 0 -15 -7 -22
-17z"/>
<path d="M4779 1098 c0 -29 -6 -86 -13 -125 -7 -40 -10 -73 -6 -73 3 0 12 35
18 78 22 149 24 172 13 172 -6 0 -11 -22 -12 -52z"/>
<path d="M6168 1033 c6 -2 18 -2 25 0 6 3 1 5 -13 5 -14 0 -19 -2 -12 -5z"/>
<path d="M6073 1023 c9 -2 25 -2 35 0 9 3 1 5 -18 5 -19 0 -27 -2 -17 -5z"/>
<path d="M5949 1016 c-2 -2 -38 -6 -79 -10 -143 -12 -290 -29 -286 -34 5 -4
284 22 401 37 59 8 59 8 14 10 -25 0 -48 -1 -50 -3z"/>
<path d="M5498 963 c12 -2 32 -2 45 0 12 2 2 4 -23 4 -25 0 -35 -2 -22 -4z"/>
<path d="M5423 953 c9 -2 23 -2 30 0 6 3 -1 5 -18 5 -16 0 -22 -2 -12 -5z"/>
<path d="M5298 943 c12 -2 30 -2 40 0 9 3 -1 5 -23 4 -22 0 -30 -2 -17 -4z"/>
<path d="M5203 933 c9 -2 25 -2 35 0 9 3 1 5 -18 5 -19 0 -27 -2 -17 -5z"/>
<path d="M5103 923 c9 -2 25 -2 35 0 9 3 1 5 -18 5 -19 0 -27 -2 -17 -5z"/>
<path d="M4998 913 c12 -2 30 -2 40 0 9 3 -1 5 -23 4 -22 0 -30 -2 -17 -4z"/>
<path d="M4473 863 c9 -2 25 -2 35 0 9 3 1 5 -18 5 -19 0 -27 -2 -17 -5z"/>
<path d="M4112 835 c-134 -13 -246 -26 -249 -29 -10 -10 37 -6 322 23 149 16
248 29 220 29 -27 0 -159 -11 -293 -23z"/>
<path d="M3100 1021 c-50 -16 -89 -41 -129 -87 -22 -26 -41 -51 -41 -57 0 -6
13 6 28 27 35 47 103 93 149 102 18 4 59 4 89 2 77 -7 129 -45 172 -128 18
-36 30 -54 26 -40 -38 136 -171 218 -294 181z"/>
<path d="M3063 979 c-93 -46 -148 -142 -148 -259 0 -84 17 -130 69 -183 17
-18 31 -38 31 -46 0 -8 6 -16 14 -19 8 -3 11 0 7 6 -4 8 15 9 64 5 93 -8 145
12 204 78 95 105 103 257 20 366 -55 72 -173 96 -261 52z m90 -9 c-5 -17 0
-20 27 -20 25 0 31 3 26 16 -4 10 -1 14 6 11 7 -2 12 -11 10 -19 -1 -9 4 -21
12 -27 11 -9 17 -8 29 4 10 9 18 11 22 5 9 -15 -4 -32 -18 -23 -7 4 -7 0 1
-10 8 -9 19 -15 25 -14 7 1 10 -7 9 -17 -3 -17 -2 -18 12 -7 9 8 20 11 23 7 4
-4 1 -11 -6 -15 -8 -5 -10 -14 -6 -22 8 -12 9 -64 4 -143 -2 -21 -5 -33 -7
-26 -3 7 -14 -5 -26 -25 -36 -64 -87 -98 -154 -102 -46 -3 -65 1 -97 19 -48
28 -85 89 -85 141 0 24 -5 40 -15 43 -19 8 -19 24 0 24 20 0 32 50 14 61 -11
6 -11 11 -1 21 9 9 12 9 12 0 0 -19 18 -14 30 9 8 15 8 24 0 34 -8 10 -8 15 1
21 7 4 15 2 17 -4 5 -15 13 -15 36 3 15 11 16 17 7 29 -9 11 -8 15 4 20 9 3
15 0 15 -9 0 -16 27 -20 49 -6 7 5 11 13 7 19 -3 6 0 13 6 15 7 3 14 6 15 6 0
1 -1 -8 -4 -19z m207 -170 c0 -5 -5 -10 -11 -10 -5 0 -7 5 -4 10 3 6 8 10 11
10 2 0 4 -4 4 -10z m-410 -120 c0 -5 -4 -10 -10 -10 -5 0 -10 5 -10 10 0 6 5
10 10 10 6 0 10 -4 10 -10z"/>
<path d="M3125 910 c-139 -29 -177 -256 -55 -322 47 -25 85 -23 136 7 97 57
113 204 30 286 -29 29 -64 38 -111 29z"/>
<path d="M7610 880 c0 -5 5 -10 10 -10 6 0 10 5 10 10 0 6 -4 10 -10 10 -5 0
-10 -4 -10 -10z"/>
<path d="M7800 881 c0 -6 5 -13 10 -16 6 -3 10 1 10 9 0 9 -4 16 -10 16 -5 0
-10 -4 -10 -9z"/>
<path d="M8250 771 c0 -6 5 -13 10 -16 6 -3 10 1 10 9 0 9 -4 16 -10 16 -5 0
-10 -4 -10 -9z"/>
<path d="M7890 770 c0 -5 5 -10 11 -10 5 0 7 5 4 10 -3 6 -8 10 -11 10 -2 0
-4 -4 -4 -10z"/>
<path d="M7847 677 c-3 -8 -1 -20 4 -28 6 -10 9 -7 9 14 0 29 -5 35 -13 14z"/>
<path d="M7847 567 c-3 -8 -1 -20 4 -28 6 -10 9 -7 9 14 0 29 -5 35 -13 14z"/>
<path d="M8107 443 c-4 -3 -7 -11 -7 -17 0 -6 5 -5 12 2 6 6 9 14 7 17 -3 3
-9 2 -12 -2z"/>
<path d="M7930 434 c0 -8 5 -12 10 -9 6 4 8 11 5 16 -9 14 -15 11 -15 -7z"/>
<path d="M7981 434 c0 -11 3 -14 6 -6 3 7 2 16 -1 19 -3 4 -6 -2 -5 -13z"/>
<path d="M8460 434 c0 -8 5 -12 10 -9 6 4 8 11 5 16 -9 14 -15 11 -15 -7z"/>
<path d="M3056 2183 c-6 -14 -5 -15 5 -6 7 7 10 15 7 18 -3 3 -9 -2 -12 -12z"/>
<path d="M5923 2134 c-3 -8 -3 -52 -1 -98 l6 -82 -34 34 c-32 32 -38 34 -86
30 -42 -4 -57 -11 -80 -37 -15 -17 -28 -38 -28 -46 0 -22 -18 -18 -25 5 -10
33 -63 70 -100 70 -76 0 -119 -42 -134 -131 -7 -46 -9 -33 -10 84 l-1 137 -74
0 c-86 0 -79 10 -96 -130 -7 -52 -14 -102 -17 -110 -3 -8 -16 37 -29 100 -30
142 -30 143 -51 136 -10 -3 -71 -8 -135 -10 -65 -3 -122 -7 -128 -11 -14 -8
-13 -42 1 -47 6 -2 37 -1 68 3 31 3 57 6 57 5 2 -1 13 -300 14 -348 l0 -38 51
0 52 0 -6 136 c-3 75 -4 134 -2 132 1 -1 15 -60 30 -130 l28 -128 47 0 47 0
17 108 c28 168 34 172 35 23 l1 -134 38 7 c20 3 43 6 50 6 10 0 13 15 10 60
-3 64 5 80 16 29 10 -49 57 -89 106 -89 58 0 98 24 119 71 l18 40 13 -32 c24
-57 106 -87 163 -58 12 6 32 23 45 37 20 22 23 23 18 7 -10 -36 7 -48 58 -41
43 7 46 9 46 37 0 17 5 40 11 52 11 20 13 18 35 -31 l23 -53 53 3 c37 2 52 7
50 16 -1 9 5 8 23 -4 33 -21 70 -11 89 24 l15 27 1 -28 c0 -27 2 -28 43 -25
l42 3 5 80 c5 73 5 68 11 -62 3 -79 7 -145 10 -147 2 -2 26 -2 52 1 l49 6 -4
78 c-3 72 -2 77 14 63 26 -24 69 -14 90 22 59 102 5 311 -75 290 -15 -3 -33
-19 -41 -34 l-15 -27 -1 28 c0 25 -3 27 -45 27 l-45 0 -2 -62 -1 -63 -6 60
c-4 39 -10 60 -18 59 -7 -1 -29 -2 -48 -2 l-35 -2 0 -105 c0 -105 -12 -139
-24 -67 -3 20 -6 67 -6 105 l0 67 -82 0 c-115 0 -123 -4 -150 -63 l-23 -52 -6
115 c-4 63 -7 116 -8 118 0 1 -21 2 -46 2 -32 0 -47 -5 -52 -16z m272 -371
c-1 -2 -16 28 -35 66 l-33 69 29 49 29 48 5 -115 c3 -63 5 -116 5 -117z m370
119 c0 -70 -19 -67 -23 4 -2 43 0 55 10 52 8 -3 13 -23 13 -56z m-735 7 c0
-19 19 -25 36 -11 5 5 21 13 37 20 l27 12 0 -60 0 -59 -42 19 c-43 19 -43 19
-50 -1 -13 -35 -33 -15 -36 36 -2 26 -1 54 2 62 8 19 26 7 26 -18z m-240 -59
c0 -52 -7 -65 -27 -49 -14 12 -19 110 -6 123 14 14 33 -28 33 -74z"/>
<path d="M3025 2119 c-4 -6 -5 -12 -2 -15 2 -3 7 2 10 11 7 17 1 20 -8 4z"/>
<path d="M1558 2077 c-21 -12 -38 -24 -38 -27 0 -8 56 -27 101 -35 40 -7 50
-35 13 -35 -30 0 -55 10 -49 20 3 4 -13 6 -35 3 -33 -5 -39 -3 -35 9 4 9 0 18
-7 20 -15 6 -88 -37 -88 -51 0 -5 31 -17 69 -27 48 -12 67 -22 64 -31 -6 -15
13 -18 22 -3 3 6 15 10 27 10 11 0 32 13 47 29 23 24 80 61 95 61 3 0 3 -6 0
-14 -4 -10 2 -14 18 -13 13 0 46 -3 73 -6 44 -5 54 -3 80 18 26 22 28 25 10
26 -55 4 -69 7 -73 18 -2 7 -9 8 -22 1 -12 -7 -20 -6 -22 1 -2 6 -12 7 -27 1
-14 -5 -44 -5 -73 1 -39 8 -46 12 -37 23 9 11 7 14 -9 14 -12 0 -24 -4 -27
-10 -10 -16 -25 -12 -19 5 9 21 -14 18 -58 -8z m136 -61 c-10 -8 -21 -12 -24
-10 -5 6 21 24 34 24 6 0 1 -6 -10 -14z"/>
<path d="M4530 2060 c-8 -6 -44 -10 -80 -9 -85 2 -87 1 -94 -16 -6 -17 20 -46
37 -40 7 2 55 6 107 9 109 5 130 11 130 36 0 25 -71 39 -100 20z"/>
<path d="M452 2010 c0 -40 1 -42 7 -15 l7 30 8 -33 c6 -26 11 -31 20 -22 8 10
8 14 -1 17 -7 3 -13 10 -13 17 0 7 -7 21 -15 32 -13 18 -14 16 -13 -26z"/>
<path d="M516 2013 c9 -52 14 -54 14 -5 0 23 -5 42 -10 42 -7 0 -8 -14 -4 -37z"/>
<path d="M696 2041 c-3 -4 6 -6 19 -3 14 2 25 6 25 8 0 8 -39 4 -44 -5z"/>
<path d="M961 2006 c-1 -30 3 -46 8 -40 5 5 6 27 1 49 l-8 40 -1 -49z"/>
<path d="M997 2027 c-23 -36 -21 -45 4 -19 11 13 19 28 17 34 -2 6 -12 -1 -21
-15z"/>
<path d="M611 2000 c0 -33 1 -34 10 -11 6 16 6 28 -1 35 -7 7 -10 -1 -9 -24z"/>
<path d="M654 2016 c-3 -8 -1 -23 5 -33 9 -15 10 -13 11 15 0 34 -7 42 -16 18z"/>
<path d="M701 2020 c-7 -4 -11 -18 -9 -31 5 -35 42 -33 46 2 3 28 -16 43 -37
29z m25 -36 c-5 -13 -10 -14 -18 -6 -6 6 -8 18 -4 28 5 13 10 14 18 6 6 -6 8
-18 4 -28z"/>
<path d="M765 2020 c-3 -6 1 -7 9 -4 9 3 16 2 16 -4 0 -5 -9 -12 -21 -15 -22
-6 -22 -28 -1 -35 7 -2 10 2 6 12 -3 9 -1 16 5 16 6 0 11 -4 11 -10 0 -5 4
-10 10 -10 5 0 9 8 7 18 -6 36 -28 54 -42 32z"/>
<path d="M851 2008 c-14 -22 -14 -22 -22 -3 -7 17 -8 16 -8 -7 -1 -31 16 -38
26 -11 6 15 7 15 14 -3 6 -15 8 -12 8 14 1 38 0 39 -18 10z"/>
<path d="M1120 2020 c0 -5 6 -9 12 -7 7 1 14 -8 16 -20 2 -16 -2 -23 -12 -23
-9 0 -16 6 -16 13 0 8 -4 7 -10 -3 -15 -23 -13 -25 25 -25 35 0 37 5 19 63 -4
14 -34 16 -34 2z"/>
<path d="M1253 2019 c-6 -6 -8 -19 -6 -30 4 -15 8 -17 19 -8 10 8 14 8 14 0 0
-6 4 -11 8 -11 5 0 7 14 4 30 -4 31 -20 38 -39 19z m27 -9 c0 -5 -4 -10 -10
-10 -5 0 -10 5 -10 10 0 6 5 10 10 10 6 0 10 -4 10 -10z"/>
<path d="M551 2004 c0 -11 3 -14 6 -6 3 7 2 16 -1 19 -3 4 -6 -2 -5 -13z"/>
<path d="M576 2003 c-3 -10 -10 -29 -16 -42 -9 -20 -8 -22 4 -12 8 7 17 23 21
38 7 29 1 42 -9 16z"/>
<path d="M1041 1994 c0 -16 3 -23 6 -16 2 6 11 12 18 12 7 0 16 -6 18 -12 3
-7 6 1 6 17 1 22 -2 26 -8 16 -8 -12 -12 -12 -25 -2 -14 12 -16 10 -15 -15z"/>
<path d="M1181 1990 l-1 -35 19 24 c18 23 19 23 24 5 3 -14 5 -12 6 9 1 30
-13 36 -24 10 -7 -17 -8 -16 -15 2 -7 16 -9 13 -9 -15z"/>
<path d="M4785 2010 c3 -5 8 -10 11 -10 2 0 4 5 4 10 0 6 -5 10 -11 10 -5 0
-7 -4 -4 -10z"/>
<path d="M1010 1990 c0 -11 4 -20 9 -20 5 0 7 9 4 20 -3 11 -7 20 -9 20 -2 0
-4 -9 -4 -20z"/>
<path d="M630 1980 c0 -5 5 -10 10 -10 6 0 10 5 10 10 0 6 -4 10 -10 10 -5 0
-10 -4 -10 -10z"/>
<path d="M2590 1910 c-18 -12 -2 -12 25 0 13 6 15 9 5 9 -8 0 -22 -4 -30 -9z"/>
<path d="M4267 1833 c-4 -3 -7 -17 -7 -30 0 -12 -4 -23 -10 -23 -5 0 -10 11
-10 25 0 18 -5 25 -20 25 -11 0 -20 -5 -20 -11 0 -18 -31 -44 -38 -32 -9 14
-82 14 -82 1 0 -7 -4 -7 -12 0 -18 14 -78 8 -90 -9 -7 -11 -11 -11 -15 -1 -2
6 -13 12 -23 12 -13 0 -17 5 -13 20 5 17 0 19 -33 17 -35 -2 -39 -5 -39 -28 1
-23 -2 -25 -17 -15 -13 8 -23 8 -36 -1 -15 -9 -21 -7 -30 8 -8 13 -24 19 -47
19 l-35 0 0 -65 0 -64 33 6 c17 3 37 10 44 15 7 6 19 4 32 -4 16 -10 25 -10
40 -1 12 8 22 8 29 1 5 -5 20 -8 33 -6 17 2 25 11 29 33 l6 30 7 -27 c8 -32
40 -38 55 -12 8 14 10 14 15 1 4 -11 19 -15 51 -15 44 1 46 3 46 30 0 17 5 28
14 28 18 0 31 -51 15 -61 -6 -4 -9 -15 -5 -24 11 -29 49 5 60 54 10 48 21 53
30 11 4 -22 11 -30 26 -30 15 0 22 8 27 30 3 19 11 30 22 29 10 0 11 -2 4 -6
-7 -2 -13 -15 -13 -28 0 -21 4 -24 38 -20 20 1 42 3 49 4 6 1 14 13 16 29 l4
27 2 -27 c1 -21 6 -28 22 -28 18 0 19 5 15 43 -3 23 -5 43 -5 44 -1 1 -32 0
-71 0 -63 -2 -69 0 -64 15 5 18 -15 26 -29 11z m-527 -84 c0 -16 -4 -28 -8
-25 -5 3 -8 15 -6 28 3 28 3 28 9 28 3 0 5 -14 5 -31z"/>
<path d="M2963 1822 c-13 -2 -23 -11 -23 -20 0 -21 -60 -24 -76 -4 -5 8 -21
12 -35 10 -22 -3 -24 -8 -24 -53 0 -43 3 -50 20 -51 11 0 27 6 37 14 9 8 18 9
22 4 3 -6 30 -10 60 -11 44 0 56 3 59 17 4 16 5 16 6 0 1 -22 29 -24 37 -3 4
10 10 12 18 6 6 -5 28 -9 48 -9 32 0 37 3 41 27 l3 26 11 -25 c6 -14 7 -26 2
-28 -14 -6 -10 -32 5 -32 19 0 32 19 41 60 l8 35 9 -32 c8 -31 26 -42 41 -26
4 3 37 5 73 4 l65 -2 -3 38 -3 38 -57 -1 c-43 -1 -55 2 -51 12 3 8 -1 14 -9
14 -8 0 -19 -12 -25 -27 -10 -25 -11 -25 -12 -7 -1 21 -31 43 -31 23 0 -6 -7
-17 -15 -25 -8 -9 -15 -11 -15 -5 0 7 -32 10 -95 7 -73 -3 -95 0 -95 10 0 17
-10 21 -37 16z m-113 -61 c0 -11 -4 -23 -10 -26 -6 -4 -10 5 -10 19 0 14 5 26
10 26 6 0 10 -9 10 -19z m450 5 c0 -3 -4 -8 -10 -11 -5 -3 -10 -1 -10 4 0 6 5
11 10 11 6 0 10 -2 10 -4z"/>
<path d="M758 1753 c7 -3 16 -2 19 1 4 3 -2 6 -13 5 -11 0 -14 -3 -6 -6z"/>
<path d="M765 1707 l-19 -32 -7 30 c-6 26 -7 24 -8 -15 l0 -45 29 35 c29 34
30 34 24 9 -3 -15 -1 -30 5 -33 7 -5 11 7 11 33 0 52 -12 58 -35 18z"/>
<path d="M1075 1716 c-18 -27 -11 -53 17 -62 13 -4 26 0 37 12 15 17 15 17 -1
5 -25 -18 -48 -7 -48 24 0 31 24 42 48 24 15 -13 16 -12 3 4 -19 23 -38 21
-56 -7z"/>
<path d="M453 1690 c0 -25 2 -35 4 -22 3 17 10 22 26 20 12 -2 21 -9 20 -16
-2 -6 1 -12 5 -12 4 0 8 16 8 35 0 19 -4 35 -8 35 -4 0 -7 -6 -5 -12 4 -21
-41 -22 -46 -1 -3 10 -5 -2 -4 -27z"/>
<path d="M530 1682 c0 -29 3 -33 22 -30 28 4 35 26 11 35 -10 3 -21 11 -25 17
-4 6 -8 -4 -8 -22z m40 -12 c0 -5 -4 -10 -10 -10 -5 0 -10 5 -10 10 0 6 5 10
10 10 6 0 10 -4 10 -10z"/>
<path d="M599 1678 c3 -21 6 -26 9 -15 4 17 4 17 16 1 17 -22 46 -12 46 16 0
25 -25 37 -45 20 -10 -9 -15 -9 -15 -1 0 6 -4 11 -8 11 -5 0 -6 -15 -3 -32z
m61 1 c0 -24 -23 -21 -28 4 -2 10 3 17 12 17 10 0 16 -9 16 -21z"/>
<path d="M814 1695 c-8 -21 2 -45 19 -45 21 0 38 25 31 44 -8 20 -43 21 -50 1z
m41 -15 c0 -22 -29 -18 -33 3 -3 14 1 18 15 15 10 -2 18 -10 18 -18z"/>
<path d="M880 1668 c0 -24 4 -38 8 -32 4 6 15 13 25 17 26 10 18 51 -10 55
-21 3 -23 -1 -23 -40z m40 11 c0 -24 -23 -21 -28 4 -2 10 3 17 12 17 10 0 16
-9 16 -21z"/>
<path d="M951 1680 c0 -19 3 -28 6 -20 3 8 12 23 21 33 10 11 11 17 4 17 -7 0
-12 -6 -12 -12 0 -9 -4 -8 -10 2 -7 11 -10 6 -9 -20z"/>
<path d="M2178 1693 c7 -3 16 -2 19 1 4 3 -2 6 -13 5 -11 0 -14 -3 -6 -6z"/>
<path d="M3020 1681 c0 -14 -5 -18 -19 -14 -10 3 -22 0 -26 -7 -5 -8 -11 -8
-22 1 -11 10 -19 10 -34 1 -16 -11 -19 -9 -19 9 0 29 -33 21 -40 -11 -6 -25
-6 -25 -12 -2 -4 14 -14 22 -27 22 -19 0 -21 -6 -21 -50 0 -38 4 -50 15 -50 8
0 15 6 15 13 0 7 3 8 8 2 9 -14 62 -16 62 -3 0 6 6 6 15 -2 8 -6 20 -8 27 -4
6 4 34 7 60 7 27 -1 48 3 48 9 0 6 6 6 15 -2 8 -7 27 -10 41 -7 17 3 31 -2 44
-15 19 -21 45 -16 36 7 -2 7 4 15 15 18 16 4 20 12 17 39 -3 28 -7 33 -33 35
-16 1 -54 -1 -82 -6 -48 -7 -53 -6 -53 11 0 10 -7 18 -15 18 -8 0 -15 -9 -15
-19z m107 -43 c-3 -8 -6 -5 -6 6 -1 11 2 17 5 13 3 -3 4 -12 1 -19z m-40 -10
c-3 -8 -6 -5 -6 6 -1 11 2 17 5 13 3 -3 4 -12 1 -19z m-67 0 c0 -4 -7 -8 -15
-8 -8 0 -15 4 -15 8 0 5 7 9 15 9 8 0 15 -4 15 -9z"/>
<path d="M690 1680 c0 -5 5 -10 10 -10 6 0 10 5 10 10 0 6 -4 10 -10 10 -5 0
-10 -4 -10 -10z"/>
<path d="M2163 1667 c-17 -7 -35 -16 -40 -20 -14 -14 51 5 67 19 17 16 15 16
-27 1z"/>
<path d="M3960 1649 c0 -16 -4 -19 -16 -15 -10 4 -26 -1 -37 -11 -15 -13 -21
-15 -24 -5 -6 15 -45 16 -61 0 -9 -9 -12 -6 -12 16 0 23 -4 27 -22 24 -16 -2
-25 -12 -29 -33 l-6 -30 -7 28 c-6 20 -15 27 -32 27 -23 0 -24 -3 -24 -66 0
-47 3 -65 12 -62 7 3 15 15 19 29 7 23 7 23 8 2 1 -16 7 -23 20 -23 12 0 21 8
24 23 l4 22 2 -22 c1 -23 31 -33 31 -11 0 9 3 9 12 0 16 -16 43 -15 58 3 11
13 14 13 27 0 8 -9 19 -12 25 -9 6 4 24 7 39 6 21 0 29 4 29 16 0 15 2 15 10
2 6 -10 26 -15 62 -15 44 0 53 -3 52 -17 -1 -11 5 -18 17 -18 11 0 19 7 19 18
0 9 10 22 23 27 26 12 34 52 15 76 -10 12 -25 15 -60 11 -44 -4 -47 -6 -51
-35 l-4 -32 -1 33 c-2 28 -5 32 -30 32 -15 0 -33 -5 -40 -12 -9 -9 -12 -6 -12
15 0 20 -5 27 -20 27 -14 0 -20 -7 -20 -21z m90 -51 c0 -16 -3 -19 -11 -11 -6
6 -8 16 -5 22 11 17 16 13 16 -11z m117 -10 c-3 -8 -6 -5 -6 6 -1 11 2 17 5
13 3 -3 4 -12 1 -19z m-207 -3 c0 -6 -7 -12 -15 -12 -8 0 -15 6 -15 12 0 6 7
12 15 12 8 0 15 -6 15 -12z"/>
<path d="M2306 1629 c-31 -24 -33 -35 -7 -35 10 0 17 6 14 12 -3 7 13 14 41
18 25 4 46 11 46 17 0 17 -67 9 -94 -12z"/>
<path d="M1937 1593 c-13 -13 -7 -33 11 -33 11 0 18 7 18 20 0 20 -16 27 -29
13z"/>
<path d="M2000 1590 c0 -5 9 -10 21 -10 11 0 17 5 14 10 -3 6 -13 10 -21 10
-8 0 -14 -4 -14 -10z"/>
<path d="M7721 1584 c0 -11 3 -14 6 -6 3 7 2 16 -1 19 -3 4 -6 -2 -5 -13z"/>
<path d="M1905 1580 c3 -5 8 -10 11 -10 2 0 4 5 4 10 0 6 -5 10 -11 10 -5 0
-7 -4 -4 -10z"/>
</g>
</svg>
