<?xml version="1.0" standalone="no"?>
<!DOCTYPE svg PUBLIC "-//W3C//DTD SVG 20010904//EN"
 "http://www.w3.org/TR/2001/REC-SVG-20010904/DTD/svg10.dtd">
<svg version="1.0" xmlns="http://www.w3.org/2000/svg"
 width="1500.000000pt" height="1076.000000pt" viewBox="0 0 1500.000000 1076.000000"
 preserveAspectRatio="xMidYMid meet">

<g transform="translate(0.000000,1076.000000) scale(0.100000,-0.100000)"
fill="#000000" stroke="none">
<path d="M2953 10376 l42 -84 3 71 c2 38 1 76 -2 84 -3 8 -21 13 -45 13 l-40
0 42 -84z"/>
<path d="M2835 10437 c-48 -16 -127 -70 -164 -112 -19 -22 -46 -64 -60 -95
-23 -48 -26 -68 -26 -155 0 -90 3 -106 29 -159 28 -57 80 -126 96 -126 5 0 22
30 40 68 75 159 124 372 118 513 l-3 76 -30 -10z"/>
<path d="M3059 10357 c82 -162 121 -320 121 -495 l0 -106 46 44 c25 25 59 74
77 110 30 60 32 72 32 170 0 101 -1 108 -34 168 -55 100 -161 184 -255 199
l-36 6 49 -96z"/>
<path d="M3094 9740 c0 -23 6 -24 40 -9 31 14 24 29 -12 29 -21 0 -28 -5 -28
-20z"/>
<path d="M2360 9540 c-16 -30 -4 -57 30 -69 39 -13 38 -23 -2 -19 -24 2 -33
-1 -36 -14 -4 -19 45 -33 78 -23 49 15 45 76 -5 89 -32 8 -33 25 -1 19 27 -6
45 15 25 28 -27 17 -78 10 -89 -11z"/>
<path d="M2480 9510 c0 -41 5 -56 26 -76 19 -20 31 -24 52 -19 44 11 52 24 52
86 0 52 -2 59 -20 59 -17 0 -20 -7 -20 -50 0 -37 -4 -52 -16 -57 -22 -8 -34
14 -34 65 0 35 -3 42 -20 42 -17 0 -20 -7 -20 -50z"/>
<path d="M2640 9484 c0 -66 2 -75 18 -72 9 2 18 13 20 26 4 29 15 28 32 -3 7
-14 22 -25 32 -25 20 0 24 20 7 37 -8 8 -9 20 -1 41 16 46 -7 72 -64 72 l-44
0 0 -76z m65 16 c-5 -8 -11 -8 -17 -2 -6 6 -7 16 -3 22 5 8 11 8 17 2 6 -6 7
-16 3 -22z"/>
<path d="M2782 9488 c2 -60 6 -73 21 -76 13 -3 17 3 17 27 0 26 4 31 25 31 16
0 25 6 25 15 0 9 -10 15 -26 15 -34 0 -26 24 9 28 15 2 27 10 27 18 0 10 -13
14 -50 14 l-51 0 3 -72z"/>
<path d="M2900 9485 c0 -60 3 -75 15 -75 10 0 15 10 15 30 0 27 3 30 30 30 27
0 30 -3 30 -30 0 -20 5 -30 15 -30 12 0 15 15 15 75 0 60 -3 75 -15 75 -9 0
-15 -9 -15 -25 0 -21 -5 -25 -30 -25 -25 0 -30 4 -30 25 0 16 -6 25 -15 25
-12 0 -15 -15 -15 -75z"/>
<path d="M3065 9540 c-28 -31 -24 -79 9 -107 34 -29 48 -29 82 0 32 28 36 78
8 108 -23 25 -76 25 -99 -1z m73 -22 c30 -30 -3 -87 -39 -68 -19 11 -24 35
-13 64 7 19 35 21 52 4z"/>
<path d="M3200 9510 c0 -64 34 -106 78 -95 39 9 52 32 52 92 0 40 -4 53 -15
53 -11 0 -15 -12 -15 -49 0 -31 -5 -53 -15 -61 -26 -21 -45 5 -45 61 0 42 -3
49 -20 49 -17 0 -20 -7 -20 -50z"/>
<path d="M3372 9548 c-25 -25 -14 -58 24 -74 25 -11 33 -19 26 -26 -7 -7 -17
-6 -32 2 -18 10 -24 9 -31 -1 -11 -18 -3 -26 31 -34 81 -18 112 59 34 85 -43
15 -44 33 -1 28 23 -2 32 1 32 12 0 19 -65 26 -83 8z"/>
<path d="M3490 9485 l0 -75 44 0 c63 0 80 29 20 33 -36 3 -40 32 -5 32 14 0
26 6 29 13 2 8 -7 12 -27 12 -21 0 -31 5 -31 15 0 10 11 15 35 15 24 0 35 5
35 15 0 11 -12 15 -50 15 l-50 0 0 -75z"/>
<path d="M3521 8884 c0 -11 3 -14 6 -6 3 7 2 16 -1 19 -3 4 -6 -2 -5 -13z"/>
<path d="M3778 8893 c7 -3 16 -2 19 1 4 3 -2 6 -13 5 -11 0 -14 -3 -6 -6z"/>
<path d="M3838 8893 c7 -3 16 -2 19 1 4 3 -2 6 -13 5 -11 0 -14 -3 -6 -6z"/>
<path d="M1994 8850 c1 -29 5 -35 24 -36 17 -1 18 -1 3 3 -14 3 -21 15 -24 36
-4 31 -4 31 -3 -3z"/>
<path d="M2273 8855 c0 -22 2 -30 4 -17 2 12 2 30 0 40 -3 9 -5 -1 -4 -23z"/>
<path d="M2303 8855 c0 -22 2 -30 4 -17 2 12 2 30 0 40 -3 9 -5 -1 -4 -23z"/>
<path d="M2373 8855 c0 -22 2 -30 4 -17 2 12 2 30 0 40 -3 9 -5 -1 -4 -23z"/>
<path d="M3423 8855 c0 -22 2 -30 4 -17 2 12 2 30 0 40 -3 9 -5 -1 -4 -23z"/>
<path d="M3652 8860 c0 -19 2 -27 5 -17 2 9 2 25 0 35 -3 9 -5 1 -5 -18z"/>
<path d="M3723 8855 c0 -22 2 -30 4 -17 2 12 2 30 0 40 -3 9 -5 -1 -4 -23z"/>
<path d="M3581 8864 c0 -11 3 -14 6 -6 3 7 2 16 -1 19 -3 4 -6 -2 -5 -13z"/>
<path d="M3852 8850 c0 -19 2 -27 5 -17 2 9 2 25 0 35 -3 9 -5 1 -5 -18z"/>
<path d="M2051 8854 c0 -11 3 -14 6 -6 3 7 2 16 -1 19 -3 4 -6 -2 -5 -13z"/>
<path d="M3326 8853 c-6 -14 -5 -15 5 -6 7 7 10 15 7 18 -3 3 -9 -2 -12 -12z"/>
<path d="M3522 8840 c0 -14 2 -19 5 -12 2 6 2 18 0 25 -3 6 -5 1 -5 -13z"/>
<path d="M3548 8853 c7 -3 16 -2 19 1 4 3 -2 6 -13 5 -11 0 -14 -3 -6 -6z"/>
<path d="M4021 8844 c0 -11 3 -14 6 -6 3 7 2 16 -1 19 -3 4 -6 -2 -5 -13z"/>
<path d="M3678 8813 c7 -3 16 -2 19 1 4 3 -2 6 -13 5 -11 0 -14 -3 -6 -6z"/>
<path d="M1655 8708 c-3 -7 -4 -206 -3 -443 l3 -430 1178 0 1177 0 0 -172 0
-173 170 0 170 0 -2 613 -3 612 -1343 3 c-1069 2 -1344 0 -1347 -10z m330
-156 c27 -15 51 -34 52 -42 1 -8 4 -35 8 -60 l5 -45 88 3 c121 4 135 16 27 22
-84 5 -90 7 -93 28 -3 22 -2 22 111 22 91 0 116 -3 120 -15 8 -20 -32 -137
-53 -155 -9 -9 -17 -26 -16 -39 1 -13 -7 -28 -16 -35 -26 -16 -54 5 -51 38 2
24 -2 26 -36 26 -33 0 -37 -3 -36 -26 0 -58 -68 -56 -71 2 -1 16 -7 58 -13 94
-6 36 -13 80 -16 98 -5 25 -15 37 -45 52 -37 19 -49 38 -33 53 10 10 14 9 68
-21z m553 -2 c25 0 21 -21 -5 -31 l-28 -11 28 -14 c18 -10 27 -23 27 -40 0
-20 3 -23 17 -16 20 11 26 55 7 48 -7 -3 -15 1 -18 9 -5 13 13 25 40 25 10 0
14 -12 14 -40 0 -29 4 -40 15 -40 8 0 15 -5 15 -10 0 -6 -25 -10 -62 -9 -49 2
-64 -1 -75 -16 -7 -11 -13 -13 -13 -7 0 7 -11 17 -24 23 -28 13 -24 39 5 32
25 -7 25 13 -1 27 -26 14 -25 48 3 75 18 17 24 19 33 8 6 -7 16 -13 22 -13z
m1460 -30 c7 -11 19 -20 28 -20 8 0 24 9 36 20 24 22 38 26 38 10 0 -5 -4 -10
-9 -10 -5 0 -16 -11 -25 -25 -16 -24 -16 -26 9 -51 14 -14 25 -27 25 -29 0
-13 -22 -2 -44 21 l-24 27 -27 -27 c-45 -45 -63 -31 -19 15 l25 27 -25 25
c-29 29 -32 37 -13 37 7 0 18 -9 25 -20z m-772 -15 c24 -36 3 -85 -35 -85 -35
0 -51 17 -51 55 0 17 5 36 12 43 20 20 56 14 74 -13z m-456 -24 c0 -23 5 -41
13 -44 9 -3 9 -7 -2 -20 -15 -19 -41 -23 -41 -7 0 6 -13 10 -30 10 -16 0 -30
-4 -30 -10 0 -5 -7 -10 -16 -10 -11 0 -14 5 -10 16 3 9 6 20 6 26 0 6 6 8 14
5 7 -3 27 11 45 34 18 21 37 39 42 39 5 0 9 -18 9 -39z m110 29 c0 -5 -11 -10
-25 -10 -14 0 -25 -4 -25 -10 0 -5 9 -10 20 -10 27 0 42 -32 30 -64 -7 -19
-17 -26 -37 -26 -39 0 -61 16 -46 31 9 9 15 9 26 0 11 -9 17 -8 26 3 15 18 -8
39 -29 26 -30 -19 -34 -5 -14 58 4 14 74 17 74 2z m98 -2 c16 -16 16 -90 0
-106 -23 -23 -99 -8 -84 17 5 8 13 8 28 0 14 -8 23 -8 31 0 8 8 4 11 -14 11
-31 0 -49 17 -49 45 0 28 19 45 50 45 14 0 31 -5 38 -12z m152 2 c0 -5 -11
-10 -25 -10 -14 0 -25 -4 -25 -10 0 -5 9 -10 20 -10 23 0 38 -45 23 -69 -12
-19 -61 -27 -75 -13 -16 16 1 35 18 21 19 -15 39 2 30 26 -4 12 -10 14 -25 5
-25 -13 -30 -4 -24 38 5 30 8 32 44 32 22 0 39 -4 39 -10z m-110 -81 c0 -11
-4 -17 -10 -14 -5 3 -10 13 -10 21 0 8 5 14 10 14 6 0 10 -9 10 -21z m-389
-122 c-14 -14 -14 -37 -1 -37 6 0 10 9 10 20 0 23 31 42 49 30 8 -4 26 -4 42
0 15 5 30 6 33 3 2 -3 27 -5 55 -5 29 1 51 -4 51 -10 0 -5 -7 -8 -15 -4 -8 3
-15 1 -15 -4 0 -6 7 -10 15 -10 8 0 15 -9 15 -20 0 -16 -7 -20 -35 -20 -31 0
-35 3 -35 26 0 34 -24 26 -28 -9 -4 -33 -22 -25 -22 9 0 34 -20 20 -21 -14 0
-15 -3 -22 -5 -16 -4 10 -103 10 -131 -1 -10 -3 -13 11 -13 50 l0 53 31 -15
c22 -11 28 -18 20 -26z m-98 1 c2 -7 -2 -21 -11 -30 -14 -16 -13 -18 4 -18 14
0 16 -2 5 -9 -16 -10 -51 -3 -51 12 0 5 8 16 18 24 16 14 16 14 0 9 -12 -3
-18 0 -18 9 0 18 46 20 53 3z m-513 -347 c1 -9 9 -1 19 18 26 48 37 21 11 -29
-11 -22 -23 -40 -25 -40 -7 0 -35 71 -35 89 1 13 3 13 15 -3 8 -11 15 -27 15
-35z m206 36 c12 4 14 0 9 -23 -6 -28 -6 -28 13 5 24 43 38 25 18 -24 -14 -33
-46 -49 -46 -23 0 6 -6 4 -13 -6 -12 -16 -15 -14 -32 23 -11 26 -24 41 -33 39
-26 -5 -26 -28 0 -29 23 -1 23 -1 -2 -9 -25 -7 -24 -9 20 -23 8 -3 -6 -6 -32
-6 l-48 -1 0 40 0 40 49 0 c45 0 50 -3 60 -27 10 -28 10 -28 10 -3 -2 34 2 47
7 33 3 -7 12 -9 20 -6z m1419 2 c50 0 65 -4 65 -15 0 -17 -12 -18 -28 -2 -14
14 -28 -13 -18 -37 4 -13 10 -14 26 -5 16 8 20 8 20 -4 0 -11 -17 -15 -80 -15
-64 0 -80 2 -80 14 0 8 -7 15 -15 15 -8 0 -15 -6 -15 -14 0 -8 -4 -18 -10 -21
-6 -4 -10 12 -10 39 0 25 5 46 10 46 6 0 10 -9 10 -20 0 -11 7 -20 15 -20 8 0
15 8 15 18 0 22 9 34 21 26 5 -3 38 -5 74 -5z m-1265 -14 c-3 -5 -15 -9 -27
-7 -17 2 -23 -2 -23 -18 0 -11 3 -20 8 -20 26 1 51 15 61 36 14 32 24 30 44
-8 l16 -33 0 33 1 32 78 0 c57 -1 72 -3 60 -11 -11 -6 -18 -22 -18 -39 0 -17
-4 -30 -10 -30 -5 0 -10 16 -10 35 0 24 -5 35 -15 35 -14 0 -20 -24 -16 -57 2
-18 -9 -16 -31 4 -17 15 -18 15 -18 0 0 -11 -8 -17 -25 -17 -14 0 -25 5 -25
10 0 6 -7 10 -15 10 -8 0 -15 -4 -15 -10 0 -11 -49 -14 -74 -4 -17 6 -21 31
-10 59 5 11 16 15 38 13 17 -2 29 -7 26 -13z m1108 -4 c3 -9 -1 -11 -14 -7
-24 7 -49 -8 -39 -24 4 -7 17 -9 31 -6 17 5 24 2 24 -9 0 -24 -57 -20 -70 5
-16 30 4 62 37 58 15 -2 28 -9 31 -17z m252 3 c0 -14 2 -15 17 -3 9 8 42 15
75 16 54 1 58 0 58 -22 0 -24 22 -49 33 -38 4 3 7 19 7 35 0 27 1 28 53 27 28
-1 44 -3 35 -6 -13 -3 -18 -14 -18 -38 0 -47 -18 -54 -22 -8 -4 47 -26 55 -30
11 -2 -26 -8 -34 -27 -36 -15 -3 -30 3 -38 14 -11 16 -13 16 -19 0 -8 -21 -91
-18 -104 4 -8 12 -10 12 -16 -3 -11 -30 -24 -18 -24 23 0 22 5 40 10 40 6 0
10 -7 10 -16z m468 -276 c7 -7 12 -27 12 -44 0 -18 5 -36 10 -39 15 -10 12
-35 -5 -35 -8 0 -15 5 -15 10 0 6 -12 10 -27 10 -53 0 -83 59 -47 94 18 19 55
21 72 4z"/>
<path d="M2054 8377 c3 -10 6 -21 6 -23 0 -9 159 -3 165 6 4 6 -23 10 -72 10
-49 0 -84 5 -92 13 -11 10 -13 9 -7 -6z"/>
<path d="M3170 8483 c0 -10 4 -24 9 -31 11 -18 36 12 27 33 -8 21 -36 19 -36
-2z"/>
<path d="M2736 8461 c-4 -7 -5 -15 -2 -18 9 -9 19 4 14 18 -4 11 -6 11 -12 0z"/>
<path d="M2923 8484 c-8 -21 13 -42 28 -27 13 13 5 43 -11 43 -6 0 -13 -7 -17
-16z"/>
<path d="M2665 8270 c3 -5 8 -10 11 -10 2 0 4 5 4 10 0 6 -5 10 -11 10 -5 0
-7 -4 -4 -10z"/>
<path d="M2835 8270 c3 -5 8 -10 11 -10 2 0 4 5 4 10 0 6 -5 10 -11 10 -5 0
-7 -4 -4 -10z"/>
<path d="M3572 7960 c0 -19 2 -27 5 -17 2 9 2 25 0 35 -3 9 -5 1 -5 -18z"/>
<path d="M3600 7975 c0 -8 9 -15 20 -15 11 0 20 7 20 15 0 8 -9 15 -20 15 -11
0 -20 -7 -20 -15z"/>
<path d="M3600 7940 c0 -5 9 -10 20 -10 11 0 20 5 20 10 0 6 -9 10 -20 10 -11
0 -20 -4 -20 -10z"/>
<path d="M2480 7976 c0 -9 7 -16 16 -16 17 0 14 22 -4 28 -7 2 -12 -3 -12 -12z"/>
<path d="M3776 7973 c-4 -9 -3 -20 2 -25 6 -6 10 1 10 16 0 30 -3 32 -12 9z"/>
<path d="M3821 7981 c-8 -5 -11 -16 -6 -30 8 -25 28 -23 33 3 5 23 -9 37 -27
27z"/>
<path d="M4148 7678 c-8 -21 2 -38 22 -38 19 0 34 25 24 41 -8 13 -41 11 -46
-3z"/>
<path d="M1787 7683 c-15 -14 -6 -33 18 -39 14 -3 22 -11 19 -16 -4 -5 -15 -8
-25 -5 -11 3 -19 1 -19 -4 0 -13 48 -11 56 3 4 7 -2 18 -14 26 -27 17 -28 29
-4 35 14 4 13 5 -4 6 -11 0 -24 -2 -27 -6z"/>
<path d="M1850 7650 c0 -36 2 -40 25 -40 14 0 34 6 45 13 17 10 22 9 30 -3 18
-28 18 -4 1 35 l-18 40 -16 -37 c-11 -26 -22 -38 -36 -38 -26 0 -28 17 -3 23
16 4 16 5 0 6 -26 2 -22 29 5 34 19 4 18 4 -5 6 -26 1 -28 -2 -28 -39z"/>
<path d="M1980 7648 c0 -30 3 -39 9 -29 8 12 12 12 24 2 13 -10 15 -6 14 26
-2 31 -6 39 -24 41 -21 3 -23 -1 -23 -40z m40 12 c0 -11 -7 -20 -15 -20 -8 0
-15 9 -15 20 0 11 7 20 15 20 8 0 15 -9 15 -20z"/>
<path d="M2052 7678 c-25 -25 -6 -68 30 -68 10 0 18 4 18 10 0 5 -6 7 -13 4
-19 -7 -39 20 -31 41 4 10 14 15 25 12 11 -3 19 -1 19 4 0 13 -34 11 -48 -3z"/>
<path d="M2113 7650 c-1 -25 1 -37 4 -27 2 9 13 17 23 17 10 0 21 -8 23 -17 3
-10 5 2 4 27 0 25 -2 35 -4 23 -3 -14 -12 -23 -23 -23 -11 0 -20 9 -23 23 -2
12 -4 2 -4 -23z"/>
<path d="M3840 7671 c0 -6 5 -13 10 -16 8 -5 7 -11 -1 -21 -15 -18 -3 -32 13
-16 9 9 15 9 25 0 18 -14 29 -3 15 15 -9 10 -9 16 0 25 16 16 2 28 -16 13 -10
-8 -16 -9 -21 -1 -8 13 -25 13 -25 1z"/>
<path d="M12875 7407 c-45 -39 -43 -52 10 -93 34 -26 37 -26 53 -10 16 16 16
18 -7 37 l-24 20 23 24 c19 20 21 27 10 40 -17 21 -21 20 -65 -18z"/>
<path d="M13150 7430 c-12 -8 -13 -13 -2 -27 23 -34 24 -44 7 -63 -15 -16 -15
-22 -5 -35 7 -8 18 -15 24 -15 14 0 76 62 76 76 0 13 -63 74 -75 74 -6 0 -17
-5 -25 -10z"/>
<path d="M1921 6528 c12 -29 31 -79 43 -110 26 -71 49 -77 72 -18 9 22 19 40
23 40 5 0 14 -18 21 -40 23 -69 43 -54 89 64 23 58 41 107 41 110 0 3 -8 6
-19 6 -14 0 -25 -18 -47 -80 -28 -81 -37 -93 -48 -64 -10 25 -7 59 9 103 13
39 13 41 -6 41 -14 0 -21 -9 -25 -30 -4 -16 -11 -30 -15 -30 -5 0 -12 14 -15
30 -5 21 -12 30 -26 30 -20 0 -20 -4 4 -76 8 -23 7 -37 -4 -59 l-15 -28 -21
56 c-12 31 -24 68 -28 82 -4 18 -13 25 -30 25 l-24 0 21 -52z"/>
<path d="M2240 6470 l0 -110 70 0 c63 0 70 2 70 20 0 17 -7 20 -50 20 -47 0
-50 2 -50 25 0 23 4 25 45 25 33 0 45 4 45 15 0 11 -12 15 -45 15 -43 0 -45 1
-45 30 0 29 1 30 50 30 43 0 50 3 50 20 0 18 -7 20 -70 20 l-70 0 0 -110z"/>
<path d="M2420 6470 l0 -110 76 0 c66 0 75 2 72 18 -2 13 -15 18 -56 20 l-52
3 0 90 c0 82 -1 89 -20 89 -19 0 -20 -7 -20 -110z"/>
<path d="M2623 6545 c-33 -33 -35 -39 -30 -82 10 -89 93 -131 154 -79 25 22
26 25 10 32 -10 3 -23 2 -30 -5 -34 -34 -97 4 -97 59 0 55 63 93 97 59 7 -7
20 -8 30 -5 16 7 15 10 -10 32 -41 35 -81 32 -124 -11z"/>
<path d="M2820 6551 c-16 -16 -32 -40 -36 -55 -9 -38 3 -74 36 -107 37 -38 79
-38 120 -1 55 49 50 140 -9 175 -43 25 -78 21 -111 -12z m104 -33 c34 -49 8
-118 -44 -118 -18 0 -34 8 -44 22 -34 49 -8 118 44 118 18 0 34 -8 44 -22z"/>
<path d="M3020 6471 c0 -104 1 -111 20 -111 18 0 20 7 21 73 l0 72 27 -52 c14
-29 31 -53 37 -53 6 0 23 24 37 53 l27 52 0 -72 c1 -66 3 -73 21 -73 19 0 20
7 20 111 0 107 -1 110 -21 107 -15 -2 -31 -21 -49 -56 -15 -29 -31 -53 -35
-53 -4 0 -20 24 -35 53 -18 35 -34 54 -49 56 -20 3 -21 0 -21 -107z"/>
<path d="M3280 6470 l0 -110 70 0 c63 0 70 2 70 20 0 17 -7 20 -50 20 -47 0
-50 2 -50 25 0 23 4 25 45 25 33 0 45 4 45 15 0 11 -12 15 -45 15 -43 0 -45 1
-45 30 0 29 1 30 50 30 43 0 50 3 50 20 0 18 -7 20 -70 20 l-70 0 0 -110z"/>
<path d="M3502 6563 c2 -12 14 -19 36 -21 l32 -3 0 -90 c0 -82 1 -89 20 -89
19 0 20 7 20 90 l0 90 35 0 c28 0 35 4 35 20 0 19 -7 20 -91 20 -81 0 -90 -2
-87 -17z"/>
<path d="M3724 6546 c-28 -28 -34 -42 -34 -76 0 -55 50 -110 100 -110 37 0 85
42 96 84 9 38 -3 74 -36 107 -40 41 -82 39 -126 -5z m105 -19 c38 -46 15 -127
-36 -127 -56 0 -83 67 -47 118 17 25 65 30 83 9z"/>
<path d="M1955 6268 c-27 -15 -35 -28 -35 -61 0 -22 7 -30 38 -43 62 -27 67
-30 70 -48 3 -12 -4 -16 -28 -16 -17 0 -41 5 -52 11 -16 9 -22 8 -29 -2 -22
-37 81 -65 126 -35 22 14 26 24 23 54 -3 35 -6 38 -55 56 -40 14 -53 24 -53
38 0 17 6 19 47 16 53 -4 71 16 28 32 -34 13 -55 12 -80 -2z"/>
<path d="M2101 6194 c4 -79 6 -87 32 -110 18 -15 41 -24 62 -24 21 0 44 9 62
24 26 23 28 31 32 110 3 82 2 86 -18 86 -19 0 -21 -6 -21 -71 0 -88 -10 -109
-54 -109 -42 0 -56 28 -56 115 0 59 -2 65 -21 65 -20 0 -21 -4 -18 -86z"/>
<path d="M2330 6170 c0 -103 1 -110 20 -110 16 0 20 7 20 35 0 30 3 35 23 35
17 0 29 -10 43 -35 13 -25 25 -35 42 -35 l24 0 -23 36 c-21 34 -21 38 -6 64
22 37 21 62 -4 94 -18 23 -28 26 -80 26 l-59 0 0 -110z m115 35 c0 -27 -3 -30
-37 -33 -38 -3 -38 -3 -38 33 0 36 0 36 38 33 34 -3 37 -6 37 -33z"/>
<path d="M2530 6170 c0 -103 1 -110 20 -110 17 0 20 7 20 45 l0 45 45 0 c33 0
45 4 45 15 0 11 -12 15 -45 15 -43 0 -45 1 -45 30 0 29 1 30 50 30 43 0 50 3
50 20 0 18 -7 20 -70 20 l-70 0 0 -110z"/>
<path d="M2700 6170 c0 -103 1 -110 20 -110 17 0 20 7 20 45 l0 45 50 0 50 0
0 -45 c0 -38 3 -45 20 -45 19 0 20 7 20 110 0 103 -1 110 -20 110 -17 0 -20
-7 -20 -51 l0 -50 -47 3 -48 3 -3 48 c-3 39 -6 47 -23 47 -18 0 -19 -8 -19
-110z"/>
<path d="M2954 6246 c-28 -28 -34 -42 -34 -76 0 -35 6 -48 35 -77 32 -32 40
-35 73 -30 60 10 103 74 88 133 -4 15 -20 39 -36 55 -40 41 -82 39 -126 -5z
m110 -28 c22 -31 20 -74 -4 -98 -27 -27 -65 -26 -84 2 -34 49 -8 118 44 118
18 0 34 -8 44 -22z"/>
<path d="M3150 6199 c0 -76 2 -82 29 -110 31 -30 67 -37 102 -19 33 18 49 64
49 140 0 63 -2 70 -20 70 -18 0 -20 -7 -20 -71 0 -86 -11 -109 -50 -109 -39 0
-50 23 -50 109 0 64 -2 71 -20 71 -18 0 -20 -7 -20 -81z"/>
<path d="M3390 6260 c-24 -24 -26 -63 -5 -84 9 -9 34 -20 55 -26 29 -8 40 -16
40 -30 0 -16 -7 -20 -31 -20 -17 0 -40 5 -51 11 -16 9 -23 8 -29 -2 -14 -22
-11 -26 22 -38 77 -27 132 -2 127 57 -3 35 -6 38 -55 56 -40 14 -53 24 -53 38
0 17 6 19 47 16 53 -4 71 16 28 32 -40 15 -73 12 -95 -10z"/>
<path d="M3560 6170 l0 -110 70 0 c63 0 70 2 70 20 0 17 -7 20 -50 20 -47 0
-50 2 -50 25 0 23 4 25 45 25 33 0 45 4 45 15 0 11 -12 15 -45 15 -43 0 -45 1
-45 30 0 29 1 30 50 30 43 0 50 3 50 20 0 18 -7 20 -70 20 l-70 0 0 -110z"/>
<path d="M1994 5753 c-6 -38 -10 -70 -8 -72 8 -9 24 13 24 33 0 25 23 51 38
42 5 -3 6 -26 2 -51 -5 -32 -3 -45 5 -45 14 0 30 94 19 111 -3 6 -17 8 -31 4
-23 -5 -25 -4 -19 20 4 17 2 25 -7 25 -8 0 -17 -24 -23 -67z"/>
<path d="M2476 5812 c-2 -4 -8 -36 -12 -70 -6 -53 -4 -62 9 -62 9 0 19 5 22
10 3 6 1 10 -6 10 -11 0 -6 70 8 106 5 15 -12 20 -21 6z"/>
<path d="M2886 5811 c-4 -5 -9 -37 -12 -70 -6 -52 -4 -61 9 -61 9 0 19 5 22
10 3 6 1 10 -6 10 -11 0 -6 70 8 106 6 15 -13 19 -21 5z"/>
<path d="M2945 5810 c-3 -5 1 -10 9 -10 9 0 16 5 16 10 0 6 -4 10 -9 10 -6 0
-13 -4 -16 -10z"/>
<path d="M9440 5770 l0 -51 38 3 c37 3 37 3 37 48 0 45 0 45 -37 48 l-38 3 0
-51z m50 20 c0 -5 -4 -10 -10 -10 -5 0 -10 5 -10 10 0 6 5 10 10 10 6 0 10 -4
10 -10z m0 -40 c0 -5 -4 -10 -10 -10 -5 0 -10 5 -10 10 0 6 5 10 10 10 6 0 10
-4 10 -10z"/>
<path d="M9530 5786 c0 -40 22 -66 55 -66 26 0 45 25 45 62 1 22 1 22 15 4 8
-11 15 -30 15 -43 0 -34 23 -28 36 10 6 17 14 40 19 50 5 12 3 17 -8 17 -8 0
-18 -8 -22 -17 -6 -17 -7 -17 -19 0 -7 9 -25 17 -40 17 -23 0 -26 -4 -26 -35
0 -28 -4 -35 -20 -35 -16 0 -20 7 -20 35 0 24 -5 35 -15 35 -10 0 -15 -10 -15
-34z"/>
<path d="M9750 5770 c0 -38 4 -50 15 -50 9 0 15 9 15 22 l0 21 23 -21 c28 -26
47 -28 47 -5 0 15 1 15 18 0 25 -23 59 -21 72 4 28 52 -28 102 -70 64 -18 -16
-20 -17 -20 -2 0 10 -7 17 -15 17 -9 0 -15 -9 -15 -22 l0 -21 -23 21 c-36 34
-47 28 -47 -28z m170 0 c0 -13 -7 -20 -20 -20 -13 0 -20 7 -20 20 0 13 7 20
20 20 13 0 20 -7 20 -20z"/>
<path d="M9954 5808 c2 -7 10 -30 17 -50 13 -41 32 -49 48 -20 10 16 10 16 11
0 0 -35 31 -18 50 28 24 54 24 54 6 54 -8 0 -19 -14 -25 -32 -6 -17 -13 -29
-16 -26 -3 3 -1 17 4 32 8 20 7 26 -3 26 -8 0 -17 -6 -19 -12 -4 -10 -6 -10
-6 0 -1 6 -8 12 -16 12 -11 0 -14 -7 -10 -27 l5 -28 -11 28 c-6 15 -17 27 -26
27 -8 0 -12 -6 -9 -12z"/>
<path d="M1885 5800 c-3 -5 3 -10 15 -10 20 0 21 -3 15 -55 -9 -72 10 -74 22
-2 7 43 12 53 31 55 12 2 22 8 22 13 0 12 -97 12 -105 -1z"/>
<path d="M3335 5787 c-5 -7 -11 -33 -12 -59 -2 -41 1 -48 17 -48 10 0 22 5 25
10 3 6 1 10 -4 10 -17 0 -13 57 5 64 14 5 14 8 0 21 -17 18 -18 18 -31 2z"/>
<path d="M2111 5754 c-12 -15 -21 -30 -21 -35 0 -12 30 -39 44 -39 9 0 10 -15
2 -65 -10 -70 -7 -81 21 -71 14 6 15 9 4 15 -8 6 -11 19 -7 37 3 16 8 47 11
70 4 39 3 41 -20 36 -15 -2 -25 0 -25 7 0 6 16 11 35 11 27 0 35 4 35 18 0 46
-48 55 -79 16z m57 -11 c2 -8 -5 -13 -17 -13 -21 0 -35 13 -24 24 10 10 36 3
41 -11z"/>
<path d="M2261 5754 c-12 -15 -21 -30 -21 -35 0 -14 31 -39 49 -39 39 0 66 61
39 88 -19 19 -45 14 -67 -14z m55 -9 c7 -18 -12 -45 -32 -45 -14 0 -20 41 -7
53 11 12 33 7 39 -8z"/>
<path d="M2361 5731 c-5 -25 -8 -47 -6 -49 9 -9 25 11 25 32 0 25 26 54 37 42
4 -4 6 -23 4 -42 -4 -47 16 -43 24 6 8 50 2 60 -40 58 -32 -1 -35 -4 -44 -47z"/>
<path d="M2520 5773 c0 -5 5 -28 11 -53 9 -38 8 -46 -7 -57 -10 -7 -15 -15
-12 -18 13 -13 35 9 63 62 38 71 39 73 28 73 -5 0 -18 -17 -28 -37 l-18 -38
-10 38 c-5 20 -13 37 -18 37 -5 0 -9 -3 -9 -7z"/>
<path d="M2661 5754 c-12 -15 -21 -30 -21 -35 0 -14 31 -39 49 -39 39 0 66 61
39 88 -19 19 -45 14 -67 -14z m55 -9 c7 -18 -12 -45 -32 -45 -14 0 -20 41 -7
53 11 12 33 7 39 -8z"/>
<path d="M2761 5731 c-5 -25 -8 -47 -6 -49 9 -9 25 11 25 32 0 25 26 54 37 42
4 -4 6 -23 4 -42 -4 -47 16 -43 24 6 8 50 2 60 -40 58 -32 -1 -35 -4 -44 -47z"/>
<path d="M2932 5733 c-6 -26 -9 -50 -6 -52 9 -10 22 16 29 57 9 59 -11 55 -23
-5z"/>
<path d="M2979 5776 c0 -1 -2 -12 -5 -26 -2 -14 -6 -36 -9 -48 -4 -17 -2 -23
7 -20 7 3 14 16 16 31 4 28 26 52 41 43 5 -4 7 -22 4 -41 -4 -23 -2 -35 6 -35
6 0 11 -12 11 -26 0 -20 -4 -24 -19 -19 -27 8 -51 -4 -62 -32 -15 -39 4 -62
50 -60 l38 1 9 68 c8 55 7 68 -4 68 -9 0 -12 13 -10 48 l3 47 -37 1 c-21 1
-38 1 -39 0z m56 -186 c0 -18 -6 -26 -22 -28 -18 -3 -23 1 -23 21 0 28 9 39
30 35 9 -2 15 -14 15 -28z"/>
<path d="M3096 5765 c-22 -16 -25 -63 -5 -76 18 -12 51 -7 56 7 2 7 -6 10 -22
7 -15 -3 -25 -1 -25 6 0 6 16 11 35 11 27 0 35 4 35 18 0 39 -39 53 -74 27z
m54 -20 c0 -16 -35 -21 -44 -6 -8 12 4 21 26 21 10 0 18 -7 18 -15z"/>
<path d="M3242 5768 c-19 -19 -14 -37 13 -44 35 -9 31 -24 -6 -24 -17 0 -28
-4 -24 -10 9 -14 48 -13 63 2 19 19 14 34 -15 48 l-28 14 28 4 c15 2 27 8 27
13 0 13 -44 11 -58 -3z"/>
<path d="M3401 5754 c-12 -15 -21 -30 -21 -35 0 -12 30 -39 43 -39 24 0 57 31
57 54 0 49 -47 61 -79 20z m55 -9 c7 -18 -12 -45 -32 -45 -14 0 -20 41 -7 53
11 12 33 7 39 -8z"/>
<path d="M3501 5732 c-5 -26 -8 -48 -6 -50 9 -10 25 12 25 33 0 14 9 29 20 35
27 14 25 25 -4 26 -22 2 -26 -4 -35 -44z"/>
<path d="M3581 5754 c-26 -32 -26 -39 -3 -62 12 -12 15 -26 11 -47 -13 -57
-10 -105 5 -105 19 0 30 17 14 22 -14 5 6 121 22 126 21 7 9 19 -15 14 -15 -2
-25 0 -25 7 0 6 16 11 35 11 27 0 35 4 35 18 0 46 -48 55 -79 16z m59 -9 c0
-9 -9 -15 -25 -15 -24 0 -32 10 -18 23 12 13 43 7 43 -8z"/>
<path d="M3720 5773 c0 -5 5 -28 11 -53 9 -38 8 -46 -7 -57 -10 -7 -15 -15
-12 -18 13 -13 35 9 63 62 38 71 39 73 28 73 -5 0 -18 -17 -28 -37 l-18 -38
-10 38 c-5 20 -13 37 -18 37 -5 0 -9 -3 -9 -7z"/>
<path d="M3821 5754 c-12 -15 -21 -30 -21 -35 0 -12 30 -39 43 -39 24 0 57 31
57 54 0 49 -47 61 -79 20z m55 -9 c7 -18 -12 -45 -32 -45 -14 0 -20 41 -7 53
11 12 33 7 39 -8z"/>
<path d="M3924 5756 c-3 -13 -4 -35 -2 -47 3 -21 9 -24 42 -24 l39 0 4 48 c5
56 -10 62 -23 10 -6 -25 -16 -39 -28 -41 -17 -4 -18 0 -12 37 7 44 -9 58 -20
17z"/>
<path d="M2087 5673 c-3 -5 -8 -35 -12 -68 -5 -36 -14 -65 -24 -72 -15 -11
-14 -12 2 -13 9 0 17 4 17 9 0 5 10 11 23 15 17 5 19 8 8 15 -13 8 -11 48 5
104 5 17 -10 24 -19 10z"/>
<path d="M3154 5655 c-18 -28 -30 -115 -15 -115 5 0 12 12 16 27 3 15 14 33
23 40 11 8 12 12 5 13 -18 0 -16 40 2 40 8 0 15 5 15 10 0 20 -30 10 -46 -15z"/>
<path d="M3536 5672 c-2 -4 -8 -36 -12 -70 -6 -53 -4 -62 9 -62 9 0 19 5 22
10 3 6 1 10 -6 10 -11 0 -6 70 8 106 5 15 -12 20 -21 6z"/>
<path d="M1880 5634 c0 -3 5 -25 11 -50 12 -45 25 -56 35 -29 8 20 24 19 24
-1 0 -27 23 -9 52 39 18 31 23 47 15 47 -8 0 -22 -17 -32 -37 -13 -27 -20 -33
-22 -21 -3 9 1 26 7 37 6 12 7 21 1 21 -5 0 -12 -6 -14 -12 -4 -10 -8 -9 -16
2 -8 12 -11 8 -11 -17 0 -45 -16 -50 -24 -8 -4 19 -11 35 -16 35 -6 0 -10 -3
-10 -6z"/>
<path d="M2035 5608 c-4 -18 -9 -41 -11 -50 -4 -12 0 -18 10 -18 9 0 16 8 16
19 0 10 3 33 6 50 4 19 2 31 -4 31 -6 0 -13 -15 -17 -32z"/>
<path d="M2254 5632 c-23 -15 -35 -51 -24 -72 6 -11 15 -20 20 -20 6 0 10 -11
10 -25 0 -21 -4 -25 -22 -20 -27 6 -41 -2 -57 -32 -19 -37 1 -62 48 -60 l39 1
7 68 c4 38 11 71 16 74 18 11 8 21 -16 16 -15 -2 -25 0 -25 7 0 6 16 11 35 11
27 0 35 4 35 18 0 34 -38 53 -66 34z m46 -21 c0 -6 -5 -13 -10 -16 -15 -9 -43
3 -35 15 8 13 45 13 45 1z m-55 -141 c11 -18 -6 -50 -26 -50 -13 0 -19 7 -19
23 0 13 3 27 7 30 10 10 31 8 38 -3z"/>
<path d="M2336 5598 c11 -76 31 -75 65 1 23 51 9 54 -16 4 -10 -21 -19 -33
-20 -28 -2 6 -6 22 -9 38 -10 45 -27 32 -20 -15z"/>
<path d="M2454 5632 c-18 -12 -34 -50 -28 -66 7 -19 35 -29 58 -20 25 10 19
22 -9 16 -15 -2 -25 0 -25 7 0 6 16 11 35 11 27 0 35 4 35 18 0 34 -38 53 -66
34z m46 -27 c0 -8 -9 -15 -20 -15 -11 0 -20 7 -20 15 0 8 9 15 20 15 11 0 20
-7 20 -15z"/>
<path d="M2545 5614 c-3 -13 -7 -35 -10 -49 -4 -18 -1 -25 10 -25 10 0 15 10
15 30 0 19 7 33 20 40 27 15 25 25 -5 26 -19 2 -26 -4 -30 -22z"/>
<path d="M2655 5606 c-11 -56 -16 -66 -30 -66 -23 0 -47 -46 -51 -95 -5 -51
11 -61 21 -15 4 17 13 30 21 30 10 0 12 -8 8 -30 -4 -18 -2 -30 4 -30 12 0 22
24 22 56 0 19 -5 24 -25 24 -23 0 -24 2 -15 20 6 11 19 19 28 18 9 -2 17 2 17
9 0 6 3 15 8 19 4 4 7 17 7 29 0 25 24 50 39 41 5 -4 7 -22 4 -41 -3 -21 -1
-35 4 -35 11 0 27 76 18 90 -3 4 -21 8 -40 7 -30 -1 -35 -5 -40 -31z"/>
<path d="M2771 5614 c-25 -32 -26 -38 -5 -58 17 -18 24 -19 48 -10 25 10 19
22 -9 16 -15 -2 -25 0 -25 7 0 20 64 12 83 -10 19 -21 58 -23 64 -3 2 7 -6 10
-22 7 -15 -3 -25 -1 -25 6 0 6 16 11 35 11 27 0 35 4 35 18 0 44 -49 56 -77
18 l-18 -23 -10 21 c-16 32 -49 32 -74 0z m59 -9 c0 -16 -35 -21 -44 -6 -8 12
4 21 26 21 10 0 18 -7 18 -15z m100 0 c0 -16 -35 -21 -44 -6 -8 12 4 21 26 21
10 0 18 -7 18 -15z"/>
<path d="M3211 5614 c-26 -33 -26 -40 -1 -61 25 -22 28 -68 4 -59 -42 16 -85
-34 -64 -74 8 -14 20 -19 49 -17 l39 1 6 67 c5 48 13 72 26 84 34 31 20 85
-21 85 -10 0 -27 -12 -38 -26z m55 -9 c7 -18 -12 -45 -32 -45 -14 0 -20 41 -7
53 11 12 33 7 39 -8z m-48 -149 c4 -19 -13 -36 -35 -36 -14 0 -18 42 -6 54 12
12 38 1 41 -18z"/>
<path d="M3311 5592 c-5 -26 -8 -48 -6 -50 9 -10 25 12 25 33 0 14 9 29 20 35
27 14 25 25 -4 26 -22 2 -26 -4 -35 -44z"/>
<path d="M3435 5631 c-4 -7 4 -11 19 -11 14 0 26 -4 26 -10 0 -5 -11 -10 -24
-10 -30 0 -51 -24 -41 -47 5 -10 7 -21 7 -25 -4 -15 26 -8 32 8 4 10 13 13 27
9 19 -6 20 -3 17 42 -3 44 -5 48 -30 51 -14 2 -29 -2 -33 -7z m35 -56 c0 -8
-9 -15 -20 -15 -20 0 -26 11 -13 23 12 13 33 7 33 -8z"/>
<path d="M3670 5633 c0 -5 5 -28 11 -51 9 -42 8 -46 -21 -75 -37 -37 -38 -55
-5 -63 35 -9 31 -22 -7 -26 -26 -3 -29 -6 -15 -12 26 -12 67 1 67 23 0 10 -12
24 -27 31 l-28 14 35 6 c29 5 32 8 17 15 -10 4 -14 11 -9 14 9 6 48 75 64 114
14 34 -10 16 -28 -20 -9 -21 -18 -33 -20 -28 -1 6 -5 22 -8 38 -6 23 -26 40
-26 20z"/>
<path d="M3771 5614 c-12 -15 -21 -30 -21 -35 0 -12 30 -39 43 -39 24 0 57 31
57 54 0 49 -47 61 -79 20z m54 -4 c11 -18 -6 -50 -26 -50 -13 0 -19 7 -19 23
0 13 3 27 7 30 10 10 31 8 38 -3z"/>
<path d="M3874 5616 c-3 -13 -4 -35 -2 -47 3 -21 9 -24 42 -24 l39 0 4 48 c3
29 0 47 -6 47 -6 0 -11 -9 -11 -21 0 -30 -18 -59 -37 -59 -13 0 -14 7 -9 40 7
44 -9 57 -20 16z"/>
<path d="M3983 5598 c-3 -23 -15 -48 -25 -57 -29 -24 -41 -50 -45 -98 -4 -48
11 -58 22 -16 3 15 14 33 23 40 11 8 12 12 5 13 -16 0 -17 40 -2 40 19 0 39
28 39 54 0 15 8 30 20 36 27 15 25 25 -5 26 -22 2 -26 -3 -32 -38z"/>
<path d="M3327 5533 c-3 -5 -8 -30 -12 -57 -3 -27 -9 -55 -12 -62 -3 -8 1 -14
11 -14 9 0 16 8 16 20 0 11 4 20 9 20 12 0 21 -26 21 -61 0 -25 -3 -29 -19
-24 -27 8 -51 -4 -62 -32 -15 -39 4 -62 50 -60 l38 1 10 71 c6 47 6 79 -1 97
-8 22 -6 31 9 47 24 28 5 27 -25 -1 l-23 -22 5 42 c5 37 -3 56 -15 35z m21
-217 c4 -19 -13 -36 -35 -36 -14 0 -18 42 -6 54 12 12 38 1 41 -18z"/>
<path d="M3475 5507 c-5 -7 -11 -33 -13 -59 -2 -42 0 -48 17 -48 17 0 19 5 14
36 -5 28 -2 39 11 46 14 8 14 11 2 24 -17 17 -18 17 -31 1z"/>
<path d="M1886 5468 c5 -18 8 -45 9 -60 0 -35 21 -37 29 -3 7 27 26 34 26 10
0 -31 26 -13 51 35 17 31 22 50 15 50 -7 0 -21 -17 -31 -37 -13 -27 -20 -33
-22 -21 -3 9 1 26 7 37 6 12 7 21 1 21 -5 0 -12 -6 -14 -12 -4 -10 -8 -9 -16
2 -8 12 -11 8 -11 -17 0 -17 -4 -35 -10 -38 -5 -3 -10 3 -10 14 0 27 -10 51
-22 51 -6 0 -7 -13 -2 -32z"/>
<path d="M2035 5475 c-3 -14 -7 -36 -10 -50 -3 -14 -1 -25 4 -25 14 0 18 9 26
58 7 46 -11 62 -20 17z"/>
<path d="M2071 5451 c-5 -25 -8 -47 -6 -49 9 -9 25 11 25 32 0 26 24 51 39 42
5 -4 7 -22 4 -41 -3 -21 -2 -35 5 -35 12 0 27 74 18 89 -3 5 -22 9 -41 8 -32
-1 -35 -3 -44 -46z"/>
<path d="M2312 5488 c-19 -19 -14 -37 13 -44 35 -9 31 -24 -6 -24 -17 0 -28
-4 -24 -10 9 -14 48 -13 63 2 19 19 14 37 -13 44 -14 3 -25 10 -25 15 0 5 11
9 25 9 14 0 25 5 25 10 0 14 -43 13 -58 -2z"/>
<path d="M2394 5476 c-3 -13 -4 -35 -2 -47 3 -21 9 -24 42 -24 l39 0 4 48 c5
56 -10 62 -23 10 -6 -25 -16 -39 -28 -41 -17 -4 -18 0 -12 37 7 44 -9 58 -20
17z"/>
<path d="M2500 5451 c-6 -25 -14 -58 -17 -73 -4 -22 -9 -27 -27 -22 -25 6 -52
-12 -60 -41 -9 -31 9 -49 52 -51 l40 -2 7 69 c4 38 11 72 16 75 5 3 9 16 9 30
0 13 9 29 20 36 26 17 25 23 -4 24 -22 2 -26 -4 -36 -45z m-32 -135 c4 -19
-13 -36 -35 -36 -14 0 -18 42 -6 54 12 12 38 1 41 -18z"/>
<path d="M2675 5473 c-3 -13 -7 -34 -10 -48 -4 -18 -1 -25 10 -25 10 0 15 10
15 29 0 30 22 57 39 47 5 -4 7 -22 4 -41 -3 -21 -1 -35 4 -35 11 0 27 76 18
90 -3 4 -21 8 -40 7 -29 -1 -37 -5 -40 -24z"/>
<path d="M2802 5493 c-21 -8 -34 -51 -21 -75 8 -15 17 -18 35 -14 13 4 24 2
24 -3 0 -13 -34 -23 -53 -15 -12 4 -17 -4 -22 -40 -8 -50 -26 -72 -51 -62 -13
5 -16 16 -12 56 6 65 -17 69 -25 5 -8 -55 -1 -74 28 -81 35 -9 63 12 76 56 17
56 31 50 23 -10 -5 -34 -3 -50 5 -50 6 0 11 9 11 20 0 14 7 20 21 20 36 0 59
19 59 50 0 20 -6 31 -21 35 -21 7 -21 11 -3 91 4 17 0 20 -28 21 -18 0 -39 -2
-46 -4z m43 -23 c11 -18 -6 -50 -26 -50 -13 0 -19 7 -19 23 0 13 3 27 7 30 10
10 31 8 38 -3z m33 -122 c-4 -30 -48 -39 -48 -10 0 24 8 32 32 32 14 0 19 -6
16 -22z"/>
<path d="M2955 5491 c-4 -7 4 -11 19 -11 14 0 26 -4 26 -10 0 -5 -11 -10 -24
-10 -28 0 -51 -24 -43 -44 4 -10 19 -14 47 -13 l41 1 -3 46 c-3 40 -6 45 -30
48 -14 2 -29 -2 -33 -7z m35 -56 c0 -8 -9 -15 -20 -15 -20 0 -26 11 -13 23 12
13 33 7 33 -8z"/>
<path d="M3045 5466 c-4 -17 -9 -39 -11 -48 -4 -12 0 -18 10 -18 11 0 16 9 16
29 0 29 25 60 37 47 4 -4 6 -23 4 -42 -4 -48 15 -43 23 7 8 51 4 57 -39 56
-30 -1 -35 -5 -40 -31z"/>
<path d="M3412 5453 c-6 -26 -9 -50 -6 -52 9 -10 22 16 29 57 9 59 -11 55 -23
-5z"/>
<path d="M3541 5474 c-25 -32 -26 -38 -5 -58 17 -18 24 -19 48 -10 25 10 19
22 -9 16 -15 -2 -25 0 -25 7 0 6 16 11 35 11 27 0 35 4 35 18 0 46 -48 55 -79
16z m59 -9 c0 -16 -35 -21 -44 -6 -8 12 4 21 26 21 10 0 18 -7 18 -15z"/>
<path d="M3736 5484 c-3 -9 -6 -31 -6 -49 0 -33 1 -34 39 -32 35 1 40 4 45 30
14 70 -3 96 -20 30 -6 -25 -16 -39 -28 -41 -17 -4 -18 0 -12 37 6 40 -6 57
-18 25z"/>
<path d="M3845 5466 c-4 -17 -9 -39 -11 -48 -4 -12 0 -18 10 -18 11 0 16 9 16
30 0 19 7 34 20 42 26 17 25 23 -4 24 -20 2 -26 -4 -31 -30z"/>
<path d="M3980 5450 c0 -5 11 -10 25 -10 14 0 25 5 25 10 0 6 -11 10 -25 10
-14 0 -25 -4 -25 -10z"/>
<path d="M2588 5379 c-28 -16 -22 -47 12 -64 39 -20 29 -39 -16 -30 -40 7 -47
-11 -8 -21 64 -16 104 47 44 69 -35 13 -34 31 1 34 42 2 44 3 29 13 -19 12
-40 12 -62 -1z"/>
<path d="M1885 5328 c-4 -18 -9 -41 -11 -50 -4 -12 0 -18 10 -18 9 0 16 8 16
19 0 10 3 33 6 50 4 19 2 31 -4 31 -6 0 -13 -15 -17 -32z"/>
<path d="M1925 5326 c-4 -17 -9 -39 -11 -48 -4 -12 0 -18 10 -18 11 0 16 9 16
28 0 30 16 52 37 52 10 0 12 -10 7 -40 -4 -24 -3 -40 3 -40 11 0 27 76 18 90
-3 4 -21 8 -40 7 -30 -1 -35 -5 -40 -31z"/>
<path d="M2049 5346 c-39 -28 -23 -95 20 -83 14 3 21 1 18 -6 -2 -7 -18 -12
-35 -12 -36 0 -38 -18 -3 -23 31 -5 59 24 67 67 3 20 8 43 10 52 5 19 -53 23
-77 5z m49 -30 c4 -19 -13 -36 -35 -36 -14 0 -18 42 -6 54 12 12 38 1 41 -18z"/>
<path d="M2205 5351 c-4 -7 4 -11 19 -11 14 0 26 -4 26 -10 0 -5 -11 -10 -24
-10 -26 0 -50 -23 -44 -42 3 -8 22 -13 47 -14 l42 0 -3 45 c-3 41 -6 46 -30
49 -14 2 -29 -2 -33 -7z m35 -56 c0 -8 -9 -15 -20 -15 -20 0 -26 11 -13 23 12
13 33 7 33 -8z"/>
<path d="M2295 5333 c-3 -13 -7 -35 -10 -49 -4 -18 -2 -25 7 -22 7 3 15 15 16
29 9 58 49 64 44 6 -5 -50 15 -47 23 3 8 50 3 58 -40 57 -29 -1 -37 -5 -40
-24z"/>
<path d="M2951 5311 c-5 -25 -8 -47 -6 -49 9 -9 25 11 25 32 0 24 17 46 36 46
8 0 10 -12 7 -40 -7 -53 13 -53 22 0 8 50 3 58 -40 57 -32 -1 -35 -3 -44 -46z"/>
<path d="M3071 5334 c-25 -31 -25 -35 -8 -58 14 -19 58 -19 64 0 2 7 -6 10
-22 7 -15 -3 -25 -1 -25 6 0 6 16 11 35 11 27 0 35 4 35 18 0 46 -48 55 -79
16z m57 -11 c2 -8 -5 -13 -17 -13 -21 0 -35 13 -24 24 10 10 36 3 41 -11z"/>
<path d="M3181 5334 c-25 -31 -26 -47 -7 -64 17 -14 58 -10 63 6 2 7 -6 10
-22 7 -15 -3 -25 -1 -25 6 0 6 16 11 35 11 27 0 35 4 35 18 0 46 -48 55 -79
16z m59 -9 c0 -16 -35 -21 -44 -6 -8 12 4 21 26 21 10 0 18 -7 18 -15z"/>
<path d="M3412 5348 c-19 -19 -14 -37 13 -44 35 -9 31 -24 -6 -24 -17 0 -28
-4 -24 -10 9 -14 48 -13 63 2 19 19 14 34 -15 48 l-28 14 28 4 c15 2 27 8 27
13 0 13 -44 11 -58 -3z"/>
<path d="M6782 4423 c3 -16 22 -18 201 -21 192 -2 197 -2 197 18 0 19 -6 20
-201 20 -186 0 -200 -1 -197 -17z"/>
<path d="M1650 3630 l0 -330 1350 0 1350 0 0 330 0 330 -1350 0 -1350 0 0
-330z m470 -22 l13 -33 10 33 c19 60 48 30 38 -40 -4 -34 -21 -37 -22 -5 l0
22 -11 -22 c-15 -30 -24 -29 -36 5 l-10 27 -1 -27 c-2 -50 -21 -29 -21 22 0
59 21 69 40 18z m128 25 c-16 -2 -28 -11 -28 -19 0 -8 11 -15 28 -15 l27 -2
-27 -4 c-19 -3 -28 -10 -28 -23 0 -13 9 -20 28 -23 22 -3 20 -4 -10 -6 l-38
-1 0 50 0 50 38 -1 c30 -2 32 -3 10 -6z m72 -20 l14 -28 4 28 c6 48 27 31 27
-23 0 -59 -16 -66 -45 -17 l-20 32 0 -32 c0 -18 -4 -33 -10 -33 -5 0 -10 23
-10 50 0 57 18 67 40 23z m82 -15 c2 -30 8 -43 18 -43 10 0 16 13 18 43 4 56
22 54 22 -3 0 -50 -13 -62 -55 -51 -22 6 -25 12 -25 51 0 57 18 59 22 3z"/>
<path d="M4926 3561 c-19 -84 -20 -94 -3 -89 6 3 17 27 23 54 12 54 10 55 43
-28 6 -16 15 -28 20 -28 11 0 46 148 38 157 -13 12 -26 -10 -33 -52 -3 -25 -9
-45 -13 -45 -4 0 -14 21 -22 47 -21 68 -35 64 -53 -16z"/>
<path d="M5085 3618 c-2 -7 -11 -41 -18 -76 -16 -71 -13 -76 44 -70 45 4 51
28 7 28 -27 0 -34 4 -34 20 0 16 7 20 33 20 23 0 33 5 33 15 0 10 -10 15 -30
15 -27 0 -29 2 -21 19 7 13 18 17 34 14 14 -3 28 0 31 6 17 27 26 5 26 -64 0
-89 17 -101 44 -30 10 25 22 45 27 45 5 0 9 -20 9 -45 0 -70 22 -56 57 35 19
51 26 80 19 80 -7 0 -20 -23 -31 -52 -15 -42 -20 -48 -26 -32 -4 10 -8 34 -8
52 -1 46 -14 40 -35 -18 -21 -59 -36 -57 -36 6 l0 44 -60 0 c-40 0 -62 -4 -65
-12z"/>
<path d="M5437 3623 c-9 -16 -29 -144 -24 -149 10 -10 27 7 27 27 0 11 7 19
16 19 9 0 29 8 45 17 52 31 30 92 -33 93 -15 0 -29 -3 -31 -7z m71 -28 c2 -2
1 -13 -3 -24 -10 -31 -55 -29 -55 2 0 13 3 27 7 30 6 6 42 0 51 -8z"/>
<path d="M5572 3618 c-10 -14 -34 -139 -27 -146 8 -9 25 10 25 29 0 21 41 43
51 27 3 -5 4 -20 1 -34 -3 -16 0 -24 10 -24 17 0 22 48 7 66 -7 9 -6 15 4 21
23 14 27 40 8 57 -21 19 -65 21 -79 4z m66 -35 c-2 -10 -13 -19 -26 -21 -17
-3 -22 2 -22 17 0 16 6 21 26 21 19 0 25 -5 22 -17z"/>
<path d="M5722 3607 c-13 -13 -24 -32 -26 -43 -3 -10 -7 -26 -10 -34 -4 -10 3
-25 19 -40 21 -20 28 -22 50 -12 42 19 70 107 43 130 -29 23 -54 22 -76 -1z
m56 -39 c4 -46 -28 -89 -52 -69 -19 16 -21 44 -5 74 26 48 53 46 57 -5z"/>
<path d="M5854 3622 c-10 -6 -34 -106 -34 -139 0 -16 40 -17 74 -2 24 11 46
54 46 90 0 37 -57 71 -86 51z m40 -18 c36 -14 8 -124 -28 -111 -11 4 -11 49
-1 95 6 24 6 25 29 16z"/>
<path d="M5985 3618 c-37 -111 -24 -158 39 -142 29 7 52 47 61 108 6 39 5 48
-6 44 -8 -3 -15 -15 -17 -29 -9 -70 -23 -99 -46 -99 -31 0 -35 6 -26 43 19 74
20 87 10 87 -6 0 -13 -6 -15 -12z"/>
<path d="M6136 3605 c-38 -40 -38 -103 -2 -127 19 -13 34 -9 56 14 25 27 17
38 -10 13 -31 -28 -52 -13 -46 34 2 22 7 45 11 50 10 17 55 13 55 -4 0 -8 5
-15 10 -15 16 0 11 32 -7 46 -26 20 -41 17 -67 -11z"/>
<path d="M6247 3623 c-14 -13 -6 -23 17 -23 23 0 23 -1 10 -37 -15 -44 -18
-93 -5 -93 10 0 20 34 27 89 5 40 9 46 31 46 9 0 18 6 20 13 3 8 -10 12 -44
12 -28 0 -53 -3 -56 -7z"/>
<path d="M6382 3614 c-31 -21 -28 -52 6 -67 34 -15 44 -28 31 -43 -11 -13 -49
-7 -49 8 0 5 -4 6 -10 3 -17 -10 -11 -25 15 -37 19 -9 29 -8 50 6 35 23 31 47
-12 75 -35 22 -36 24 -18 37 16 12 21 12 35 -1 23 -21 34 -6 13 17 -20 22 -32
23 -61 2z"/>
<path d="M12974 3555 l28 -26 -23 -27 -24 -27 28 24 c15 14 27 27 27 31 0 3
-15 16 -32 29 l-33 22 29 -26z"/>
<path d="M12707 3542 c-16 -17 -15 -20 6 -40 13 -12 27 -22 31 -22 5 0 -2 9
-15 19 -21 17 -22 22 -11 40 15 26 10 27 -11 3z"/>
<path d="M7120 2935 c124 -124 226 -225 227 -225 2 0 3 101 3 225 l0 225 -227
0 -228 0 225 -225z m112 111 c6 -8 8 -7 8 2 0 19 20 14 21 -5 1 -17 2 -17 6 0
2 9 9 17 15 17 6 0 8 -10 4 -22 -3 -13 -6 -28 -6 -35 0 -6 -13 -11 -30 -11
-18 1 -30 6 -30 15 0 7 -9 13 -20 13 -25 0 -27 -19 -2 -21 9 -1 1 -5 -18 -8
-25 -5 -38 -3 -47 8 -8 9 -13 10 -13 3 0 -7 -4 -12 -10 -12 -5 0 -10 16 -10
35 0 39 6 43 26 18 13 -17 13 -17 14 2 0 18 5 20 43 17 23 -3 45 -10 49 -16z"/>
<path d="M7180 3040 c0 -5 7 -10 15 -10 8 0 15 5 15 10 0 6 -7 10 -15 10 -8 0
-15 -4 -15 -10z"/>
<path d="M2072 3083 c-23 -59 -24 -73 -8 -73 9 0 16 5 16 10 0 6 7 10 15 10 8
0 15 -4 15 -10 0 -5 24 -10 54 -10 41 0 55 4 60 17 6 15 8 15 19 -1 9 -12 23
-17 42 -14 28 3 30 6 30 48 0 44 -1 45 -33 48 -28 3 -34 -1 -46 -30 l-14 -33
-4 30 c-3 27 -7 30 -40 33 l-36 3 2 -41 c3 -45 -4 -44 -20 3 -14 41 -38 46
-52 10z m118 -3 c0 -5 -5 -10 -11 -10 -5 0 -7 5 -4 10 3 6 8 10 11 10 2 0 4
-4 4 -10z m100 -20 c0 -31 -16 -41 -26 -15 -8 19 2 45 16 45 5 0 10 -13 10
-30z m-90 -20 c0 -5 -4 -10 -10 -10 -5 0 -10 5 -10 10 0 6 5 10 10 10 6 0 10
-4 10 -10z"/>
<path d="M2332 3063 c3 -44 5 -48 31 -51 37 -4 57 13 57 49 0 19 5 29 15 29
11 0 15 -11 15 -40 0 -29 4 -40 15 -40 11 0 15 11 15 40 0 22 5 40 10 40 6 0
10 5 10 10 0 6 -24 10 -54 10 l-55 0 -3 -37 c-2 -21 -7 -38 -13 -38 -5 0 -11
17 -13 38 -2 25 -8 37 -18 37 -12 0 -14 -11 -12 -47z"/>
<path d="M10142 3025 c0 -22 2 -32 5 -22 2 9 11 17 18 17 7 0 16 -8 18 -17 3
-10 5 0 5 22 0 22 -2 32 -5 23 -2 -10 -11 -18 -18 -18 -7 0 -16 8 -18 18 -3 9
-5 -1 -5 -23z"/>
<path d="M10207 3053 c-13 -12 -7 -54 9 -60 23 -8 47 20 39 46 -6 20 -34 28
-48 14z m33 -28 c0 -25 -14 -34 -24 -16 -8 12 3 41 15 41 5 0 9 -11 9 -25z"/>
<path d="M10267 3052 c6 -4 13 -21 16 -37 l4 -30 2 32 c0 17 7 34 14 36 6 3
-1 6 -18 6 -16 0 -25 -3 -18 -7z"/>
<path d="M2066 2710 c-20 -50 -20 -60 -1 -60 8 0 15 5 15 10 0 6 7 10 15 10 8
0 15 -4 15 -10 0 -5 14 -10 30 -10 20 0 30 5 30 15 0 9 9 15 25 15 13 0 29 8
34 18 8 14 10 12 8 -12 -1 -16 4 -31 11 -33 6 -3 12 2 12 10 0 9 12 16 29 19
23 3 27 1 23 -14 -3 -12 1 -18 12 -18 9 0 16 5 16 10 0 6 7 10 15 10 8 0 15
-4 15 -10 0 -5 15 -10 34 -10 25 0 33 4 32 16 0 9 5 19 12 21 7 3 12 -4 12
-16 0 -19 6 -21 55 -21 30 0 55 5 55 10 0 6 -9 10 -20 10 -11 0 -20 5 -20 10
0 6 7 10 15 10 8 0 15 5 15 10 0 6 -7 10 -15 10 -8 0 -15 5 -15 10 0 6 9 10
20 10 11 0 20 5 20 10 0 6 -16 10 -35 10 -35 0 -35 0 -35 -47 0 -72 -12 -48
-19 40 -1 4 -19 7 -41 7 l-40 0 -1 -42 -1 -43 -12 40 c-14 49 -42 59 -53 18
l-7 -28 -6 25 c-4 19 -13 26 -39 28 -18 2 -39 -2 -47 -9 -10 -8 -14 -8 -14 0
0 6 -17 11 -39 11 l-38 0 2 -40 c3 -46 -9 -44 -25 5 -15 46 -34 44 -54 -5z
m134 11 c0 -12 -20 -25 -27 -18 -7 7 6 27 18 27 5 0 9 -4 9 -9z m90 1 c0 -13
-12 -22 -22 -16 -10 6 -1 24 13 24 5 0 9 -4 9 -8z"/>
<path d="M2580 2700 l0 -50 35 0 c19 0 35 5 35 10 0 6 -9 10 -20 10 -17 0 -20
7 -20 40 0 29 -4 40 -15 40 -11 0 -15 -12 -15 -50z"/>
<path d="M2057 2377 c-7 -18 2 -31 31 -46 13 -7 21 -15 18 -18 -3 -3 -12 0
-20 6 -20 17 -41 4 -25 -15 14 -17 66 -18 72 -1 4 10 7 10 18 0 19 -18 66 -16
73 3 3 9 6 31 6 50 0 47 -28 47 -32 -1 -2 -20 -7 -35 -13 -35 -5 0 -11 15 -13
35 -2 22 -8 35 -18 35 -8 0 -14 -5 -14 -12 0 -9 -3 -9 -12 0 -16 16 -65 15
-71 -1z m83 -33 c0 -12 -5 -11 -25 2 -14 9 -25 17 -25 19 0 1 11 0 25 -3 14
-2 25 -11 25 -18z"/>
<path d="M2240 2341 c0 -39 4 -51 15 -51 8 0 15 9 15 20 0 11 5 20 10 20 6 0
10 -9 10 -20 0 -16 7 -20 35 -20 28 0 35 4 35 20 0 13 7 20 20 20 11 0 20 5
20 10 0 6 -9 10 -20 10 -11 0 -20 5 -20 10 0 6 11 10 25 10 14 0 25 5 25 10 0
6 -18 10 -40 10 l-40 0 0 -47 c0 -55 -10 -53 -13 3 -2 37 -4 39 -39 42 l-38 3
0 -50z m50 19 c0 -5 -4 -10 -10 -10 -5 0 -10 5 -10 10 0 6 5 10 10 10 6 0 10
-4 10 -10z"/>
<path d="M2456 2343 c-19 -56 -19 -53 -1 -53 8 0 15 5 15 10 0 6 7 10 15 10 8
0 15 -4 15 -10 0 -5 16 -10 35 -10 24 0 35 5 35 14 0 8 10 16 23 18 17 2 22
10 22 33 0 27 -3 30 -37 33 l-37 3 -3 -48 -4 -48 -14 48 c-19 63 -43 63 -64 0z
m134 12 c0 -8 -4 -15 -10 -15 -5 0 -10 7 -10 15 0 8 5 15 10 15 6 0 10 -7 10
-15z"/>
<path d="M2630 2341 c0 -39 4 -51 15 -51 8 0 15 6 15 14 0 8 10 16 23 18 17 2
22 10 22 33 0 27 -3 30 -37 33 l-38 3 0 -50z m50 14 c0 -8 -4 -15 -10 -15 -5
0 -10 7 -10 15 0 8 5 15 10 15 6 0 10 -7 10 -15z"/>
<path d="M2722 2358 c-6 -18 -13 -41 -17 -50 -5 -13 -2 -18 9 -18 9 0 16 5 16
10 0 6 7 10 15 10 8 0 15 -4 15 -10 0 -5 7 -10 16 -10 12 0 15 6 10 23 -4 12
-9 34 -12 50 -9 39 -40 36 -52 -5z"/>
<path d="M2800 2341 c0 -39 4 -51 15 -51 8 0 15 9 15 20 0 11 5 20 10 20 6 0
10 -9 10 -20 0 -11 7 -20 15 -20 10 0 14 12 12 48 -2 47 -2 47 -39 50 l-38 3
0 -50z m50 19 c0 -5 -4 -10 -10 -10 -5 0 -10 5 -10 10 0 6 5 10 10 10 6 0 10
-4 10 -10z"/>
<path d="M2890 2340 l0 -50 75 0 c43 0 75 4 75 10 0 6 -9 10 -20 10 -17 0 -20
7 -20 40 l0 40 -55 0 -55 0 0 -50z m80 1 c0 -35 -2 -38 -25 -33 -30 5 -34 22
-5 22 11 0 20 5 20 10 0 6 -9 10 -20 10 -27 0 -25 18 3 23 12 2 23 5 25 6 1 0
2 -16 2 -38z"/>
<path d="M1650 1975 l0 -215 950 0 c928 0 950 0 950 -19 0 -14 -5 -18 -20 -14
-26 7 -25 3 8 -68 l27 -59 47 0 c43 0 47 2 57 31 17 49 14 106 -6 118 -13 7
90 10 335 11 l352 0 0 215 0 215 -1350 0 -1350 0 0 -215z m431 28 l1 -28 11
28 c13 32 29 31 38 -4 l6 -24 8 28 c4 15 12 27 17 27 11 0 1 -80 -12 -94 -12
-13 -30 2 -31 27 -1 20 -2 19 -12 -5 -15 -38 -34 -35 -42 5 -4 17 -9 40 -11
50 -4 11 0 17 10 17 11 0 16 -10 17 -27z m129 -23 c0 -38 -4 -50 -15 -50 -11
0 -15 12 -15 50 0 38 4 50 15 50 11 0 15 -12 15 -50z m54 23 l15 -28 1 28 c0
17 5 27 15 27 11 0 15 -12 15 -50 0 -56 -16 -66 -43 -27 l-16 22 0 -22 c-1
-14 -7 -23 -16 -23 -11 0 -15 12 -15 50 0 58 20 68 44 23z m124 15 c7 -7 12
-24 12 -38 0 -34 -17 -50 -52 -50 -27 0 -28 2 -28 50 0 48 1 50 28 50 15 0 33
-5 40 -12z m100 -7 c3 -10 -2 -12 -22 -7 -33 8 -34 -2 0 -14 33 -13 30 -53 -4
-58 -26 -4 -55 15 -46 30 3 5 12 4 20 -3 8 -6 18 -8 22 -4 4 4 2 10 -4 12 -6
2 -20 10 -30 17 -16 12 -16 16 -4 30 16 20 61 18 68 -3z m42 -22 c0 -52 24
-48 28 4 4 47 32 52 32 6 0 -42 -17 -69 -43 -69 -33 0 -47 19 -47 62 0 27 4
38 15 38 11 0 15 -11 15 -41z m137 29 c4 -7 9 -30 10 -50 2 -28 -1 -38 -12
-38 -9 0 -15 9 -15 21 0 12 -5 19 -12 16 -7 -2 -12 -11 -10 -21 2 -9 -4 -16
-13 -16 -11 0 -15 12 -15 50 0 49 1 50 29 50 17 0 33 -6 38 -12z m93 2 c0 -5
-9 -10 -20 -10 -11 0 -20 -4 -20 -10 0 -5 9 -10 20 -10 11 0 20 -4 20 -10 0
-5 -9 -10 -20 -10 -13 0 -20 -7 -20 -20 0 -11 -7 -20 -15 -20 -11 0 -15 12
-15 50 l0 50 35 0 c19 0 35 -4 35 -10z m821 -257 c1 -27 4 -38 6 -25 2 12 9
22 14 22 5 0 10 -10 10 -22 1 -17 2 -19 6 -5 6 25 23 21 24 -5 1 -18 2 -19 6
-5 2 9 9 15 14 12 12 -8 11 -55 -2 -94 -10 -27 -15 -31 -48 -31 -38 0 -44 7
-89 103 -2 4 1 7 7 7 7 0 16 -10 21 -22 6 -17 9 -6 9 45 1 76 20 93 22 20z"/>
<path d="M2350 1980 c0 -16 5 -30 10 -30 6 0 10 14 10 30 0 17 -4 30 -10 30
-5 0 -10 -13 -10 -30z"/>
<path d="M2630 2000 c0 -5 5 -10 10 -10 6 0 10 5 10 10 0 6 -4 10 -10 10 -5 0
-10 -4 -10 -10z"/>
<path d="M2058 1620 c4 -49 22 -72 22 -27 l0 22 18 -23 c13 -17 26 -23 47 -20
27 3 29 6 28 41 0 29 3 37 17 37 10 0 18 -6 17 -12 -1 -39 4 -68 13 -68 6 0
10 18 10 40 0 32 4 40 19 40 12 0 18 -7 18 -22 1 -56 2 -58 38 -58 21 0 35 5
35 12 0 9 3 9 12 0 16 -16 65 -15 71 1 4 10 7 10 18 0 17 -16 51 -17 67 -1 18
18 16 88 -3 88 -11 0 -15 -11 -15 -40 0 -29 -4 -40 -15 -40 -11 0 -15 11 -15
40 0 29 -4 40 -15 40 -8 0 -15 -5 -15 -11 0 -8 -4 -8 -14 1 -22 18 -60 9 -64
-16 -2 -14 6 -24 25 -33 17 -8 23 -15 15 -18 -7 -3 -19 0 -26 7 -10 7 -16 8
-21 0 -8 -13 -55 -13 -55 0 0 6 9 10 20 10 11 0 20 5 20 10 0 6 -9 10 -20 10
-11 0 -20 5 -20 10 0 6 11 10 25 10 14 0 25 5 25 10 0 6 -45 10 -114 10 -107
0 -116 -1 -130 -22 l-16 -22 0 22 c0 12 -6 22 -12 22 -9 0 -12 -15 -10 -50z
m92 -2 l-1 -43 -19 23 c-16 19 -17 27 -7 43 19 30 27 23 27 -23z m271 22 c5 0
9 -6 9 -14 0 -11 -5 -12 -25 -3 -27 13 -35 33 -9 23 9 -3 20 -6 25 -6z"/>
<path d="M2530 1621 c0 -39 4 -51 15 -51 8 0 15 9 15 20 0 11 5 20 10 20 6 0
10 -9 10 -20 0 -16 7 -20 35 -20 28 0 35 4 35 20 0 13 7 20 20 20 11 0 20 5
20 10 0 6 -9 10 -20 10 -11 0 -20 5 -20 10 0 6 11 10 25 10 14 0 25 5 25 10 0
6 -18 10 -40 10 l-40 0 0 -47 c0 -55 -10 -53 -13 3 -2 37 -4 39 -39 42 l-38 3
0 -50z m50 19 c0 -5 -4 -10 -10 -10 -5 0 -10 5 -10 10 0 6 5 10 10 10 6 0 10
-4 10 -10z"/>
<path d="M2066 1270 c-20 -50 -20 -60 -1 -60 8 0 15 5 15 10 0 6 7 10 15 10 8
0 15 -4 15 -8 0 -13 93 -12 108 0 9 8 16 8 24 0 15 -15 51 -15 66 0 9 9 12 9
12 0 0 -9 22 -11 78 -10 72 3 77 4 80 26 3 17 -2 25 -17 29 -12 3 -21 9 -21
13 0 5 10 6 21 3 16 -4 20 -2 17 8 -3 10 -26 15 -81 17 l-77 2 0 -35 c0 -25
-4 -33 -14 -29 -8 3 -17 0 -21 -5 -10 -17 -25 -3 -25 25 0 26 9 31 28 12 15
-15 26 -4 19 17 -7 18 -48 20 -65 3 -7 -7 -12 -23 -12 -36 0 -13 -4 -21 -10
-17 -6 4 -17 1 -25 -5 -12 -10 -16 -9 -21 4 -3 9 -3 23 0 32 5 13 9 14 21 4
18 -15 30 -7 22 15 -7 18 -48 20 -65 3 -7 -7 -12 -23 -13 -37 0 -23 -2 -22
-16 12 -20 48 -37 47 -57 -3z m342 0 c7 -11 19 -20 27 -20 8 0 15 -4 15 -10 0
-14 -13 -13 -29 3 -11 10 -14 10 -18 0 -6 -15 -53 -18 -53 -3 0 6 9 10 20 10
11 0 20 5 20 10 0 6 -9 10 -20 10 -11 0 -20 5 -20 10 0 18 45 10 58 -10z"/>
<path d="M2494 1296 c-7 -19 12 -46 32 -46 8 0 14 -4 14 -10 0 -14 -13 -13
-28 2 -15 15 -26 4 -18 -17 4 -11 16 -15 38 -13 44 4 53 43 14 58 -34 12 -33
22 0 14 20 -5 25 -3 22 7 -7 21 -67 24 -74 5z"/>
<path d="M2586 1294 c-10 -25 -7 -59 6 -72 15 -15 54 -16 63 -2 3 6 11 10 16
10 6 0 7 -4 4 -10 -3 -5 0 -10 8 -10 8 0 17 9 20 21 6 23 27 17 27 -7 0 -8 7
-14 15 -14 13 0 15 24 6 93 -2 12 -81 8 -81 -5 0 -9 -3 -9 -12 0 -17 17 -65
15 -72 -4z m49 -34 c0 -13 -6 -25 -12 -27 -9 -3 -13 6 -13 27 0 21 4 30 13 28
6 -3 12 -15 12 -28z m95 20 c0 -5 -7 -10 -15 -10 -8 0 -15 5 -15 10 0 6 7 10
15 10 8 0 15 -4 15 -10z"/>
<path d="M2770 1260 c0 -38 4 -50 15 -50 11 0 15 12 15 50 0 38 -4 50 -15 50
-11 0 -15 -12 -15 -50z"/>
<path d="M2810 1260 l0 -49 78 2 c71 2 77 4 80 25 2 12 -1 22 -5 22 -5 0 -18
7 -29 15 -18 14 -17 15 10 9 22 -5 28 -4 24 7 -3 10 -26 15 -81 16 l-77 2 0
-49z m88 10 c7 -11 19 -20 27 -20 8 0 15 -4 15 -10 0 -14 -13 -13 -29 3 -11
10 -14 10 -18 0 -6 -15 -53 -18 -53 -3 0 6 9 10 20 10 11 0 20 5 20 10 0 6 -9
10 -20 10 -11 0 -20 5 -20 10 0 18 45 10 58 -10z"/>
<path d="M2056 935 c-5 -15 1 -23 39 -50 17 -12 17 -14 3 -15 -9 0 -18 5 -20
12 -2 6 -10 8 -17 4 -9 -6 -9 -11 -1 -21 12 -15 110 -18 110 -3 0 4 7 8 15 8
8 0 15 -4 15 -10 0 -6 37 -10 90 -10 53 0 90 4 90 10 0 6 -9 10 -20 10 -11 0
-20 5 -20 10 0 6 9 10 20 10 11 0 20 5 20 10 0 6 -9 10 -20 10 -11 0 -20 5
-20 10 0 6 9 10 20 10 11 0 20 5 20 10 0 6 -16 10 -35 10 -34 0 -35 -1 -35
-40 0 -36 -2 -40 -25 -40 -22 0 -25 4 -25 40 0 29 -4 40 -15 40 -11 0 -15 -12
-16 -42 l-1 -43 -15 43 c-19 53 -45 57 -59 8 l-9 -35 -30 25 -30 25 30 -7 c27
-7 29 -6 16 9 -17 21 -67 22 -75 2z"/>
<path d="M2051 540 l-1 -50 39 0 c22 0 42 5 44 13 4 10 6 10 6 0 2 -21 28 -15
34 8 6 23 27 17 27 -7 0 -9 11 -14 30 -14 17 0 30 5 30 10 0 6 7 10 15 10 8 0
15 -4 15 -10 0 -5 15 -10 34 -10 30 0 34 3 29 23 l-5 22 19 -23 c16 -20 27
-23 72 -20 63 4 81 21 65 65 -9 26 -14 28 -68 31 -57 3 -58 2 -53 -20 l6 -23
-19 23 c-29 35 -50 29 -51 -15 l-2 -38 -10 38 c-15 54 -42 50 -61 -10 -9 -28
-16 -40 -17 -28 -1 11 -3 27 -4 35 -1 8 -3 21 -4 28 0 7 -17 12 -42 12 -29 0
-40 -4 -36 -12 2 -7 0 -22 -4 -33 l-9 -20 2 20 c4 31 -10 45 -46 45 -32 0 -33
-1 -35 -50z m374 -1 c-6 -48 -15 -48 -15 0 0 23 4 40 9 36 5 -3 8 -19 6 -36z
m-325 21 c0 -5 -4 -10 -10 -10 -5 0 -10 5 -10 10 0 6 5 10 10 10 6 0 10 -4 10
-10z m100 6 c0 -3 -4 -8 -10 -11 -5 -3 -10 -1 -10 4 0 6 5 11 10 11 6 0 10 -2
10 -4z m278 -32 c-6 -30 -27 -28 -24 3 5 39 5 38 17 26 6 -6 9 -19 7 -29z
m-368 -14 c0 -5 -7 -10 -15 -10 -8 0 -15 5 -15 10 0 6 7 10 15 10 8 0 15 -4
15 -10z"/>
<path d="M2527 584 c-15 -16 -6 -41 19 -53 15 -6 24 -14 21 -18 -4 -3 -13 0
-22 7 -18 15 -30 7 -21 -15 4 -11 16 -15 38 -13 25 2 34 8 36 26 2 12 -1 22
-5 22 -5 0 -18 7 -29 15 -18 14 -17 15 10 9 22 -5 28 -4 24 7 -5 15 -59 25
-71 13z"/>
<path d="M5010 510 c0 -5 5 -10 10 -10 6 0 10 5 10 10 0 6 -4 10 -10 10 -5 0
-10 -4 -10 -10z"/>
<path d="M5196 503 c-13 -46 -17 -93 -8 -93 5 0 13 17 16 38 4 20 9 45 12 55
3 9 1 17 -5 17 -5 0 -12 -8 -15 -17z"/>
<path d="M5373 513 c-24 -2 -43 -8 -43 -14 0 -5 5 -9 10 -9 6 0 8 -15 4 -40
-4 -25 -3 -40 4 -40 6 0 13 18 17 40 4 26 12 40 22 40 13 0 14 -8 9 -40 -7
-46 9 -55 19 -10 4 17 11 30 17 30 5 0 7 -12 3 -30 -4 -18 -2 -30 3 -30 13 0
26 56 17 70 -3 5 -13 10 -20 10 -9 0 -12 6 -9 15 4 8 2 14 -2 13 -5 -1 -28 -3
-51 -5z"/>
<path d="M8267 513 c-3 -5 -8 -29 -12 -55 -10 -68 9 -61 22 7 8 48 4 70 -10
48z"/>
<path d="M11006 483 c-9 -54 -7 -75 4 -68 6 3 10 17 10 31 0 13 5 24 10 24 6
0 10 -14 10 -31 0 -17 4 -28 10 -24 6 3 10 22 10 42 0 27 -3 34 -15 29 -10 -4
-15 1 -15 14 0 35 -17 22 -24 -17z"/>
<path d="M11307 513 c-12 -19 -19 -103 -9 -103 6 0 12 12 14 27 2 14 8 28 14
30 7 2 9 -8 6 -27 -2 -16 0 -30 6 -30 10 0 21 49 14 68 -2 7 -10 12 -18 12 -8
0 -11 6 -8 15 6 15 -11 22 -19 8z"/>
<path d="M11380 510 c0 -5 5 -10 10 -10 6 0 10 5 10 10 0 6 -4 10 -10 10 -5 0
-10 -4 -10 -10z"/>
<path d="M11727 503 c-13 -46 -17 -93 -9 -93 6 0 13 17 16 38 4 20 9 45 12 55
3 9 1 17 -5 17 -5 0 -12 -8 -14 -17z"/>
<path d="M11767 513 c-11 -18 -19 -103 -9 -103 6 0 13 23 17 51 7 47 3 70 -8
52z"/>
<path d="M11990 510 c0 -5 5 -10 10 -10 6 0 10 5 10 10 0 6 -4 10 -10 10 -5 0
-10 -4 -10 -10z"/>
<path d="M4929 494 c-11 -14 -10 -19 9 -34 28 -23 28 -33 1 -25 -16 5 -20 3
-17 -6 3 -8 16 -14 29 -14 32 0 40 40 10 50 -30 9 -26 28 4 21 27 -7 35 8 9
18 -24 9 -30 8 -45 -10z"/>
<path d="M5674 498 c-15 -20 -11 -81 5 -86 10 -3 12 0 8 12 -4 10 -2 26 3 37
14 25 -1 57 -16 37z"/>
<path d="M5877 503 c-14 -13 -6 -24 13 -18 27 9 25 -7 -5 -35 -33 -31 -32 -40
5 -40 17 0 30 5 30 10 0 6 -8 10 -17 10 -14 0 -13 4 7 24 13 15 20 32 17 40
-6 16 -38 22 -50 9z"/>
<path d="M5950 484 c-14 -37 -12 -64 5 -70 30 -12 62 45 48 83 -9 23 -43 15
-53 -13z m36 -10 c-3 -9 -6 -22 -6 -30 0 -8 -4 -14 -10 -14 -11 0 -14 43 -3
53 12 13 25 7 19 -9z"/>
<path d="M6050 503 c-11 -3 -15 -17 -15 -48 0 -58 10 -57 24 1 13 51 13 52 -9
47z"/>
<path d="M6113 477 c-27 -39 -28 -47 -8 -47 8 0 15 -4 15 -10 0 -21 20 -9 25
15 3 14 7 36 10 50 8 36 -15 32 -42 -8z m17 -17 c0 -5 -5 -10 -11 -10 -5 0 -7
5 -4 10 3 6 8 10 11 10 2 0 4 -4 4 -10z"/>
<path d="M7815 485 c-3 -14 -7 -36 -10 -50 -6 -30 10 -34 18 -5 3 12 14 20 26
20 12 0 21 5 21 10 0 6 -9 10 -20 10 -11 0 -20 5 -20 10 0 6 11 10 25 10 14 0
25 5 25 10 0 6 -13 10 -30 10 -24 0 -31 -5 -35 -25z"/>
<path d="M8146 494 c-12 -31 -7 -84 9 -84 11 0 13 7 9 29 -4 20 -2 30 10 34
13 5 16 -1 16 -31 0 -21 -6 -44 -12 -51 -11 -11 -10 -13 2 -9 18 5 76 108 60
108 -6 0 -15 -10 -20 -22 l-9 -23 0 23 c-1 15 -7 22 -21 22 -11 0 -20 5 -20
10 0 16 -17 12 -24 -6z"/>
<path d="M8400 461 c0 -56 14 -66 32 -23 l12 27 4 -28 c5 -38 22 -30 39 18 16
48 10 71 -8 30 l-13 -30 -4 28 c-2 15 -7 27 -11 27 -4 0 -12 -12 -18 -27 -10
-25 -11 -26 -12 -6 -1 12 -5 25 -11 28 -6 4 -10 -13 -10 -44z"/>
<path d="M8755 498 c-12 -39 -15 -88 -5 -88 5 0 10 9 10 20 0 13 7 20 20 20
11 0 20 5 20 10 0 6 -7 10 -15 10 -8 0 -15 5 -15 10 0 6 11 10 25 10 14 0 25
5 25 10 0 15 -60 12 -65 -2z"/>
<path d="M8837 504 c-14 -14 -7 -43 13 -49 30 -10 25 -28 -6 -21 -19 5 -25 3
-22 -6 7 -20 43 -21 59 -2 12 14 10 19 -9 34 -28 23 -28 33 -1 25 15 -5 20 -3
17 6 -5 15 -40 24 -51 13z"/>
<path d="M8910 461 c0 -56 14 -66 32 -23 l12 27 4 -28 c5 -38 22 -30 39 18 16
48 10 71 -8 30 l-13 -30 -4 28 c-2 15 -7 27 -11 27 -4 0 -12 -12 -18 -27 -10
-25 -11 -26 -12 -6 -1 12 -5 25 -11 28 -6 4 -10 -13 -10 -44z"/>
<path d="M10930 500 c0 -5 5 -10 11 -10 8 0 9 -13 5 -40 -4 -24 -2 -40 4 -40
5 0 13 18 16 40 4 24 12 40 20 40 8 0 14 5 14 10 0 6 -16 10 -35 10 -19 0 -35
-4 -35 -10z"/>
<path d="M11180 483 c0 -37 10 -73 20 -73 4 0 11 12 15 28 l8 27 10 -27 c14
-37 20 -35 36 10 8 20 16 43 18 50 3 6 0 12 -6 12 -6 0 -14 -12 -17 -26 -5
-18 -9 -22 -15 -13 -4 7 -6 16 -3 20 2 4 0 10 -6 14 -5 3 -15 -6 -22 -22 l-12
-28 -4 28 c-2 15 -8 27 -13 27 -5 0 -9 -12 -9 -27z"/>
<path d="M11414 497 c-13 -15 -6 -87 8 -87 6 0 8 6 5 14 -3 7 0 24 7 38 19 37
5 63 -20 35z"/>
<path d="M11571 491 c-14 -25 -14 -68 -1 -76 13 -8 50 4 50 16 0 6 -9 7 -21 4
-18 -6 -20 -3 -17 22 2 23 7 28 26 25 30 -3 24 22 -6 26 -13 2 -25 -4 -31 -17z"/>
<path d="M11936 494 c-11 -30 -7 -84 8 -84 9 0 12 8 8 26 -3 14 1 29 7 33 12
8 5 41 -9 41 -4 0 -11 -7 -14 -16z"/>
<path d="M5005 478 c-9 -32 -11 -68 -4 -68 5 0 11 12 15 28 3 15 7 33 10 40 2
6 -1 12 -7 12 -5 0 -11 -6 -14 -12z"/>
<path d="M5040 473 c0 -10 -3 -28 -6 -40 -4 -13 -2 -23 4 -23 6 0 13 14 17 30
4 17 11 30 17 30 5 0 7 -12 3 -30 -4 -18 -2 -30 3 -30 13 0 26 56 17 70 -11
18 -55 12 -55 -7z"/>
<path d="M5117 483 c-14 -14 -7 -64 11 -70 14 -6 13 -8 -8 -14 -22 -5 -23 -7
-7 -14 26 -11 45 12 53 63 6 40 5 42 -18 42 -14 0 -28 -3 -31 -7z m31 -30 c-2
-9 -8 -18 -15 -20 -7 -3 -9 3 -6 16 6 25 26 28 21 4z"/>
<path d="M5231 476 c-19 -23 -10 -60 17 -64 26 -4 30 14 5 21 -13 3 -12 5 5 6
18 1 23 6 20 23 -4 27 -30 35 -47 14z"/>
<path d="M5476 468 c-9 -35 -7 -60 4 -53 6 3 10 17 10 30 0 12 7 25 15 29 12
4 15 -3 15 -29 0 -30 3 -35 24 -35 13 0 27 7 30 16 10 25 7 66 -4 59 -5 -3
-10 -17 -10 -31 0 -13 -5 -24 -11 -24 -7 0 -10 12 -7 30 4 28 2 30 -28 30 -24
0 -33 -5 -38 -22z"/>
<path d="M5602 477 c-12 -14 -7 -27 10 -27 5 0 6 5 2 11 -4 8 1 9 16 4 16 -5
21 -4 18 6 -6 19 -33 23 -46 6z"/>
<path d="M5722 478 c-29 -29 -3 -82 29 -62 9 5 7 10 -7 15 -17 7 -17 8 4 8 23
1 26 8 16 35 -7 19 -25 21 -42 4z"/>
<path d="M5786 478 c-13 -41 -15 -68 -6 -68 6 0 13 14 17 30 3 17 9 30 14 30
5 0 9 5 9 10 0 14 -30 12 -34 -2z"/>
<path d="M6567 478 c-21 -17 -37 -61 -30 -87 6 -24 40 -38 56 -22 8 8 6 11 -6
11 -9 0 -17 5 -17 10 0 6 7 10 15 10 21 0 19 20 -2 21 -13 0 -11 3 7 11 21 9
22 12 8 15 -24 6 -23 23 2 23 11 0 20 5 20 10 0 14 -33 12 -53 -2z"/>
<path d="M6695 474 c-9 -9 -13 -24 -10 -34 3 -10 1 -21 -5 -25 -32 -20 6 -64
43 -49 18 7 31 39 22 54 -3 5 0 19 7 30 11 17 11 22 -2 30 -22 14 -36 12 -55
-6z m35 -19 c0 -8 -4 -15 -10 -15 -5 0 -10 7 -10 15 0 8 5 15 10 15 6 0 10 -7
10 -15z m-10 -55 c0 -19 -11 -26 -23 -14 -8 8 3 34 14 34 5 0 9 -9 9 -20z"/>
<path d="M6790 470 c-28 -28 -28 -96 1 -105 28 -9 61 22 57 54 -2 20 -9 26
-26 25 -28 -1 -23 20 6 24 12 2 22 8 22 13 0 16 -40 9 -60 -11z m30 -65 c0
-26 -14 -33 -25 -15 -9 14 1 40 15 40 5 0 10 -11 10 -25z"/>
<path d="M6880 464 c-15 -38 -12 -45 15 -38 21 5 25 3 25 -14 0 -23 -22 -42
-28 -24 -4 14 -32 16 -32 3 0 -15 28 -33 47 -29 41 8 48 88 8 88 -8 0 -15 5
-15 10 0 6 11 10 25 10 14 0 25 5 25 10 0 6 -14 10 -30 10 -24 0 -33 -6 -40
-26z"/>
<path d="M7038 473 c-23 -27 -31 -88 -14 -102 22 -19 53 -4 65 31 15 44 14 75
-5 82 -24 9 -30 8 -46 -11z m39 -20 c-3 -10 -8 -30 -11 -45 -8 -34 -26 -37
-26 -5 0 38 12 67 27 67 9 0 13 -7 10 -17z"/>
<path d="M7137 473 c-24 -27 -32 -87 -13 -102 22 -19 53 -4 65 31 15 44 14 75
-5 82 -24 9 -29 8 -47 -11z m40 -20 c-3 -10 -8 -30 -11 -45 -7 -29 -26 -39
-26 -14 0 37 14 76 27 76 9 0 13 -7 10 -17z"/>
<path d="M7886 468 c-9 -34 -7 -58 4 -58 6 0 10 12 10 26 0 15 8 33 18 40 16
12 16 13 -4 14 -14 0 -24 -8 -28 -22z"/>
<path d="M7942 478 c-29 -29 -4 -82 29 -62 9 5 7 10 -7 15 -17 7 -17 8 4 8 18
1 23 6 20 23 -3 26 -28 34 -46 16z"/>
<path d="M8012 478 c-29 -29 -3 -82 29 -62 9 5 7 10 -7 15 -17 7 -17 8 4 8 23
1 26 8 16 35 -7 19 -25 21 -42 4z"/>
<path d="M8074 475 c-4 -9 1 -22 12 -31 18 -14 18 -15 -6 -8 -22 6 -23 5 -11
-10 7 -9 20 -16 28 -16 23 0 27 30 7 46 -18 15 -18 15 -1 10 12 -4 17 -2 15 6
-7 20 -37 22 -44 3z"/>
<path d="M8302 478 c-29 -29 -4 -82 29 -62 9 5 7 10 -7 15 -17 7 -17 8 4 8 18
1 23 6 20 23 -3 26 -28 34 -46 16z"/>
<path d="M8515 480 c-3 -5 2 -10 12 -11 14 0 13 -2 -5 -10 -32 -12 -25 -43 11
-47 25 -3 27 -1 27 37 0 34 -3 41 -19 41 -11 0 -23 -4 -26 -10z"/>
<path d="M8580 453 c0 -55 19 -56 42 -3 14 33 14 40 2 40 -8 0 -14 -10 -14
-22 -1 -23 -1 -23 -15 2 -14 25 -14 24 -15 -17z"/>
<path d="M8651 476 c-19 -23 -10 -60 17 -64 26 -4 30 14 5 21 -13 3 -12 5 5 6
18 1 23 6 20 23 -4 27 -30 35 -47 14z"/>
<path d="M9496 467 c-19 -18 -24 -31 -21 -55 5 -42 12 -52 36 -52 24 0 24 9 2
26 -17 12 -16 13 5 14 26 0 30 17 5 23 -17 4 -17 5 0 6 18 1 25 21 7 21 -5 0
-10 5 -10 10 0 6 6 10 14 10 8 0 18 5 21 10 12 20 -35 9 -59 -13z"/>
<path d="M9610 480 c0 -5 11 -10 25 -10 25 0 25 -1 10 -30 -31 -59 -36 -80
-20 -80 8 0 15 6 15 14 0 7 11 34 25 60 14 26 25 49 25 52 0 2 -18 4 -40 4
-22 0 -40 -4 -40 -10z"/>
<path d="M9700 480 c0 -5 14 -10 32 -10 28 0 30 -1 16 -17 -15 -20 -38 -68
-38 -83 0 -24 28 -7 34 21 3 17 15 43 26 59 11 15 20 31 20 34 0 3 -20 6 -45
6 -25 0 -45 -4 -45 -10z"/>
<path d="M9805 466 c-10 -15 -15 -39 -13 -63 2 -30 7 -39 25 -41 31 -4 55 36
51 85 -2 30 -7 39 -25 41 -14 2 -27 -5 -38 -22z m40 -33 c-8 -44 -12 -53 -27
-53 -6 0 -8 13 -3 37 8 44 12 53 27 53 6 0 8 -13 3 -37z"/>
<path d="M9957 483 c-2 -5 -7 -20 -11 -36 -6 -26 -5 -27 19 -21 21 5 25 3 25
-14 0 -23 -22 -42 -28 -24 -4 14 -32 16 -32 3 0 -15 28 -33 47 -29 41 8 48 88
8 88 -8 0 -15 5 -15 10 0 6 11 10 25 10 14 0 25 5 25 10 0 12 -57 14 -63 3z"/>
<path d="M10057 473 c-8 -10 -18 -34 -22 -54 -7 -40 11 -65 43 -55 38 12 58
108 26 120 -24 9 -29 8 -47 -11z m35 -29 c-6 -45 -13 -64 -22 -64 -11 0 -13
33 -4 68 8 27 30 24 26 -4z"/>
<path d="M11080 470 c-15 -27 -4 -60 21 -60 24 0 25 17 2 23 -13 3 -12 5 5 6
18 1 23 6 20 23 -4 30 -34 35 -48 8z"/>
<path d="M11368 453 c-8 -62 9 -61 19 1 3 22 2 36 -5 36 -5 0 -12 -17 -14 -37z"/>
<path d="M11459 466 c-13 -28 1 -56 27 -56 20 0 17 18 -3 23 -13 3 -12 5 5 6
18 1 23 6 20 23 -4 33 -35 35 -49 4z"/>
<path d="M11652 478 c-17 -17 -15 -57 3 -64 23 -9 46 16 43 45 -3 29 -27 38
-46 19z m28 -28 c0 -11 -4 -20 -10 -20 -5 0 -10 9 -10 20 0 11 5 20 10 20 6 0
10 -9 10 -20z"/>
<path d="M11802 478 c-29 -29 -3 -82 29 -62 9 5 7 10 -7 15 -17 7 -17 8 4 8
23 1 26 8 16 35 -7 19 -25 21 -42 4z"/>
<path d="M11870 476 c-18 -22 -9 -61 14 -61 11 0 21 6 24 14 3 9 -1 11 -16 7
-17 -6 -19 -3 -15 14 4 15 11 19 24 15 14 -5 17 -2 13 9 -8 20 -28 21 -44 2z"/>
<path d="M11975 454 c-6 -33 -1 -54 9 -43 10 10 17 79 8 79 -5 0 -13 -16 -17
-36z"/>
<path d="M12022 478 c-17 -17 -15 -57 3 -64 23 -9 46 16 43 45 -3 29 -27 38
-46 19z m28 -28 c0 -11 -4 -20 -10 -20 -5 0 -10 9 -10 20 0 11 5 20 10 20 6 0
10 -9 10 -20z"/>
<path d="M12086 468 c-9 -34 -7 -58 3 -58 5 0 11 12 13 27 2 14 8 28 14 30 7
2 9 -8 6 -27 -2 -16 0 -30 6 -30 10 0 23 59 15 73 -2 4 -15 7 -27 7 -16 0 -26
-7 -30 -22z"/>
<path d="M12293 468 c-30 -34 -35 -58 -18 -84 15 -24 55 -33 55 -14 0 6 -7 10
-15 10 -8 0 -15 5 -15 10 0 6 7 10 15 10 21 0 19 18 -2 23 -14 4 -12 5 5 6 24
1 31 21 7 21 -8 0 -15 5 -15 10 0 6 9 10 20 10 11 0 20 5 20 10 0 18 -36 10
-57 -12z"/>
<path d="M12433 482 c-23 -3 -33 -22 -12 -22 10 0 7 -31 -7 -82 -4 -12 0 -18
10 -18 10 0 18 18 26 55 14 65 12 71 -17 67z"/>
<path d="M12547 483 c-2 -5 -7 -21 -11 -37 -7 -27 -5 -28 19 -22 20 5 25 3 25
-13 0 -23 -22 -40 -28 -23 -2 7 -10 12 -19 12 -18 0 -13 -20 9 -33 22 -14 47
-2 58 29 11 29 -1 54 -26 54 -8 0 -14 5 -14 10 0 6 11 10 25 10 14 0 25 5 25
10 0 12 -57 14 -63 3z"/>
<path d="M12645 474 c-9 -9 -13 -24 -10 -34 3 -10 1 -21 -5 -25 -17 -11 -11
-43 10 -50 28 -9 62 12 59 38 -1 12 1 30 6 40 18 41 -26 64 -60 31z m39 -19
c-4 -8 -10 -15 -15 -15 -5 0 -9 7 -9 15 0 8 7 15 15 15 9 0 12 -6 9 -15z m-11
-41 c8 -8 -3 -34 -14 -34 -5 0 -9 9 -9 20 0 19 11 26 23 14z"/>
<path d="M12746 471 c-10 -11 -20 -37 -23 -59 -5 -35 -2 -41 17 -47 29 -9 56
17 65 61 10 57 -24 83 -59 45z m34 -23 c0 -34 -11 -68 -21 -68 -10 0 -12 50
-3 74 9 24 24 19 24 -6z"/>
<path d="M12870 480 c0 -5 11 -10 25 -10 25 0 25 -1 10 -30 -31 -59 -36 -80
-20 -80 8 0 15 6 15 14 0 7 11 34 25 60 14 26 25 49 25 52 0 2 -18 4 -40 4
-22 0 -40 -4 -40 -10z"/>
<path d="M12977 473 c-24 -27 -32 -87 -13 -102 22 -19 53 -4 65 31 15 44 14
75 -5 82 -24 9 -29 8 -47 -11z m40 -20 c-3 -10 -8 -30 -11 -45 -7 -29 -26 -39
-26 -14 0 37 14 76 27 76 9 0 13 -7 10 -17z"/>
<path d="M5626 439 c4 -8 0 -9 -15 -4 -13 4 -21 2 -21 -5 0 -17 29 -24 45 -10
15 13 12 30 -6 30 -6 0 -7 -5 -3 -11z"/>
<path d="M6615 370 c-3 -5 1 -10 9 -10 9 0 16 5 16 10 0 6 -4 10 -9 10 -6 0
-13 -4 -16 -10z"/>
<path d="M6960 370 c0 -5 7 -10 15 -10 8 0 15 5 15 10 0 6 -7 10 -15 10 -8 0
-15 -4 -15 -10z"/>
<path d="M9560 370 c0 -5 5 -10 10 -10 6 0 10 5 10 10 0 6 -4 10 -10 10 -5 0
-10 -4 -10 -10z"/>
<path d="M9880 370 c0 -5 7 -10 15 -10 8 0 15 5 15 10 0 6 -7 10 -15 10 -8 0
-15 -4 -15 -10z"/>
<path d="M12350 370 c0 -5 5 -10 10 -10 6 0 10 5 10 10 0 6 -4 10 -10 10 -5 0
-10 -4 -10 -10z"/>
<path d="M12476 364 c-11 -28 -6 -39 9 -20 8 11 15 23 15 28 0 14 -18 9 -24
-8z"/>
<path d="M12815 370 c-3 -5 1 -10 9 -10 9 0 16 5 16 10 0 6 -4 10 -9 10 -6 0
-13 -4 -16 -10z"/>
<path d="M10939 314 c-12 -15 -11 -19 9 -32 28 -18 29 -35 1 -27 -16 5 -20 3
-17 -6 3 -8 16 -14 29 -14 32 0 40 40 10 50 -31 10 -26 28 5 21 19 -5 25 -3
22 6 -7 20 -43 21 -59 2z"/>
<path d="M11015 290 c-4 -21 -4 -44 0 -50 9 -14 40 -13 53 3 15 19 32 87 21
87 -10 0 -14 -8 -23 -52 -4 -16 -13 -28 -22 -28 -13 0 -14 7 -9 40 4 25 3 40
-3 40 -6 0 -13 -18 -17 -40z"/>
<path d="M11103 281 c-6 -32 -7 -51 -1 -51 6 0 12 9 15 20 3 11 12 20 19 20 8
0 14 -9 14 -20 0 -11 4 -20 8 -20 4 0 8 21 8 48 -1 43 -3 47 -27 50 -24 3 -27
-1 -36 -47z m47 19 c0 -5 -4 -10 -10 -10 -5 0 -10 5 -10 10 0 6 5 10 10 10 6
0 10 -4 10 -10z"/>
<path d="M11195 298 c-4 -18 -9 -41 -11 -50 -7 -25 13 -23 21 2 3 11 15 20 26
20 10 0 19 5 19 10 0 6 -9 10 -20 10 -11 0 -20 5 -20 10 0 6 11 10 25 10 14 0
25 5 25 10 0 6 -13 10 -29 10 -25 0 -30 -5 -36 -32z"/>
<path d="M11270 318 c0 -7 -3 -30 -6 -50 -6 -36 -5 -38 18 -38 30 0 45 15 49
50 5 34 -7 50 -37 50 -13 0 -24 -6 -24 -12z m45 -18 c-3 -5 -10 -10 -16 -10
-5 0 -9 5 -9 10 0 6 7 10 16 10 8 0 12 -4 9 -10z m-5 -40 c0 -5 -7 -10 -15
-10 -8 0 -15 5 -15 10 0 6 7 10 15 10 8 0 15 -4 15 -10z"/>
<path d="M11366 314 c-11 -10 -16 -28 -14 -48 2 -26 7 -31 28 -31 17 0 29 9
39 29 23 48 -17 86 -53 50z m39 -14 c7 -12 -12 -50 -25 -50 -11 0 -14 43 -3
53 9 10 21 9 28 -3z"/>
<path d="M11457 303 c-8 -16 -18 -38 -22 -51 -6 -22 -5 -22 15 -10 18 10 24
10 27 1 8 -23 23 -14 23 15 0 37 -10 72 -21 72 -5 0 -15 -12 -22 -27z m23 -23
c0 -5 -5 -10 -11 -10 -5 0 -7 5 -4 10 3 6 8 10 11 10 2 0 4 -4 4 -10z"/>
<path d="M11523 281 c-6 -32 -7 -51 -1 -51 6 0 12 9 15 20 3 11 12 20 19 20 8
0 14 -9 14 -20 0 -11 4 -20 10 -20 5 0 8 21 7 48 -2 43 -4 47 -28 50 -24 3
-27 -1 -36 -47z m47 19 c0 -5 -4 -10 -10 -10 -5 0 -10 5 -10 10 0 6 5 10 10
10 6 0 10 -4 10 -10z"/>
<path d="M11617 323 c-3 -4 -8 -27 -12 -51 -7 -43 -7 -44 21 -40 36 4 65 49
48 75 -12 19 -49 29 -57 16z m43 -27 c0 -26 -12 -46 -27 -46 -10 0 -13 6 -9
16 3 9 6 22 6 30 0 8 7 14 15 14 8 0 15 -6 15 -14z"/>
<path d="M11743 323 c-21 -8 -14 -25 7 -18 27 9 25 -7 -5 -35 -33 -31 -32 -40
5 -40 17 0 30 5 30 10 0 6 -8 10 -17 10 -14 0 -13 4 7 24 33 36 16 67 -27 49z"/>
<path d="M11822 317 c-7 -8 -15 -28 -18 -45 -5 -24 -3 -33 11 -38 24 -9 46 17
48 57 2 37 -21 51 -41 26z m23 -34 c-8 -32 -13 -39 -21 -30 -10 9 5 57 17 57
7 0 9 -10 4 -27z"/>
<path d="M11908 323 c-19 -5 -25 -23 -9 -23 6 0 7 -17 4 -37 -4 -26 -2 -35 5
-28 9 9 28 97 20 94 -1 -1 -11 -3 -20 -6z"/>
<path d="M11987 312 c-19 -20 -23 -37 -7 -27 6 3 10 1 10 -5 0 -6 -7 -10 -16
-8 -10 2 -19 -3 -21 -9 -3 -7 2 -13 10 -13 9 0 18 -6 21 -12 8 -20 29 20 31
59 2 37 -5 41 -28 15z"/>
<path d="M9564 272 c-23 -15 -35 -51 -24 -72 6 -11 15 -20 20 -20 14 0 12 17
-2 23 -10 4 -9 8 2 16 13 10 13 11 0 11 -13 0 -13 1 0 10 8 5 11 10 6 10 -6 0
-1 7 10 15 19 14 9 21 -12 7z"/>
<path d="M9749 264 c-12 -15 -11 -16 9 -10 30 10 28 -8 -3 -36 -14 -12 -25
-25 -25 -30 0 -12 48 -10 55 2 3 6 -2 10 -11 10 -15 0 -15 3 4 23 26 28 28 43
6 51 -21 8 -20 8 -35 -10z"/>
<path d="M9815 270 c3 -5 13 -10 21 -10 18 0 18 -11 -1 -36 -16 -21 -20 -44
-7 -44 5 0 14 17 21 38 7 20 15 43 17 50 4 8 -5 12 -26 12 -18 0 -29 -4 -25
-10z"/>
<path d="M9895 256 c-18 -27 -17 -67 1 -73 21 -7 45 28 42 60 -4 39 -22 45
-43 13z m31 -12 c-3 -9 -6 -22 -6 -30 0 -8 -6 -14 -14 -14 -8 0 -13 8 -11 18
2 9 4 23 4 30 1 6 8 12 17 12 11 0 14 -5 10 -16z"/>
<path d="M10018 273 c-18 -5 -25 -23 -9 -23 5 0 5 -15 1 -35 -4 -20 -4 -35 1
-35 5 0 9 3 9 8 1 4 5 26 9 50 5 23 8 41 7 41 0 -1 -9 -3 -18 -6z"/>
<path d="M10066 264 c-10 -26 -7 -34 14 -34 13 0 18 -5 14 -15 -4 -11 -13 -13
-28 -9 -18 6 -19 5 -7 -9 10 -13 18 -14 32 -6 24 12 25 45 2 58 -17 10 -17 10
-1 11 27 0 32 20 5 20 -14 0 -28 -7 -31 -16z"/>
<path d="M9650 260 c0 -5 7 -10 15 -10 8 0 15 5 15 10 0 6 -7 10 -15 10 -8 0
-15 -4 -15 -10z"/>
<path d="M9657 227 c-4 -10 -7 -26 -7 -35 1 -15 2 -15 11 1 6 10 9 25 7 35 -3
16 -4 15 -11 -1z"/>
<path d="M2051 181 l2 -51 39 0 c24 0 38 5 38 13 0 9 2 9 8 0 11 -17 148 -15
163 3 10 12 13 12 23 -2 18 -24 70 -15 74 14 3 18 -1 22 -22 22 -26 0 -35 -14
-16 -23 6 -3 5 -4 -2 -3 -18 4 -23 36 -8 50 9 8 14 8 17 -1 4 -12 33 -19 33
-9 0 35 -61 51 -78 20 -8 -14 -10 -14 -21 0 -8 9 -22 16 -31 16 -38 0 -50 -12
-50 -47 0 -30 -3 -34 -22 -31 -19 2 -24 10 -26 41 -2 24 -8 37 -18 37 -10 0
-13 -8 -10 -25 3 -13 1 -27 -4 -30 -5 -3 -10 7 -12 22 -3 24 -8 28 -41 31
l-37 3 1 -50z m49 19 c0 -5 -4 -10 -10 -10 -5 0 -10 5 -10 10 0 6 5 10 10 10
6 0 10 -4 10 -10z m178 -26 c-5 -28 -28 -29 -28 -1 0 13 3 27 7 31 10 10 25
-10 21 -30z m-168 -14 c0 -5 -7 -10 -15 -10 -8 0 -15 5 -15 10 0 6 7 10 15 10
8 0 15 -4 15 -10z"/>
<path d="M9690 184 c0 -8 5 -12 10 -9 6 3 10 10 10 16 0 5 -4 9 -10 9 -5 0
-10 -7 -10 -16z"/>
<path d="M9950 189 c0 -5 5 -7 10 -4 6 3 10 8 10 11 0 2 -4 4 -10 4 -5 0 -10
-5 -10 -11z"/>
</g>
</svg>
