<?xml version="1.0" standalone="no"?>
<!DOCTYPE svg PUBLIC "-//W3C//DTD SVG 20010904//EN"
 "http://www.w3.org/TR/2001/REC-SVG-20010904/DTD/svg10.dtd">
<svg version="1.0" xmlns="http://www.w3.org/2000/svg"
 width="1200.000000pt" height="2004.000000pt" viewBox="0 0 1200.000000 2004.000000"
 preserveAspectRatio="xMidYMid meet">

<g transform="translate(0.000000,2004.000000) scale(0.100000,-0.100000)"
fill="#000000" stroke="none">
<path d="M5830 19855 l0 -185 170 2 c94 2 170 6 170 11 0 4 0 86 0 182 l0 175
-170 0 -170 0 0 -185z m130 62 l0 -42 45 3 45 4 0 39 c0 28 4 39 15 39 12 0
15 -17 15 -95 0 -78 -3 -95 -15 -95 -10 0 -15 10 -15 34 0 33 -1 34 -45 38
l-45 3 0 -37 c0 -27 -4 -38 -15 -38 -12 0 -15 17 -15 95 0 78 3 95 15 95 11 0
15 -11 15 -43z"/>
<path d="M4132 19855 c0 -16 2 -24 5 -17 2 6 11 12 18 12 7 0 16 -6 18 -12 3
-7 5 1 5 17 0 17 -2 24 -5 18 -2 -7 -11 -13 -18 -13 -7 0 -16 6 -18 13 -3 6
-5 -1 -5 -18z"/>
<path d="M4193 19854 c-8 -21 13 -42 28 -27 13 13 5 43 -11 43 -6 0 -13 -7
-17 -16z m27 -9 c0 -8 -4 -15 -10 -15 -5 0 -10 7 -10 15 0 8 5 15 10 15 6 0
10 -7 10 -15z"/>
<path d="M4243 19855 c-3 -9 -3 -19 1 -22 3 -4 6 1 6 11 0 21 32 18 42 -4 5
-11 7 -9 7 8 1 17 -5 22 -24 22 -14 0 -28 -7 -32 -15z"/>
<path d="M4320 19845 c0 -14 5 -25 11 -25 5 0 8 4 5 9 -4 5 -1 11 6 13 6 2 8
10 4 16 -12 20 -26 13 -26 -13z"/>
<path d="M4556 17613 c33 -133 50 -188 59 -186 5 1 20 39 32 84 12 45 24 84
27 86 3 3 10 -15 16 -38 28 -108 36 -130 45 -129 13 2 64 199 54 206 -8 5 -10
1 -35 -106 -9 -41 -20 -68 -23 -60 -2 8 -14 48 -25 89 -23 82 -40 99 -50 49
-3 -18 -14 -60 -24 -93 l-18 -60 -18 75 c-25 107 -26 110 -37 110 -5 0 -6 -12
-3 -27z"/>
<path d="M5050 17529 c0 -75 4 -109 10 -99 7 12 12 12 22 2 32 -32 98 11 98
64 0 60 -50 101 -91 75 -28 -17 -31 -14 -28 23 2 19 0 38 -4 42 -4 4 -7 -44
-7 -107z m92 24 c28 -25 24 -88 -7 -109 -21 -14 -28 -14 -41 -3 -25 21 -35 56
-23 86 17 45 41 54 71 26z"/>
<path d="M5360 17625 c0 -8 5 -15 10 -15 6 0 10 7 10 15 0 8 -4 15 -10 15 -5
0 -10 -7 -10 -15z"/>
<path d="M5424 17530 c0 -63 1 -89 3 -57 2 31 2 83 0 115 -2 31 -3 5 -3 -58z"/>
<path d="M5580 17599 c0 -34 -3 -40 -12 -31 -20 20 -65 14 -82 -10 -40 -57 -4
-147 52 -133 15 3 35 6 45 6 15 0 17 12 17 99 0 55 -4 102 -10 105 -6 4 -10
-11 -10 -36z m-18 -46 c24 -22 24 -77 -2 -103 -11 -11 -23 -20 -27 -20 -29 1
-57 53 -48 88 13 53 43 66 77 35z"/>
<path d="M5721 17624 c0 -11 3 -14 6 -6 3 7 2 16 -1 19 -3 4 -6 -2 -5 -13z"/>
<path d="M6156 17631 c-4 -7 -5 -15 -2 -18 9 -9 19 4 14 18 -4 11 -6 11 -12 0z"/>
<path d="M6303 17530 c0 -87 2 -100 6 -54 6 65 22 94 52 94 25 0 32 -15 39
-90 l7 -65 2 71 c0 43 -4 75 -11 82 -16 16 -65 15 -75 0 -5 -8 -10 4 -14 32
-4 27 -6 -1 -6 -70z"/>
<path d="M7121 17624 c0 -11 3 -14 6 -6 3 7 2 16 -1 19 -3 4 -6 -2 -5 -13z"/>
<path d="M5780 17601 c0 -11 -6 -22 -12 -25 -10 -5 -10 -7 0 -12 7 -4 12 -27
12 -63 0 -31 5 -62 12 -69 15 -15 38 -16 38 -2 0 6 -7 10 -15 10 -12 0 -15 13
-15 60 0 47 3 60 15 60 8 0 15 5 15 10 0 6 -7 10 -15 10 -8 0 -15 9 -15 20 0
11 -4 20 -10 20 -5 0 -10 -9 -10 -19z"/>
<path d="M6220 17601 c0 -11 -6 -22 -12 -25 -10 -5 -10 -7 0 -12 7 -4 12 -27
12 -64 0 -39 5 -62 15 -70 9 -7 19 -9 23 -5 4 4 1 10 -5 12 -21 8 -17 113 5
129 16 13 16 13 0 14 -11 0 -18 8 -18 20 0 11 -4 20 -10 20 -5 0 -10 -9 -10
-19z"/>
<path d="M4824 17555 c-21 -32 -13 -103 12 -122 24 -18 59 -16 78 3 27 27 17
36 -14 13 -29 -22 -30 -22 -50 -4 -11 10 -20 26 -20 37 0 15 8 18 54 18 l55 0
-10 32 c-10 37 -24 48 -61 48 -18 0 -33 -8 -44 -25z m78 -2 c31 -28 22 -43
-27 -43 -49 0 -59 15 -29 44 20 20 33 20 56 -1z"/>
<path d="M5210 17518 c0 -79 15 -104 56 -94 16 4 36 7 44 7 12 1 14 14 10 77
-3 57 -5 65 -7 32 -5 -69 -11 -88 -34 -100 -34 -19 -49 4 -49 71 0 32 -4 61
-10 64 -6 4 -10 -18 -10 -57z"/>
<path d="M5360 17505 c0 -43 4 -75 10 -75 6 0 10 32 10 75 0 43 -4 75 -10 75
-6 0 -10 -32 -10 -75z"/>
<path d="M5723 17500 c0 -47 2 -66 4 -42 2 23 2 61 0 85 -2 23 -4 4 -4 -43z"/>
<path d="M5940 17569 c0 -6 9 -44 21 -83 19 -63 23 -68 34 -52 8 10 17 35 20
57 10 58 20 55 39 -12 9 -33 21 -57 26 -54 8 5 50 130 50 149 0 3 -4 6 -8 6
-5 0 -15 -25 -22 -55 -7 -31 -17 -58 -21 -61 -4 -2 -13 21 -20 51 -7 31 -16
58 -20 61 -11 6 -26 -24 -34 -69 -11 -56 -22 -53 -36 8 -11 51 -29 84 -29 54z"/>
<path d="M6158 17504 c-2 -42 0 -78 5 -81 4 -2 7 32 7 76 0 45 -2 81 -4 81 -3
0 -6 -34 -8 -76z"/>
<path d="M6542 17475 c1 -60 3 -93 5 -72 4 36 15 47 28 27 10 -17 51 -11 70
10 11 12 18 35 18 60 0 25 -7 48 -18 60 -20 22 -70 27 -81 9 -4 -8 -9 -7 -15
2 -5 8 -8 -31 -7 -96z m92 73 c27 -38 16 -98 -19 -112 -46 -17 -83 61 -51 109
20 31 50 32 70 3z"/>
<path d="M6712 17568 c-7 -7 -12 -19 -11 -27 0 -12 4 -10 16 7 17 24 42 29 61
10 20 -20 14 -37 -15 -44 -55 -12 -62 -15 -68 -34 -10 -30 12 -60 43 -60 16 0
33 5 39 11 8 8 13 8 17 0 16 -25 22 -7 18 52 -2 34 -9 70 -14 80 -10 20 -67
24 -86 5z m78 -88 c0 -28 -45 -56 -65 -40 -31 25 -7 59 43 60 15 0 22 -6 22
-20z"/>
<path d="M6852 17568 c-28 -28 -9 -61 41 -73 36 -9 46 -34 22 -51 -25 -19 -31
-18 -56 7 -26 26 -34 20 -13 -9 18 -26 65 -29 88 -6 30 30 16 61 -36 74 -32 9
-39 15 -36 33 4 31 38 34 59 6 13 -17 19 -20 19 -8 0 23 -21 39 -50 39 -14 0
-31 -5 -38 -12z"/>
<path d="M6992 17568 c-28 -28 -9 -61 41 -73 36 -9 46 -34 22 -51 -25 -19 -31
-18 -56 7 -26 26 -39 16 -14 -11 40 -44 123 -4 91 44 -7 11 -27 24 -44 28 -38
10 -48 24 -32 43 17 20 47 19 59 -2 5 -10 13 -15 17 -11 4 4 1 14 -6 23 -15
18 -61 20 -78 3z"/>
<path d="M7123 17500 c0 -47 2 -66 4 -42 2 23 2 61 0 85 -2 23 -4 4 -4 -43z"/>
<path d="M7186 17558 c-23 -32 -20 -94 4 -118 58 -58 138 27 99 103 -16 29
-28 37 -61 37 -17 0 -33 -9 -42 -22z m76 -5 c28 -25 24 -88 -6 -108 -13 -8
-30 -13 -39 -10 -22 9 -40 59 -32 87 16 50 44 61 77 31z"/>
<path d="M7340 17580 c-5 -40 -3 -153 2 -157 5 -2 8 22 8 55 0 47 4 63 21 78
33 30 53 8 57 -62 2 -32 7 -63 13 -68 13 -14 12 110 -1 135 -12 21 -64 27 -76
8 -4 -8 -9 -7 -15 2 -5 8 -9 12 -9 9z"/>
<path d="M5417 16923 c-10 -9 -9 -383 1 -383 4 0 6 85 4 190 l-3 190 581 0
581 0 -3 -190 c-2 -105 0 -190 5 -190 4 0 6 87 5 193 l-3 192 -581 3 c-319 1
-584 -1 -587 -5z"/>
<path d="M5747 16753 c-4 -3 -7 -16 -7 -29 0 -27 32 -28 43 0 10 24 -19 47
-36 29z m27 -24 c-3 -5 -10 -7 -15 -3 -5 3 -7 10 -3 15 3 5 10 7 15 3 5 -3 7
-10 3 -15z"/>
<path d="M5804 16746 c-9 -22 -1 -49 16 -54 13 -5 13 -3 1 11 -12 15 -11 17 5
18 18 0 18 1 -1 8 -19 8 -19 8 0 19 18 10 18 11 2 12 -10 0 -20 -6 -23 -14z"/>
<path d="M5870 16741 c-15 -29 -12 -36 14 -36 21 0 22 3 14 28 -12 32 -14 33
-28 8z"/>
<path d="M5927 16753 c-10 -10 -8 -51 2 -57 13 -8 38 3 45 19 9 24 -31 55 -47
38z m32 -40 c-15 -18 -34 -1 -25 22 5 14 9 15 21 5 12 -10 13 -16 4 -27z"/>
<path d="M6056 16744 c-3 -9 -2 -23 4 -32 7 -14 9 -10 10 16 0 35 -5 41 -14
16z"/>
<path d="M6103 16753 c-18 -6 -16 -50 1 -56 8 -3 22 1 33 8 28 21 -1 62 -34
48z m26 -40 c-15 -18 -34 -1 -25 22 5 14 9 15 21 5 12 -10 13 -16 4 -27z"/>
<path d="M6160 16731 c0 -21 5 -28 18 -27 21 1 33 27 20 44 -18 22 -38 14 -38
-17z m32 4 c0 -5 -5 -11 -11 -13 -6 -2 -11 4 -11 13 0 9 5 15 11 13 6 -2 11
-8 11 -13z"/>
<path d="M6227 16753 c-11 -11 -8 -51 5 -59 8 -5 9 -2 5 9 -4 12 -1 17 11 17
15 0 15 2 2 10 -13 9 -13 11 0 20 13 8 13 10 -1 10 -9 0 -19 -3 -22 -7z"/>
<path d="M6010 16723 c0 -22 2 -25 10 -13 9 13 11 13 20 0 5 -8 10 -10 10 -5
-1 12 -25 45 -34 45 -3 0 -6 -12 -6 -27z"/>
<path d="M0 9250 c0 -2398 3 -4359 7 -4359 34 6 43 -3 43 -39 0 -50 14 -62 71
-62 38 0 48 4 52 19 4 16 15 20 63 23 54 3 59 5 62 28 2 13 11 29 19 35 21 15
14 71 -9 67 -35 -6 -26 17 22 54 46 35 50 41 50 81 0 41 1 43 30 43 20 0 30
-5 30 -15 0 -21 10 -18 49 15 l34 29 41 -32 c113 -88 197 -157 199 -164 1 -4
-7 -8 -18 -8 -19 0 -20 -7 -20 -170 l0 -170 40 0 40 0 3 73 c2 58 0 72 -12 72
-36 0 -20 23 62 88 131 103 123 100 164 69 40 -31 48 -33 48 -12 0 9 9 15 25
15 22 0 25 -4 25 -39 0 -21 6 -44 15 -51 8 -7 47 -12 97 -12 82 0 83 0 86 26
3 19 -2 28 -18 34 -21 8 -21 9 13 39 25 22 37 41 39 64 3 36 33 53 48 29 6
-10 15 -8 37 8 l29 20 89 -70 c94 -73 107 -88 81 -88 -11 0 -16 -9 -16 -30 0
-20 5 -30 15 -30 9 0 19 -10 24 -23 7 -17 16 -22 37 -22 27 2 29 5 32 48 l3
47 45 0 44 0 0 39 c0 25 -5 41 -15 45 -8 3 -12 12 -9 20 7 18 59 46 84 46 9 0
25 9 35 20 23 26 61 26 75 0 6 -11 21 -20 33 -20 30 0 75 -21 82 -39 3 -7 -2
-19 -10 -25 -13 -9 -15 -27 -13 -81 l3 -70 70 0 70 0 3 73 c2 58 0 73 -13 78
-8 3 -15 10 -15 15 0 11 187 159 201 159 7 0 27 -12 46 -26 28 -21 34 -23 39
-10 3 9 17 16 30 16 21 0 24 -5 24 -38 0 -49 14 -62 67 -62 l43 0 0 75 c0 68
-2 76 -22 84 -19 7 -13 14 63 76 46 37 89 70 96 72 7 3 26 -5 43 -17 30 -21
32 -21 44 -4 20 27 46 11 46 -29 0 -25 8 -41 33 -63 26 -24 29 -29 15 -32 -16
-3 -18 -18 -18 -138 l0 -134 76 -60 c65 -51 83 -60 118 -60 47 0 58 -6 74 -37
9 -17 9 -22 -3 -27 -14 -5 -22 -75 -10 -87 2 -3 20 -3 40 -1 l35 4 0 293 c0
270 -1 294 -17 297 -19 4 120 98 145 98 7 0 45 -20 84 -46 61 -39 68 -47 54
-57 -14 -10 -16 -28 -14 -102 l3 -90 70 0 70 0 3 143 c2 92 -1 142 -8 142 -29
0 -2 30 61 69 69 42 72 43 98 28 25 -14 28 -14 37 0 13 22 34 8 34 -21 0 -14
10 -30 26 -41 19 -12 23 -19 14 -29 -7 -9 -10 -80 -8 -212 l3 -199 115 -2 c63
-1 121 -2 127 -3 10 0 11 -19 6 -74 l-6 -75 34 -20 c19 -12 37 -21 42 -21 4 0
7 177 7 394 0 341 -2 395 -15 400 -24 9 -18 45 10 56 14 5 25 14 25 20 0 6 34
10 87 10 67 0 91 -4 105 -17 11 -9 36 -17 61 -17 35 -1 42 -4 45 -23 2 -14 -4
-26 -17 -33 -20 -10 -21 -19 -21 -180 0 -94 4 -170 8 -170 4 0 33 23 64 50 31
28 59 50 63 50 4 0 32 -23 63 -50 l57 -51 3 122 c2 99 0 123 -13 133 -18 13
-9 56 11 56 8 0 17 7 20 15 4 8 17 15 30 15 21 0 24 5 24 35 0 31 3 35 25 35
22 0 25 -4 25 -35 0 -30 3 -35 23 -35 12 0 49 23 82 50 33 28 63 50 68 50 4 0
35 -22 68 -50 78 -65 119 -65 102 0 -5 19 -2 21 23 18 24 -3 28 -8 29 -33 0
-20 5 -30 15 -30 12 0 16 16 18 76 3 71 1 77 -18 82 -18 5 -21 12 -18 44 2 29
8 39 23 42 11 2 24 9 28 17 12 21 170 20 191 -1 8 -8 22 -15 30 -15 22 0 23
-78 1 -86 -13 -5 -15 -45 -15 -274 0 -148 3 -275 6 -284 8 -20 33 -21 40 -1 4
10 20 15 44 15 29 0 39 4 43 20 4 15 14 20 40 20 33 0 36 -3 39 -32 2 -25 8
-33 23 -33 20 0 20 8 23 313 2 268 4 312 17 312 11 0 15 12 15 50 0 39 4 53
20 62 14 9 20 24 20 50 0 37 1 38 35 38 l35 0 0 1220 0 1219 -25 25 c-34 34
-34 88 0 120 l25 23 0 667 0 666 -21 0 c-30 0 -85 59 -100 108 -21 73 19 160
88 188 l33 14 0 710 0 709 -25 25 c-34 34 -34 85 0 117 l25 24 0 331 0 331
-25 23 c-34 32 -34 82 0 116 l25 25 0 514 0 515 -2985 0 -2985 0 0 -4360z
m4920 3303 c30 -38 19 -69 -41 -123 -27 -25 -49 -48 -49 -52 0 -5 23 -8 50 -8
28 0 50 -4 50 -10 0 -6 -28 -10 -65 -10 -60 0 -65 2 -65 21 0 14 21 42 55 73
60 55 67 77 34 100 -27 18 -47 11 -55 -20 -7 -25 -34 -34 -34 -10 0 7 9 25 21
40 28 35 70 35 99 -1z m160 17 c36 -19 52 -114 29 -178 -6 -19 -22 -35 -40
-43 -63 -25 -106 45 -92 150 9 68 52 98 103 71z m160 -105 c0 -70 -4 -115 -10
-115 -6 0 -10 33 -10 80 0 78 -1 80 -24 80 -35 0 -42 18 -11 30 14 5 28 17 31
25 16 40 24 5 24 -100z m170 0 c0 -70 -4 -115 -10 -115 -6 0 -10 33 -10 79 0
79 0 80 -27 83 -32 4 -44 28 -14 28 11 0 26 9 33 20 7 11 16 20 20 20 5 0 8
-52 8 -115z m-2343 -372 c-3 -10 -5 -2 -5 17 0 19 2 27 5 18 2 -10 2 -26 0
-35z m1010 25 c-3 -8 -6 -5 -6 6 -1 11 2 17 5 13 3 -3 4 -12 1 -19z m-140 -25
c-3 -10 -5 -4 -5 12 0 17 2 24 5 18 2 -7 2 -21 0 -30z m331 1 c-3 -14 -5 -12
-10 9 -3 19 -2 25 4 19 6 -6 8 -18 6 -28z m1172 32 c0 -3 -4 -8 -10 -11 -5 -3
-10 -1 -10 4 0 6 5 11 10 11 6 0 10 -2 10 -4z m-2043 -38 c-3 -7 -5 -2 -5 12
0 14 2 19 5 13 2 -7 2 -19 0 -25z m104 15 c13 -16 12 -17 -3 -4 -17 13 -22 21
-14 21 2 0 10 -8 17 -17z m510 0 c13 -16 12 -17 -3 -4 -17 13 -22 21 -14 21 2
0 10 -8 17 -17z m156 -15 c-3 -7 -5 -2 -5 12 0 14 2 19 5 13 2 -7 2 -19 0 -25z
m770 0 c-3 -7 -5 -2 -5 12 0 14 2 19 5 13 2 -7 2 -19 0 -25z m120 0 c-3 -7 -5
-2 -5 12 0 14 2 19 5 13 2 -7 2 -19 0 -25z m-120 -145 c-3 -10 -5 -2 -5 17 0
19 2 27 5 18 2 -10 2 -26 0 -35z m493 33 c0 -3 -4 -8 -10 -11 -5 -3 -10 -1
-10 4 0 6 5 11 10 11 6 0 10 -2 10 -4z m-1833 -38 c-3 -7 -5 -2 -5 12 0 14 2
19 5 13 2 -7 2 -19 0 -25z m260 10 c-3 -8 -6 -5 -6 6 -1 11 2 17 5 13 3 -3 4
-12 1 -19z m260 -10 c-3 -7 -5 -2 -5 12 0 14 2 19 5 13 2 -7 2 -19 0 -25z
m300 0 c-3 -7 -5 -2 -5 12 0 14 2 19 5 13 2 -7 2 -19 0 -25z m-377 2 c0 -5 -5
-10 -11 -10 -5 0 -7 5 -4 10 3 6 8 10 11 10 2 0 4 -4 4 -10z m855 -1795 c41
-40 29 -81 -41 -133 -24 -18 -44 -37 -44 -42 0 -6 25 -10 55 -10 30 0 55 -4
55 -10 0 -6 -30 -10 -70 -10 -60 0 -70 2 -70 18 1 22 26 53 67 81 37 25 52 64
32 87 -18 22 -52 13 -67 -19 -13 -28 -32 -28 -32 -1 0 22 46 64 70 64 12 0 32
-11 45 -25z m174 8 c13 -12 23 -35 27 -65 17 -123 -46 -198 -111 -133 -22 21
-25 33 -25 95 0 62 3 74 25 95 29 29 55 32 84 8z m161 -104 c0 -90 -3 -109
-15 -109 -12 0 -15 15 -15 79 0 78 -1 80 -25 83 -31 4 -34 22 -5 26 11 2 25
12 31 23 20 38 29 7 29 -102z m178 105 c24 -16 30 -62 11 -81 -9 -9 -8 -16 5
-28 43 -44 -6 -123 -69 -111 -33 7 -55 30 -55 58 0 26 15 22 28 -7 21 -45 82
-28 82 23 0 17 -8 27 -30 35 -36 14 -38 24 -7 29 17 2 22 10 22 33 0 25 -4 31
-27 33 -22 3 -29 -2 -34 -22 -7 -28 -34 -36 -34 -11 0 22 45 65 67 65 10 0 29
-7 41 -16z m-1841 -471 c-3 -10 -5 -4 -5 12 0 17 2 24 5 18 2 -7 2 -21 0 -30z
m623 33 c0 -3 -4 -8 -10 -11 -5 -3 -10 -1 -10 4 0 6 5 11 10 11 6 0 10 -2 10
-4z m580 0 c0 -3 -4 -8 -10 -11 -5 -3 -10 -1 -10 4 0 6 5 11 10 11 6 0 10 -2
10 -4z m473 -11 c-3 -9 -8 -14 -10 -11 -3 3 -2 9 2 15 9 16 15 13 8 -4z
m-1946 -27 c-3 -7 -5 -2 -5 12 0 14 2 19 5 13 2 -7 2 -19 0 -25z m120 0 c-3
-7 -5 -2 -5 12 0 14 2 19 5 13 2 -7 2 -19 0 -25z m800 0 c-3 -7 -5 -2 -5 12 0
14 2 19 5 13 2 -7 2 -19 0 -25z m960 10 c-3 -8 -6 -5 -6 6 -1 11 2 17 5 13 3
-3 4 -12 1 -19z m140 -25 c-3 -10 -5 -2 -5 17 0 19 2 27 5 18 2 -10 2 -26 0
-35z m-470 15 c-3 -8 -6 -5 -6 6 -1 11 2 17 5 13 3 -3 4 -12 1 -19z m150 -120
c-3 -8 -6 -5 -6 6 -1 11 2 17 5 13 3 -3 4 -12 1 -19z m-1660 -25 c-3 -10 -5
-4 -5 12 0 17 2 24 5 18 2 -7 2 -21 0 -30z m1333 33 c0 -3 -4 -8 -10 -11 -5
-3 -10 -1 -10 4 0 6 5 11 10 11 6 0 10 -2 10 -4z m370 0 c0 -3 -4 -8 -10 -11
-5 -3 -10 -1 -10 4 0 6 5 11 10 11 6 0 10 -2 10 -4z m-1923 -38 c-3 -7 -5 -2
-5 12 0 14 2 19 5 13 2 -7 2 -19 0 -25z m180 -145 c-3 -10 -5 -4 -5 12 0 17 2
24 5 18 2 -7 2 -21 0 -30z m320 -5 c-3 -7 -5 -2 -5 12 0 14 2 19 5 13 2 -7 2
-19 0 -25z m340 0 c-3 -7 -5 -2 -5 12 0 14 2 19 5 13 2 -7 2 -19 0 -25z m30 0
c-3 -7 -5 -2 -5 12 0 14 2 19 5 13 2 -7 2 -19 0 -25z m94 15 c13 -16 12 -17
-3 -4 -10 7 -18 15 -18 17 0 8 8 3 21 -13z m-427 -9 c3 -8 2 -12 -4 -9 -6 3
-10 10 -10 16 0 14 7 11 14 -7z m-557 -151 c-3 -10 -5 -2 -5 17 0 19 2 27 5
18 2 -10 2 -26 0 -35z m451 1 c-3 -14 -5 -12 -10 9 -3 19 -2 25 4 19 6 -6 8
-18 6 -28z m-211 4 c-3 -8 -6 -5 -6 6 -1 11 2 17 5 13 3 -3 4 -12 1 -19z m74
5 c13 -16 12 -17 -3 -4 -10 7 -18 15 -18 17 0 8 8 3 21 -13z m-254 -15 c-3 -8
-6 -5 -6 6 -1 11 2 17 5 13 3 -3 4 -12 1 -19z"/>
<path d="M5024 12546 c-25 -19 -32 -117 -10 -151 37 -56 76 -19 76 71 0 72
-29 107 -66 80z"/>
<path d="M4991 10109 c-24 -68 -5 -149 35 -149 31 0 44 27 44 90 0 63 -13 90
-44 90 -18 0 -27 -8 -35 -31z"/>
<path d="M6010 13099 l0 -511 30 -28 c21 -20 30 -37 30 -60 0 -22 -9 -41 -30
-62 l-30 -30 0 -323 0 -323 30 -30 c17 -17 30 -40 30 -52 0 -28 -26 -76 -45
-83 -13 -6 -15 -87 -15 -719 l0 -713 39 -16 c107 -45 106 -227 -1 -277 l-37
-17 -1 -662 0 -661 30 -30 c42 -42 37 -96 -12 -130 -17 -13 -18 -60 -18 -1232
l0 -1219 33 -3 c29 -3 32 -6 33 -37 0 -19 7 -39 17 -46 12 -8 17 -27 17 -58 0
-36 4 -49 20 -57 20 -10 20 -21 20 -450 0 -242 3 -440 8 -440 4 0 26 17 50 39
l42 39 0 221 c0 219 0 222 -22 230 -21 8 -21 8 10 31 26 20 32 31 32 62 0 34
3 38 24 38 13 0 26 -6 29 -12 3 -9 13 -6 36 10 18 13 36 22 40 20 18 -6 180
-133 181 -140 0 -5 -7 -8 -15 -8 -12 0 -15 -19 -15 -114 l0 -114 78 -26 c258
-87 293 -102 312 -131 19 -30 19 -30 -1 -37 -17 -7 -20 -15 -17 -60 l3 -53 35
0 35 0 3 123 c2 117 2 122 -18 122 -11 0 -20 4 -20 8 0 4 41 82 90 172 76 139
90 170 85 197 -6 36 8 51 31 32 10 -8 12 -15 4 -23 -5 -5 -10 -16 -10 -24 0
-8 41 -88 90 -179 50 -90 90 -168 90 -173 0 -6 -9 -10 -21 -10 -18 0 -20 -5
-17 -52 l3 -53 83 -22 c68 -18 84 -19 88 -8 10 25 -1 50 -24 53 -12 2 -22 6
-22 10 1 4 23 24 50 45 47 36 50 41 50 83 0 42 1 44 30 44 20 0 30 -5 30 -15
0 -22 11 -19 53 16 l37 30 132 -103 c117 -91 129 -103 107 -108 -22 -5 -24
-11 -24 -65 l0 -60 60 -1 c56 -1 61 -3 83 -34 27 -41 28 -50 2 -50 -18 0 -20
-7 -20 -70 l0 -70 45 0 45 0 0 155 0 155 -25 0 c-35 0 -31 10 15 43 33 24 39
34 42 70 2 32 7 43 22 46 11 2 25 -5 32 -14 12 -16 15 -16 45 9 17 15 36 25
41 24 16 -6 217 -163 217 -170 1 -5 -10 -8 -24 -8 -26 0 -26 -1 -23 -72 l3
-73 70 0 70 0 3 65 c2 51 0 67 -14 77 -21 15 -11 43 15 43 10 0 21 7 25 15 3
8 17 15 31 15 14 0 34 9 45 20 25 25 35 25 60 0 11 -11 31 -20 44 -20 13 0 26
-7 30 -15 3 -8 14 -15 25 -15 10 0 22 -7 25 -16 9 -22 8 -24 -9 -24 -12 0 -15
-15 -15 -74 0 -74 0 -75 28 -78 26 -3 27 -4 28 -73 l1 -70 29 0 29 0 3 103 c3
97 2 103 -19 110 -19 8 -18 10 20 35 37 24 41 32 41 67 0 33 3 40 20 40 14 0
20 -7 20 -23 0 -13 3 -26 6 -29 3 -3 37 12 76 33 39 21 73 39 75 39 12 0 273
-146 273 -152 0 -5 -7 -8 -15 -8 -12 0 -15 -14 -15 -65 0 -60 2 -66 25 -77 16
-7 25 -19 25 -35 0 -21 5 -23 44 -23 38 0 45 3 48 22 2 14 18 29 43 42 36 19
40 25 43 64 3 36 0 43 -19 50 -19 8 -13 15 69 80 49 40 93 72 97 72 4 0 20 -9
36 -21 16 -11 29 -16 29 -10 0 6 11 11 25 11 22 0 25 -4 25 -34 0 -27 7 -38
35 -57 37 -26 44 -39 20 -39 -8 0 -15 -9 -15 -20 0 -17 7 -20 39 -20 46 0 58
13 63 65 2 32 7 41 24 43 15 2 23 -4 27 -19 6 -21 7 -21 46 10 l41 32 79 -61
79 -61 41 21 c31 15 41 26 41 44 0 13 7 29 15 36 8 7 15 25 15 41 0 16 5 29
10 29 6 0 10 -11 10 -23 0 -13 9 -32 20 -42 11 -10 20 -29 20 -42 0 -20 11
-29 65 -53 l64 -29 3 -72 c2 -47 7 -74 16 -77 7 -2 12 6 12 22 0 15 7 29 15
32 9 4 15 19 15 40 0 34 1 34 44 34 39 0 45 -3 48 -23 3 -19 9 -22 43 -22 l40
0 8 51 c7 45 12 53 33 57 17 3 35 -3 54 -19 34 -29 42 -30 65 -4 23 25 33 25
62 -2 20 -19 27 -20 41 -10 50 35 61 37 90 9 l28 -27 23 24 c27 29 81 33 81 6
0 -9 6 -25 14 -35 10 -14 11 -25 5 -38 -6 -9 -9 -43 -7 -75 l3 -57 48 -3 47
-3 0 60 c0 48 -3 61 -15 61 -23 0 -18 13 15 35 19 13 30 29 32 50 2 22 9 31
26 33 12 2 22 -2 22 -8 0 -6 13 -2 29 9 l28 20 81 -62 c82 -63 94 -77 67 -77
-12 0 -15 -16 -15 -80 0 -79 0 -80 25 -80 22 0 25 4 25 33 0 18 -5 38 -10 43
-7 7 2 20 27 40 60 47 61 48 98 20 18 -14 36 -26 39 -26 3 0 6 2009 6 4465 l0
4465 -2995 0 -2995 0 0 -511z m593 -1371 c32 -38 15 -84 -47 -128 -25 -17 -46
-35 -46 -40 0 -5 24 -10 53 -12 75 -4 64 -22 -15 -26 -65 -3 -68 -2 -68 20 0
14 20 41 56 74 41 39 55 58 52 75 -7 49 -69 50 -76 0 -2 -11 -10 -21 -18 -21
-17 0 -18 9 -4 45 18 47 77 54 113 13z m150 23 c33 -13 51 -68 45 -137 -5 -63
-28 -94 -70 -94 -50 0 -68 30 -68 115 0 67 3 79 25 100 27 28 33 29 68 16z
m175 -116 c-2 -76 -7 -110 -15 -113 -10 -3 -13 18 -13 82 0 85 0 86 -24 86
-34 0 -41 16 -11 24 13 3 29 16 36 27 21 39 30 4 27 -106z m195 93 c32 -38 16
-79 -50 -127 -24 -17 -43 -35 -43 -41 0 -5 24 -10 53 -12 75 -4 64 -22 -15
-26 -66 -3 -68 -2 -68 22 0 15 12 35 32 53 68 61 78 73 78 91 0 48 -56 54 -78
9 -14 -30 -32 -36 -32 -11 0 65 79 92 123 42z m144 -430 c-3 -8 -6 -5 -6 6 -1
11 2 17 5 13 3 -3 4 -12 1 -19z m933 8 c0 -3 -4 -8 -10 -11 -5 -3 -10 -1 -10
4 0 6 5 11 10 11 6 0 10 -2 10 -4z m-1383 -38 c-3 -7 -5 -2 -5 12 0 14 2 19 5
13 2 -7 2 -19 0 -25z m170 0 c-3 -7 -5 -2 -5 12 0 14 2 19 5 13 2 -7 2 -19 0
-25z m370 0 c-3 -7 -5 -2 -5 12 0 14 2 19 5 13 2 -7 2 -19 0 -25z m960 10 c-3
-8 -6 -5 -6 6 -1 11 2 17 5 13 3 -3 4 -12 1 -19z m40 -10 c-3 -7 -5 -2 -5 12
0 14 2 19 5 13 2 -7 2 -19 0 -25z m-770 0 c-3 -8 -6 -5 -6 6 -1 11 2 17 5 13
3 -3 4 -12 1 -19z m420 0 c-3 -8 -6 -5 -6 6 -1 11 2 17 5 13 3 -3 4 -12 1 -19z
m470 0 c-3 -8 -6 -5 -6 6 -1 11 2 17 5 13 3 -3 4 -12 1 -19z m-530 -145 c-3
-10 -5 -2 -5 17 0 19 2 27 5 18 2 -10 2 -26 0 -35z m895 8 c2 -17 1 -28 -4
-25 -8 5 -12 54 -4 54 2 0 6 -13 8 -29z m-762 15 c0 -3 -4 -8 -10 -11 -5 -3
-10 -1 -10 4 0 6 5 11 10 11 6 0 10 -2 10 -4z m-1093 -28 c-3 -8 -6 -5 -6 6
-1 11 2 17 5 13 3 -3 4 -12 1 -19z m550 0 c-3 -8 -6 -5 -6 6 -1 11 2 17 5 13
3 -3 4 -12 1 -19z m300 -10 c-3 -7 -5 -2 -5 12 0 14 2 19 5 13 2 -7 2 -19 0
-25z m170 10 c-3 -8 -6 -5 -6 6 -1 11 2 17 5 13 3 -3 4 -12 1 -19z m-620 -145
c-3 -10 -5 -2 -5 17 0 19 2 27 5 18 2 -10 2 -26 0 -35z m-645 2 c3 -13 1 -22
-3 -19 -9 5 -13 44 -5 44 2 0 6 -11 8 -25z m305 -12 c-3 -10 -5 -4 -5 12 0 17
2 24 5 18 2 -7 2 -21 0 -30z m160 5 c-3 -8 -6 -5 -6 6 -1 11 2 17 5 13 3 -3 4
-12 1 -19z m-604 -2470 c32 -38 16 -79 -50 -127 -24 -17 -43 -35 -43 -41 0 -5
24 -10 53 -12 75 -4 64 -22 -15 -26 -64 -3 -68 -2 -68 19 0 14 21 43 56 76 58
56 66 85 32 107 -23 14 -52 -3 -56 -33 -2 -11 -10 -21 -18 -21 -17 0 -18 9 -4
45 18 47 77 54 113 13z m150 23 c52 -20 65 -174 17 -213 -29 -24 -65 -23 -90
2 -16 16 -20 33 -20 95 0 67 3 79 25 100 27 28 33 29 68 16z m175 -116 c-2
-76 -7 -110 -15 -113 -10 -3 -13 18 -13 82 0 85 0 86 -24 86 -35 0 -42 18 -11
26 14 3 30 15 36 26 21 38 30 2 27 -107z m197 -32 c19 -7 19 -23 0 -23 -10 0
-15 -10 -15 -30 0 -16 -4 -30 -10 -30 -5 0 -10 14 -10 30 0 29 -1 30 -50 30
-27 0 -50 4 -50 8 0 11 75 129 99 156 15 17 16 14 19 -58 2 -56 7 -78 17 -83z
m142 -305 c-3 -8 -6 -5 -6 6 -1 11 2 17 5 13 3 -3 4 -12 1 -19z m933 8 c0 -3
-4 -8 -10 -11 -5 -3 -10 -1 -10 4 0 6 5 11 10 11 6 0 10 -2 10 -4z m-613 -38
c-3 -8 -6 -5 -6 6 -1 11 2 17 5 13 3 -3 4 -12 1 -19z m420 0 c-3 -8 -6 -5 -6
6 -1 11 2 17 5 13 3 -3 4 -12 1 -19z m470 0 c-3 -8 -6 -5 -6 6 -1 11 2 17 5
13 3 -3 4 -12 1 -19z m-530 -145 c-3 -10 -5 -2 -5 17 0 19 2 27 5 18 2 -10 2
-26 0 -35z m-167 33 c0 -3 -4 -8 -10 -11 -5 -3 -10 -1 -10 4 0 6 5 11 10 11 6
0 10 -2 10 -4z m577 -33 c-3 -10 -5 -4 -5 12 0 17 2 24 5 18 2 -7 2 -21 0 -30z
m480 0 c-3 -10 -5 -4 -5 12 0 17 2 24 5 18 2 -7 2 -21 0 -30z m-1850 -5 c-3
-8 -6 -5 -6 6 -1 11 2 17 5 13 3 -3 4 -12 1 -19z m550 0 c-3 -8 -6 -5 -6 6 -1
11 2 17 5 13 3 -3 4 -12 1 -19z m300 0 c-3 -8 -6 -5 -6 6 -1 11 2 17 5 13 3
-3 4 -12 1 -19z m270 0 c-3 -8 -6 -5 -6 6 -1 11 2 17 5 13 3 -3 4 -12 1 -19z
m-720 -145 c-3 -10 -5 -2 -5 17 0 19 2 27 5 18 2 -10 2 -26 0 -35z m-645 2 c3
-13 1 -22 -3 -19 -9 5 -13 44 -5 44 2 0 6 -11 8 -25z m305 -7 c-3 -7 -5 -2 -5
12 0 14 2 19 5 13 2 -7 2 -19 0 -25z m160 0 c-3 -8 -6 -5 -6 6 -1 11 2 17 5
13 3 -3 4 -12 1 -19z m-682 -8 c-3 -5 -16 -10 -28 -9 -20 1 -20 2 3 9 14 4 26
8 28 9 2 1 0 -3 -3 -9z"/>
<path d="M6702 11718 c-31 -40 -24 -151 11 -169 17 -10 24 -8 39 11 20 25 25
118 8 151 -12 22 -43 25 -58 7z"/>
<path d="M6702 8488 c-30 -38 -24 -151 9 -168 33 -18 59 20 59 86 0 30 -5 64
-10 75 -12 22 -43 25 -58 7z"/>
<path d="M7052 8425 l-33 -50 32 -3 c17 -2 33 -1 36 1 2 3 3 27 1 53 l-3 49
-33 -50z"/>
<path d="M5960 12525 c-17 -20 -4 -62 21 -70 15 -5 28 -1 42 14 18 17 19 24 9
46 -13 29 -52 34 -72 10z"/>
<path d="M5958 11694 c-15 -33 -1 -58 35 -62 21 -3 30 3 39 22 9 22 8 29 -7
46 -25 28 -53 25 -67 -6z"/>
<path d="M5914 10096 c-30 -30 -34 -40 -34 -86 0 -46 4 -56 34 -86 86 -86 213
5 177 125 -25 86 -115 109 -177 47z"/>
<path d="M5958 8464 c-8 -18 -9 -30 -1 -42 15 -24 54 -27 70 -6 17 23 16 39
-3 58 -23 24 -53 19 -66 -10z"/>
<path d="M5240 3900 c0 -5 11 -10 25 -10 23 0 24 -3 28 -77 l3 -78 2 78 c2 75
3 77 27 77 14 0 25 5 25 10 0 6 -25 10 -55 10 -30 0 -55 -4 -55 -10z"/>
<path d="M5373 3825 c0 -49 2 -70 4 -45 5 51 17 70 44 70 16 0 19 -8 19 -49 0
-28 5 -53 10 -56 12 -8 13 84 1 104 -6 8 -20 12 -39 9 -28 -4 -31 -2 -35 26
-2 17 -4 -9 -4 -59z"/>
<path d="M5491 3894 c0 -11 3 -14 6 -6 3 7 2 16 -1 19 -3 4 -6 -2 -5 -13z"/>
<path d="M6299 3877 c-2 -12 -2 -47 1 -77 4 -45 9 -55 25 -58 12 -2 16 0 8 5
-16 12 -20 92 -4 102 10 6 9 10 -4 15 -9 3 -14 10 -10 15 3 5 1 12 -4 15 -5 3
-10 -4 -12 -17z"/>
<path d="M5493 3800 c0 -36 2 -50 4 -32 2 17 2 47 0 65 -2 17 -4 3 -4 -33z"/>
<path d="M5537 3854 c-18 -18 -5 -43 29 -54 24 -8 34 -17 32 -28 -4 -23 -32
-26 -52 -7 -14 14 -16 14 -16 1 0 -18 33 -30 60 -21 13 4 20 15 20 30 0 18 -8
26 -35 35 -19 6 -35 16 -35 21 0 17 32 23 52 10 16 -10 19 -10 16 1 -5 14 -59
23 -71 12z"/>
<path d="M5713 3800 c0 -36 2 -50 4 -32 2 17 2 47 0 65 -2 17 -4 3 -4 -33z"/>
<path d="M5744 3846 c-8 -21 10 -42 41 -50 14 -4 25 -13 25 -22 0 -23 -29 -28
-50 -9 -21 19 -28 7 -8 -13 18 -18 56 -14 68 7 11 21 -9 51 -34 51 -8 0 -19 7
-26 15 -17 21 15 33 42 16 16 -10 19 -10 16 1 -7 20 -67 23 -74 4z"/>
<path d="M5926 3838 c-9 -12 -16 -29 -16 -38 0 -9 7 -26 16 -38 38 -54 115 9
83 67 -20 35 -62 40 -83 9z m70 -12 c8 -33 2 -57 -18 -69 -24 -16 -48 8 -48
48 0 38 6 45 36 45 17 0 25 -7 30 -24z"/>
<path d="M6042 3814 c-2 -61 13 -79 58 -69 29 6 30 9 30 61 0 30 -4 54 -10 54
-5 0 -10 -20 -10 -44 0 -86 -56 -85 -63 2 l-3 47 -2 -51z"/>
<path d="M6162 3800 c1 -56 2 -58 5 -18 3 35 10 52 26 63 18 12 19 15 4 15 -9
0 -17 -6 -17 -12 0 -9 -4 -8 -10 2 -7 10 -9 -5 -8 -50z"/>
<path d="M6360 3841 c-15 -30 -12 -66 8 -84 25 -22 45 -21 67 3 10 11 13 20 8
20 -6 0 -13 -7 -17 -15 -7 -20 -30 -19 -50 1 -23 22 -11 34 35 34 41 0 46 8
29 41 -7 12 -21 19 -40 19 -19 0 -33 -7 -40 -19z m68 -13 c3 -14 -3 -18 -27
-18 -29 0 -41 17 -24 34 13 13 48 1 51 -16z"/>
<path d="M6480 3845 c-8 -9 -9 -15 -2 -15 6 0 14 5 17 10 3 6 15 10 26 10 10
0 19 -4 19 -10 0 -5 1 -13 2 -17 1 -5 -11 -10 -26 -13 -33 -6 -52 -30 -43 -54
7 -18 52 -22 62 -6 5 8 11 8 20 0 10 -8 12 -1 8 37 -3 27 -6 54 -8 61 -6 17
-60 15 -75 -3z m70 -54 c0 -14 -29 -41 -45 -41 -18 0 -26 25 -12 39 13 13 57
15 57 2z"/>
<path d="M6592 3796 c1 -36 3 -46 5 -26 7 70 12 81 36 78 19 -3 23 -11 28 -58
l5 -55 5 55 c3 48 7 55 26 58 25 4 39 -30 30 -73 -2 -14 0 -28 4 -31 11 -6 12
86 1 103 -4 7 -33 11 -75 10 l-67 -1 2 -60z"/>
<path d="M5925 2674 c-60 -13 -93 -28 -88 -40 3 -8 9 -12 13 -9 5 3 11 -1 13
-7 4 -10 7 -10 14 -1 9 13 71 15 79 2 2 -4 -4 -12 -13 -18 -17 -10 -17 -10 0
-11 9 0 17 -7 17 -15 0 -18 -17 -20 -22 -4 -3 9 -10 9 -27 0 -29 -16 -51 -8
-51 19 0 11 -4 20 -10 20 -5 0 -10 -11 -10 -25 0 -16 -6 -25 -15 -25 -17 0
-20 -16 -6 -24 5 -4 12 0 14 6 3 7 6 -2 6 -20 1 -20 -5 -35 -14 -38 -8 -4 -15
-13 -15 -21 0 -9 6 -13 15 -9 17 6 19 -1 15 -63 -2 -42 15 -91 32 -91 4 0 8
29 8 63 0 88 14 99 125 104 84 4 84 4 98 -24 8 -15 18 -52 22 -80 7 -57 21
-69 31 -27 25 100 -59 234 -143 225 -22 -2 -23 2 -23 59 0 64 -2 66 -65 54z
m-43 -166 c-12 -30 -18 -37 -20 -24 -4 20 16 66 29 66 4 0 0 -19 -9 -42z"/>
<path d="M6130 2620 c0 -16 -5 -30 -11 -30 -8 0 -8 -5 1 -15 19 -23 31 -18 24
9 -3 13 -1 34 6 45 9 17 8 21 -5 21 -10 0 -15 -10 -15 -30z"/>
<path d="M6169 2598 c-1 -24 -1 -46 0 -50 0 -4 3 -83 6 -175 3 -92 8 -184 10
-204 3 -19 1 -50 -4 -67 -6 -20 -6 -32 0 -32 5 0 9 -4 9 -10 0 -21 -32 5 -47
39 -16 35 -17 35 -20 10 -3 -16 -24 -44 -57 -74 -42 -37 -52 -52 -48 -71 6
-30 -14 -32 -24 -1 -4 12 -24 43 -45 68 -21 25 -41 57 -44 70 -3 14 -12 26
-20 26 -10 0 -11 -6 -3 -23 13 -29 3 -58 -18 -50 -8 3 -12 2 -9 -4 3 -5 -8
-16 -24 -24 -26 -14 -30 -14 -35 1 -9 22 3 121 18 153 12 27 14 49 4 65 -12
21 -20 115 -9 115 17 0 13 46 -9 84 -12 23 -20 59 -22 105 -2 39 -6 71 -9 71
-26 0 -29 -37 -23 -279 5 -199 4 -254 -7 -267 -10 -13 -10 -17 0 -24 10 -5 10
-9 2 -15 -9 -5 -9 -11 1 -22 10 -13 8 -19 -17 -39 -17 -13 -33 -24 -37 -24
-14 0 -8 19 8 28 13 7 14 22 4 116 -6 58 -8 111 -5 116 6 10 9 349 3 355 -8 9
-29 -13 -34 -36 -3 -13 -7 -31 -9 -39 -2 -8 -4 -35 -5 -60 -1 -41 -2 -43 -11
-20 -6 14 -9 42 -7 63 2 20 1 37 -3 37 -11 0 -70 -90 -96 -147 -16 -34 -26
-75 -26 -100 0 -24 -4 -38 -8 -32 -12 19 -22 -115 -14 -187 14 -129 66 -242
157 -340 59 -62 63 -65 69 -43 5 24 18 27 54 13 18 -7 19 -6 6 9 -14 18 -10
33 7 23 12 -7 72 -97 72 -107 0 -4 -8 -9 -17 -12 -27 -6 23 -24 99 -37 110
-17 248 15 342 80 78 53 169 163 154 183 -2 2 5 12 15 22 14 13 15 20 6 25 -6
5 -9 17 -6 29 3 12 1 23 -4 27 -11 7 -9 84 3 84 5 0 4 8 -1 19 -6 10 -13 110
-17 222 -5 142 -11 212 -21 232 -21 43 -38 33 -36 -21 1 -8 -5 -11 -13 -8 -12
5 -13 -5 -8 -52 3 -31 6 -68 5 -81 -1 -13 4 -30 10 -37 8 -10 8 -22 0 -45 -6
-18 -11 -45 -11 -60 0 -33 -16 -47 -24 -21 -3 10 -8 51 -10 92 -2 41 -9 76
-15 78 -6 2 -11 8 -11 13 0 6 5 7 11 3 7 -4 9 2 7 17 -5 39 -24 32 -21 -8 8
-93 10 -109 18 -127 6 -13 5 -21 -3 -24 -8 -2 -9 -9 -2 -22 6 -10 6 -21 2 -24
-5 -3 -8 -35 -7 -71 2 -56 0 -66 -14 -63 -13 3 -16 19 -18 93 -1 50 -2 94 -3
98 0 5 -4 6 -9 3 -5 -3 -9 4 -9 17 -1 51 -11 165 -20 211 -6 31 -6 63 0 84 5
18 7 41 4 49 -4 11 -2 13 9 9 22 -8 14 30 -11 49 -37 28 -54 19 -55 -27z m211
-188 c0 -5 -4 -10 -10 -10 -5 0 -10 5 -10 10 0 6 5 10 10 10 6 0 10 -4 10 -10z
m-720 -50 c0 -5 -4 -10 -10 -10 -5 0 -10 5 -10 10 0 6 5 10 10 10 6 0 10 -4
10 -10z m686 -288 c-11 -10 -15 4 -8 28 l7 25 3 -23 c2 -13 1 -26 -2 -30z
m-566 -2 c0 -16 -4 -30 -8 -30 -5 0 -7 14 -4 30 2 17 6 30 8 30 2 0 4 -13 4
-30z m-103 -25 c3 -9 -2 -22 -13 -30 -24 -17 -27 -14 -18 19 7 29 22 34 31 11z
m343 -335 c0 -5 -4 -10 -10 -10 -5 0 -10 5 -10 10 0 6 5 10 10 10 6 0 10 -4
10 -10z"/>
<path d="M6285 2540 c3 -5 8 -10 11 -10 2 0 4 5 4 10 0 6 -5 10 -11 10 -5 0
-7 -4 -4 -10z"/>
<path d="M6321 2528 c0 -13 3 -17 6 -10 4 10 8 10 19 1 8 -6 14 -7 14 -3 0 5
-9 15 -20 22 -18 11 -20 10 -19 -10z"/>
<path d="M6291 2424 c0 -11 3 -14 6 -6 3 7 2 16 -1 19 -3 4 -6 -2 -5 -13z"/>
<path d="M5923 2373 c-20 -7 -15 -23 5 -17 9 3 6 -1 -7 -9 l-25 -15 32 -7 c37
-8 52 -1 52 25 0 24 -28 35 -57 23z"/>
<path d="M6024 2365 c-9 -22 4 -35 37 -35 34 0 40 19 7 21 -17 1 -19 2 -5 6
26 7 20 23 -8 23 -14 0 -28 -7 -31 -15z"/>
<path d="M6131 2274 c0 -11 3 -14 6 -6 3 7 2 16 -1 19 -3 4 -6 -2 -5 -13z"/>
<path d="M5847 2235 c4 -16 7 -43 7 -59 -1 -26 0 -27 11 -13 17 23 28 21 20
-3 -5 -15 -3 -18 8 -14 9 3 28 -13 52 -45 23 -32 44 -51 57 -51 27 0 58 18 58
34 0 7 15 33 34 57 36 48 51 84 38 93 -4 2 -17 -7 -28 -21 -52 -72 -66 -83
-99 -83 -25 0 -42 9 -74 42 -22 24 -41 49 -41 57 0 12 -3 12 -12 3 -10 -10
-15 -7 -25 10 -12 22 -13 21 -6 -7z"/>
<path d="M5974 2243 c0 -10 -4 -18 -11 -18 -16 0 -38 -23 -30 -31 3 -3 20 -1
37 5 25 8 39 7 66 -4 l34 -14 0 28 c0 16 -8 35 -17 42 -16 13 -17 12 -4 -3 12
-16 11 -18 -3 -18 -9 0 -16 7 -16 15 0 10 -10 15 -29 15 -21 0 -28 -5 -27 -17z"/>
<path d="M5980 2170 c0 -5 9 -10 20 -10 11 0 20 5 20 10 0 6 -9 10 -20 10 -11
0 -20 -4 -20 -10z"/>
<path d="M6455 2080 c-3 -5 -1 -10 4 -10 6 0 11 5 11 10 0 6 -2 10 -4 10 -3 0
-8 -4 -11 -10z"/>
<path d="M3371 2054 c-86 -23 -165 -71 -234 -143 -74 -76 -120 -160 -148 -269
-82 -322 122 -663 424 -705 33 -5 37 -3 37 15 0 12 -8 45 -17 74 -17 56 -14
75 11 55 12 -10 16 -8 21 9 8 25 42 40 89 40 19 0 39 7 46 15 7 8 16 13 20 10
4 -3 10 2 14 10 7 18 56 20 57 3 6 -81 12 -124 19 -139 7 -12 4 -24 -12 -45
l-22 -28 54 30 c126 67 237 212 275 359 19 76 19 224 0 300 -76 299 -360 483
-634 409z m157 -203 c29 -8 42 -17 42 -29 0 -10 5 -23 12 -30 9 -9 9 -12 -2
-12 -10 0 -9 -5 4 -19 25 -28 13 -58 -27 -65 -27 -5 -37 -14 -51 -46 -19 -44
-31 -50 -41 -21 -6 20 -52 41 -91 41 -21 0 -22 3 -18 52 4 35 13 61 30 81 13
15 24 32 24 36 0 11 42 30 60 27 8 -2 34 -8 58 -15z m107 -191 c4 -6 -6 -7
-27 -3 -44 8 -48 13 -10 13 17 0 34 -4 37 -10z m-103 -25 c-2 -14 0 -25 7 -25
5 0 8 6 5 14 -3 8 -1 17 4 20 5 3 12 -3 15 -13 3 -12 17 -20 44 -24 22 -4 45
-13 51 -20 21 -24 23 -99 6 -154 -18 -57 -24 -62 -45 -37 -7 9 -22 20 -33 24
-16 6 -23 22 -32 76 -6 38 -17 83 -24 100 -7 17 -10 38 -7 48 10 24 15 19 9
-9z m-172 1 c0 -2 -7 -7 -16 -10 -8 -3 -12 -2 -9 4 6 10 25 14 25 6z m55 -15
c3 -5 1 -12 -5 -16 -5 -3 -10 1 -10 9 0 18 6 21 15 7z m260 -1 c3 -5 1 -10 -4
-10 -6 0 -11 5 -11 10 0 6 2 10 4 10 3 0 8 -4 11 -10z m-252 -49 c-3 -11 -13
-27 -23 -36 -21 -19 -16 -62 6 -44 11 9 13 2 10 -35 -2 -32 -8 -51 -22 -60
-24 -18 -28 -12 -47 72 -13 57 -13 64 4 92 14 22 26 30 48 30 24 0 28 -3 24
-19z m77 -65 c0 -8 8 -20 18 -27 9 -8 15 -13 13 -11 -2 1 -13 -5 -23 -14 -14
-13 -21 -14 -32 -5 -11 9 -12 19 -3 46 10 32 27 39 27 11z m83 -163 c-4 -10
-2 -14 4 -10 15 10 22 -37 7 -50 -6 -7 -20 -13 -30 -15 -15 -2 -18 2 -16 25 3
24 0 27 -25 28 -15 1 -36 1 -45 0 -10 -1 -18 2 -18 8 0 12 25 19 85 24 22 2
41 4 42 5 1 1 -1 -5 -4 -15z m-115 -70 c5 -18 -34 -17 -41 1 -4 9 2 13 16 12
11 -1 22 -7 25 -13z m292 -198 c-14 -26 -30 -33 -30 -13 0 14 31 50 38 43 3
-3 -1 -16 -8 -30z"/>
<path d="M6474 2025 c-5 -11 -3 -20 4 -23 7 -2 12 -13 13 -25 1 -17 3 -16 10
8 6 22 5 34 -6 44 -12 13 -15 12 -21 -4z"/>
<path d="M8500 1970 c0 -7 -8 -9 -19 -5 -11 3 -25 -1 -34 -10 -12 -11 -17 -12
-20 -2 -4 8 -8 9 -14 1 -4 -6 -20 -14 -35 -18 -19 -4 -28 -13 -28 -27 0 -15
-5 -19 -22 -17 -20 3 -22 -2 -24 -51 -1 -30 -7 -57 -12 -60 -19 -13 -30 -48
-29 -99 1 -59 6 -57 31 10 13 35 23 48 44 53 16 4 28 2 30 -4 6 -18 23 -13 43
13 24 30 72 46 124 42 22 -2 54 -4 72 -5 43 -1 71 -42 77 -112 2 -31 16 -76
30 -104 39 -75 44 -133 16 -190 -17 -34 -20 -49 -11 -58 16 -16 14 -57 -4 -63
-8 -4 -15 -12 -15 -20 0 -15 -39 -59 -41 -46 -1 4 0 17 1 30 1 12 -3 22 -9 22
-6 0 -11 -6 -11 -13 0 -8 -9 -22 -19 -31 -11 -10 -23 -31 -26 -47 -7 -30 -72
-91 -115 -107 -21 -8 -31 -5 -57 17 -18 15 -38 41 -44 59 -6 17 -20 34 -30 37
-11 4 -25 16 -30 28 -8 18 -9 17 -4 -7 4 -17 15 -42 26 -57 10 -15 19 -31 19
-36 0 -4 16 -25 35 -45 25 -28 42 -38 64 -38 19 0 34 -7 40 -18 8 -15 19 -17
77 -12 40 3 69 11 72 18 2 7 10 12 18 12 8 0 11 6 7 17 -5 13 -2 15 11 10 10
-4 15 -3 11 4 -9 14 14 39 37 39 11 0 16 5 13 11 -4 5 0 18 9 27 21 24 28 83
30 247 1 130 3 142 25 173 20 28 22 40 16 80 -4 26 -12 51 -18 55 -9 6 -9 10
-1 13 14 6 -1 87 -17 92 -5 2 -9 9 -9 15 0 7 -8 21 -17 32 -14 18 -15 18 -9 2
4 -13 2 -17 -6 -14 -7 2 -12 9 -11 15 1 5 -4 12 -11 15 -10 4 -12 -1 -8 -15 3
-15 1 -19 -9 -16 -8 3 -13 12 -13 21 1 9 -2 14 -8 11 -13 -8 -38 15 -32 30 5
13 -51 69 -78 79 -9 3 -18 1 -20 -4 -2 -6 -16 -1 -31 11 -15 12 -27 16 -27 10z"/>
<path d="M6482 1930 c0 -14 2 -19 5 -12 2 6 2 18 0 25 -3 6 -5 1 -5 -13z"/>
<path d="M8169 1924 c-11 -14 -10 -16 9 -12 13 1 23 7 23 13 1 17 -17 16 -32
-1z"/>
<path d="M8262 1590 c0 -19 2 -27 5 -17 2 9 2 25 0 35 -3 9 -5 1 -5 -18z"/>
<path d="M8510 1569 c-33 -12 -58 -49 -34 -49 14 0 14 -3 4 -15 -7 -9 -11 -16
-9 -18 56 -32 59 -33 59 -11 0 12 3 14 13 6 14 -12 82 -1 82 13 0 6 -21 11
-48 13 -26 2 -45 7 -42 12 3 4 -5 6 -17 2 -14 -3 -19 -2 -14 6 11 18 98 15
125 -5 18 -12 23 -13 19 -2 -7 21 -68 59 -92 58 -12 0 -32 -5 -46 -10z"/>
<path d="M8282 1528 c-7 -7 -12 -20 -12 -31 0 -17 1 -17 16 -3 18 18 50 21 59
6 4 -6 -10 -17 -29 -25 -20 -9 -36 -20 -36 -25 0 -15 37 -12 43 3 4 10 6 10 6
0 1 -7 9 -13 19 -13 14 0 15 -2 2 -10 -13 -9 -13 -10 0 -10 18 0 50 34 50 53
0 7 -11 25 -25 40 -27 29 -72 36 -93 15z"/>
<path d="M5612 1313 c-2 -54 -14 -66 -41 -40 -11 10 -13 9 -9 -3 6 -20 47 -25
54 -7 3 8 4 34 1 58 -3 44 -4 43 -5 -8z"/>
<path d="M5818 1344 c-5 -26 3 -94 11 -94 7 0 5 99 -2 107 -3 2 -7 -3 -9 -13z"/>
<path d="M6058 1318 c5 -71 10 -77 11 -15 0 31 -2 57 -7 57 -4 0 -6 -19 -4
-42z"/>
<path d="M8429 1333 c-1 -5 -1 -12 0 -16 1 -4 -7 -3 -18 3 -28 14 -31 13 -31
-15 0 -23 3 -25 48 -24 26 1 58 4 72 8 21 6 22 8 8 14 -10 3 -18 13 -18 22 0
10 -10 15 -30 15 -16 0 -31 -3 -31 -7z"/>
<path d="M5654 1290 c1 -31 4 -35 29 -36 25 -1 27 1 26 40 l-2 41 -6 -35 c-8
-48 -38 -54 -44 -8 l-4 33 1 -35z"/>
<path d="M5737 1323 c-13 -12 -7 -24 18 -33 34 -13 33 -34 -1 -26 -17 5 -23 3
-19 -4 10 -16 45 -12 52 7 4 9 2 18 -4 20 -5 2 -19 11 -29 19 -18 15 -18 15 8
11 15 -2 25 0 22 4 -6 11 -38 12 -47 2z"/>
<path d="M5902 1288 l1 -43 4 38 c3 28 9 37 23 37 14 0 20 -9 23 -32 4 -33 4
-33 3 2 -1 30 -5 35 -28 38 -27 3 -28 2 -26 -40z"/>
<path d="M6121 1314 c0 -11 3 -14 6 -6 3 7 2 16 -1 19 -3 4 -6 -2 -5 -13z"/>
<path d="M6160 1323 c0 -4 5 -15 10 -23 8 -13 10 -13 10 2 0 9 -4 20 -10 23
-5 3 -10 3 -10 -2z"/>
<path d="M6203 1315 c-3 -9 -3 -18 -1 -21 3 -3 8 4 11 16 6 23 -1 27 -10 5z"/>
<path d="M6243 1290 c0 -25 2 -35 4 -22 2 12 2 32 0 45 -2 12 -4 2 -4 -23z"/>
<path d="M6275 1310 c-9 -29 4 -60 25 -60 10 0 21 4 24 9 4 5 -3 7 -14 4 -25
-7 -38 22 -21 48 6 11 7 19 2 19 -5 0 -13 -9 -16 -20z"/>
<path d="M6315 1320 c3 -5 8 -10 11 -10 2 0 4 5 4 10 0 6 -5 10 -11 10 -5 0
-7 -4 -4 -10z"/>
<path d="M6354 1305 c-4 -15 -1 -32 6 -40 13 -16 50 -21 50 -7 0 5 -10 8 -21
8 -12 -1 -24 5 -26 12 -3 8 6 12 27 12 25 0 31 3 26 16 -3 9 -6 18 -6 20 0 2
-11 4 -25 4 -18 0 -26 -7 -31 -25z m51 5 c4 -6 -5 -10 -20 -10 -15 0 -24 4
-20 10 3 6 12 10 20 10 8 0 17 -4 20 -10z"/>
<path d="M8568 1301 c-8 -11 -32 -25 -54 -30 l-39 -9 37 -1 c20 -1 40 -6 43
-11 4 -7 12 -7 25 0 13 7 20 6 23 -3 3 -6 6 2 6 19 1 43 -22 62 -41 35z"/>
<path d="M8038 1303 c17 -2 47 -2 65 0 17 2 3 4 -33 4 -36 0 -50 -2 -32 -4z"/>
<path d="M6150 1291 c0 -7 -4 -9 -10 -6 -12 8 -13 -5 -1 -23 6 -10 10 -8 14 9
4 13 4 25 2 28 -3 2 -5 -1 -5 -8z"/>
<path d="M8325 1265 c4 -34 35 -93 35 -67 0 8 8 10 23 7 22 -6 23 -4 19 23 -3
23 -8 29 -23 25 -11 -3 -19 0 -19 6 0 7 -4 9 -10 6 -5 -3 -10 3 -10 14 0 12
-4 21 -10 21 -5 0 -8 -16 -5 -35z"/>
<path d="M6180 1266 c0 -9 5 -16 10 -16 6 0 10 4 10 9 0 6 -4 13 -10 16 -5 3
-10 -1 -10 -9z"/>
<path d="M8080 1185 c0 -8 5 -15 10 -15 6 0 10 7 10 15 0 8 -4 15 -10 15 -5 0
-10 -7 -10 -15z"/>
<path d="M8435 1140 c3 -5 15 -10 26 -10 10 0 19 5 19 10 0 6 -12 10 -26 10
-14 0 -23 -4 -19 -10z"/>
<path d="M8130 1093 c0 -5 11 -20 25 -33 25 -23 25 -23 40 -4 20 27 19 34 -9
34 -13 0 -31 3 -40 6 -9 3 -16 2 -16 -3z"/>
<path d="M8290 1071 c0 -10 3 -33 6 -50 l7 -32 28 33 c32 38 36 53 13 62 -31
12 -54 6 -54 -13z"/>
<path d="M3535 940 c-3 -5 -1 -10 4 -10 6 0 11 5 11 10 0 6 -2 10 -4 10 -3 0
-8 -4 -11 -10z"/>
<path d="M8046 699 c-7 -19 -17 -45 -20 -59 -6 -21 -5 -22 4 -7 14 22 56 22
64 1 4 -9 9 -15 11 -12 5 5 -27 93 -38 104 -4 4 -13 -8 -21 -27z m34 -26 c0
-7 -7 -13 -15 -13 -15 0 -21 31 -8 43 8 8 23 -12 23 -30z"/>
<path d="M8612 673 l1 -58 6 45 6 45 25 -42 c14 -24 28 -43 33 -43 4 0 6 26 5
58 l-1 57 -6 -45 -6 -45 -25 42 c-14 24 -28 43 -32 43 -5 0 -7 -26 -6 -57z"/>
<path d="M3129 720 c0 -3 -2 -30 -4 -60 -3 -45 -2 -48 4 -15 6 37 7 39 19 20
12 -19 13 -18 6 5 -7 27 -23 58 -25 50z"/>
<path d="M3206 704 c-8 -22 -8 -26 3 -19 6 3 12 -14 14 -37 3 -42 4 -42 5 9 2
51 -10 77 -22 47z"/>
<path d="M3393 660 c0 -36 2 -55 4 -42 5 28 19 28 33 1 7 -11 14 -18 17 -16 3
3 -2 16 -11 28 -12 18 -13 26 -3 38 7 10 4 9 -10 -2 -22 -19 -22 -19 -26 20
-2 22 -4 10 -4 -27z"/>
<path d="M3530 704 c-29 -34 -8 -104 31 -104 26 0 49 28 49 60 0 51 -52 79
-80 44z m59 -8 c17 -20 10 -67 -11 -79 -23 -15 -48 8 -48 42 0 45 35 66 59 37z"/>
<path d="M8218 710 c-5 -17 3 -90 11 -90 3 0 5 21 4 46 -1 46 -8 65 -15 44z"/>
<path d="M8162 688 c9 -7 19 -26 21 -43 3 -21 4 -18 3 10 -1 31 -5 41 -21 43
-18 4 -19 3 -3 -10z"/>
<path d="M8270 685 c-13 -16 -6 -65 10 -65 6 0 5 8 -1 19 -15 22 -5 51 16 51
22 0 31 -29 16 -52 -10 -16 -10 -19 1 -16 18 6 22 46 8 64 -16 18 -34 18 -50
-1z"/>
<path d="M8363 693 c-8 -2 -12 -20 -12 -41 l2 -37 6 35 c9 51 38 53 44 3 l4
-38 -1 40 c-1 40 -14 51 -43 38z"/>
<path d="M8443 660 c0 -25 2 -35 4 -22 2 12 2 32 0 45 -2 12 -4 2 -4 -23z"/>
<path d="M8478 675 c-10 -22 -9 -28 7 -43 18 -16 18 -16 6 0 -16 22 -5 60 17
56 21 -4 28 -47 10 -60 -10 -8 -10 -9 2 -5 10 2 15 16 15 38 0 28 -4 35 -22
37 -17 2 -26 -4 -35 -23z"/>
<path d="M8724 686 c-9 -22 -1 -59 14 -62 7 -1 8 0 2 3 -17 8 -11 21 13 25 30
4 30 42 -1 46 -13 2 -24 -3 -28 -12z m46 -11 c0 -8 -9 -15 -20 -15 -20 0 -26
11 -13 23 12 13 33 7 33 -8z"/>
<path d="M8801 695 c1 -19 18 -51 18 -35 0 8 -4 22 -9 30 -5 8 -9 11 -9 5z"/>
<path d="M8845 671 c-4 -17 -11 -31 -16 -31 -5 0 -9 -4 -9 -10 0 -5 4 -10 9
-10 11 0 36 69 28 76 -3 3 -8 -8 -12 -25z"/>
<path d="M8890 686 c-14 -18 -10 -59 8 -62 7 -1 8 0 2 3 -19 9 -10 20 20 27
27 5 30 8 20 26 -13 24 -33 26 -50 6z m40 -11 c0 -8 -9 -15 -20 -15 -20 0 -26
11 -13 23 12 13 33 7 33 -8z"/>
<path d="M8978 693 c-14 -3 -18 -14 -17 -41 1 -28 3 -31 6 -12 3 14 12 33 20
43 9 9 14 16 12 16 -2 -1 -12 -3 -21 -6z"/>
<path d="M3266 681 c-3 -5 3 -7 14 -4 13 4 20 0 20 -10 0 -8 -12 -18 -26 -21
-37 -10 -28 -41 12 -41 29 -1 30 0 24 40 -5 39 -30 59 -44 36z m34 -50 c0 -14
-18 -23 -30 -16 -6 4 -8 11 -5 16 8 12 35 12 35 0z"/>
<path d="M3667 683 c6 -4 13 -24 16 -43 4 -34 4 -33 3 4 -1 26 -6 41 -16 43
-10 3 -11 2 -3 -4z"/>
<path d="M3732 678 c-20 -20 -15 -66 8 -73 22 -7 40 1 40 17 0 7 -5 6 -15 -2
-19 -16 -35 -4 -35 25 0 29 16 41 35 25 9 -7 15 -8 15 -2 0 5 -7 13 -16 16
-20 8 -18 8 -32 -6z"/>
<path d="M3810 676 c-25 -31 13 -97 40 -70 8 8 4 10 -11 10 -12 -1 -24 5 -26
12 -3 7 5 12 21 12 19 0 26 5 26 19 0 10 -7 22 -16 25 -21 8 -20 8 -34 -8z
m38 -14 c2 -7 -6 -12 -17 -12 -21 0 -27 11 -14 24 9 9 26 2 31 -12z"/>
<path d="M8133 655 c0 -22 2 -30 4 -17 2 12 2 30 0 40 -3 9 -5 -1 -4 -23z"/>
<path d="M3341 638 c2 -35 3 -37 6 -13 3 17 9 36 15 43 8 9 6 12 -6 12 -12 0
-16 -9 -15 -42z"/>
<path d="M3630 638 c0 -49 5 -47 13 5 3 20 2 37 -4 37 -5 0 -9 -19 -9 -42z"/>
<path d="M3187 649 c-3 -11 -10 -18 -16 -14 -13 7 -14 -5 -2 -23 6 -10 12 -5
21 18 7 17 10 33 8 36 -3 3 -8 -5 -11 -17z"/>
<path d="M8765 630 c-3 -5 -1 -10 4 -10 6 0 11 5 11 10 0 6 -2 10 -4 10 -3 0
-8 -4 -11 -10z"/>
<path d="M8925 630 c-3 -5 -1 -10 4 -10 6 0 11 5 11 10 0 6 -2 10 -4 10 -3 0
-8 -4 -11 -10z"/>
</g>
</svg>
