<?xml version="1.0" standalone="no"?>
<!DOCTYPE svg PUBLIC "-//W3C//DTD SVG 20010904//EN"
 "http://www.w3.org/TR/2001/REC-SVG-20010904/DTD/svg10.dtd">
<svg version="1.0" xmlns="http://www.w3.org/2000/svg"
 width="640.000000pt" height="608.000000pt" viewBox="0 0 640.000000 608.000000"
 preserveAspectRatio="xMidYMid meet">

<g transform="translate(0.000000,608.000000) scale(0.100000,-0.100000)"
fill="#000000" stroke="none">
<path d="M3165 5962 c-38 -124 -84 -219 -130 -271 l-37 -40 21 -30 c41 -57 54
-142 47 -301 -4 -80 -10 -156 -13 -169 -4 -17 -2 -22 8 -19 8 2 18 22 23 44
31 141 49 202 76 259 17 36 35 65 40 65 5 0 23 -29 40 -65 27 -57 45 -118 76
-259 5 -22 15 -42 23 -44 10 -3 12 2 8 19 -3 13 -9 89 -13 169 -7 159 6 244
47 301 l21 30 -37 41 c-45 49 -103 171 -136 285 -13 46 -26 83 -29 83 -3 0
-18 -44 -35 -98z"/>
<path d="M2769 5607 c-62 -41 -99 -118 -99 -203 0 -59 25 -136 81 -246 54
-107 59 -122 29 -90 -29 30 -66 28 -101 -7 -32 -32 -36 -57 -16 -85 13 -17 14
-16 26 13 21 49 42 40 118 -53 13 -16 31 -26 48 -26 22 0 30 -9 55 -62 15 -35
31 -79 35 -98 7 -35 7 -35 -26 15 -48 71 -117 115 -181 115 -97 0 -138 -47
-139 -162 0 -99 -16 -142 -51 -146 -34 -4 -36 -25 -6 -46 32 -23 54 -20 78 12
19 23 21 36 17 82 -4 45 -3 51 6 36 7 -10 22 -31 34 -45 28 -32 30 -10 4 28
l-19 27 33 -4 c65 -8 113 80 67 121 -30 27 -42 21 -29 -13 15 -38 1 -64 -37
-68 -38 -5 -56 14 -56 57 1 82 83 116 175 71 51 -25 79 -54 99 -102 l16 -36
-48 1 c-53 2 -64 -15 -22 -36 43 -21 70 -73 70 -134 0 -53 1 -54 27 -51 21 2
29 11 40 45 17 50 73 103 110 103 22 0 24 2 12 16 -9 11 -23 14 -46 11 -18 -3
-33 -3 -33 0 0 19 77 94 115 113 l45 22 45 -22 c38 -19 115 -94 115 -113 0 -3
-15 -3 -33 0 -23 3 -37 0 -46 -11 -12 -14 -10 -16 12 -16 37 0 93 -53 110
-103 11 -34 19 -43 40 -45 26 -3 27 -2 27 51 0 61 27 113 70 134 42 21 31 38
-22 36 l-48 -1 16 36 c20 48 48 77 99 102 92 44 174 11 175 -70 0 -45 -15 -60
-57 -60 -27 0 -34 5 -39 26 -4 14 -2 36 5 50 13 30 -7 34 -32 6 -42 -47 4
-128 68 -120 l33 4 -19 -27 c-26 -38 -24 -60 4 -28 12 14 27 35 34 45 9 15 10
9 6 -36 -4 -46 -2 -59 17 -82 24 -32 46 -35 78 -12 30 21 28 42 -5 46 -36 4
-52 47 -52 146 -1 115 -42 162 -139 162 -64 0 -133 -44 -181 -115 -33 -50 -33
-50 -26 -15 4 19 20 63 35 98 25 53 33 62 55 62 17 0 35 10 48 26 76 93 97
102 118 53 12 -29 13 -30 26 -13 20 28 16 53 -16 85 -35 35 -72 37 -101 7 -30
-32 -25 -18 29 90 77 153 95 236 71 323 -23 83 -94 149 -160 149 -67 0 -112
-57 -90 -114 12 -32 42 -48 71 -38 21 8 20 9 -15 30 -21 12 -36 29 -36 40 0
25 31 52 59 52 28 0 81 -51 81 -79 0 -11 -14 -57 -30 -102 -41 -109 -38 -139
15 -158 22 -8 42 -16 44 -17 5 -5 -61 -144 -69 -144 -4 0 -11 11 -14 24 -6 25
-58 56 -93 56 -19 0 -40 -18 -57 -48 -6 -10 0 -12 28 -7 32 6 37 4 45 -16 5
-16 3 -41 -6 -74 -8 -27 -12 -65 -9 -84 4 -26 -3 -57 -24 -113 -17 -43 -30
-90 -30 -105 -1 -58 -18 3 -35 127 -10 69 -22 129 -26 134 -20 23 -20 -12 0
-131 26 -157 26 -151 -2 -116 -71 84 -97 127 -97 154 0 26 -55 118 -70 118
-15 0 -70 -92 -70 -118 0 -27 -26 -70 -97 -154 -28 -35 -28 -41 -2 116 20 119
20 154 0 131 -4 -5 -16 -65 -26 -134 -17 -124 -34 -185 -35 -127 0 15 -13 62
-30 105 -21 56 -28 87 -24 113 3 19 -1 57 -9 84 -20 68 -8 100 33 91 21 -4 30
-2 30 8 0 18 -33 46 -54 46 -34 0 -86 -32 -92 -56 -3 -13 -10 -24 -14 -24 -8
0 -74 139 -69 144 2 1 22 9 44 17 53 19 56 49 15 158 -16 45 -30 91 -30 102 0
28 53 79 83 79 27 0 57 -28 57 -54 0 -9 -16 -26 -36 -38 -35 -21 -36 -22 -15
-30 29 -10 59 6 71 38 33 86 -76 148 -161 91z m535 -821 c26 -35 46 -66 46
-70 0 -3 -20 9 -45 28 -50 38 -91 51 -135 41 -17 -4 -51 -22 -75 -41 -25 -19
-45 -31 -45 -28 0 4 20 35 46 70 l45 64 59 0 59 0 45 -64z"/>
<path d="M3165 5126 c-17 -12 -17 -13 8 -20 15 -3 39 -3 54 0 25 7 25 8 8 20
-11 8 -26 14 -35 14 -9 0 -24 -6 -35 -14z"/>
<path d="M3014 5102 c-39 -38 18 -108 66 -82 24 13 36 55 21 74 -17 21 -70 25
-87 8z"/>
<path d="M3338 5112 c-35 -4 -52 -26 -44 -57 8 -33 38 -48 71 -35 30 11 39 31
31 64 -7 27 -19 33 -58 28z"/>
<path d="M2702 4587 c-18 -22 -3 -57 24 -57 28 0 42 25 27 49 -13 21 -37 25
-51 8z"/>
<path d="M3650 4585 c-19 -22 -8 -50 21 -53 20 -2 28 2 32 19 11 40 -27 65
-53 34z"/>
<path d="M2863 4520 c-40 -24 -42 -52 -8 -86 54 -54 148 -71 185 -34 24 24 27
82 4 104 -22 22 -27 20 -20 -8 5 -19 0 -29 -16 -40 -30 -21 -56 -20 -95 4 -37
22 -40 35 -16 62 21 24 6 23 -34 -2z"/>
<path d="M3503 4522 c24 -27 21 -40 -15 -62 -40 -24 -66 -25 -96 -4 -16 11
-21 21 -16 40 7 28 2 30 -20 8 -23 -22 -20 -80 4 -104 37 -37 131 -20 185 34
34 34 32 62 -7 86 -41 25 -56 26 -35 2z"/>
<path d="M3176 4517 c-10 -7 -16 -22 -14 -33 2 -14 12 -19 38 -19 26 0 36 5
38 19 4 17 -20 46 -38 46 -3 0 -14 -6 -24 -13z"/>
<path d="M2742 4508 c-18 -18 -14 -46 8 -53 28 -9 40 2 40 36 0 31 -25 40 -48
17z"/>
<path d="M3610 4491 c0 -34 12 -45 40 -36 36 12 18 65 -22 65 -13 0 -18 -8
-18 -29z"/>
<path d="M2783 4443 c-18 -7 -16 -42 3 -50 22 -8 37 11 29 36 -6 21 -11 23
-32 14z"/>
<path d="M3110 4435 c-10 -12 -10 -18 0 -30 17 -20 37 -19 48 3 19 37 -21 60
-48 27z"/>
<path d="M3237 4438 c-6 -18 11 -48 27 -48 8 0 19 7 26 15 10 12 10 18 0 30
-15 18 -47 20 -53 3z"/>
<path d="M3585 4429 c-8 -25 7 -44 29 -36 21 8 21 43 0 51 -22 8 -22 8 -29
-15z"/>
<path d="M2534 4402 c-42 -27 -71 -70 -84 -125 -13 -59 -4 -101 30 -137 52
-55 70 -30 20 27 -69 78 -6 214 100 217 91 2 145 -77 105 -154 -12 -23 -23
-30 -45 -30 -52 0 -76 45 -44 81 15 17 14 19 -11 25 -38 10 -59 -7 -63 -48 -6
-71 66 -119 131 -87 18 8 17 6 -5 -15 -15 -13 -59 -34 -98 -47 -114 -36 -153
-107 -93 -167 l28 -27 5 41 c9 60 31 88 105 129 70 39 115 85 115 117 0 17 4
19 30 13 16 -4 34 -4 39 -1 12 8 -44 108 -90 159 -32 36 -42 41 -90 44 -41 3
-61 0 -85 -15z"/>
<path d="M3734 4410 c-26 -10 -67 -60 -109 -132 -35 -61 -33 -73 15 -63 26 6
30 4 30 -13 0 -32 45 -78 115 -117 74 -41 96 -69 105 -129 l5 -41 28 27 c60
60 21 131 -93 167 -39 13 -83 34 -98 47 -22 21 -23 23 -5 15 65 -32 137 16
131 87 -4 41 -25 58 -63 48 -25 -6 -26 -8 -11 -25 32 -36 8 -81 -44 -81 -22 0
-33 7 -45 30 -40 77 14 156 104 154 49 -2 87 -28 112 -75 28 -56 25 -102 -11
-142 -16 -19 -30 -40 -30 -46 0 -39 74 31 84 79 14 72 -32 173 -94 205 -31 16
-92 19 -126 5z"/>
<path d="M3070 4361 c0 -27 19 -36 37 -18 18 18 9 37 -18 37 -12 0 -19 -7 -19
-19z"/>
<path d="M3284 4369 c-3 -6 0 -18 9 -26 18 -18 37 -9 37 18 0 21 -34 27 -46 8z"/>
<path d="M2952 4279 c7 -123 34 -193 93 -248 64 -59 73 -51 19 16 -69 85 -88
132 -91 233 -1 54 -6 86 -14 89 -9 3 -11 -20 -7 -90z"/>
<path d="M3430 4368 c0 -2 -2 -41 -3 -88 -3 -101 -22 -148 -91 -233 -54 -67
-45 -75 19 -16 59 55 86 126 93 247 3 65 1 92 -7 92 -6 0 -11 -1 -11 -2z"/>
<path d="M2895 4345 c-48 -135 -126 -223 -221 -251 -64 -19 -58 -30 11 -20 91
14 172 96 210 214 16 49 16 102 0 57z"/>
<path d="M3490 4347 c0 -27 39 -125 65 -166 35 -52 104 -98 160 -107 69 -10
75 1 11 20 -74 22 -144 85 -186 169 -16 33 -30 66 -30 73 0 7 -4 16 -10 19 -5
3 -10 0 -10 -8z"/>
<path d="M3171 4309 c-13 -5 -40 -22 -60 -38 -20 -15 -51 -36 -69 -45 -39 -20
-37 -39 3 -46 25 -4 30 -11 40 -60 6 -30 17 -66 24 -80 17 -31 84 -119 91
-119 7 0 74 88 91 119 7 14 18 50 24 80 10 49 15 56 40 60 42 7 41 26 -2 49
-21 12 -56 34 -78 50 -49 36 -73 42 -104 30z m59 -44 c29 -15 60 -60 60 -88 0
-8 -9 -22 -20 -32 -43 -39 -160 -16 -160 32 0 27 30 73 58 87 34 19 28 19 62
1z m-30 -185 c19 0 42 11 65 31 27 24 35 27 35 15 0 -27 -25 -68 -64 -105
l-36 -35 -36 35 c-39 37 -64 78 -64 105 0 12 8 9 35 -15 23 -20 46 -31 65 -31z"/>
<path d="M2878 4178 c-26 -52 -69 -119 -94 -147 -46 -51 -125 -101 -161 -101
-10 0 -24 -4 -32 -9 -12 -8 -2 -23 47 -76 97 -103 135 -197 145 -355 l2 -45
19 40 c55 121 76 155 129 207 33 33 86 71 122 89 l65 32 -35 38 c-94 105 -144
215 -154 343 l-6 79 -47 -95z m41 -65 c2 -40 41 -131 92 -208 27 -42 49 -77
49 -79 0 -2 -19 -15 -43 -29 -57 -33 -137 -120 -177 -191 l-33 -58 -18 70
c-19 74 -63 170 -111 239 l-29 42 42 21 c55 28 119 96 171 180 44 70 55 73 57
13z"/>
<path d="M2850 4013 c-30 -44 -31 -49 -19 -85 16 -49 6 -58 -29 -25 l-28 27
-34 -19 c-37 -21 -39 -28 -13 -67 16 -25 29 -26 77 -8 22 8 20 -8 -4 -38 -19
-25 -19 -28 -4 -79 9 -30 19 -57 23 -62 4 -4 22 14 40 40 32 44 32 48 20 85
-16 49 -5 59 28 26 l26 -27 39 22 c21 12 38 27 38 33 0 5 -13 23 -29 38 -28
27 -31 27 -52 12 -50 -34 -66 -10 -24 34 l26 27 -18 56 c-10 31 -21 57 -25 57
-4 0 -21 -21 -38 -47z"/>
<path d="M3470 4214 c0 -116 -44 -227 -134 -335 l-55 -67 64 -31 c36 -18 89
-57 122 -89 53 -52 74 -86 129 -207 l19 -40 2 45 c10 158 48 252 145 355 49
53 59 68 47 76 -8 5 -22 9 -32 9 -35 0 -115 50 -161 100 -25 29 -66 93 -92
143 -25 51 -47 94 -50 96 -2 2 -4 -22 -4 -55z m159 -233 c22 -22 58 -50 81
-61 l41 -21 -29 -42 c-48 -69 -92 -165 -111 -239 l-18 -70 -33 58 c-40 71
-120 158 -177 191 -24 14 -43 27 -43 29 0 2 22 37 49 79 49 74 91 168 91 203
0 9 3 27 6 40 6 20 12 14 54 -52 27 -41 66 -92 89 -115z"/>
<path d="M3487 4003 l-18 -56 26 -27 c42 -44 26 -68 -24 -34 -21 15 -24 15
-52 -12 -16 -15 -29 -33 -29 -38 0 -6 17 -21 38 -33 l39 -22 26 27 c33 33 44
23 28 -26 -12 -37 -12 -41 20 -85 18 -26 36 -44 40 -40 4 5 14 32 23 62 15 51
15 54 -4 79 -24 30 -26 46 -4 38 48 -18 61 -17 77 8 26 39 24 46 -13 67 l-34
19 -28 -27 c-35 -33 -45 -24 -29 25 12 36 11 41 -19 85 -17 26 -34 47 -38 47
-4 0 -15 -26 -25 -57z"/>
<path d="M648 4056 c-57 -20 -83 -41 -102 -79 -19 -41 -20 -61 -4 -90 17 -32
39 -46 74 -47 36 0 64 26 64 60 l0 24 -28 -27 c-34 -32 -67 -35 -82 -6 -17 31
-4 67 31 88 42 26 73 16 163 -54 88 -67 117 -71 147 -20 12 19 23 35 26 35 8
0 113 -103 113 -111 0 -5 -11 -9 -25 -9 -60 0 -106 -101 -61 -132 20 -14 26
-8 26 22 0 44 31 44 101 -1 25 -16 58 -29 73 -29 18 0 47 -17 87 -50 33 -28
73 -57 90 -65 16 -9 29 -17 29 -19 0 -4 -123 13 -205 29 -38 7 -74 10 -78 5
-15 -13 7 -19 138 -40 116 -17 166 -30 121 -30 -9 0 -44 -12 -78 -26 -44 -18
-75 -25 -112 -23 -41 2 -126 -14 -144 -27 -6 -4 59 -94 68 -94 18 0 71 -54
115 -116 25 -36 45 -67 45 -69 0 -3 -56 25 -126 61 -114 60 -146 72 -130 46 3
-5 56 -35 118 -66 62 -32 116 -61 120 -64 4 -4 -44 -7 -106 -7 -82 0 -117 4
-130 14 -9 8 -48 17 -87 20 -79 8 -97 22 -74 58 19 29 19 33 -3 33 -23 0 -47
-26 -55 -59 -7 -27 16 -91 32 -91 16 0 13 -17 -2 -23 -8 -3 -44 -8 -80 -12
l-67 -7 0 45 c0 65 -14 73 -131 69 -133 -4 -169 14 -169 87 0 34 31 64 62 59
18 -2 25 -12 34 -48 10 -43 11 -44 23 -22 20 37 6 71 -36 88 -98 42 -161 -89
-91 -192 67 -100 207 -135 395 -99 43 8 87 15 98 15 l20 -1 -20 -11 c-28 -16
-35 -28 -35 -66 0 -38 37 -82 69 -82 29 0 33 15 11 35 -11 10 -20 23 -20 30 0
20 32 42 77 54 26 7 51 23 66 42 26 33 72 48 154 49 55 0 64 -16 13 -25 -51
-9 -127 -59 -157 -104 -16 -24 -23 -49 -23 -83 0 -43 5 -55 33 -82 20 -21 57
-41 99 -55 91 -30 121 -55 113 -92 -6 -24 -3 -29 13 -29 26 0 52 31 52 63 0
31 -40 61 -99 73 l-36 7 43 11 c24 6 43 16 42 21 -1 11 -14 11 -48 1 -21 -7
-23 -6 -13 12 18 34 13 71 -14 97 -29 30 -66 32 -90 5 -18 -20 -17 -20 16 -20
42 0 59 -15 59 -50 0 -34 -17 -50 -53 -50 -36 0 -87 49 -87 84 0 84 96 176
185 176 37 0 44 -10 20 -30 -15 -13 -20 -51 -9 -63 4 -4 22 7 41 23 37 33 86
39 153 20 29 -8 37 -7 47 6 10 14 3 25 -43 69 -50 49 -54 57 -54 99 0 25 -4
46 -10 46 -13 0 -30 -34 -30 -62 -1 -23 -1 -23 -16 -3 -29 36 -64 119 -64 151
0 54 62 109 152 135 l28 8 -16 -31 c-15 -29 -13 -58 3 -58 5 0 13 10 18 22 17
37 57 58 123 64 55 6 62 9 62 29 0 17 -9 25 -40 34 -56 17 -110 70 -110 109 0
17 -4 33 -9 37 -16 9 -41 -25 -41 -56 0 -38 -11 -37 -50 7 -40 46 -50 73 -50
135 0 102 58 152 135 117 30 -13 41 -48 25 -77 -13 -25 -47 -27 -78 -5 -30 21
-40 10 -21 -24 21 -39 79 -43 114 -8 14 14 25 35 25 48 1 23 1 22 21 -4 21
-28 39 -36 39 -19 0 5 -12 23 -26 40 -29 35 -28 37 12 16 16 -8 45 -15 65 -15
62 0 91 57 49 95 -20 18 -21 18 -27 -4 -10 -40 -45 -44 -152 -15 -95 26 -99
26 -134 9 -97 -46 -106 -179 -21 -290 19 -25 31 -45 28 -45 -11 0 -68 43 -106
79 -32 29 -38 42 -38 76 -1 30 -8 49 -30 75 -48 56 -38 99 23 100 22 1 22 1
-2 20 -33 28 -68 25 -103 -10 -29 -30 -31 -38 -13 -85 5 -11 -34 21 -86 71
-107 102 -147 130 -222 150 -64 17 -91 17 -139 0z m677 -594 c-16 -11 -47 -38
-69 -62 -37 -41 -38 -45 -32 -93 4 -28 13 -66 21 -84 20 -47 3 -33 -50 42 -45
63 -46 64 -31 94 9 17 16 39 16 50 0 14 13 25 53 39 93 35 137 41 92 14z"/>
<path d="M5608 4056 c-70 -20 -113 -50 -217 -150 -52 -50 -91 -82 -86 -71 18
47 16 55 -13 85 -35 35 -70 38 -103 10 -24 -19 -24 -19 -2 -20 61 -1 71 -44
23 -100 -22 -26 -29 -45 -30 -75 0 -34 -6 -47 -37 -76 -39 -36 -96 -79 -107
-79 -3 0 9 20 28 45 85 111 76 244 -21 290 -35 17 -39 17 -132 -8 -107 -29
-138 -27 -152 11 -9 24 -10 24 -29 7 -64 -58 30 -124 114 -80 40 21 41 19 12
-16 -14 -17 -26 -35 -26 -40 0 -17 18 -9 39 19 19 25 20 25 21 6 0 -12 10 -33
21 -48 18 -23 28 -27 62 -24 33 2 44 9 56 30 19 34 9 45 -21 24 -31 -22 -65
-20 -78 5 -16 29 -5 64 25 77 77 35 135 -15 135 -117 0 -62 -10 -89 -50 -135
-39 -44 -50 -45 -50 -7 0 31 -25 65 -41 56 -5 -4 -9 -20 -9 -37 0 -39 -54 -92
-110 -109 -31 -9 -40 -17 -40 -34 0 -20 7 -23 63 -29 65 -6 105 -27 122 -64 5
-12 13 -22 18 -22 16 0 18 29 3 58 l-16 31 28 -8 c90 -26 152 -81 152 -135 0
-32 -35 -115 -64 -151 -15 -20 -15 -20 -16 3 0 28 -17 62 -30 62 -6 0 -10 -21
-10 -46 0 -42 -4 -50 -55 -98 -46 -45 -53 -55 -42 -70 10 -13 18 -14 47 -6 67
19 116 13 153 -20 19 -16 37 -27 41 -23 11 12 6 50 -9 63 -24 20 -17 30 20 30
89 0 185 -92 185 -176 0 -35 -51 -84 -87 -84 -36 0 -53 16 -53 50 0 35 17 50
59 50 33 0 34 0 16 20 -54 60 -144 -28 -104 -102 10 -18 8 -19 -13 -12 -33 10
-43 10 -46 -1 -2 -5 16 -15 40 -21 l43 -11 -36 -7 c-61 -13 -99 -41 -99 -74 0
-32 27 -62 54 -62 14 0 16 6 11 29 -8 37 22 62 113 92 42 14 79 34 100 55 27
27 32 39 32 82 0 34 -7 59 -23 83 -30 45 -106 95 -157 104 -51 9 -42 25 13 25
82 -1 128 -16 154 -49 15 -19 40 -35 66 -42 45 -12 77 -34 77 -54 0 -7 -9 -20
-20 -30 -22 -20 -18 -35 11 -35 32 0 69 44 69 82 0 38 -7 50 -35 66 l-20 11
20 1 c11 0 55 -7 98 -15 43 -8 107 -15 143 -15 148 0 270 83 281 192 4 49 -10
82 -48 111 -24 17 -31 18 -64 7 -46 -15 -64 -49 -45 -87 l13 -28 11 45 c9 35
16 46 34 48 31 5 62 -25 62 -59 0 -73 -36 -91 -169 -87 -117 4 -131 -4 -131
-69 l0 -45 -67 7 c-36 4 -72 9 -80 12 -15 6 -18 23 -2 23 16 0 39 64 32 91 -8
33 -32 59 -55 59 -22 0 -22 -4 -3 -34 24 -37 -1 -56 -73 -56 -39 0 -66 -6 -82
-17 -20 -15 -46 -18 -137 -18 -62 0 -109 3 -105 7 4 3 58 32 120 64 62 31 115
61 118 66 16 26 -16 14 -130 -46 -70 -36 -126 -64 -126 -61 0 2 20 33 45 69
44 62 97 116 115 116 9 0 74 90 68 94 -18 13 -103 29 -144 27 -37 -2 -68 5
-112 23 -34 14 -69 26 -78 26 -45 0 6 13 122 31 120 18 158 30 137 42 -4 3
-39 -1 -78 -8 -83 -16 -205 -33 -205 -29 0 2 13 10 29 19 17 8 57 37 90 65 40
33 69 50 87 50 15 0 48 13 73 29 70 45 101 45 101 1 0 -30 6 -36 26 -22 45 31
-1 132 -61 132 -14 0 -25 4 -25 9 0 8 105 111 113 111 3 0 14 -16 26 -35 30
-51 59 -47 147 20 90 70 121 80 163 54 35 -21 48 -57 31 -88 -15 -29 -48 -26
-82 6 l-28 27 0 -26 c0 -32 29 -58 66 -58 75 1 105 83 58 156 -38 57 -148 85
-236 60z m-440 -608 c41 -15 52 -24 52 -41 0 -12 7 -35 15 -51 15 -28 14 -30
-30 -92 -53 -74 -70 -88 -50 -41 8 18 17 56 21 84 6 48 5 52 -32 93 -22 24
-52 52 -69 62 l-30 19 35 -6 c19 -4 59 -16 88 -27z"/>
<path d="M2355 3963 c-36 -9 -37 -20 -3 -46 31 -24 35 -25 83 -13 l49 13 -42
27 c-42 26 -50 28 -87 19z"/>
<path d="M3955 3943 l-39 -26 49 -13 c48 -12 52 -11 83 13 38 28 33 39 -18 47
-27 4 -44 0 -75 -21z"/>
<path d="M2272 3898 c-20 -32 -20 -36 -5 -81 l16 -48 24 42 c19 35 23 49 16
78 -11 46 -27 49 -51 9z"/>
<path d="M4087 3923 c-19 -32 -16 -72 6 -112 l24 -42 16 48 c15 45 15 49 -4
80 -20 32 -33 40 -42 26z"/>
<path d="M1890 3914 c-90 -32 -121 -63 -134 -135 -8 -44 18 -94 86 -169 49
-53 68 -57 68 -14 0 19 5 24 25 24 42 0 89 25 149 79 61 56 88 66 147 58 47
-6 52 11 14 48 -17 18 -35 25 -61 25 -39 0 -67 -23 -147 -123 -38 -47 -72 -67
-43 -25 26 37 20 76 -18 114 -50 50 -86 44 -101 -19 -8 -29 -3 -32 24 -17 27
14 61 -14 61 -50 0 -44 -39 -67 -89 -52 -49 15 -71 41 -78 91 -18 133 192 197
250 76 19 -40 53 -50 41 -12 -12 38 -34 65 -68 81 -37 17 -104 28 -126 20z"/>
<path d="M4435 3913 c-66 -17 -103 -48 -119 -100 -12 -38 22 -28 41 12 58 121
268 57 250 -76 -7 -50 -29 -76 -78 -91 -50 -15 -89 8 -89 52 0 36 34 64 61 50
27 -15 32 -12 24 17 -15 63 -51 69 -101 19 -38 -38 -44 -77 -18 -114 29 -42
-5 -22 -43 25 -80 100 -108 123 -147 123 -26 0 -44 -7 -61 -25 -38 -37 -33
-54 14 -48 59 8 86 -2 147 -58 60 -54 107 -79 149 -79 20 0 25 -5 25 -24 0
-43 19 -39 68 14 92 100 107 157 63 233 -27 48 -127 86 -186 70z"/>
<path d="M2450 3880 c-37 -37 -26 -66 59 -154 85 -88 118 -135 85 -121 -53 21
-57 20 -51 -13 4 -18 3 -32 -2 -32 -15 0 -39 35 -79 116 -58 116 -107 149
-152 104 -30 -30 -27 -54 6 -46 28 7 41 -4 141 -121 33 -38 70 -69 100 -84 26
-12 49 -23 51 -24 1 -1 -2 -14 -7 -28 -13 -33 5 -47 24 -19 8 10 28 25 45 32
40 17 38 30 -5 30 -33 0 -35 2 -35 34 0 50 -23 106 -79 194 -53 82 -58 100
-41 133 9 16 7 19 -15 19 -14 0 -34 -9 -45 -20z"/>
<path d="M3890 3881 c17 -33 12 -51 -41 -133 -56 -88 -79 -144 -79 -194 0 -32
-2 -34 -35 -34 -43 0 -45 -13 -5 -30 17 -7 37 -22 45 -32 19 -28 37 -14 24 19
-5 14 -8 27 -7 28 2 1 25 12 51 24 30 15 67 46 100 84 100 117 113 128 141
121 33 -8 36 16 6 46 -45 45 -94 12 -152 -104 -40 -81 -64 -116 -79 -116 -5 0
-6 14 -2 32 6 33 2 34 -51 13 -33 -14 0 33 85 121 58 60 79 89 79 108 0 33
-32 66 -65 66 -22 0 -24 -3 -15 -19z"/>
<path d="M430 3796 c-53 -28 -137 -40 -277 -41 -79 0 -143 -1 -143 -2 0 -1 41
-30 91 -64 101 -70 194 -157 223 -211 l19 -36 82 6 c93 5 152 -9 322 -78 53
-22 104 -40 111 -40 28 0 -9 30 -89 71 -93 48 -227 165 -209 183 7 7 74 11
201 10 183 -1 235 7 147 21 -83 14 -282 76 -331 103 -28 15 -62 41 -76 59 -29
37 -35 38 -71 19z"/>
<path d="M5899 3778 c-14 -18 -48 -45 -76 -60 -49 -27 -248 -89 -331 -103 -88
-14 -36 -22 147 -21 127 1 194 -3 201 -10 18 -18 -116 -135 -209 -183 -80 -41
-117 -71 -89 -71 7 0 58 18 111 40 170 69 229 83 322 78 l82 -6 19 36 c29 54
122 141 223 211 50 34 91 64 91 66 0 2 -39 1 -87 -2 -101 -6 -239 8 -304 32
-24 9 -51 18 -59 21 -9 3 -26 -9 -41 -28z"/>
<path d="M1564 3755 c-10 -25 4 -45 31 -45 30 0 43 24 25 45 -16 19 -49 19
-56 0z"/>
<path d="M4781 3756 c-20 -24 -6 -48 26 -44 22 2 28 8 28 28 0 30 -35 40 -54
16z"/>
<path d="M2590 3733 c0 -5 22 -29 49 -55 33 -32 56 -66 70 -103 24 -64 40
-215 23 -215 -20 0 -127 43 -163 66 -47 30 -106 99 -114 134 -4 16 -13 34 -21
41 -11 9 -14 7 -14 -12 0 -37 55 -123 103 -163 71 -58 184 -99 216 -77 37 24
28 168 -16 257 -34 69 -133 164 -133 127z"/>
<path d="M3747 3700 c-76 -70 -123 -203 -106 -304 8 -47 23 -58 69 -50 94 16
193 85 240 167 32 56 42 109 16 88 -8 -7 -17 -25 -21 -41 -8 -35 -67 -104
-114 -134 -36 -23 -143 -66 -163 -66 -17 0 -1 151 23 215 14 37 37 71 70 103
27 26 49 50 49 55 0 16 -23 5 -63 -33z"/>
<path d="M3171 3689 c-13 -17 -52 -48 -87 -70 -71 -45 -114 -91 -114 -121 0
-14 -5 -18 -15 -14 -8 3 -22 9 -30 12 -22 9 -18 -10 14 -74 54 -107 124 -146
205 -115 23 8 48 15 56 15 8 0 33 -7 56 -15 81 -31 151 8 205 115 32 64 36 83
14 74 -8 -3 -22 -9 -30 -12 -10 -4 -15 0 -15 14 0 30 -43 76 -114 120 -34 22
-74 54 -89 71 -14 17 -27 31 -29 30 -2 0 -14 -14 -27 -30z m119 -95 c49 -25
91 -52 94 -60 5 -13 3 -13 -16 1 -55 38 -128 1 -128 -65 0 -44 20 -70 54 -70
34 0 38 11 11 32 -30 24 -31 42 -5 68 31 31 67 26 90 -12 25 -42 25 -74 0
-115 -34 -56 -119 -64 -172 -16 -16 15 -20 15 -36 0 -53 -48 -138 -40 -172 16
-25 41 -25 73 0 115 23 38 59 43 90 12 26 -26 25 -44 -5 -68 -27 -21 -23 -32
11 -32 34 0 54 26 54 70 0 66 -73 103 -128 65 -19 -14 -21 -14 -16 -1 4 11
164 104 182 106 2 0 44 -21 92 -46z"/>
<path d="M3180 3600 c0 -3 5 -12 10 -20 9 -13 11 -13 20 0 14 22 12 26 -10 26
-11 0 -20 -3 -20 -6z"/>
<path d="M1624 3695 c-10 -25 4 -45 30 -45 25 0 39 20 30 45 -4 8 -17 15 -30
15 -14 0 -27 -7 -30 -15z"/>
<path d="M4717 3696 c-11 -28 4 -47 32 -44 20 2 26 8 26 28 0 20 -6 26 -26 28
-17 2 -29 -3 -32 -12z"/>
<path d="M2067 3664 c-24 -47 -97 -107 -156 -128 -28 -10 -84 -21 -124 -25
-68 -7 -70 -8 -34 -15 82 -18 212 17 270 72 33 31 70 98 64 115 -2 7 -11 -2
-20 -19z"/>
<path d="M4311 3682 c-1 -22 36 -85 66 -114 58 -55 188 -90 270 -72 36 7 34 8
-34 15 -109 10 -170 36 -228 94 -27 28 -55 59 -62 70 -6 11 -12 14 -12 7z"/>
<path d="M2226 3642 c-20 -39 -90 -101 -140 -122 -48 -22 -180 -50 -230 -50
-19 0 -38 -4 -41 -10 -3 -5 2 -10 12 -10 26 0 143 -61 192 -100 47 -38 108
-116 140 -179 l22 -43 42 45 c86 90 197 145 312 154 112 8 116 12 40 38 -129
45 -223 129 -283 253 -30 59 -45 65 -66 24z m58 -81 c46 -63 127 -137 190
-175 58 -35 58 -35 30 -41 -130 -29 -212 -65 -273 -120 l-39 -35 -55 69 c-63
77 -121 128 -184 161 -24 12 -43 23 -43 25 0 1 33 10 73 20 90 22 181 63 227
103 19 17 37 31 40 31 3 0 18 -17 34 -38z"/>
<path d="M2206 3521 c-27 -28 -27 -31 -12 -52 18 -26 21 -49 7 -49 -5 0 -23
11 -39 25 -28 23 -30 24 -78 9 -26 -8 -52 -18 -56 -22 -9 -9 75 -72 97 -72 7
0 17 5 20 10 7 11 55 14 55 3 0 -4 -11 -19 -25 -33 -24 -25 -24 -26 -7 -60 20
-42 28 -43 71 -9 33 26 33 26 17 57 -9 17 -16 33 -16 37 0 11 23 4 51 -16 28
-20 30 -20 83 -3 30 10 53 21 50 26 -3 4 -26 22 -51 39 -43 30 -48 31 -80 20
-43 -16 -53 -8 -25 22 27 29 27 38 1 71 -26 33 -29 33 -63 -3z"/>
<path d="M4108 3618 c-61 -125 -155 -209 -284 -253 -77 -26 -72 -30 41 -38
115 -9 226 -64 312 -154 l42 -45 22 43 c32 63 93 141 140 179 49 39 166 100
192 100 10 0 15 5 12 10 -3 6 -22 10 -41 10 -50 0 -182 28 -230 50 -50 21
-120 83 -140 122 -21 41 -36 35 -66 -24z m86 -53 c53 -43 129 -77 224 -100 39
-10 72 -19 72 -20 0 -2 -19 -13 -42 -25 -64 -33 -122 -84 -185 -161 l-55 -69
-39 35 c-61 55 -143 91 -273 120 -28 6 -28 6 30 41 63 38 144 112 190 175 16
21 30 39 32 39 2 0 23 -16 46 -35z"/>
<path d="M4131 3524 c-26 -33 -26 -42 1 -71 28 -30 18 -38 -25 -22 -32 11 -37
10 -80 -20 -25 -17 -48 -35 -51 -39 -3 -5 20 -16 50 -26 53 -17 55 -17 83 3
28 20 51 27 51 16 0 -4 -7 -20 -16 -37 -16 -31 -16 -31 17 -57 43 -34 51 -33
71 9 17 34 17 35 -7 60 -14 14 -25 29 -25 33 0 11 48 8 55 -3 3 -5 13 -10 20
-10 22 0 106 63 97 72 -4 4 -30 14 -56 22 -48 15 -50 14 -78 -9 -16 -14 -34
-25 -39 -25 -14 0 -11 23 7 49 15 21 15 24 -12 52 -34 36 -37 36 -63 3z"/>
<path d="M1693 3653 c-18 -7 -16 -28 3 -43 12 -11 18 -10 31 3 13 13 14 19 3
31 -13 17 -17 18 -37 9z"/>
<path d="M4670 3644 c-11 -12 -10 -18 3 -31 13 -13 19 -14 31 -3 20 16 20 36
0 44 -21 8 -20 8 -34 -10z"/>
<path d="M974 3625 c-3 -8 -7 -29 -8 -47 -1 -27 4 -34 27 -42 19 -7 33 -7 45
0 24 15 27 62 6 85 -20 23 -62 25 -70 4z"/>
<path d="M2962 3619 c-23 -12 -57 -39 -75 -60 -38 -43 -84 -133 -93 -179 -11
-54 12 -32 45 44 50 115 114 177 211 207 23 7 22 7 -10 8 -19 1 -54 -9 -78
-20z"/>
<path d="M3350 3631 c97 -30 161 -92 211 -207 33 -76 56 -98 45 -44 -9 46 -55
136 -93 179 -39 47 -106 81 -154 80 -31 -1 -32 -1 -9 -8z"/>
<path d="M5357 3622 c-20 -22 -22 -63 -5 -80 16 -16 50 -15 72 1 16 12 17 20
10 53 -8 31 -15 40 -35 42 -15 2 -32 -5 -42 -16z"/>
<path d="M1580 3585 l-24 -25 31 6 c29 6 32 4 42 -30 17 -64 -27 -139 -60
-100 -9 11 -15 12 -23 4 -15 -15 37 -60 70 -60 51 0 80 55 72 141 -8 84 -60
115 -108 64z"/>
<path d="M4735 3590 c-20 -22 -31 -103 -21 -145 9 -35 41 -65 70 -65 33 0 85
45 70 60 -8 8 -14 7 -23 -4 -33 -39 -77 36 -60 100 10 34 13 36 42 30 l31 -6
-24 25 c-28 30 -60 32 -85 5z"/>
<path d="M906 3481 c-11 -13 -15 -27 -11 -40 8 -26 22 -27 29 -3 2 9 7 27 11
40 8 27 -6 29 -29 3z"/>
<path d="M5464 3483 c15 -55 18 -63 26 -63 19 0 22 42 4 61 -21 24 -37 25 -30
2z"/>
<path d="M1710 3451 c0 -6 19 -15 42 -22 98 -26 165 -76 229 -172 33 -49 40
-56 34 -32 -12 53 -37 95 -79 132 -63 55 -226 123 -226 94z"/>
<path d="M4615 3441 c-134 -48 -208 -117 -230 -216 -6 -24 1 -17 34 32 64 96
131 146 229 172 23 7 42 16 42 21 0 14 -18 12 -75 -9z"/>
<path d="M884 3336 c-22 -35 -15 -69 18 -80 35 -12 68 15 68 55 0 49 -58 66
-86 25z"/>
<path d="M1775 3303 c-38 -29 -76 -61 -82 -70 -18 -24 -16 -70 7 -136 11 -31
20 -66 20 -77 0 -28 29 -25 40 4 9 24 11 24 84 19 56 -4 87 -2 118 10 24 9 55
21 71 26 l27 11 -36 52 c-54 77 -64 87 -121 120 -47 27 -52 32 -47 58 3 15 2
30 -2 32 -5 3 -40 -19 -79 -49z m73 -59 c26 -18 29 -58 8 -109 -30 -71 -98
-64 -130 14 -19 50 -14 67 33 91 44 24 60 24 89 4z m77 -18 c13 -13 33 -43 45
-66 22 -42 22 -44 4 -58 -33 -25 -82 -42 -121 -42 l-38 1 37 19 c47 25 69 84
47 128 -7 15 -15 30 -17 35 -8 16 20 5 43 -17z"/>
<path d="M4544 3349 c-3 -6 -3 -21 0 -34 5 -20 -1 -27 -47 -53 -57 -33 -67
-43 -121 -120 l-36 -52 27 -11 c16 -5 47 -17 71 -26 31 -12 62 -14 118 -10 73
5 75 5 84 -19 11 -29 40 -32 40 -4 0 11 9 46 20 77 20 58 25 99 14 127 -9 24
-163 136 -170 125z m95 -109 c48 -24 55 -41 35 -91 -32 -78 -100 -85 -130 -14
-21 51 -18 91 8 109 29 21 41 20 87 -4z m-121 3 c-2 -5 -10 -20 -17 -35 -22
-44 0 -103 47 -128 l37 -19 -38 -1 c-39 0 -88 17 -121 42 -18 14 -18 16 4 58
24 47 62 90 80 90 7 0 10 -3 8 -7z"/>
<path d="M5448 3349 c-24 -14 -23 -62 2 -84 16 -15 26 -17 48 -9 33 11 40 45
18 80 -17 25 -40 30 -68 13z"/>
<path d="M1650 3331 c0 -26 17 -36 35 -21 23 19 18 40 -10 40 -18 0 -25 -5
-25 -19z"/>
<path d="M4700 3336 c0 -18 27 -39 40 -31 5 3 10 15 10 26 0 14 -7 19 -25 19
-15 0 -25 -6 -25 -14z"/>
<path d="M1583 3333 c-7 -2 -13 -16 -13 -29 0 -22 4 -25 27 -22 31 3 44 35 21
49 -14 10 -17 10 -35 2z"/>
<path d="M4782 3331 c-23 -14 -10 -46 21 -49 23 -3 27 0 27 21 0 14 -7 28 -16
31 -19 7 -16 8 -32 -3z"/>
<path d="M2756 3290 c-11 -58 22 -100 78 -100 50 0 47 88 -4 115 -46 24 -67
19 -74 -15z"/>
<path d="M2897 3313 c-4 -3 -7 -15 -7 -25 0 -29 44 -20 48 10 3 16 -2 22 -16
22 -10 0 -22 -3 -25 -7z"/>
<path d="M3462 3298 c2 -15 11 -24 26 -26 20 -3 23 0 20 20 -2 15 -11 24 -26
26 -20 3 -23 0 -20 -20z"/>
<path d="M3568 3304 c-50 -26 -51 -114 -2 -114 56 0 89 42 78 100 -7 34 -31
39 -76 14z"/>
<path d="M1492 3298 c-18 -18 -15 -65 4 -72 21 -8 40 8 49 41 9 37 -26 58 -53
31z"/>
<path d="M2552 3294 c-29 -7 -65 -20 -80 -28 -40 -21 -102 -92 -102 -118 0
-18 3 -16 23 13 44 65 157 119 253 119 48 0 84 9 84 21 0 14 -119 9 -178 -7z"/>
<path d="M3670 3303 c0 -14 34 -23 84 -23 96 0 209 -54 253 -119 20 -29 23
-31 23 -12 0 36 -75 108 -138 132 -63 23 -222 39 -222 22z"/>
<path d="M4862 3301 c-15 -9 -7 -54 13 -71 20 -17 45 -1 45 29 0 42 -27 62
-58 42z"/>
<path d="M2919 3233 c-7 -20 -6 -28 3 -35 30 -19 54 -2 43 31 -10 32 -34 34
-46 4z"/>
<path d="M3446 3245 c-30 -31 -15 -62 25 -50 15 5 18 12 13 28 -10 34 -20 40
-38 22z"/>
<path d="M2549 3223 c-1 -5 -1 -16 0 -25 2 -13 -5 -18 -24 -18 -40 0 -84 -23
-153 -78 -35 -28 -79 -56 -98 -62 l-34 -12 24 -28 c13 -16 31 -60 41 -102 21
-86 34 -115 69 -147 24 -23 25 -26 9 -43 -9 -10 -14 -21 -10 -24 10 -10 150
16 182 34 45 26 78 96 70 151 -5 36 -3 45 13 57 47 33 67 136 36 184 -22 33
-106 120 -116 120 -4 0 -9 -3 -9 -7z m-83 -104 c-34 -40 -33 -79 0 -113 45
-44 107 -30 116 27 6 30 -3 35 -22 12 -18 -21 -57 -19 -70 4 -25 47 3 91 57
91 67 0 113 -44 113 -108 0 -35 -33 -88 -60 -97 -15 -5 -19 -12 -15 -23 4 -10
9 -36 12 -58 5 -37 2 -46 -28 -77 -47 -50 -98 -53 -148 -11 -34 29 -39 58 -14
86 29 33 83 17 83 -24 0 -26 15 -22 28 8 31 67 -69 114 -124 58 -21 -20 -25
-33 -22 -65 2 -21 2 -39 1 -39 -10 0 -27 57 -38 129 l-13 86 51 54 c43 44 102
91 115 91 2 0 -8 -14 -22 -31z"/>
<path d="M2357 2990 c-3 -12 0 -20 7 -20 18 0 25 10 19 26 -7 20 -20 17 -26
-6z"/>
<path d="M3789 3183 c-25 -27 -53 -59 -63 -73 -31 -48 -11 -151 36 -184 16
-12 18 -21 13 -57 -8 -55 25 -125 70 -151 32 -18 172 -44 182 -34 4 3 -1 14
-10 24 -16 17 -15 20 9 43 35 32 48 61 69 147 10 42 28 86 41 102 l24 28 -34
12 c-19 6 -63 34 -98 62 -69 55 -113 78 -153 78 -21 0 -26 4 -23 22 5 36 -16
30 -63 -19z m233 -120 l56 -58 -13 -86 c-11 -72 -28 -129 -38 -129 -1 0 -1 18
1 39 3 32 -1 45 -22 65 -55 56 -152 10 -126 -58 11 -30 30 -35 30 -8 0 41 48
56 82 25 27 -24 22 -58 -13 -87 -50 -42 -101 -39 -148 11 -30 31 -33 40 -28
77 3 22 8 48 12 58 4 11 0 18 -15 23 -12 4 -30 21 -41 38 -48 79 1 167 92 167
56 0 84 -43 59 -91 -13 -23 -52 -25 -70 -4 -19 23 -28 18 -22 -12 9 -57 71
-71 116 -27 34 35 34 73 -1 115 l-27 32 30 -16 c16 -9 54 -42 86 -74z"/>
<path d="M4017 2996 c-6 -16 1 -26 19 -26 7 0 10 8 7 20 -6 23 -19 26 -26 6z"/>
<path d="M1543 3213 c-17 -6 -16 -38 1 -52 16 -14 46 -4 46 14 0 11 -27 47
-33 44 -1 0 -8 -3 -14 -6z"/>
<path d="M4825 3204 c-20 -20 -19 -40 1 -48 20 -8 44 11 44 34 0 24 -26 32
-45 14z"/>
<path d="M2722 3188 c-26 -26 -7 -54 28 -43 24 8 27 40 4 49 -20 8 -18 8 -32
-6z"/>
<path d="M3643 3193 c-21 -8 -15 -41 8 -48 28 -9 47 10 33 32 -12 19 -23 24
-41 16z"/>
<path d="M2950 3176 c-18 -23 -8 -61 17 -64 26 -4 50 35 40 62 -8 20 -41 21
-57 2z"/>
<path d="M3086 3171 c-9 -10 -20 -38 -25 -62 l-8 -44 -13 28 c-7 15 -20 27
-27 27 -15 0 -13 -6 18 -50 l17 -26 -33 4 c-41 5 -75 -25 -75 -65 l0 -28 -19
31 c-23 37 -37 48 -46 35 -3 -6 4 -19 17 -30 27 -26 21 -33 -21 -21 -50 14
-101 -13 -101 -55 0 -20 26 -55 33 -44 1 2 7 13 12 23 18 33 46 35 133 9 131
-39 152 -24 152 110 0 86 15 121 53 125 30 4 31 5 17 33 -14 25 -61 25 -84 0z
m-42 -182 c29 -23 35 -66 10 -76 -41 -16 -91 49 -63 83 15 19 22 18 53 -7z"/>
<path d="M3230 3171 c-14 -28 -13 -29 17 -33 38 -4 53 -39 53 -125 0 -134 21
-149 152 -110 87 26 115 24 133 -9 5 -10 11 -21 12 -23 7 -11 33 24 33 44 0
44 -58 70 -118 51 -28 -9 -29 4 -2 27 12 10 18 22 15 27 -9 14 -23 3 -46 -34
l-19 -31 0 28 c0 40 -34 70 -75 65 l-33 -4 17 26 c31 44 33 50 18 50 -7 0 -20
-12 -27 -27 l-13 -28 -8 44 c-5 24 -16 52 -25 62 -23 25 -70 25 -84 0z m179
-175 c28 -34 -22 -99 -63 -83 -25 10 -19 53 10 76 31 25 38 26 53 7z"/>
<path d="M3393 3174 c-10 -27 14 -66 40 -62 43 6 30 78 -15 78 -10 0 -21 -7
-25 -16z"/>
<path d="M1583 3134 c-4 -11 1 -22 12 -31 16 -11 20 -11 28 3 5 8 6 22 3 30
-7 19 -35 18 -43 -2z"/>
<path d="M2773 3134 c-3 -8 1 -23 10 -31 19 -19 47 -10 47 16 0 30 -46 43 -57
15z"/>
<path d="M3583 3143 c-18 -7 -16 -42 3 -50 8 -3 23 1 31 10 28 28 4 56 -34 40z"/>
<path d="M4774 3136 c-3 -8 -2 -22 3 -30 8 -14 12 -14 28 -3 11 9 16 20 12 31
-8 20 -36 21 -43 2z"/>
<path d="M1447 3123 c-13 -12 -7 -22 16 -25 47 -7 30 -96 -25 -124 -25 -13
-28 -12 -42 8 l-16 22 0 -27 c0 -68 39 -85 102 -42 35 24 78 94 78 129 0 41
-86 86 -113 59z"/>
<path d="M4865 3106 c-14 -14 -25 -33 -25 -42 0 -35 43 -105 78 -129 63 -43
102 -26 102 42 l0 27 -16 -22 c-14 -20 -17 -21 -42 -8 -55 28 -72 117 -24 124
33 5 21 26 -16 30 -23 2 -38 -4 -57 -22z"/>
<path d="M2827 3094 c-12 -12 -8 -41 8 -54 24 -20 67 3 63 33 -2 16 -11 23
-33 25 -17 2 -34 0 -38 -4z"/>
<path d="M3507 3094 c-29 -29 26 -80 58 -54 26 22 15 55 -20 58 -17 2 -34 0
-38 -4z"/>
<path d="M1900 3002 c-81 -37 -191 -42 -271 -12 -58 21 -77 22 -65 2 11 -19
133 -46 206 -46 57 0 84 5 115 21 92 49 104 75 15 35z"/>
<path d="M4442 3018 c2 -6 29 -25 59 -42 47 -27 63 -31 129 -30 73 0 195 28
206 46 12 20 -7 19 -65 -2 -81 -30 -190 -25 -274 13 -32 15 -57 21 -55 15z"/>
<path d="M2090 2965 c-14 -8 -54 -24 -90 -37 -79 -28 -236 -30 -312 -5 -27 8
-48 14 -48 13 0 -1 38 -40 84 -87 106 -108 138 -167 144 -271 2 -43 8 -78 13
-78 4 0 23 9 42 20 113 67 287 85 397 42 66 -26 63 -26 51 -3 -6 10 -32 34
-59 54 -85 60 -157 195 -169 315 -6 55 -13 60 -53 37z m25 -76 c10 -61 70
-172 124 -231 l48 -53 -116 -1 c-84 -1 -136 -7 -188 -21 -40 -11 -75 -18 -78
-15 -3 3 -5 15 -5 27 0 57 -46 142 -137 253 l-32 39 92 -4 c76 -4 108 0 182
20 50 14 93 25 97 26 3 1 9 -17 13 -40z"/>
<path d="M2040 2872 c-32 -15 -35 -21 -32 -53 5 -51 -14 -57 -39 -15 -20 35
-23 36 -80 36 -32 0 -59 -4 -59 -8 0 -5 14 -27 32 -50 29 -38 37 -42 75 -42
50 0 55 -13 13 -35 -21 -11 -30 -23 -30 -39 0 -55 22 -68 74 -45 21 10 24 16
19 45 -7 40 9 45 32 10 12 -18 29 -26 65 -31 27 -4 58 -4 70 0 19 6 18 9 -16
50 -29 36 -42 44 -75 47 -22 2 -40 8 -41 13 -1 8 27 27 54 37 8 3 -9 78 -21
90 -4 4 -22 0 -41 -10z"/>
<path d="M4257 2928 c-12 -120 -84 -254 -169 -315 -27 -20 -53 -44 -59 -54
-12 -23 -15 -23 51 3 43 17 76 21 150 21 84 1 105 -3 177 -32 46 -18 85 -37
88 -42 4 -5 12 -9 19 -9 10 0 15 23 18 78 6 104 38 163 144 271 46 47 84 86
84 87 0 1 -21 -4 -47 -12 -116 -35 -238 -28 -356 21 -100 42 -93 43 -100 -17z
m148 -28 c71 -18 108 -21 177 -18 l88 5 -33 -39 c-91 -111 -137 -196 -137
-253 0 -12 -2 -24 -5 -27 -3 -3 -38 4 -78 15 -52 14 -104 20 -188 21 l-116 1
48 53 c54 59 114 170 124 232 4 25 12 40 18 37 7 -2 52 -15 102 -27z"/>
<path d="M4311 2867 c-23 -63 -22 -73 11 -88 41 -19 37 -33 -11 -37 -33 -3
-46 -11 -75 -47 -34 -41 -35 -44 -16 -50 12 -4 43 -4 70 0 36 5 53 13 65 31
23 35 39 30 32 -10 -5 -29 -2 -35 19 -45 52 -23 74 -10 74 45 0 16 -9 28 -30
39 -42 22 -37 35 13 35 38 0 46 4 75 42 18 23 32 45 32 50 0 4 -27 8 -59 8
-57 0 -60 -1 -80 -36 -25 -42 -46 -36 -38 12 6 36 -2 47 -46 63 -24 9 -29 8
-36 -12z"/>
<path d="M1565 2927 c103 -75 157 -165 163 -271 5 -83 22 -69 22 19 0 99 -51
181 -157 253 -41 29 -67 27 -28 -1z"/>
<path d="M4805 2928 c-107 -76 -155 -155 -155 -253 0 -88 17 -102 22 -19 2 45
12 86 26 116 23 46 94 126 143 160 15 11 19 17 9 17 -8 0 -28 -9 -45 -21z"/>
<path d="M1357 2873 c-14 -13 -7 -43 12 -53 15 -7 23 -6 35 6 19 19 20 26 4
42 -13 13 -41 16 -51 5z"/>
<path d="M1430 2862 c0 -22 22 -34 45 -25 25 9 13 38 -18 41 -21 3 -27 -1 -27
-16z"/>
<path d="M2276 2855 c-4 -16 -9 -35 -11 -42 -8 -27 24 -113 60 -162 39 -54
141 -139 152 -127 4 3 -25 37 -64 74 -84 79 -114 134 -123 222 -5 56 -7 61
-14 35z"/>
<path d="M4110 2830 c0 -83 -36 -151 -122 -232 -39 -37 -69 -71 -65 -74 4 -4
31 12 60 34 57 42 118 118 137 167 14 38 15 118 1 142 -8 14 -10 7 -11 -37z"/>
<path d="M4917 2873 c-21 -20 8 -48 38 -37 25 10 18 44 -8 44 -13 0 -27 -3
-30 -7z"/>
<path d="M4992 2868 c-16 -16 -15 -23 4 -42 21 -22 56 -3 52 27 -3 25 -37 34
-56 15z"/>
<path d="M1270 2855 c-19 -23 -4 -45 29 -45 32 0 48 24 30 46 -15 18 -43 18
-59 -1z"/>
<path d="M5071 2856 c-18 -22 -2 -46 30 -46 33 0 48 22 29 45 -16 19 -44 19
-59 1z"/>
<path d="M2735 2814 c-10 -10 -13 -24 -10 -38 8 -26 60 -76 81 -76 8 0 12 -4
9 -10 -3 -5 -15 -10 -25 -10 -19 0 -36 -17 -27 -26 3 -3 22 2 42 10 48 20 49
20 31 -6 -9 -12 -16 -32 -16 -43 0 -24 38 -64 61 -66 8 -1 -4 -7 -25 -13 -22
-7 -42 -18 -44 -26 -5 -13 10 -12 51 5 17 7 17 5 -2 -26 -24 -39 -26 -58 -9
-94 8 -18 19 -25 39 -25 35 0 45 15 25 36 -27 26 -18 63 28 125 24 32 48 73
51 91 6 27 3 36 -19 55 -15 12 -58 32 -97 44 -75 23 -106 52 -94 89 5 15 2 20
-14 20 -11 0 -27 -7 -36 -16z m216 -154 c23 -13 24 -28 2 -52 -19 -22 -66 -24
-83 -3 -9 11 -7 19 14 40 28 28 38 30 67 15z"/>
<path d="M3615 2810 c12 -37 -19 -66 -94 -89 -39 -12 -82 -32 -97 -44 -22 -19
-25 -28 -19 -55 3 -18 27 -59 51 -91 46 -62 55 -99 28 -125 -20 -21 -10 -36
25 -36 20 0 31 7 39 25 17 36 15 55 -9 94 -19 31 -19 33 -2 26 41 -17 56 -18
51 -5 -2 8 -22 19 -44 26 -21 6 -32 12 -23 13 22 1 59 43 59 67 0 11 -7 30
-16 42 -18 26 -17 26 31 6 20 -8 39 -13 42 -10 9 9 -8 26 -27 26 -10 0 -22 5
-25 10 -3 6 1 10 9 10 21 0 73 50 81 76 7 26 -17 54 -46 54 -16 0 -19 -5 -14
-20z m-99 -165 c21 -21 23 -29 14 -40 -17 -20 -59 -19 -82 2 -23 20 -23 39 0
52 27 16 41 13 68 -14z"/>
<path d="M1618 2805 c-2 -3 -31 -10 -64 -16 -85 -16 -122 -36 -144 -80 -44
-85 -9 -178 82 -223 63 -31 102 -33 147 -5 45 27 28 48 -19 24 -69 -36 -156 2
-185 80 -22 56 -14 88 31 133 31 31 39 34 75 29 69 -9 104 -58 75 -102 -20
-31 -61 -33 -78 -5 -17 26 -22 25 -36 -6 -23 -49 17 -82 83 -70 46 9 78 51 71
91 -5 28 -5 29 9 11 11 -14 15 -45 15 -103 0 -118 27 -163 97 -163 25 1 73 25
62 33 -2 1 -21 10 -41 19 -41 19 -63 53 -78 124 -5 27 -12 59 -15 72 -3 12
-22 41 -42 63 -27 30 -33 43 -25 51 16 16 15 48 -1 48 -8 0 -16 -2 -19 -5z"/>
<path d="M4750 2793 c0 -10 5 -24 12 -31 10 -10 7 -18 -15 -38 -35 -32 -53
-68 -62 -124 -12 -79 -40 -128 -82 -147 -21 -10 -40 -19 -42 -20 -11 -8 37
-32 62 -33 70 0 97 45 97 163 0 58 4 89 15 103 14 18 14 17 9 -11 -7 -40 25
-82 71 -91 66 -12 106 21 83 70 -14 31 -19 32 -36 6 -17 -28 -58 -26 -78 5
-29 44 6 93 73 102 32 4 45 0 70 -21 47 -39 59 -87 38 -142 -29 -77 -116 -115
-185 -79 -47 24 -64 3 -19 -24 45 -28 84 -26 147 5 91 45 126 138 82 223 -22
43 -58 64 -140 80 -30 6 -65 13 -77 17 -18 5 -23 2 -23 -13z"/>
<path d="M2692 2668 c-16 -16 -15 -43 3 -58 18 -15 45 -10 59 13 9 15 7 22
-13 38 -27 22 -33 23 -49 7z"/>
<path d="M3659 2661 c-20 -16 -22 -23 -13 -38 14 -23 53 -23 68 0 8 12 8 22 0
34 -16 25 -28 26 -55 4z"/>
<path d="M2552 2651 c-19 -11 -11 -45 11 -49 9 -2 20 4 23 13 9 21 -16 47 -34
36z"/>
<path d="M3820 2645 c-16 -19 -5 -47 17 -43 22 4 29 43 9 51 -8 3 -20 -1 -26
-8z"/>
<path d="M2613 2634 c-7 -18 14 -35 37 -31 8 1 16 12 18 25 3 18 -1 22 -23 22
-14 0 -28 -7 -32 -16z"/>
<path d="M3732 2628 c3 -25 25 -33 47 -19 21 14 5 41 -24 41 -22 0 -26 -4 -23
-22z"/>
<path d="M2537 2559 c-9 -5 -24 -23 -32 -39 -15 -29 -14 -30 14 -45 17 -8 41
-15 54 -15 29 0 67 39 67 68 0 36 -62 55 -103 31z"/>
<path d="M3778 2559 c-25 -14 -22 -51 5 -77 27 -26 57 -28 98 -7 28 15 29 16
14 45 -24 47 -75 64 -117 39z"/>
<path d="M2190 2536 c-63 -13 -140 -54 -140 -73 0 -19 12 -16 49 11 67 49 185
58 294 20 26 -9 47 -22 47 -28 0 -24 -120 -144 -166 -167 -26 -12 -72 -25
-103 -28 -67 -7 -67 -27 0 -25 121 4 308 158 284 233 -7 25 -55 47 -129 60
-69 13 -65 13 -136 -3z"/>
<path d="M4054 2535 c-104 -23 -128 -48 -99 -109 41 -86 181 -177 276 -180 66
-1 63 18 -5 25 -29 3 -74 16 -100 28 -46 23 -166 143 -166 167 0 6 21 19 48
28 108 38 226 29 293 -20 37 -27 49 -30 49 -11 0 21 -88 64 -154 76 -70 13
-64 13 -142 -4z"/>
<path d="M2737 2533 c-20 -20 1 -73 30 -73 18 0 35 37 28 60 -6 19 -44 28 -58
13z"/>
<path d="M3605 2521 c-7 -24 10 -61 29 -61 21 0 38 26 34 52 -4 31 -53 38 -63
9z"/>
<path d="M3138 2458 c-26 -29 -62 -68 -78 -87 -30 -32 -38 -34 -82 -16 -14 6
-18 2 -18 -17 0 -57 74 -68 121 -17 l29 31 0 -36 c0 -20 5 -36 10 -36 6 0 10
21 10 46 l0 46 18 -23 c13 -15 30 -22 52 -22 22 0 39 7 52 22 l18 23 0 -46 c0
-25 5 -46 10 -46 6 0 10 16 10 36 l0 36 29 -31 c47 -51 121 -40 121 17 0 19
-4 23 -17 17 -45 -18 -53 -16 -83 16 -90 101 -128 139 -140 139 -7 0 -35 -24
-62 -52z m84 5 c24 -21 23 -55 -2 -78 -19 -17 -21 -17 -40 0 -24 22 -26 52 -3
77 20 22 22 22 45 1z"/>
<path d="M2676 2478 c-20 -28 -4 -53 24 -38 28 15 32 27 14 44 -20 20 -20 20
-38 -6z"/>
<path d="M3685 2483 c-16 -16 -16 -18 5 -35 28 -23 56 -7 40 22 -15 29 -27 32
-45 13z"/>
<path d="M2282 2482 c-6 -2 -12 -12 -12 -22 0 -27 -13 -32 -65 -20 -46 10 -47
10 -237 -31 -55 -12 -59 -12 -81 10 -22 19 -25 20 -31 6 -11 -30 -6 -54 16
-75 32 -30 56 -25 169 30 56 28 111 50 122 50 20 0 20 0 -1 -23 -29 -31 -28
-35 11 -45 l32 -10 -35 -15 c-19 -8 -73 -20 -119 -26 -122 -16 -166 -53 -135
-113 17 -32 44 -37 44 -9 0 31 22 46 126 86 75 29 108 48 142 82 40 41 45 43
61 29 24 -22 45 -21 36 2 -5 9 -13 35 -19 58 -7 25 -16 39 -24 36z"/>
<path d="M4094 2446 c-6 -22 -14 -49 -19 -58 -9 -23 12 -24 36 -2 16 14 21 12
61 -29 34 -34 67 -53 142 -82 104 -40 126 -55 126 -86 0 -28 27 -23 44 9 31
60 -13 97 -135 113 -46 6 -100 18 -119 26 l-35 15 33 10 c38 10 39 14 10 45
-21 23 -21 23 -1 23 11 0 66 -22 121 -50 56 -27 112 -50 125 -50 46 0 78 50
61 95 -6 14 -9 13 -31 -6 -22 -22 -26 -22 -81 -10 -190 41 -191 41 -237 31
-52 -12 -65 -7 -65 20 0 38 -26 28 -36 -14z"/>
<path d="M2475 2403 c-43 -124 -26 -259 40 -323 41 -40 45 -35 10 16 -14 20
-29 53 -35 73 -14 52 -12 150 5 207 17 57 19 74 6 74 -5 0 -17 -21 -26 -47z"/>
<path d="M2606 2433 c-4 -9 0 -23 9 -32 13 -14 17 -14 32 1 13 14 14 20 3 32
-16 21 -36 20 -44 -1z"/>
<path d="M3750 2434 c-11 -12 -10 -18 3 -32 15 -15 19 -15 32 -1 17 17 11 49
-10 49 -7 0 -18 -7 -25 -16z"/>
<path d="M3890 2440 c0 -5 7 -35 15 -67 28 -107 17 -208 -30 -277 -35 -51 -31
-56 10 -16 66 64 83 199 40 323 -15 42 -35 64 -35 37z"/>
<path d="M1797 2377 c-32 -28 -37 -38 -37 -74 0 -49 5 -51 41 -19 19 16 28 36
33 74 4 29 5 52 4 52 -2 -1 -20 -15 -41 -33z"/>
<path d="M4566 2359 c5 -39 14 -59 33 -75 36 -32 41 -30 41 19 0 39 -4 47 -40
76 l-41 33 7 -53z"/>
<path d="M2401 2336 c-59 -95 -192 -178 -320 -200 -38 -6 -73 -14 -76 -18 -4
-4 5 -22 19 -40 54 -72 70 -125 69 -228 -1 -52 -8 -122 -17 -155 -15 -62 -12
-85 6 -50 6 11 37 46 70 78 67 67 170 120 269 141 35 7 64 17 63 22 0 5 -15
39 -32 77 -43 91 -60 199 -43 275 25 111 28 132 20 132 -4 0 -17 -15 -28 -34z
m-15 -178 c-1 -111 2 -129 26 -188 15 -35 26 -65 25 -65 -1 -1 -36 -14 -77
-29 -93 -34 -151 -67 -208 -120 l-45 -41 7 86 c8 96 -5 192 -34 249 l-19 37
82 33 c94 38 169 84 211 129 17 17 30 31 31 31 1 0 1 -55 1 -122z"/>
<path d="M2293 2153 c-47 -34 -53 -42 -53 -75 0 -44 -11 -48 -31 -12 -11 22
-18 25 -48 20 -49 -8 -56 -18 -36 -60 16 -34 19 -36 56 -30 48 8 51 -5 8 -39
-25 -20 -31 -32 -34 -69 -4 -69 5 -75 59 -37 45 32 47 35 41 70 -8 48 10 59
33 20 13 -24 24 -31 47 -31 53 0 62 12 44 62 -16 43 -16 43 -60 40 l-44 -3 38
34 c37 32 38 35 35 91 l-3 58 -52 -39z"/>
<path d="M3964 2353 c37 -134 40 -163 29 -242 -8 -49 -24 -106 -44 -148 -18
-37 -33 -72 -33 -77 -1 -5 28 -15 63 -22 99 -21 202 -74 269 -141 33 -32 64
-67 70 -78 18 -35 21 -12 6 50 -9 33 -16 103 -17 155 -1 103 15 156 69 228 14
18 23 36 19 40 -3 4 -38 12 -76 18 -128 22 -261 105 -320 200 -22 36 -44 46
-35 17z m171 -175 c22 -14 77 -40 122 -58 l82 -33 -19 -37 c-29 -57 -42 -153
-34 -249 l7 -86 -45 41 c-57 53 -115 86 -208 120 -41 15 -76 28 -77 29 -1 0
10 30 25 65 24 59 27 77 26 188 l0 122 40 -39 c23 -21 59 -50 81 -63z"/>
<path d="M4050 2133 c0 -55 2 -60 37 -91 l38 -33 -44 3 c-44 3 -44 3 -60 -40
-18 -50 -9 -62 44 -62 23 0 34 7 47 31 23 39 41 28 33 -20 -6 -35 -4 -38 41
-70 54 -38 63 -32 59 37 -3 37 -9 49 -34 69 -43 34 -40 47 8 39 37 -6 40 -4
56 30 20 42 13 52 -36 60 -30 5 -37 2 -48 -20 -20 -36 -31 -32 -31 10 0 37
-13 53 -82 97 l-28 19 0 -59z"/>
<path d="M2578 2304 c-71 -36 -85 -54 -42 -54 21 0 24 -3 18 -22 -13 -42 -5
-106 22 -164 17 -37 27 -78 28 -111 1 -56 4 -61 25 -40 8 8 45 11 124 9 96 -2
118 1 151 18 l39 20 15 -21 c8 -11 18 -17 22 -12 16 16 30 148 20 183 -16 57
-80 110 -134 110 -18 0 -29 10 -43 38 -46 89 -131 105 -245 46z m183 -17 c23
-15 37 -35 43 -60 9 -36 11 -37 54 -37 37 0 50 -6 78 -34 46 -46 47 -91 3
-141 -35 -39 -71 -46 -101 -18 -21 18 -24 53 -6 71 7 7 26 12 42 12 l31 1 -27
23 c-18 16 -35 22 -48 19 -27 -7 -60 -50 -60 -79 0 -33 39 -74 80 -84 34 -8
34 -8 -14 -9 -27 -1 -77 4 -113 11 l-64 12 -39 72 c-22 39 -42 87 -46 105 l-5
34 15 -32 c28 -60 90 -71 137 -24 36 36 37 63 3 90 -33 26 -48 27 -34 2 16
-31 12 -49 -15 -67 -53 -35 -101 22 -75 87 28 68 99 88 161 46z"/>
<path d="M2666 2022 c-2 -4 4 -13 15 -20 16 -11 19 -9 19 8 0 19 -24 28 -34
12z"/>
<path d="M3630 2318 c-18 -13 -42 -40 -53 -60 -14 -28 -25 -38 -43 -38 -54 0
-118 -53 -134 -110 -10 -35 4 -167 20 -183 4 -5 14 1 22 12 l15 21 39 -20 c33
-17 55 -20 151 -18 79 2 116 -1 124 -9 21 -21 24 -16 25 40 1 33 11 74 28 111
27 58 35 122 22 164 -6 19 -3 22 18 22 44 0 29 18 -44 55 -84 42 -141 46 -190
13z m132 -28 c54 -42 61 -120 13 -142 -19 -9 -29 -7 -50 6 -27 18 -31 36 -15
67 14 25 -1 24 -34 -2 -34 -27 -33 -54 3 -90 47 -47 109 -36 137 24 l15 32 -5
-34 c-4 -18 -24 -66 -46 -105 l-39 -72 -64 -12 c-36 -7 -86 -12 -113 -11 -48
1 -48 1 -14 9 41 10 80 51 80 84 0 29 -33 72 -60 79 -13 3 -30 -3 -48 -19
l-27 -23 31 -1 c52 0 72 -44 37 -82 -26 -29 -67 -23 -102 17 -44 50 -43 95 3
141 28 28 41 34 78 34 43 0 45 1 54 37 17 71 112 106 166 63z"/>
<path d="M3700 2010 c0 -17 3 -19 19 -8 21 13 19 28 -5 28 -8 0 -14 -9 -14
-20z"/>
<path d="M3102 2258 c-20 -20 -14 -47 13 -54 31 -8 57 12 53 40 -4 25 -46 34
-66 14z"/>
<path d="M3237 2263 c-12 -11 -8 -40 8 -53 36 -30 86 15 53 48 -13 13 -50 16
-61 5z"/>
<path d="M1770 2238 c0 -7 12 -25 27 -40 22 -23 35 -28 77 -28 l50 0 -39 40
c-32 33 -46 40 -77 40 -23 0 -38 -5 -38 -12z"/>
<path d="M4515 2210 l-39 -40 50 0 c42 0 55 5 77 28 37 39 34 52 -11 52 -31 0
-45 -7 -77 -40z"/>
<path d="M3097 2183 c-4 -3 -7 -17 -7 -30 0 -27 21 -30 45 -7 12 12 13 19 4
30 -12 15 -31 18 -42 7z"/>
<path d="M3261 2176 c-9 -11 -8 -17 4 -30 26 -26 47 -20 43 11 -3 31 -29 41
-47 19z"/>
<path d="M1867 2149 c-21 -12 -47 -61 -47 -87 0 -11 25 -57 55 -102 30 -45 55
-92 55 -104 -1 -19 -2 -19 -15 5 -8 14 -28 32 -44 39 -74 30 -161 -61 -99
-104 32 -22 38 -20 38 13 0 30 14 41 54 41 54 0 64 -73 17 -121 -52 -52 -141
-36 -176 31 -36 70 -4 175 60 194 17 4 41 13 55 18 22 9 23 11 7 20 -23 13
-69 2 -103 -24 -62 -50 -84 -175 -41 -238 30 -45 83 -72 127 -67 42 5 190 68
190 80 0 5 -13 14 -30 20 -24 9 -29 15 -23 32 14 38 7 92 -21 154 -39 87 -43
123 -18 165 11 19 18 37 15 40 -9 9 -36 7 -56 -5z"/>
<path d="M4477 2154 c-3 -3 4 -21 15 -40 25 -42 21 -78 -18 -165 -28 -62 -35
-116 -21 -154 6 -17 1 -23 -23 -32 -17 -6 -30 -15 -30 -20 0 -12 148 -75 190
-80 44 -5 97 22 128 67 42 63 20 188 -42 238 -34 26 -80 37 -103 24 -16 -9
-15 -11 7 -20 14 -5 38 -14 55 -18 87 -26 102 -183 23 -238 -12 -9 -42 -16
-66 -16 -35 0 -49 6 -73 29 -47 48 -37 121 17 121 40 0 54 -11 54 -41 0 -33 6
-35 38 -13 42 29 15 89 -50 109 -28 10 -76 -13 -93 -44 -13 -24 -14 -24 -15
-5 0 12 25 59 55 104 30 45 55 91 55 102 0 56 -73 122 -103 92z"/>
<path d="M3165 2110 c-27 -30 -23 -76 8 -108 l27 -27 27 27 c17 17 26 38 26
57 0 34 -27 71 -53 71 -9 0 -25 -9 -35 -20z"/>
<path d="M3066 2101 c-11 -18 6 -42 28 -39 29 4 29 42 -1 46 -11 2 -24 -1 -27
-7z"/>
<path d="M3284 2095 c-8 -19 3 -35 26 -35 19 0 34 25 24 41 -8 14 -44 10 -50
-6z"/>
<path d="M3130 1965 c-115 -67 -170 -87 -238 -87 -37 -1 -78 5 -91 11 -33 18
-37 6 -5 -16 21 -13 47 -18 104 -18 68 0 84 4 151 37 69 34 118 72 108 83 -3
2 -16 -2 -29 -10z"/>
<path d="M3242 1968 c7 -20 93 -75 156 -98 69 -26 164 -24 206 4 32 21 28 33
-5 15 -13 -6 -53 -12 -91 -11 -55 0 -81 6 -135 32 -37 17 -75 37 -83 44 -23
20 -52 28 -48 14z"/>
<path d="M1940 1951 c0 -5 7 -15 17 -22 9 -8 27 -36 39 -64 28 -59 32 -185 9
-250 -17 -47 -18 -55 -6 -55 4 0 18 29 30 65 26 82 27 175 2 230 -29 64 -91
129 -91 96z"/>
<path d="M4414 1928 c-44 -53 -64 -107 -64 -175 0 -63 35 -193 51 -193 12 0
11 8 -6 55 -23 65 -19 191 9 250 12 28 30 56 39 64 10 7 17 17 17 22 0 18 -19
8 -46 -23z"/>
<path d="M3142 1894 c-69 -78 -103 -231 -71 -323 17 -47 33 -39 23 12 -17 85
-10 150 24 218 17 35 43 78 57 94 l25 30 25 -30 c14 -16 40 -59 57 -94 34 -68
41 -133 24 -218 -10 -51 6 -59 23 -12 18 51 13 149 -10 216 -22 68 -89 153
-119 153 -10 0 -36 -21 -58 -46z"/>
<path d="M3030 1845 c-87 -56 -174 -79 -284 -72 -50 2 -98 8 -107 12 -15 6
-16 -4 -12 -97 7 -142 -18 -235 -98 -356 l-22 -34 84 45 c46 25 107 53 134 62
65 22 168 22 223 0 24 -10 45 -15 48 -12 3 2 0 42 -5 87 -18 138 9 248 85 352
43 58 30 62 -46 13z m-24 -86 c-29 -66 -43 -132 -52 -236 l-7 -79 -60 4 c-71
5 -143 -9 -238 -48 -71 -30 -79 -29 -53 5 27 36 54 145 60 244 l7 96 71 -3
c80 -4 173 16 245 53 25 13 47 22 49 21 1 -2 -8 -27 -22 -57z"/>
<path d="M2900 1726 c-50 -16 -59 -23 -68 -58 -11 -45 -28 -45 -39 -1 -8 37
-10 38 -56 41 -51 3 -52 1 -41 -55 5 -24 13 -32 42 -39 48 -12 47 -26 -2 -39
-34 -10 -41 -17 -58 -64 -11 -29 -17 -55 -14 -58 3 -3 29 3 58 14 40 15 54 26
61 49 14 43 28 58 38 42 5 -7 9 -25 9 -39 0 -28 19 -39 68 -39 19 0 22 5 22
44 0 40 -2 44 -31 52 -37 11 -39 28 -4 32 20 3 31 14 44 45 40 94 39 96 -29
73z"/>
<path d="M3324 1832 c75 -103 102 -217 85 -355 -5 -44 -8 -82 -5 -84 3 -3 24
2 48 12 55 22 158 22 223 0 28 -9 88 -37 134 -62 l84 -45 -22 34 c-80 121
-105 214 -98 356 4 93 3 103 -12 97 -9 -4 -57 -10 -107 -12 -110 -7 -197 16
-284 72 -76 49 -89 45 -46 -13z m207 -77 c40 -11 90 -16 135 -13 l71 3 7 -96
c6 -99 33 -208 60 -244 26 -34 18 -35 -53 -5 -95 39 -167 53 -238 48 l-60 -4
-7 79 c-9 104 -23 170 -52 236 -13 29 -24 55 -24 57 0 3 22 -7 48 -20 27 -14
77 -32 113 -41z"/>
<path d="M3446 1718 c23 -75 43 -107 69 -110 35 -4 33 -21 -4 -32 -29 -8 -31
-12 -31 -52 0 -39 3 -44 23 -44 48 0 67 11 67 39 0 14 4 32 9 39 10 16 24 1
38 -42 7 -23 21 -34 61 -49 29 -11 55 -18 57 -15 3 2 -3 29 -13 58 -17 48 -22
55 -57 64 -48 14 -50 29 -3 40 29 7 37 15 42 39 11 56 10 58 -41 55 -46 -3
-48 -4 -56 -41 -11 -44 -28 -44 -39 0 -10 37 -21 46 -74 61 -55 16 -56 16 -48
-10z"/>
<path d="M3140 1778 c0 -4 11 -15 24 -25 23 -17 23 -19 6 -43 -29 -42 -41 -90
-50 -200 -8 -95 -11 -107 -34 -127 -14 -12 -26 -24 -26 -27 0 -2 14 -9 32 -15
25 -9 36 -8 54 4 33 21 38 65 18 169 -10 55 -14 104 -10 122 l8 29 14 -27 c8
-16 19 -28 24 -28 5 0 16 12 24 28 l14 27 8 -29 c4 -18 0 -67 -10 -122 -20
-104 -15 -148 18 -169 18 -12 29 -13 54 -4 18 6 32 13 32 15 0 3 -12 15 -27
28 -24 21 -27 31 -34 127 -8 108 -20 157 -49 199 -17 24 -17 26 6 43 13 10 24
21 24 25 0 4 -27 7 -60 7 -33 0 -60 -3 -60 -7z"/>
<path d="M2224 1726 c-76 -35 -213 -183 -185 -200 5 -4 26 18 46 48 55 83 112
121 232 155 l68 20 -55 0 c-38 1 -71 -7 -106 -23z"/>
<path d="M2422 1729 c-70 -20 -95 -34 -152 -85 -32 -30 -39 -32 -50 -19 -28
33 -60 9 -36 -27 8 -13 22 -49 31 -80 27 -95 36 -102 155 -108 82 -4 104 -2
108 9 3 8 -3 20 -14 28 -16 12 -17 17 -5 46 35 87 40 107 41 180 0 42 -3 76
-7 76 -5 -1 -37 -10 -71 -20z m32 -48 c14 -21 17 -118 5 -146 l-12 -30 -7 39
c-5 26 -18 50 -40 69 -28 25 -37 28 -73 21 -42 -6 -42 -6 -24 14 28 31 138 55
151 33z m-94 -92 c66 -41 78 -83 34 -118 -35 -27 -109 -29 -123 -3 -19 36 -17
105 5 126 21 21 42 20 84 -5z"/>
<path d="M3900 1673 c1 -72 6 -93 41 -180 12 -29 11 -34 -5 -46 -11 -8 -17
-20 -14 -28 4 -11 26 -13 108 -9 119 6 128 13 155 108 9 31 23 67 31 80 24 36
-8 60 -36 27 -11 -13 -18 -11 -50 19 -55 50 -83 66 -137 80 -26 7 -58 16 -70
20 -23 7 -23 6 -23 -71z m135 6 c24 -6 52 -20 62 -31 18 -20 18 -20 -24 -14
-36 7 -45 4 -73 -21 -22 -19 -35 -43 -40 -69 l-7 -39 -12 30 c-12 28 -9 125 5
146 7 12 36 11 89 -2z m89 -85 c22 -21 24 -90 5 -126 -14 -26 -88 -24 -123 3
-44 35 -32 77 34 118 42 25 63 26 84 5z"/>
<path d="M4083 1729 c120 -34 177 -72 232 -155 20 -30 41 -52 46 -48 28 17
-109 165 -185 200 -35 16 -68 24 -106 23 l-55 0 68 -20z"/>
<path d="M1577 1639 c-18 -10 -18 -12 3 -34 28 -30 20 -57 -42 -147 -35 -51
-43 -71 -43 -108 0 -60 25 -97 83 -122 53 -24 149 -21 203 6 46 23 47 14 2
-21 -64 -51 -124 -77 -145 -64 -25 16 -62 14 -102 -5 -21 -11 -44 -14 -61 -10
-24 6 -27 11 -23 41 2 22 0 35 -7 35 -22 0 -45 -37 -45 -73 0 -44 40 -82 77
-72 44 11 22 -5 -87 -60 -126 -65 -190 -121 -225 -198 -44 -93 -27 -198 39
-238 43 -27 73 -24 107 10 33 34 37 70 11 94 -31 28 -45 21 -27 -13 20 -39 19
-57 -6 -70 -32 -18 -68 -4 -86 35 -24 51 -6 85 79 141 75 50 108 81 108 100 0
7 -12 27 -27 44 -26 32 -26 33 -7 47 24 18 111 63 122 63 4 0 6 -16 4 -35 -7
-62 52 -119 99 -95 25 14 24 28 -3 32 -16 2 -24 11 -26 30 -3 22 6 33 48 65
33 25 53 48 57 65 4 21 20 36 61 60 31 18 74 48 95 67 l39 35 -17 -39 c-9 -22
-38 -81 -66 -132 -27 -51 -45 -94 -39 -98 12 -7 26 15 88 139 l49 99 7 -76 c7
-76 -4 -150 -24 -162 -16 -10 -13 -115 4 -115 28 0 82 24 114 51 27 24 88 48
197 76 11 3 -24 -37 -77 -89 -88 -84 -114 -118 -90 -118 4 0 52 45 107 100 54
54 101 98 103 96 2 -2 -6 -22 -17 -43 -10 -22 -25 -67 -32 -102 -10 -48 -20
-67 -40 -82 -16 -11 -35 -42 -48 -78 -25 -69 -55 -89 -79 -52 -20 29 -32 26
-32 -7 0 -41 32 -67 83 -66 23 0 49 3 58 7 14 7 15 1 8 -45 -7 -53 -19 -108
-24 -108 -1 0 -17 7 -34 16 -61 31 -84 4 -126 -148 -24 -90 -82 -122 -139 -77
-49 39 -22 95 40 83 38 -7 47 8 15 26 -33 17 -58 11 -85 -21 -30 -35 -32 -49
-11 -89 31 -59 129 -79 204 -41 44 23 102 85 129 138 22 44 48 149 58 241 6
61 24 87 24 36 0 -19 8 -28 34 -39 56 -24 116 7 116 60 0 14 -3 14 -31 -2 -30
-18 -31 -18 -50 6 -17 20 -19 34 -14 71 6 41 3 51 -20 78 -29 35 -29 48 2 147
23 74 28 72 28 -8 1 -124 67 -207 164 -207 53 0 71 12 131 90 56 73 91 96 120
78 17 -11 22 -11 29 1 17 27 -10 71 -44 71 -39 0 -56 -11 -86 -58 l-28 -45 0
57 c1 31 5 59 10 62 14 8 11 40 -6 54 -12 10 -18 10 -30 0 -18 -15 -20 -56 -2
-63 8 -3 11 -19 9 -47 l-4 -41 -22 20 c-56 52 -150 1 -125 -67 12 -31 23 -27
34 11 8 24 16 33 36 35 32 4 59 -21 59 -53 0 -27 -52 -75 -82 -75 -91 0 -171
135 -139 233 l12 36 28 -31 c19 -21 33 -29 45 -25 16 6 16 9 0 38 -21 42 -14
99 21 151 44 66 16 89 -53 43 -49 -32 -94 -41 -132 -25 -17 7 -33 10 -37 6 -9
-8 27 -46 44 -46 27 0 12 -19 -24 -29 -48 -14 -114 -14 -147 -1 -30 11 -61 69
-69 129 -8 63 0 77 29 50 14 -13 29 -19 39 -15 15 5 13 10 -9 37 -29 34 -33
77 -15 143 9 34 8 42 -6 52 -14 10 -24 4 -70 -43 -54 -56 -54 -56 -105 -51
-47 5 -51 4 -48 -16 2 -12 17 -27 36 -37 38 -17 33 -27 -31 -54 -101 -42 -227
15 -227 102 0 28 7 46 23 61 28 26 45 27 75 6 31 -21 28 -49 -8 -76 -30 -22
-30 -22 -9 -30 29 -11 67 14 75 49 8 32 -12 73 -44 89 -24 12 -19 24 8 24 10
0 24 8 31 17 13 15 11 16 -16 10 -16 -3 -39 -9 -50 -13 -15 -6 -13 1 13 31 39
48 43 96 10 119 -26 19 -36 19 -61 5z m365 -544 c29 -54 51 -67 135 -74 l78
-7 -84 -27 -84 -28 -26 24 c-14 13 -34 27 -43 30 -16 6 -18 19 -17 99 0 90 1
92 13 53 7 -22 20 -54 28 -70z"/>
<path d="M4762 1634 c-33 -23 -29 -71 10 -119 26 -30 28 -37 13 -31 -11 4 -33
10 -50 13 -27 6 -29 5 -16 -10 7 -9 21 -17 31 -17 27 0 32 -12 8 -24 -32 -16
-52 -57 -44 -89 8 -35 46 -60 75 -49 21 8 21 8 -9 30 -16 12 -30 31 -30 42 0
21 35 50 60 50 29 0 60 -43 60 -84 0 -86 -127 -143 -227 -101 -64 27 -69 37
-31 54 19 10 34 25 36 37 3 20 -1 21 -48 16 -51 -5 -51 -5 -105 51 -46 47 -56
53 -70 43 -14 -10 -15 -18 -6 -52 18 -66 14 -109 -15 -143 -22 -27 -24 -32 -9
-37 10 -4 25 2 39 15 29 27 37 13 29 -50 -8 -60 -39 -118 -69 -129 -33 -13
-99 -13 -146 1 -37 10 -52 29 -25 29 17 0 53 38 44 46 -4 4 -20 1 -37 -6 -38
-16 -83 -7 -132 25 -69 46 -97 23 -53 -43 35 -52 42 -109 21 -151 -16 -29 -16
-32 0 -38 12 -4 26 4 45 25 l28 31 12 -36 c32 -98 -48 -233 -139 -233 -30 0
-82 48 -82 75 0 32 27 57 59 53 20 -2 28 -11 36 -35 11 -38 22 -42 34 -11 25
68 -69 119 -125 67 l-22 -20 -4 41 c-2 28 1 44 9 47 18 7 16 48 -2 63 -12 10
-18 10 -30 0 -17 -14 -20 -46 -6 -54 5 -3 9 -31 10 -62 l0 -57 -28 45 c-30 47
-47 58 -86 58 -34 0 -61 -44 -44 -71 7 -12 12 -12 29 -1 29 18 64 -5 120 -78
60 -78 78 -90 131 -90 97 0 163 83 164 207 0 80 5 82 28 8 31 -99 31 -112 2
-147 -23 -27 -26 -37 -20 -78 5 -37 3 -51 -14 -71 -19 -24 -20 -24 -50 -6 -28
16 -31 16 -31 2 0 -53 60 -84 116 -60 26 11 34 20 34 39 0 51 18 25 24 -37 10
-91 36 -196 58 -240 27 -53 85 -115 129 -138 76 -38 173 -18 204 42 18 34 13
63 -18 96 -22 25 -47 29 -78 13 -32 -18 -23 -33 15 -26 62 12 89 -44 40 -83
-57 -45 -115 -13 -139 77 -42 152 -65 179 -126 148 -17 -9 -33 -16 -35 -16 -3
0 -22 88 -28 132 l-5 38 25 -16 c29 -20 87 -13 115 12 19 17 27 74 10 74 -5 0
-15 -10 -23 -21 -24 -37 -54 -17 -79 52 -13 36 -32 67 -48 78 -20 15 -30 34
-40 82 -7 35 -22 80 -32 102 -11 21 -19 41 -17 43 2 2 49 -42 103 -96 55 -55
103 -100 107 -100 24 0 -2 34 -89 118 -54 52 -89 92 -78 89 111 -29 171 -52
192 -74 25 -24 90 -53 119 -53 17 0 20 105 4 115 -20 12 -31 86 -24 162 l7 76
49 -99 c62 -124 76 -146 88 -139 6 4 -12 47 -39 98 -28 51 -57 110 -66 132
l-17 39 39 -35 c21 -19 64 -49 95 -67 41 -24 57 -39 61 -60 4 -17 24 -40 57
-65 42 -32 51 -43 48 -65 -2 -19 -10 -28 -25 -30 -28 -4 -29 -18 -4 -32 47
-24 106 33 99 95 -2 19 0 35 4 35 11 0 98 -45 122 -63 19 -14 19 -15 -7 -47
-15 -17 -27 -37 -27 -44 0 -19 33 -50 108 -100 85 -56 103 -90 79 -141 -18
-39 -54 -53 -86 -35 -25 13 -26 31 -6 70 13 25 13 30 2 30 -21 0 -47 -33 -47
-59 0 -29 52 -81 81 -81 34 0 85 37 103 74 38 81 6 198 -79 280 -27 26 -90 67
-155 101 -109 55 -131 71 -87 60 15 -4 32 1 50 15 33 26 38 87 9 113 -28 26
-38 20 -34 -18 4 -30 1 -35 -23 -41 -17 -4 -40 -1 -61 10 -40 19 -77 21 -102
5 -21 -13 -81 13 -145 64 -45 35 -44 44 3 21 18 -9 63 -19 99 -21 82 -5 144
22 173 77 27 50 18 96 -32 169 -60 90 -68 116 -40 146 22 23 22 23 2 34 -27
14 -33 14 -60 -5z m-262 -524 c0 -77 -3 -92 -17 -97 -10 -3 -30 -17 -44 -30
l-26 -24 -84 28 -84 27 78 7 c55 5 84 12 99 25 24 21 68 110 68 137 0 9 2 17
5 17 3 0 5 -41 5 -90z"/>
<path d="M2525 1527 c0 -91 -3 -108 -27 -153 -15 -28 -39 -66 -54 -83 -16 -20
-23 -36 -18 -41 13 -13 92 106 115 172 10 29 18 71 19 93 0 44 -17 115 -28
115 -4 0 -7 -46 -7 -103z"/>
<path d="M3851 1593 c-16 -55 -13 -111 8 -171 23 -66 102 -185 115 -172 5 5
-2 21 -18 41 -15 17 -39 55 -54 83 -24 45 -27 62 -27 153 0 57 -3 103 -7 103
-4 0 -12 -17 -17 -37z"/>
<path d="M1851 1597 c-8 -10 -7 -18 2 -31 11 -14 15 -15 31 -3 12 9 17 20 13
31 -8 19 -30 21 -46 3z"/>
<path d="M4503 1594 c-4 -11 1 -22 13 -31 16 -12 20 -11 31 3 9 13 10 21 2 31
-16 18 -38 16 -46 -3z"/>
<path d="M1780 1565 c-14 -17 -7 -43 15 -51 19 -8 45 13 45 36 0 16 -18 30
-40 30 -4 0 -13 -7 -20 -15z"/>
<path d="M4572 1571 c-18 -11 -12 -41 10 -55 14 -8 22 -7 35 7 29 29 -10 71
-45 48z"/>
<path d="M1712 1528 c-17 -17 -15 -45 3 -52 34 -13 66 24 44 50 -14 17 -31 18
-47 2z"/>
<path d="M1890 1527 c-33 -16 -37 -56 -10 -88 l20 -24 -2 30 c-3 27 0 30 29
33 65 6 129 -54 88 -84 -21 -15 -11 -36 13 -27 58 20 71 86 26 128 -44 41
-118 55 -164 32z"/>
<path d="M4404 1530 c-95 -29 -115 -133 -32 -163 24 -9 34 12 13 27 -41 30 23
90 88 84 29 -3 32 -6 29 -33 l-2 -30 20 24 c24 27 26 64 5 81 -19 16 -83 21
-121 10z"/>
<path d="M4641 1526 c-22 -26 10 -63 44 -50 18 7 20 35 3 52 -16 16 -33 15
-47 -2z"/>
<path d="M2130 1475 c-11 -13 -11 -19 2 -32 17 -16 38 -10 38 11 0 8 -6 19
-14 25 -10 9 -16 8 -26 -4z"/>
<path d="M4241 1476 c-14 -16 -9 -46 7 -46 5 0 15 7 22 16 11 12 11 18 -2 30
-13 13 -16 13 -27 0z"/>
<path d="M2127 1404 c-4 -4 -7 -18 -7 -31 0 -18 5 -23 26 -23 22 0 25 4 22 27
-3 27 -26 41 -41 27z"/>
<path d="M4237 1404 c-4 -4 -7 -18 -7 -31 0 -18 5 -23 26 -23 22 0 25 4 22 27
-3 27 -26 41 -41 27z"/>
<path d="M2295 1341 c-3 -5 2 -17 11 -26 15 -14 19 -15 32 -2 8 8 11 20 8 26
-9 13 -43 15 -51 2z"/>
<path d="M4054 1339 c-3 -6 0 -18 8 -26 13 -13 17 -12 32 2 9 9 14 21 11 26
-8 13 -42 11 -51 -2z"/>
<path d="M2583 1305 c-38 -19 -80 -46 -93 -60 -30 -32 -7 -33 31 -1 32 28 114
60 174 70 36 6 107 -7 158 -29 9 -4 17 -3 17 3 0 20 -98 52 -158 52 -48 0 -73
-7 -129 -35z"/>
<path d="M3036 1317 c-26 -39 -61 -48 -178 -45 -98 3 -109 1 -138 -20 l-32
-24 -14 21 c-31 43 -42 26 -49 -76 -7 -83 -5 -101 10 -130 54 -100 197 -101
278 -1 33 41 45 104 27 138 -17 31 -31 7 -24 -40 14 -95 -119 -175 -206 -124
-32 19 -60 63 -60 94 0 34 28 78 61 95 28 15 33 15 55 0 31 -20 30 -72 -1 -89
-11 -6 -22 -12 -24 -13 -10 -6 34 -43 50 -43 26 0 59 48 59 85 0 41 -34 85
-66 85 -13 0 -24 5 -24 10 0 16 40 12 133 -16 76 -22 92 -24 118 -14 46 19 72
83 50 119 -7 11 -12 8 -25 -12z"/>
<path d="M3335 1316 c-10 -39 15 -90 53 -105 27 -11 42 -9 119 13 93 28 133
32 133 16 0 -5 -11 -10 -24 -10 -32 0 -66 -44 -66 -85 0 -37 33 -85 59 -85 16
0 60 37 50 43 -2 1 -13 7 -24 13 -31 17 -32 69 -1 89 22 15 27 15 55 0 33 -17
61 -61 61 -95 0 -31 -28 -75 -60 -94 -87 -51 -220 29 -206 124 7 47 -7 71 -24
40 -18 -34 -6 -97 27 -138 81 -100 224 -99 278 1 15 29 17 47 10 130 -7 102
-18 119 -49 76 l-14 -21 -32 24 c-29 21 -40 23 -141 20 -117 -3 -139 3 -176
47 l-21 26 -7 -29z"/>
<path d="M3578 1318 c-27 -11 -48 -25 -48 -30 0 -6 8 -7 18 -3 50 22 121 35
157 29 60 -10 142 -42 174 -70 38 -32 61 -31 31 1 -13 14 -55 41 -93 60 -85
43 -163 47 -239 13z"/>
<path d="M2125 1314 c-14 -14 -14 -19 -2 -38 18 -27 70 -29 75 -3 2 10 -7 26
-20 37 -28 24 -32 24 -53 4z"/>
<path d="M2227 1323 c-25 -24 12 -64 39 -42 23 19 17 49 -9 49 -13 0 -27 -3
-30 -7z"/>
<path d="M3080 1322 c0 -4 7 -25 14 -47 13 -38 46 -63 84 -65 16 0 15 28 -2
58 -12 22 -96 69 -96 54z"/>
<path d="M3276 1310 c-40 -18 -65 -50 -66 -82 0 -22 10 -22 53 -4 25 10 35 23
45 56 7 23 12 44 10 45 -2 1 -21 -6 -42 -15z"/>
<path d="M4120 1312 c0 -25 23 -44 44 -36 28 11 16 48 -16 52 -22 3 -28 -1
-28 -16z"/>
<path d="M4222 1310 c-13 -11 -22 -27 -20 -37 5 -26 57 -24 75 3 12 19 12 24
-2 38 -21 20 -25 20 -53 -4z"/>
<path d="M2313 1255 c-31 -21 -45 -51 -38 -75 8 -26 25 -26 25 0 0 15 7 20 26
20 38 0 64 -18 80 -55 18 -45 18 -44 -13 -56 l-28 -11 23 -11 c39 -18 76 2 80
42 4 44 -12 81 -51 119 -40 39 -75 48 -104 27z"/>
<path d="M4024 1260 c-27 -11 -82 -75 -90 -104 -3 -13 -4 -36 -2 -52 4 -35 44
-53 80 -37 l23 11 -27 11 c-32 12 -32 11 -14 56 16 37 42 55 80 55 19 0 26 -5
26 -20 0 -26 17 -26 25 0 7 23 -8 54 -37 74 -25 18 -34 19 -64 6z"/>
<path d="M2067 1173 c-4 -3 -7 -11 -7 -17 0 -6 5 -5 12 2 6 6 9 14 7 17 -3 3
-9 2 -12 -2z"/>
<path d="M4320 1171 c0 -5 5 -13 10 -16 6 -3 10 -2 10 4 0 5 -4 13 -10 16 -5
3 -10 2 -10 -4z"/>
<path d="M2510 1125 c-25 -30 10 -61 38 -33 17 17 15 26 -7 37 -14 8 -22 7
-31 -4z"/>
<path d="M3854 1125 c-18 -13 -18 -15 -2 -31 18 -18 48 -13 48 9 0 26 -25 38
-46 22z"/>
<path d="M2490 1055 c-18 -22 -8 -50 19 -50 32 0 49 28 32 49 -17 20 -35 20
-51 1z"/>
<path d="M3859 1054 c-17 -21 0 -49 32 -49 27 0 37 28 19 50 -16 19 -34 19
-51 -1z"/>
<path d="M1674 952 c-6 -4 -16 -17 -23 -30 -15 -28 -4 -46 38 -60 32 -11 43
-7 60 26 23 43 -33 92 -75 64z"/>
<path d="M4672 953 c-23 -9 -34 -41 -21 -65 17 -33 28 -37 60 -26 42 14 53 32
38 60 -19 36 -42 45 -77 31z"/>
<path d="M1586 734 c-88 -141 -164 -225 -227 -252 l-42 -18 2 -72 c3 -77 -22
-196 -65 -310 -14 -35 -23 -66 -22 -67 2 -2 41 26 88 61 97 74 219 139 279
149 41 7 41 7 41 50 0 64 56 164 165 294 128 153 120 160 -35 26 -76 -66 -193
-135 -206 -122 -15 14 26 171 66 256 23 49 40 98 38 110 -2 16 -22 -10 -82
-105z"/>
<path d="M4730 838 c0 -14 18 -64 41 -111 39 -82 80 -240 65 -254 -13 -13
-130 56 -206 122 -144 124 -165 127 -64 9 141 -166 194 -256 194 -331 0 -41 1
-41 41 -48 60 -10 182 -75 279 -149 47 -35 86 -63 88 -61 1 1 -8 32 -22 67
-43 114 -68 233 -65 310 l2 72 -42 18 c-61 26 -138 109 -216 234 -99 159 -95
154 -95 122z"/>
<path d="M1750 801 c0 -18 39 -51 60 -51 25 0 25 6 3 29 -22 23 -63 37 -63 22z"/>
<path d="M4620 803 c-16 -6 -50 -38 -50 -48 0 -13 42 -3 60 15 31 31 26 46
-10 33z"/>
<path d="M1900 770 c-25 -25 -25 -31 1 -64 24 -30 49 -33 72 -8 23 26 21 58
-5 76 -30 21 -44 20 -68 -4z"/>
<path d="M4432 774 c-27 -18 -29 -55 -4 -77 26 -24 47 -21 71 9 26 33 26 39 1
64 -24 24 -38 25 -68 4z"/>
</g>
</svg>
